%TF.GenerationSoftware,KiCad,Pcbnew,10.0.1*%
%TF.CreationDate,2026-08-18T09:52:42+02:00*%
%TF.ProjectId,octessera,6f637465-7373-4657-9261-2e6b69636164,rev?*%
%TF.SameCoordinates,Original*%
%TF.FileFunction,Copper,L2,Bot*%
%TF.FilePolarity,Positive*%
%FSLAX46Y46*%
G04 Gerber Fmt 4.6, Leading zero omitted, Abs format (unit mm)*
G04 Created by KiCad (PCBNEW 10.0.1) date 2026-08-18 09:52:42*
%MOMM*%
%LPD*%
G01*
G04 APERTURE LIST*
G04 Aperture macros list*
%AMRoundRect*
0 Rectangle with rounded corners*
0 $1 Rounding radius*
0 $2 $3 $4 $5 $6 $7 $8 $9 X,Y pos of 4 corners*
0 Add a 4 corners polygon primitive as box body*
4,1,4,$2,$3,$4,$5,$6,$7,$8,$9,$2,$3,0*
0 Add four circle primitives for the rounded corners*
1,1,$1+$1,$2,$3*
1,1,$1+$1,$4,$5*
1,1,$1+$1,$6,$7*
1,1,$1+$1,$8,$9*
0 Add four rect primitives between the rounded corners*
20,1,$1+$1,$2,$3,$4,$5,0*
20,1,$1+$1,$4,$5,$6,$7,0*
20,1,$1+$1,$6,$7,$8,$9,0*
20,1,$1+$1,$8,$9,$2,$3,0*%
G04 Aperture macros list end*
%TA.AperFunction,ComponentPad*%
%ADD10R,1.508000X1.508000*%
%TD*%
%TA.AperFunction,ComponentPad*%
%ADD11C,1.508000*%
%TD*%
%TA.AperFunction,ComponentPad*%
%ADD12C,3.200000*%
%TD*%
%TA.AperFunction,ComponentPad*%
%ADD13RoundRect,0.250001X0.949999X-0.949999X0.949999X0.949999X-0.949999X0.949999X-0.949999X-0.949999X0*%
%TD*%
%TA.AperFunction,ComponentPad*%
%ADD14C,2.400000*%
%TD*%
%TA.AperFunction,ComponentPad*%
%ADD15C,1.930400*%
%TD*%
%TA.AperFunction,ComponentPad*%
%ADD16R,2.000000X2.000000*%
%TD*%
%TA.AperFunction,ComponentPad*%
%ADD17C,2.000000*%
%TD*%
%TA.AperFunction,ComponentPad*%
%ADD18R,2.000000X3.200000*%
%TD*%
%TA.AperFunction,ComponentPad*%
%ADD19C,1.778000*%
%TD*%
%TA.AperFunction,ComponentPad*%
%ADD20C,1.700000*%
%TD*%
%TA.AperFunction,ComponentPad*%
%ADD21C,1.676400*%
%TD*%
%TA.AperFunction,ComponentPad*%
%ADD22O,1.600000X1.000000*%
%TD*%
%TA.AperFunction,ComponentPad*%
%ADD23RoundRect,0.250000X-0.550000X-0.550000X0.550000X-0.550000X0.550000X0.550000X-0.550000X0.550000X0*%
%TD*%
%TA.AperFunction,ComponentPad*%
%ADD24C,1.600000*%
%TD*%
%TA.AperFunction,ViaPad*%
%ADD25C,0.600000*%
%TD*%
%TA.AperFunction,Conductor*%
%ADD26C,1.500000*%
%TD*%
%TA.AperFunction,Conductor*%
%ADD27C,0.200000*%
%TD*%
G04 APERTURE END LIST*
D10*
%TO.P,U1,1,3V3_1_1*%
%TO.N,unconnected-(U1-3V3_1-Pad1)*%
X23839200Y-113743900D03*
D11*
%TO.P,U1,2,5V_2_2*%
%TO.N,+5V*%
X23839200Y-111203900D03*
%TO.P,U1,3,GPIO2/SDA1_3*%
%TO.N,Net-(J1-SDA)*%
X26379200Y-113743900D03*
%TO.P,U1,4,5V_4_4*%
%TO.N,+5V*%
X26379200Y-111203900D03*
%TO.P,U1,5,GPIO3/SCL_5*%
%TO.N,Net-(J1-SCL)*%
X28919200Y-113743900D03*
%TO.P,U1,6,GND_6_6*%
%TO.N,GND*%
X28919200Y-111203900D03*
%TO.P,U1,7,GPIO4/GPIO_GCLK_7*%
%TO.N,Net-(U1-GPIO4{slash}GPIO_GCLK)*%
X31459200Y-113743900D03*
%TO.P,U1,8,GPIO14/TXD0_8*%
%TO.N,Net-(U1-GPIO14{slash}TXD0)*%
X31459200Y-111203900D03*
%TO.P,U1,9,GND_9_9*%
%TO.N,GND*%
X33999200Y-113743900D03*
%TO.P,U1,10,GPIO15/RXD0_10*%
%TO.N,Net-(J1-INT)*%
X33999200Y-111203900D03*
%TO.P,U1,11,GPIO17/GPIO_GEN0_11*%
%TO.N,Net-(U1-GPIO17{slash}GPIO_GEN0)*%
X36539200Y-113743900D03*
%TO.P,U1,12,GPIO18/GPIO_GEN1_12*%
%TO.N,Net-(U1-GPIO18{slash}GPIO_GEN1)*%
X36539200Y-111203900D03*
%TO.P,U1,13,GPIO27/GPIO_GEN2_13*%
%TO.N,Net-(U1-GPIO27{slash}GPIO_GEN2)*%
X39079200Y-113743900D03*
%TO.P,U1,14,GND_14_14*%
%TO.N,GND*%
X39079200Y-111203900D03*
%TO.P,U1,15,GPIO22/GPIO_GEN3_15*%
%TO.N,Net-(U1-GPIO22{slash}GPIO_GEN3)*%
X41619200Y-113743900D03*
%TO.P,U1,16,GPIO23/GPIO_GEN4_16*%
%TO.N,Net-(U1-GPIO23{slash}GPIO_GEN4)*%
X41619200Y-111203900D03*
%TO.P,U1,17,3V3_17_17*%
%TO.N,unconnected-(U1-3V3_17-Pad17)*%
X44159200Y-113743900D03*
%TO.P,U1,18,GPIO24/GPIO_GEN5_18*%
%TO.N,Net-(U1-GPIO24{slash}GPIO_GEN5)*%
X44159200Y-111203900D03*
%TO.P,U1,19,GPIO10/SPI_MOSI_19*%
%TO.N,Net-(U1-GPIO10{slash}SPI_MOSI)*%
X46699200Y-113743900D03*
%TO.P,U1,20,GND_20_20*%
%TO.N,GND*%
X46699200Y-111203900D03*
%TO.P,U1,21,GPIO9/SPI_MISO_21*%
%TO.N,Net-(U1-GPIO9{slash}SPI_MISO)*%
X49239200Y-113743900D03*
%TO.P,U1,22,GPIO25/GPIO_GEN6_22*%
%TO.N,Net-(U1-GPIO25{slash}GPIO_GEN6)*%
X49239200Y-111203900D03*
%TO.P,U1,23,GPIO11/SPI_SCLK_23*%
%TO.N,Net-(U1-GPIO11{slash}SPI_SCLK)*%
X51779200Y-113743900D03*
%TO.P,U1,24,GPIO8/SPI_~{CE0}_24*%
%TO.N,Net-(U1-GPIO8{slash}SPI_~{CE0})*%
X51779200Y-111203900D03*
%TO.P,U1,25,GND_25_25*%
%TO.N,GND*%
X54319200Y-113743900D03*
%TO.P,U1,26,GPIO7/SPI_~{CE1}_26*%
%TO.N,Net-(U1-GPIO7{slash}SPI_~{CE1})*%
X54319200Y-111203900D03*
%TO.P,U1,27,ID_SD_27*%
%TO.N,unconnected-(U1-ID_SD-Pad27)*%
X56859200Y-113743900D03*
%TO.P,U1,28,ID_SC_28*%
%TO.N,unconnected-(U1-ID_SC-Pad28)*%
X56859200Y-111203900D03*
%TO.P,U1,29,GPIO5_29*%
%TO.N,Net-(U1-GPIO5)*%
X59399200Y-113743900D03*
%TO.P,U1,30,GND_30_30*%
%TO.N,GND*%
X59399200Y-111203900D03*
%TO.P,U1,31,GPIO6_31*%
%TO.N,Net-(U1-GPIO6)*%
X61939200Y-113743900D03*
%TO.P,U1,32,GPIO12_32*%
%TO.N,Net-(U1-GPIO12)*%
X61939200Y-111203900D03*
%TO.P,U1,33,GPIO13_33*%
%TO.N,Net-(U1-GPIO13)*%
X64479200Y-113743900D03*
%TO.P,U1,34,GND_34_34*%
%TO.N,GND*%
X64479200Y-111203900D03*
%TO.P,U1,35,GPIO19_35*%
%TO.N,Net-(U1-GPIO19)*%
X67019200Y-113743900D03*
%TO.P,U1,36,GPIO16_36*%
%TO.N,Net-(U1-GPIO16)*%
X67019200Y-111203900D03*
%TO.P,U1,37,GPIO26_37*%
%TO.N,Net-(U1-GPIO26)*%
X69559200Y-113743900D03*
%TO.P,U1,38,GPIO20_38*%
%TO.N,Net-(U1-GPIO20)*%
X69559200Y-111203900D03*
%TO.P,U1,39,GND_39_39*%
%TO.N,GND*%
X72099200Y-113743900D03*
%TO.P,U1,40,GPIO21_40*%
%TO.N,Net-(U1-GPIO21)*%
X72099200Y-111203900D03*
D12*
%TO.P,U1,MH1*%
%TO.N,N/C*%
X18969200Y-112473900D03*
%TO.P,U1,MH2*%
X18969200Y-135473900D03*
%TO.P,U1,MH3*%
X76969200Y-112473900D03*
%TO.P,U1,MH4*%
X76969200Y-135473900D03*
%TD*%
D13*
%TO.P,D1,1,K_1*%
%TO.N,+5V*%
X35400000Y-83360000D03*
D14*
%TO.P,D1,2,A_2*%
%TO.N,GND*%
X35400000Y-73200000D03*
%TD*%
D15*
%TO.P,U2,+,VIN_+*%
%TO.N,+5V*%
X57904000Y-26340000D03*
%TO.P,U2,3V,3VO_3V*%
%TO.N,unconnected-(U2-3VO-Pad3V)*%
X57904000Y-28880000D03*
%TO.P,U2,CD,CD_CD*%
%TO.N,Net-(U1-GPIO20)*%
X57904000Y-31420000D03*
%TO.P,U2,CL,SCK_CL*%
%TO.N,Net-(U1-GPIO11{slash}SPI_SCLK)*%
X57904000Y-46660000D03*
%TO.P,U2,DC,DC_DC*%
%TO.N,Net-(U1-GPIO23{slash}GPIO_GEN4)*%
X57904000Y-44120000D03*
%TO.P,U2,G,GND_G*%
%TO.N,GND*%
X57904000Y-23800000D03*
D12*
%TO.P,U2,MH1*%
%TO.N,N/C*%
X95750000Y-17450000D03*
%TO.P,U2,MH2*%
X95750000Y-55550000D03*
%TO.P,U2,MH3*%
X58920000Y-55550000D03*
%TO.P,U2,MH4*%
X58920000Y-17450000D03*
D15*
%TO.P,U2,OC,OLEDCS_OC*%
%TO.N,Net-(U1-GPIO8{slash}SPI_~{CE0})*%
X57904000Y-39040000D03*
%TO.P,U2,R,RESET_R*%
%TO.N,Net-(U1-GPIO16)*%
X57904000Y-41580000D03*
%TO.P,U2,SC,SDCS_SC*%
%TO.N,Net-(U1-GPIO7{slash}SPI_~{CE1})*%
X57904000Y-36500000D03*
%TO.P,U2,SI,MOSI_SI*%
%TO.N,Net-(U1-GPIO10{slash}SPI_MOSI)*%
X57904000Y-49200000D03*
%TO.P,U2,SO,MISO_SO*%
%TO.N,Net-(U1-GPIO9{slash}SPI_MISO)*%
X57904000Y-33960000D03*
%TD*%
D16*
%TO.P,SW3,A,A_A*%
%TO.N,Net-(U1-GPIO27{slash}GPIO_GEN2)*%
X40350000Y-105650000D03*
D17*
%TO.P,SW3,B,B_B*%
%TO.N,Net-(U1-GPIO4{slash}GPIO_GCLK)*%
X45350000Y-105650000D03*
%TO.P,SW3,C,C_C*%
%TO.N,GND*%
X42850000Y-105650000D03*
D18*
%TO.P,SW3,MP*%
%TO.N,N/C*%
X37250000Y-98150000D03*
X48450000Y-98150000D03*
D17*
%TO.P,SW3,S1,S1_S1*%
%TO.N,Net-(U1-GPIO14{slash}TXD0)*%
X45350000Y-91150000D03*
%TO.P,SW3,S2,S2_S2*%
%TO.N,GND*%
X40350000Y-91150000D03*
%TD*%
D19*
%TO.P,U5,-,-_TOP_-*%
%TO.N,GND*%
X100160000Y-99930000D03*
X117940000Y-99930000D03*
%TO.P,U5,3,3_TOP_3*%
%TO.N,Net-(U5-3_BOT)*%
X100160000Y-97390000D03*
X117940000Y-97390000D03*
%TO.P,U5,C,C_TOP_C*%
%TO.N,Net-(J1-SCL)*%
X100160000Y-102470000D03*
X117940000Y-102470000D03*
%TO.P,U5,D,D_TOP_D*%
%TO.N,Net-(J1-SDA)*%
X100160000Y-105010000D03*
X117940000Y-105010000D03*
%TO.P,U5,INT,INT_TOP_INT*%
%TO.N,Net-(J1-INT)*%
X100160000Y-107550000D03*
X117940000Y-107550000D03*
D12*
%TO.P,U5,MH1*%
%TO.N,N/C*%
X117305000Y-82150000D03*
%TO.P,U5,MH2*%
X117305000Y-120250000D03*
%TO.P,U5,MH3*%
X100795000Y-82150000D03*
%TO.P,U5,MH4*%
X100795000Y-120250000D03*
D19*
%TO.P,U5,VIN,VIN_TOP_VIN*%
%TO.N,+5V*%
X100160000Y-94850000D03*
X117940000Y-94850000D03*
%TD*%
D20*
%TO.P,J1,1,INT_1*%
%TO.N,Net-(J1-INT)*%
X109550000Y-53250000D03*
%TO.P,J1,2,VIN_2*%
%TO.N,+5V*%
X109550000Y-50710000D03*
%TO.P,J1,3,GND_3*%
%TO.N,GND*%
X109550000Y-48170000D03*
%TO.P,J1,4,SCL_4*%
%TO.N,Net-(J1-SCL)*%
X109550000Y-45630000D03*
%TO.P,J1,5,SDA_5*%
%TO.N,Net-(J1-SDA)*%
X109550000Y-43090000D03*
%TD*%
D16*
%TO.P,SW2,A,A_A*%
%TO.N,Net-(U1-GPIO13)*%
X57350000Y-82550000D03*
D17*
%TO.P,SW2,B,B_B*%
%TO.N,Net-(U1-GPIO25{slash}GPIO_GEN6)*%
X62350000Y-82550000D03*
%TO.P,SW2,C,C_C*%
%TO.N,GND*%
X59850000Y-82550000D03*
D18*
%TO.P,SW2,MP*%
%TO.N,N/C*%
X54250000Y-75050000D03*
X65450000Y-75050000D03*
D17*
%TO.P,SW2,S1,S1_S1*%
%TO.N,Net-(U1-GPIO17{slash}GPIO_GEN0)*%
X62350000Y-68050000D03*
%TO.P,SW2,S2,S2_S2*%
%TO.N,GND*%
X57350000Y-68050000D03*
%TD*%
D16*
%TO.P,SW4,A,A_A*%
%TO.N,Net-(U1-GPIO26)*%
X74350000Y-105650000D03*
D17*
%TO.P,SW4,B,B_B*%
%TO.N,Net-(U1-GPIO24{slash}GPIO_GEN5)*%
X79350000Y-105650000D03*
%TO.P,SW4,C,C_C*%
%TO.N,GND*%
X76850000Y-105650000D03*
D18*
%TO.P,SW4,MP*%
%TO.N,N/C*%
X71250000Y-98150000D03*
X82450000Y-98150000D03*
D17*
%TO.P,SW4,S1,S1_S1*%
%TO.N,Net-(U1-GPIO22{slash}GPIO_GEN3)*%
X79350000Y-91150000D03*
%TO.P,SW4,S2,S2_S2*%
%TO.N,GND*%
X74350000Y-91150000D03*
%TD*%
D19*
%TO.P,U4,3V,3V_3V*%
%TO.N,unconnected-(U4-Pad3V)*%
X24270000Y-19680000D03*
D21*
%TO.P,U4,BCK,BCK_BCK*%
%TO.N,Net-(U1-GPIO18{slash}GPIO_GEN1)*%
X29350000Y-34920000D03*
D19*
%TO.P,U4,DE,DE_DE*%
%TO.N,unconnected-(U4-PadDE)*%
X36970000Y-19680000D03*
D21*
%TO.P,U4,DIN,DIN_DIN*%
%TO.N,Net-(U1-GPIO21)*%
X31890000Y-34920000D03*
D19*
%TO.P,U4,FIL,FIL_FIL*%
%TO.N,unconnected-(U4-PadFIL)*%
X34430000Y-19680000D03*
%TO.P,U4,FM,FM_FM*%
%TO.N,unconnected-(U4-PadFM)*%
X26810000Y-19680000D03*
D21*
%TO.P,U4,G,G_G*%
%TO.N,unconnected-(U4-PadG)*%
X24270000Y-34920000D03*
%TO.P,U4,GND,GND_GND*%
%TO.N,GND*%
X36970000Y-34920000D03*
%TO.P,U4,LOUT,LOUT_LOUT*%
%TO.N,unconnected-(U4-PadLOUT)*%
X26810000Y-34920000D03*
D19*
%TO.P,U4,MCK,MCK_MCK*%
%TO.N,unconnected-(U4-PadMCK)*%
X31890000Y-19680000D03*
D12*
%TO.P,U4,MH1*%
%TO.N,N/C*%
X43320000Y-34920000D03*
%TO.P,U4,MH2*%
X17920000Y-34920000D03*
%TO.P,U4,MH3*%
X43320000Y-19680000D03*
%TO.P,U4,MH4*%
X17920000Y-19680000D03*
D19*
%TO.P,U4,MU,MU_MU*%
%TO.N,unconnected-(U4-PadMU)*%
X29350000Y-19680000D03*
D21*
%TO.P,U4,ROUT,ROUT_ROUT*%
%TO.N,unconnected-(U4-PadROUT)*%
X21730000Y-34920000D03*
%TO.P,U4,VIN,VIN_VIN*%
%TO.N,+5V*%
X39510000Y-34920000D03*
%TO.P,U4,WSEL,WSEL_WSEL*%
%TO.N,Net-(U1-GPIO19)*%
X34430000Y-34920000D03*
%TD*%
D16*
%TO.P,SW1,A,A_A*%
%TO.N,Net-(U1-GPIO5)*%
X27050000Y-63750000D03*
D17*
%TO.P,SW1,B,B_B*%
%TO.N,Net-(U1-GPIO6)*%
X32050000Y-63750000D03*
%TO.P,SW1,C,C_C*%
%TO.N,GND*%
X29550000Y-63750000D03*
D18*
%TO.P,SW1,MP*%
%TO.N,N/C*%
X23950000Y-56250000D03*
X35150000Y-56250000D03*
D17*
%TO.P,SW1,S1,S1_S1*%
%TO.N,Net-(U1-GPIO12)*%
X32050000Y-49250000D03*
%TO.P,SW1,S2,S2_S2*%
%TO.N,GND*%
X27050000Y-49250000D03*
%TD*%
D15*
%TO.P,U3,CC1,CC1_CC1*%
%TO.N,unconnected-(U3-PadCC1)*%
X26830000Y-88950000D03*
%TO.P,U3,CC2,CC2_CC2*%
%TO.N,unconnected-(U3-PadCC2)*%
X26830000Y-78790000D03*
%TO.P,U3,D+,D+_D+*%
%TO.N,unconnected-(U3-PadD+)*%
X26830000Y-83870000D03*
%TO.P,U3,D-,D-_D-*%
%TO.N,unconnected-(U3-PadD-)*%
X26830000Y-86410000D03*
%TO.P,U3,GND,GND_GND*%
%TO.N,GND*%
X26830000Y-96570000D03*
D22*
%TO.P,U3,M1*%
%TO.N,N/C*%
X22180000Y-92000000D03*
%TO.P,U3,M2*%
X22180000Y-83360000D03*
%TO.P,U3,M3*%
X18000000Y-92000000D03*
%TO.P,U3,M4*%
X18000000Y-83360000D03*
D12*
%TO.P,U3,MH1*%
X17940000Y-80060000D03*
%TO.P,U3,MH2*%
X17940000Y-95300000D03*
D15*
%TO.P,U3,SBU1,SBU1_SBU1*%
%TO.N,unconnected-(U3-PadSBU1)*%
X26830000Y-81330000D03*
%TO.P,U3,SBU2,SBU2_SBU2*%
%TO.N,unconnected-(U3-PadSBU2)*%
X26830000Y-91490000D03*
%TO.P,U3,VBUS,VBUS_VBUS*%
%TO.N,+5V*%
X26830000Y-94030000D03*
%TD*%
D23*
%TO.P,C1,1*%
%TO.N,+5V*%
X105250000Y-33250000D03*
D24*
%TO.P,C1,2*%
%TO.N,GND*%
X108750000Y-33250000D03*
%TD*%
D25*
%TO.N,Net-(U1-GPIO17{slash}GPIO_GEN0)*%
X42906100Y-73903300D03*
%TO.N,Net-(U1-GPIO5)*%
X33185000Y-110148200D03*
%TO.N,Net-(U1-GPIO6)*%
X63911300Y-92289700D03*
%TO.N,Net-(U1-GPIO12)*%
X64402200Y-59749500D03*
%TO.N,Net-(U1-GPIO13)*%
X55995900Y-103246500D03*
%TO.N,Net-(U1-GPIO19)*%
X66135600Y-50874900D03*
%TO.N,Net-(U1-GPIO21)*%
X72103600Y-62707700D03*
X70740900Y-109687800D03*
%TD*%
%TO.N,+5V*%
D26*
X27056600Y-94030000D02*
X26830000Y-94030000D01*
X39510000Y-34920000D02*
X48090000Y-26340000D01*
X105250000Y-33250000D02*
X98340000Y-26340000D01*
X35400000Y-83360000D02*
X35400000Y-85686600D01*
X35400000Y-85686600D02*
X27056600Y-94030000D01*
X23839200Y-111203900D02*
X26379200Y-111203900D01*
X48090000Y-26340000D02*
X57904000Y-26340000D01*
X98340000Y-26340000D02*
X57904000Y-26340000D01*
X100160000Y-94850000D02*
X117940000Y-94850000D01*
%TO.N,Net-(J1-SDA)*%
D27*
X100160000Y-105010000D02*
X117940000Y-105010000D01*
X26379200Y-113743900D02*
X28291000Y-115655700D01*
X89514300Y-115655700D02*
X100160000Y-105010000D01*
X28291000Y-115655700D02*
X89514300Y-115655700D01*
%TO.N,Net-(J1-SCL)*%
X100160000Y-102470000D02*
X117940000Y-102470000D01*
X87376000Y-115254000D02*
X100160000Y-102470000D01*
X28919200Y-113743900D02*
X30429300Y-115254000D01*
X30429300Y-115254000D02*
X87376000Y-115254000D01*
%TO.N,GND*%
X47753200Y-110149900D02*
X58345200Y-110149900D01*
X58345200Y-110149900D02*
X59399200Y-111203900D01*
X46699200Y-111203900D02*
X47753200Y-110149900D01*
%TO.N,Net-(U1-GPIO4{slash}GPIO_GCLK)*%
X42725300Y-108274700D02*
X34207700Y-108274700D01*
X32568000Y-109914400D02*
X32568000Y-112635100D01*
X45350000Y-105650000D02*
X42725300Y-108274700D01*
X34207700Y-108274700D02*
X32568000Y-109914400D01*
X32568000Y-112635100D02*
X31459200Y-113743900D01*
%TO.N,Net-(U1-GPIO14{slash}TXD0)*%
X31459200Y-108388900D02*
X31459200Y-111203900D01*
X45350000Y-91150000D02*
X45350000Y-94498100D01*
X45350000Y-94498100D02*
X31459200Y-108388900D01*
%TO.N,Net-(J1-INT)*%
X91652600Y-116057400D02*
X27192600Y-116057400D01*
X100160000Y-107550000D02*
X91652600Y-116057400D01*
X33999200Y-111875700D02*
X33999200Y-111203900D01*
X32729200Y-113994000D02*
X32729200Y-113145700D01*
X27192600Y-116057400D02*
X25254200Y-114119000D01*
X25254200Y-114119000D02*
X25254200Y-113304400D01*
X25254200Y-113304400D02*
X25922900Y-112635700D01*
X31898000Y-114825200D02*
X32729200Y-113994000D01*
X100160000Y-107550000D02*
X117940000Y-107550000D01*
X25922900Y-112635700D02*
X29320300Y-112635700D01*
X30189200Y-113504600D02*
X30189200Y-114068300D01*
X30189200Y-114068300D02*
X30946100Y-114825200D01*
X29320300Y-112635700D02*
X30189200Y-113504600D01*
X32729200Y-113145700D02*
X33999200Y-111875700D01*
X30946100Y-114825200D02*
X31898000Y-114825200D01*
%TO.N,Net-(U1-GPIO17{slash}GPIO_GEN0)*%
X42906100Y-73903300D02*
X43942700Y-72866700D01*
X57533300Y-72866700D02*
X62350000Y-68050000D01*
X43942700Y-72866700D02*
X57533300Y-72866700D01*
%TO.N,Net-(U1-GPIO22{slash}GPIO_GEN3)*%
X42889200Y-110927400D02*
X42889200Y-112473900D01*
X42889200Y-112473900D02*
X41619200Y-113743900D01*
X79350000Y-91150000D02*
X76103400Y-94396600D01*
X59420000Y-94396600D02*
X42889200Y-110927400D01*
X76103400Y-94396600D02*
X59420000Y-94396600D01*
%TO.N,Net-(U1-GPIO24{slash}GPIO_GEN5)*%
X52718300Y-102644800D02*
X44159200Y-111203900D01*
X79350000Y-105650000D02*
X76344800Y-102644800D01*
X76344800Y-102644800D02*
X52718300Y-102644800D01*
%TO.N,Net-(U1-GPIO5)*%
X41202200Y-114832600D02*
X40349200Y-113979600D01*
X35069400Y-111243200D02*
X35069400Y-110735400D01*
X34482200Y-110148200D02*
X33185000Y-110148200D01*
X36514400Y-112688200D02*
X35069400Y-111243200D01*
X35069400Y-110735400D02*
X34482200Y-110148200D01*
X40349200Y-113495900D02*
X39541500Y-112688200D01*
X39541500Y-112688200D02*
X36514400Y-112688200D01*
X40349200Y-113979600D02*
X40349200Y-113495900D01*
X59399200Y-113743900D02*
X58310500Y-114832600D01*
X58310500Y-114832600D02*
X41202200Y-114832600D01*
%TO.N,Net-(U1-GPIO6)*%
X32050000Y-63750000D02*
X32050000Y-63898000D01*
X60441700Y-92289700D02*
X63911300Y-92289700D01*
X32050000Y-63898000D02*
X60441700Y-92289700D01*
%TO.N,Net-(U1-GPIO12)*%
X64402200Y-59749500D02*
X42549500Y-59749500D01*
X42549500Y-59749500D02*
X32050000Y-49250000D01*
%TO.N,Net-(U1-GPIO13)*%
X64479200Y-113743900D02*
X63209200Y-112473900D01*
X63209200Y-110459800D02*
X55995900Y-103246500D01*
X63209200Y-112473900D02*
X63209200Y-110459800D01*
%TO.N,Net-(U1-GPIO19)*%
X66135600Y-50874900D02*
X50384900Y-50874900D01*
X50384900Y-50874900D02*
X34430000Y-34920000D01*
%TO.N,Net-(U1-GPIO21)*%
X62119100Y-52723200D02*
X49693200Y-52723200D01*
X72103600Y-62707700D02*
X62119100Y-52723200D01*
X70740900Y-109845600D02*
X70740900Y-109687800D01*
X72099200Y-111203900D02*
X70740900Y-109845600D01*
X49693200Y-52723200D02*
X31890000Y-34920000D01*
%TO.N,Net-(U5-3_BOT)*%
X100160000Y-97390000D02*
X117940000Y-97390000D01*
%TD*%
%TA.AperFunction,Conductor*%
%TO.N,GND*%
G36*
X35020430Y-112059313D02*
G01*
X35064778Y-112087814D01*
X35655285Y-112678321D01*
X35688770Y-112739644D01*
X35683786Y-112809336D01*
X35655286Y-112853683D01*
X35582314Y-112926655D01*
X35466258Y-113086395D01*
X35376608Y-113262341D01*
X35315589Y-113450136D01*
X35284700Y-113645163D01*
X35284700Y-113842636D01*
X35315589Y-114037663D01*
X35376181Y-114224145D01*
X35376609Y-114225461D01*
X35397073Y-114265623D01*
X35466255Y-114401400D01*
X35506371Y-114456615D01*
X35529850Y-114522422D01*
X35514024Y-114590476D01*
X35463918Y-114639170D01*
X35406052Y-114653500D01*
X33218298Y-114653500D01*
X33151259Y-114633815D01*
X33105504Y-114581011D01*
X33095560Y-114511853D01*
X33124585Y-114448297D01*
X33130617Y-114441819D01*
X33157497Y-114414939D01*
X33209720Y-114362716D01*
X33265776Y-114265623D01*
X33288777Y-114225785D01*
X33329700Y-114073058D01*
X33329700Y-113914943D01*
X33329700Y-113445796D01*
X33349385Y-113378757D01*
X33366015Y-113358119D01*
X34277337Y-112446796D01*
X34326699Y-112416548D01*
X34480755Y-112366493D01*
X34480755Y-112366492D01*
X34480761Y-112366491D01*
X34486251Y-112363694D01*
X34656699Y-112276845D01*
X34656698Y-112276845D01*
X34656701Y-112276844D01*
X34816452Y-112160779D01*
X34889419Y-112087811D01*
X34950738Y-112054329D01*
X35020430Y-112059313D01*
G37*
%TD.AperFunction*%
%TA.AperFunction,Conductor*%
G36*
X53120646Y-111646442D02*
G01*
X53159682Y-111691493D01*
X53213579Y-111797269D01*
X53246258Y-111861405D01*
X53362315Y-112021146D01*
X53501953Y-112160784D01*
X53661694Y-112276841D01*
X53661696Y-112276842D01*
X53661699Y-112276844D01*
X53832156Y-112363697D01*
X53882949Y-112411668D01*
X53899744Y-112479489D01*
X53877207Y-112545624D01*
X53832154Y-112584663D01*
X53661967Y-112671379D01*
X53661960Y-112671383D01*
X53626210Y-112697356D01*
X53626210Y-112697357D01*
X54189791Y-113260937D01*
X54126207Y-113277975D01*
X54012193Y-113343801D01*
X53919101Y-113436893D01*
X53853275Y-113550907D01*
X53836237Y-113614490D01*
X53272657Y-113050910D01*
X53272656Y-113050910D01*
X53246683Y-113086660D01*
X53246679Y-113086667D01*
X53159963Y-113256854D01*
X53111988Y-113307649D01*
X53044167Y-113324444D01*
X52978033Y-113301906D01*
X52938998Y-113256857D01*
X52852144Y-113086399D01*
X52852142Y-113086396D01*
X52852141Y-113086394D01*
X52736084Y-112926653D01*
X52596446Y-112787015D01*
X52436705Y-112670958D01*
X52430319Y-112667704D01*
X52266793Y-112584382D01*
X52216000Y-112536410D01*
X52199205Y-112468589D01*
X52221742Y-112402454D01*
X52266793Y-112363417D01*
X52436701Y-112276844D01*
X52507832Y-112225165D01*
X52596446Y-112160784D01*
X52596448Y-112160781D01*
X52596452Y-112160779D01*
X52736079Y-112021152D01*
X52736081Y-112021148D01*
X52736084Y-112021146D01*
X52852141Y-111861405D01*
X52852143Y-111861402D01*
X52852144Y-111861401D01*
X52938717Y-111691493D01*
X52986690Y-111640700D01*
X53054511Y-111623905D01*
X53120646Y-111646442D01*
G37*
%TD.AperFunction*%
%TA.AperFunction,Conductor*%
G36*
X55660646Y-111646442D02*
G01*
X55699682Y-111691493D01*
X55753579Y-111797269D01*
X55786258Y-111861405D01*
X55902315Y-112021146D01*
X56041953Y-112160784D01*
X56189700Y-112268126D01*
X56201699Y-112276844D01*
X56371604Y-112363416D01*
X56422399Y-112411390D01*
X56439194Y-112479211D01*
X56416656Y-112545346D01*
X56371604Y-112584383D01*
X56318222Y-112611584D01*
X56201695Y-112670958D01*
X56041953Y-112787015D01*
X55902315Y-112926653D01*
X55786258Y-113086395D01*
X55786256Y-113086399D01*
X55699403Y-113256854D01*
X55651430Y-113307649D01*
X55583609Y-113324444D01*
X55517474Y-113301906D01*
X55478435Y-113256853D01*
X55391720Y-113086668D01*
X55391712Y-113086655D01*
X55365742Y-113050910D01*
X55365741Y-113050909D01*
X54802162Y-113614489D01*
X54785125Y-113550907D01*
X54719299Y-113436893D01*
X54626207Y-113343801D01*
X54512193Y-113277975D01*
X54448609Y-113260937D01*
X55012189Y-112697357D01*
X54976436Y-112671381D01*
X54806245Y-112584663D01*
X54755450Y-112536689D01*
X54738655Y-112468868D01*
X54761193Y-112402733D01*
X54806242Y-112363698D01*
X54976701Y-112276844D01*
X55047832Y-112225165D01*
X55136446Y-112160784D01*
X55136448Y-112160781D01*
X55136452Y-112160779D01*
X55276079Y-112021152D01*
X55276081Y-112021148D01*
X55276084Y-112021146D01*
X55392141Y-111861405D01*
X55392143Y-111861402D01*
X55392144Y-111861401D01*
X55478717Y-111691493D01*
X55526690Y-111640700D01*
X55594511Y-111623905D01*
X55660646Y-111646442D01*
G37*
%TD.AperFunction*%
%TA.AperFunction,Conductor*%
G36*
X46233275Y-111396893D02*
G01*
X46299101Y-111510907D01*
X46392193Y-111603999D01*
X46506207Y-111669825D01*
X46569790Y-111686862D01*
X46006209Y-112250441D01*
X46006210Y-112250442D01*
X46041955Y-112276412D01*
X46041968Y-112276420D01*
X46212153Y-112363135D01*
X46262949Y-112411110D01*
X46279744Y-112478931D01*
X46257206Y-112545066D01*
X46212154Y-112584103D01*
X46117463Y-112632352D01*
X46041695Y-112670958D01*
X45881953Y-112787015D01*
X45742315Y-112926653D01*
X45626258Y-113086395D01*
X45626256Y-113086399D01*
X45546005Y-113243900D01*
X45539685Y-113256303D01*
X45491710Y-113307099D01*
X45423889Y-113323894D01*
X45357754Y-113301356D01*
X45318715Y-113256303D01*
X45232144Y-113086399D01*
X45206359Y-113050909D01*
X45116084Y-112926653D01*
X44976446Y-112787015D01*
X44816705Y-112670958D01*
X44810319Y-112667704D01*
X44646793Y-112584382D01*
X44596000Y-112536410D01*
X44579205Y-112468589D01*
X44601742Y-112402454D01*
X44646793Y-112363417D01*
X44816701Y-112276844D01*
X44887832Y-112225165D01*
X44976446Y-112160784D01*
X44976448Y-112160781D01*
X44976452Y-112160779D01*
X45116079Y-112021152D01*
X45116081Y-112021148D01*
X45116084Y-112021146D01*
X45232143Y-111861402D01*
X45232279Y-111861136D01*
X45318997Y-111690943D01*
X45366968Y-111640150D01*
X45434789Y-111623355D01*
X45500924Y-111645892D01*
X45539963Y-111690945D01*
X45626681Y-111861136D01*
X45652657Y-111896888D01*
X45652657Y-111896889D01*
X46216237Y-111333308D01*
X46233275Y-111396893D01*
G37*
%TD.AperFunction*%
%TA.AperFunction,Conductor*%
G36*
X47745741Y-111896888D02*
G01*
X47745743Y-111896888D01*
X47771716Y-111861141D01*
X47858435Y-111690946D01*
X47906410Y-111640150D01*
X47974231Y-111623355D01*
X48040365Y-111645892D01*
X48079402Y-111690942D01*
X48133579Y-111797269D01*
X48166258Y-111861405D01*
X48282315Y-112021146D01*
X48421953Y-112160784D01*
X48569700Y-112268126D01*
X48581699Y-112276844D01*
X48751604Y-112363416D01*
X48802399Y-112411390D01*
X48819194Y-112479211D01*
X48796656Y-112545346D01*
X48751604Y-112584383D01*
X48698222Y-112611584D01*
X48581695Y-112670958D01*
X48421953Y-112787015D01*
X48282315Y-112926653D01*
X48166258Y-113086395D01*
X48166256Y-113086399D01*
X48086005Y-113243900D01*
X48079685Y-113256303D01*
X48031710Y-113307099D01*
X47963889Y-113323894D01*
X47897754Y-113301356D01*
X47858715Y-113256303D01*
X47772144Y-113086399D01*
X47746359Y-113050909D01*
X47656084Y-112926653D01*
X47516446Y-112787015D01*
X47356705Y-112670958D01*
X47351534Y-112668323D01*
X47186243Y-112584102D01*
X47135450Y-112536130D01*
X47118655Y-112468309D01*
X47141192Y-112402175D01*
X47186246Y-112363135D01*
X47356441Y-112276416D01*
X47392188Y-112250443D01*
X47392188Y-112250441D01*
X46828610Y-111686862D01*
X46892193Y-111669825D01*
X47006207Y-111603999D01*
X47099299Y-111510907D01*
X47165125Y-111396893D01*
X47182162Y-111333309D01*
X47745741Y-111896888D01*
G37*
%TD.AperFunction*%
%TA.AperFunction,Conductor*%
G36*
X58933275Y-111396893D02*
G01*
X58999101Y-111510907D01*
X59092193Y-111603999D01*
X59206207Y-111669825D01*
X59269790Y-111686862D01*
X58706209Y-112250441D01*
X58706210Y-112250442D01*
X58741955Y-112276412D01*
X58741968Y-112276420D01*
X58912153Y-112363135D01*
X58962949Y-112411110D01*
X58979744Y-112478931D01*
X58957206Y-112545066D01*
X58912154Y-112584103D01*
X58817463Y-112632352D01*
X58741695Y-112670958D01*
X58581953Y-112787015D01*
X58442315Y-112926653D01*
X58326258Y-113086395D01*
X58326256Y-113086399D01*
X58246005Y-113243900D01*
X58239685Y-113256303D01*
X58191710Y-113307099D01*
X58123889Y-113323894D01*
X58057754Y-113301356D01*
X58018715Y-113256303D01*
X57932144Y-113086399D01*
X57906359Y-113050909D01*
X57816084Y-112926653D01*
X57676446Y-112787015D01*
X57516705Y-112670958D01*
X57510319Y-112667704D01*
X57346793Y-112584382D01*
X57296000Y-112536410D01*
X57279205Y-112468589D01*
X57301742Y-112402454D01*
X57346793Y-112363417D01*
X57516701Y-112276844D01*
X57587832Y-112225165D01*
X57676446Y-112160784D01*
X57676448Y-112160781D01*
X57676452Y-112160779D01*
X57816079Y-112021152D01*
X57816081Y-112021148D01*
X57816084Y-112021146D01*
X57932143Y-111861402D01*
X57932279Y-111861136D01*
X58018997Y-111690943D01*
X58066968Y-111640150D01*
X58134789Y-111623355D01*
X58200924Y-111645892D01*
X58239963Y-111690945D01*
X58326681Y-111861136D01*
X58352657Y-111896888D01*
X58352657Y-111896889D01*
X58916237Y-111333308D01*
X58933275Y-111396893D01*
G37*
%TD.AperFunction*%
%TA.AperFunction,Conductor*%
G36*
X60445741Y-111896888D02*
G01*
X60445743Y-111896888D01*
X60471716Y-111861141D01*
X60558435Y-111690946D01*
X60606410Y-111640150D01*
X60674231Y-111623355D01*
X60740365Y-111645892D01*
X60779402Y-111690942D01*
X60833579Y-111797269D01*
X60866258Y-111861405D01*
X60982315Y-112021146D01*
X61121953Y-112160784D01*
X61269700Y-112268126D01*
X61281699Y-112276844D01*
X61451604Y-112363416D01*
X61502399Y-112411390D01*
X61519194Y-112479211D01*
X61496656Y-112545346D01*
X61451604Y-112584383D01*
X61398222Y-112611584D01*
X61281695Y-112670958D01*
X61121953Y-112787015D01*
X60982315Y-112926653D01*
X60866258Y-113086395D01*
X60866256Y-113086399D01*
X60786005Y-113243900D01*
X60779685Y-113256303D01*
X60731710Y-113307099D01*
X60663889Y-113323894D01*
X60597754Y-113301356D01*
X60558715Y-113256303D01*
X60472144Y-113086399D01*
X60446359Y-113050909D01*
X60356084Y-112926653D01*
X60216446Y-112787015D01*
X60056705Y-112670958D01*
X60051534Y-112668323D01*
X59886243Y-112584102D01*
X59835450Y-112536130D01*
X59818655Y-112468309D01*
X59841192Y-112402175D01*
X59886246Y-112363135D01*
X60056441Y-112276416D01*
X60092188Y-112250443D01*
X60092188Y-112250441D01*
X59528610Y-111686862D01*
X59592193Y-111669825D01*
X59706207Y-111603999D01*
X59799299Y-111510907D01*
X59865125Y-111396893D01*
X59882162Y-111333309D01*
X60445741Y-111896888D01*
G37*
%TD.AperFunction*%
%TA.AperFunction,Conductor*%
G36*
X65525741Y-111896888D02*
G01*
X65525743Y-111896888D01*
X65551716Y-111861141D01*
X65638435Y-111690946D01*
X65686410Y-111640150D01*
X65754231Y-111623355D01*
X65820365Y-111645892D01*
X65859402Y-111690942D01*
X65913579Y-111797269D01*
X65946258Y-111861405D01*
X66062315Y-112021146D01*
X66201953Y-112160784D01*
X66349700Y-112268126D01*
X66361699Y-112276844D01*
X66531604Y-112363416D01*
X66582399Y-112411390D01*
X66599194Y-112479211D01*
X66576656Y-112545346D01*
X66531604Y-112584383D01*
X66478222Y-112611584D01*
X66361695Y-112670958D01*
X66201953Y-112787015D01*
X66062315Y-112926653D01*
X65946258Y-113086395D01*
X65946256Y-113086399D01*
X65866005Y-113243900D01*
X65859685Y-113256303D01*
X65811710Y-113307099D01*
X65743889Y-113323894D01*
X65677754Y-113301356D01*
X65638715Y-113256303D01*
X65552144Y-113086399D01*
X65526359Y-113050909D01*
X65436084Y-112926653D01*
X65296446Y-112787015D01*
X65136705Y-112670958D01*
X65131534Y-112668323D01*
X64966243Y-112584102D01*
X64915450Y-112536130D01*
X64898655Y-112468309D01*
X64921192Y-112402175D01*
X64966246Y-112363135D01*
X65136441Y-112276416D01*
X65172188Y-112250443D01*
X65172188Y-112250441D01*
X64608609Y-111686862D01*
X64672193Y-111669825D01*
X64786207Y-111603999D01*
X64879299Y-111510907D01*
X64945125Y-111396893D01*
X64962162Y-111333309D01*
X65525741Y-111896888D01*
G37*
%TD.AperFunction*%
%TA.AperFunction,Conductor*%
G36*
X29965741Y-111896888D02*
G01*
X29965743Y-111896888D01*
X29991716Y-111861141D01*
X30078435Y-111690946D01*
X30126410Y-111640150D01*
X30194231Y-111623355D01*
X30260365Y-111645892D01*
X30299402Y-111690942D01*
X30353579Y-111797269D01*
X30386258Y-111861405D01*
X30502315Y-112021146D01*
X30641953Y-112160784D01*
X30789700Y-112268126D01*
X30801699Y-112276844D01*
X30971604Y-112363416D01*
X31022399Y-112411390D01*
X31039194Y-112479211D01*
X31016656Y-112545346D01*
X30971604Y-112584383D01*
X30918222Y-112611584D01*
X30801695Y-112670958D01*
X30641953Y-112787015D01*
X30641949Y-112787019D01*
X30569083Y-112859886D01*
X30507760Y-112893371D01*
X30438068Y-112888387D01*
X30393721Y-112859886D01*
X29807890Y-112274055D01*
X29807888Y-112274052D01*
X29689017Y-112155181D01*
X29689016Y-112155180D01*
X29674844Y-112146998D01*
X29611529Y-112110443D01*
X29611525Y-112110441D01*
X29602204Y-112105060D01*
X29552085Y-112076123D01*
X29422850Y-112041494D01*
X29417689Y-112039608D01*
X29400691Y-112027058D01*
X29372569Y-112010822D01*
X29048609Y-111686862D01*
X29112193Y-111669825D01*
X29226207Y-111603999D01*
X29319299Y-111510907D01*
X29385125Y-111396893D01*
X29402162Y-111333309D01*
X29965741Y-111896888D01*
G37*
%TD.AperFunction*%
%TA.AperFunction,Conductor*%
G36*
X40125741Y-111896888D02*
G01*
X40125743Y-111896888D01*
X40151716Y-111861141D01*
X40238435Y-111690946D01*
X40286410Y-111640150D01*
X40354231Y-111623355D01*
X40420365Y-111645892D01*
X40459402Y-111690942D01*
X40513579Y-111797269D01*
X40546258Y-111861405D01*
X40662315Y-112021146D01*
X40801953Y-112160784D01*
X40949700Y-112268126D01*
X40961699Y-112276844D01*
X41131604Y-112363416D01*
X41182399Y-112411390D01*
X41199194Y-112479211D01*
X41176656Y-112545346D01*
X41131604Y-112584383D01*
X41078222Y-112611584D01*
X40961695Y-112670958D01*
X40801953Y-112787015D01*
X40801948Y-112787019D01*
X40733431Y-112855536D01*
X40672107Y-112889021D01*
X40602416Y-112884035D01*
X40558070Y-112855535D01*
X40029090Y-112326555D01*
X40029088Y-112326552D01*
X39910217Y-112207681D01*
X39910216Y-112207680D01*
X39819284Y-112155181D01*
X39773285Y-112128623D01*
X39632676Y-112090946D01*
X39627996Y-112089281D01*
X39610953Y-112076920D01*
X39581885Y-112060138D01*
X39208609Y-111686862D01*
X39272193Y-111669825D01*
X39386207Y-111603999D01*
X39479299Y-111510907D01*
X39545125Y-111396893D01*
X39562162Y-111333309D01*
X40125741Y-111896888D01*
G37*
%TD.AperFunction*%
%TA.AperFunction,Conductor*%
G36*
X44872433Y-107072547D02*
G01*
X44998632Y-107113553D01*
X45086110Y-107127408D01*
X45231903Y-107150500D01*
X45231908Y-107150500D01*
X45468095Y-107150500D01*
X45488879Y-107147207D01*
X45505563Y-107144565D01*
X45574855Y-107153519D01*
X45628308Y-107198514D01*
X45648949Y-107265265D01*
X45630225Y-107332579D01*
X45612643Y-107354719D01*
X42666078Y-110301285D01*
X42604755Y-110334770D01*
X42535063Y-110329786D01*
X42490716Y-110301285D01*
X42436446Y-110247015D01*
X42276704Y-110130958D01*
X42276703Y-110130957D01*
X42276701Y-110130956D01*
X42100761Y-110041309D01*
X42077780Y-110033842D01*
X41912963Y-109980289D01*
X41717936Y-109949400D01*
X41717931Y-109949400D01*
X41520469Y-109949400D01*
X41520464Y-109949400D01*
X41325436Y-109980289D01*
X41137641Y-110041308D01*
X40961695Y-110130958D01*
X40801953Y-110247015D01*
X40662315Y-110386653D01*
X40546258Y-110546395D01*
X40546256Y-110546399D01*
X40459403Y-110716854D01*
X40411430Y-110767649D01*
X40343609Y-110784444D01*
X40277474Y-110761906D01*
X40238435Y-110716853D01*
X40151720Y-110546668D01*
X40151712Y-110546655D01*
X40125742Y-110510910D01*
X40125741Y-110510909D01*
X39562162Y-111074489D01*
X39545125Y-111010907D01*
X39479299Y-110896893D01*
X39386207Y-110803801D01*
X39272193Y-110737975D01*
X39208609Y-110720937D01*
X39772189Y-110157357D01*
X39736439Y-110131383D01*
X39560573Y-110041773D01*
X39372846Y-109980776D01*
X39177897Y-109949900D01*
X38980503Y-109949900D01*
X38785553Y-109980776D01*
X38597826Y-110041773D01*
X38421962Y-110131382D01*
X38421960Y-110131383D01*
X38386210Y-110157356D01*
X38386210Y-110157357D01*
X38949791Y-110720937D01*
X38886207Y-110737975D01*
X38772193Y-110803801D01*
X38679101Y-110896893D01*
X38613275Y-111010907D01*
X38596237Y-111074491D01*
X38032657Y-110510910D01*
X38032656Y-110510910D01*
X38006683Y-110546660D01*
X38006679Y-110546667D01*
X37919963Y-110716854D01*
X37871988Y-110767649D01*
X37804167Y-110784444D01*
X37738033Y-110761906D01*
X37698998Y-110716857D01*
X37612144Y-110546399D01*
X37612142Y-110546396D01*
X37612141Y-110546394D01*
X37496084Y-110386653D01*
X37356446Y-110247015D01*
X37196704Y-110130958D01*
X37196703Y-110130957D01*
X37196701Y-110130956D01*
X37020761Y-110041309D01*
X36997780Y-110033842D01*
X36832963Y-109980289D01*
X36637936Y-109949400D01*
X36637931Y-109949400D01*
X36440469Y-109949400D01*
X36440464Y-109949400D01*
X36245436Y-109980289D01*
X36057641Y-110041308D01*
X35881695Y-110130958D01*
X35721955Y-110247014D01*
X35663783Y-110305186D01*
X35655836Y-110309524D01*
X35650413Y-110316770D01*
X35625654Y-110326005D01*
X35602459Y-110338670D01*
X35593430Y-110338024D01*
X35584949Y-110341188D01*
X35559122Y-110335570D01*
X35532767Y-110333685D01*
X35523716Y-110327868D01*
X35516676Y-110326337D01*
X35488426Y-110305189D01*
X35488422Y-110305186D01*
X35484521Y-110301285D01*
X35438116Y-110254880D01*
X35438113Y-110254878D01*
X34969790Y-109786555D01*
X34969788Y-109786552D01*
X34850915Y-109667679D01*
X34820587Y-109650170D01*
X34748833Y-109608743D01*
X34713985Y-109588623D01*
X34561257Y-109547699D01*
X34403143Y-109547699D01*
X34395547Y-109547699D01*
X34395531Y-109547700D01*
X34083297Y-109547700D01*
X34016258Y-109528015D01*
X33970503Y-109475211D01*
X33960559Y-109406053D01*
X33989584Y-109342497D01*
X33995616Y-109336019D01*
X34420116Y-108911519D01*
X34481439Y-108878034D01*
X34507797Y-108875200D01*
X42638631Y-108875200D01*
X42638647Y-108875201D01*
X42646243Y-108875201D01*
X42804354Y-108875201D01*
X42804357Y-108875201D01*
X42957085Y-108834277D01*
X43007204Y-108805339D01*
X43094016Y-108755220D01*
X43205820Y-108643416D01*
X43205820Y-108643414D01*
X43216028Y-108633207D01*
X43216030Y-108633204D01*
X44746437Y-107102796D01*
X44807758Y-107069313D01*
X44872433Y-107072547D01*
G37*
%TD.AperFunction*%
%TA.AperFunction,Conductor*%
G36*
X55108177Y-103254245D02*
G01*
X55139074Y-103261546D01*
X55141459Y-103264017D01*
X55144753Y-103264985D01*
X55165538Y-103288973D01*
X55187589Y-103311825D01*
X55189133Y-103316202D01*
X55190508Y-103317789D01*
X55199331Y-103345108D01*
X55226161Y-103479991D01*
X55226164Y-103480001D01*
X55286502Y-103625672D01*
X55286509Y-103625685D01*
X55374110Y-103756788D01*
X55374113Y-103756792D01*
X55485607Y-103868286D01*
X55485611Y-103868289D01*
X55616714Y-103955890D01*
X55616727Y-103955897D01*
X55762398Y-104016235D01*
X55762403Y-104016237D01*
X55827047Y-104029095D01*
X55917749Y-104047138D01*
X55979660Y-104079523D01*
X55981239Y-104081074D01*
X61679736Y-109779572D01*
X61713221Y-109840895D01*
X61708237Y-109910587D01*
X61666365Y-109966520D01*
X61630373Y-109985184D01*
X61502964Y-110026582D01*
X61457639Y-110041309D01*
X61326169Y-110108297D01*
X61281695Y-110130958D01*
X61121953Y-110247015D01*
X60982315Y-110386653D01*
X60866258Y-110546395D01*
X60866256Y-110546399D01*
X60779403Y-110716854D01*
X60731430Y-110767649D01*
X60663609Y-110784444D01*
X60597474Y-110761906D01*
X60558435Y-110716853D01*
X60471720Y-110546668D01*
X60471712Y-110546655D01*
X60445742Y-110510910D01*
X60445741Y-110510909D01*
X59882162Y-111074489D01*
X59865125Y-111010907D01*
X59799299Y-110896893D01*
X59706207Y-110803801D01*
X59592193Y-110737975D01*
X59528609Y-110720937D01*
X60092189Y-110157357D01*
X60056439Y-110131383D01*
X59880573Y-110041773D01*
X59692846Y-109980776D01*
X59497897Y-109949900D01*
X59300503Y-109949900D01*
X59105553Y-109980776D01*
X58917826Y-110041773D01*
X58741962Y-110131382D01*
X58741960Y-110131383D01*
X58706210Y-110157356D01*
X58706210Y-110157357D01*
X59269791Y-110720937D01*
X59206207Y-110737975D01*
X59092193Y-110803801D01*
X58999101Y-110896893D01*
X58933275Y-111010907D01*
X58916237Y-111074490D01*
X58352657Y-110510910D01*
X58352656Y-110510910D01*
X58326683Y-110546660D01*
X58326679Y-110546667D01*
X58239963Y-110716854D01*
X58191988Y-110767649D01*
X58124167Y-110784444D01*
X58058033Y-110761906D01*
X58018998Y-110716857D01*
X57932144Y-110546399D01*
X57932142Y-110546396D01*
X57932141Y-110546394D01*
X57816084Y-110386653D01*
X57676446Y-110247015D01*
X57516704Y-110130958D01*
X57516703Y-110130957D01*
X57516701Y-110130956D01*
X57340761Y-110041309D01*
X57317780Y-110033842D01*
X57152963Y-109980289D01*
X56957936Y-109949400D01*
X56957931Y-109949400D01*
X56760469Y-109949400D01*
X56760464Y-109949400D01*
X56565436Y-109980289D01*
X56377641Y-110041308D01*
X56201695Y-110130958D01*
X56041953Y-110247015D01*
X55902315Y-110386653D01*
X55786258Y-110546395D01*
X55786256Y-110546399D01*
X55706005Y-110703900D01*
X55699685Y-110716303D01*
X55651710Y-110767099D01*
X55583889Y-110783894D01*
X55517754Y-110761356D01*
X55478715Y-110716303D01*
X55392144Y-110546399D01*
X55366359Y-110510909D01*
X55276084Y-110386653D01*
X55136446Y-110247015D01*
X54976704Y-110130958D01*
X54976703Y-110130957D01*
X54976701Y-110130956D01*
X54800761Y-110041309D01*
X54777780Y-110033842D01*
X54612963Y-109980289D01*
X54417936Y-109949400D01*
X54417931Y-109949400D01*
X54220469Y-109949400D01*
X54220464Y-109949400D01*
X54025436Y-109980289D01*
X53837641Y-110041308D01*
X53661695Y-110130958D01*
X53501953Y-110247015D01*
X53362315Y-110386653D01*
X53246258Y-110546395D01*
X53246256Y-110546399D01*
X53166005Y-110703900D01*
X53159685Y-110716303D01*
X53111710Y-110767099D01*
X53043889Y-110783894D01*
X52977754Y-110761356D01*
X52938715Y-110716303D01*
X52852144Y-110546399D01*
X52826359Y-110510909D01*
X52736084Y-110386653D01*
X52596446Y-110247015D01*
X52436704Y-110130958D01*
X52436703Y-110130957D01*
X52436701Y-110130956D01*
X52260761Y-110041309D01*
X52237780Y-110033842D01*
X52072963Y-109980289D01*
X51877936Y-109949400D01*
X51877931Y-109949400D01*
X51680469Y-109949400D01*
X51680464Y-109949400D01*
X51485436Y-109980289D01*
X51297641Y-110041308D01*
X51121695Y-110130958D01*
X50961953Y-110247015D01*
X50822315Y-110386653D01*
X50706258Y-110546395D01*
X50706256Y-110546399D01*
X50626005Y-110703900D01*
X50619685Y-110716303D01*
X50571710Y-110767099D01*
X50503889Y-110783894D01*
X50437754Y-110761356D01*
X50398715Y-110716303D01*
X50312144Y-110546399D01*
X50286359Y-110510909D01*
X50196084Y-110386653D01*
X50056446Y-110247015D01*
X49896704Y-110130958D01*
X49896703Y-110130957D01*
X49896701Y-110130956D01*
X49720761Y-110041309D01*
X49697780Y-110033842D01*
X49532963Y-109980289D01*
X49337936Y-109949400D01*
X49337931Y-109949400D01*
X49140469Y-109949400D01*
X49140464Y-109949400D01*
X48945436Y-109980289D01*
X48757641Y-110041308D01*
X48581695Y-110130958D01*
X48421953Y-110247015D01*
X48282315Y-110386653D01*
X48166258Y-110546395D01*
X48166256Y-110546399D01*
X48079403Y-110716854D01*
X48031430Y-110767649D01*
X47963609Y-110784444D01*
X47897474Y-110761906D01*
X47858435Y-110716853D01*
X47771720Y-110546668D01*
X47771712Y-110546655D01*
X47745742Y-110510910D01*
X47745741Y-110510909D01*
X47182162Y-111074489D01*
X47165125Y-111010907D01*
X47099299Y-110896893D01*
X47006207Y-110803801D01*
X46892193Y-110737975D01*
X46828608Y-110720937D01*
X47392189Y-110157357D01*
X47356439Y-110131383D01*
X47180573Y-110041773D01*
X46992846Y-109980776D01*
X46797897Y-109949900D01*
X46600507Y-109949900D01*
X46575742Y-109953822D01*
X46506449Y-109944866D01*
X46452998Y-109899869D01*
X46432359Y-109833117D01*
X46451085Y-109765804D01*
X46468656Y-109743677D01*
X52930716Y-103281619D01*
X52992039Y-103248134D01*
X53018397Y-103245300D01*
X55077714Y-103245300D01*
X55108177Y-103254245D01*
G37*
%TD.AperFunction*%
%TA.AperFunction,Conductor*%
G36*
X116677549Y-98010185D02*
G01*
X116720995Y-98058205D01*
X116751595Y-98118260D01*
X116880142Y-98295193D01*
X116880148Y-98295199D01*
X117034801Y-98449852D01*
X117186395Y-98559991D01*
X117229060Y-98615319D01*
X117235039Y-98684932D01*
X117202434Y-98746728D01*
X117186394Y-98760626D01*
X117150360Y-98786805D01*
X117150360Y-98786807D01*
X117810590Y-99447037D01*
X117747007Y-99464075D01*
X117632993Y-99529901D01*
X117539901Y-99622993D01*
X117474075Y-99737007D01*
X117457037Y-99800590D01*
X116796807Y-99140360D01*
X116796806Y-99140360D01*
X116752023Y-99202001D01*
X116652762Y-99396808D01*
X116652761Y-99396811D01*
X116585202Y-99604740D01*
X116551000Y-99820683D01*
X116551000Y-100039316D01*
X116585202Y-100255259D01*
X116652761Y-100463188D01*
X116652762Y-100463191D01*
X116752020Y-100657993D01*
X116752021Y-100657995D01*
X116796806Y-100719638D01*
X116796807Y-100719638D01*
X117457037Y-100059408D01*
X117474075Y-100122993D01*
X117539901Y-100237007D01*
X117632993Y-100330099D01*
X117747007Y-100395925D01*
X117810590Y-100412962D01*
X117150360Y-101073191D01*
X117150360Y-101073192D01*
X117186394Y-101099372D01*
X117229060Y-101154701D01*
X117235039Y-101224315D01*
X117202434Y-101286110D01*
X117186394Y-101300008D01*
X117034807Y-101410142D01*
X117034802Y-101410146D01*
X116880142Y-101564806D01*
X116751595Y-101741739D01*
X116720995Y-101801795D01*
X116673020Y-101852591D01*
X116610510Y-101869500D01*
X101489490Y-101869500D01*
X101422451Y-101849815D01*
X101379005Y-101801795D01*
X101348407Y-101741743D01*
X101340147Y-101730374D01*
X101219857Y-101564806D01*
X101065197Y-101410146D01*
X101065192Y-101410142D01*
X100913605Y-101300008D01*
X100870939Y-101244678D01*
X100864960Y-101175065D01*
X100897565Y-101113270D01*
X100913605Y-101099372D01*
X100949638Y-101073191D01*
X100949639Y-101073191D01*
X100289409Y-100412962D01*
X100352993Y-100395925D01*
X100467007Y-100330099D01*
X100560099Y-100237007D01*
X100625925Y-100122993D01*
X100642962Y-100059410D01*
X101303191Y-100719639D01*
X101303191Y-100719638D01*
X101347978Y-100657995D01*
X101447237Y-100463191D01*
X101447238Y-100463188D01*
X101514797Y-100255259D01*
X101549000Y-100039316D01*
X101549000Y-99820683D01*
X101514797Y-99604740D01*
X101447238Y-99396811D01*
X101447237Y-99396808D01*
X101347980Y-99202008D01*
X101303191Y-99140360D01*
X100642962Y-99800589D01*
X100625925Y-99737007D01*
X100560099Y-99622993D01*
X100467007Y-99529901D01*
X100352993Y-99464075D01*
X100289407Y-99447037D01*
X100949638Y-98786807D01*
X100949638Y-98786806D01*
X100913606Y-98760628D01*
X100870939Y-98705299D01*
X100864959Y-98635685D01*
X100897565Y-98573890D01*
X100913599Y-98559994D01*
X101065199Y-98449852D01*
X101219852Y-98295199D01*
X101219854Y-98295195D01*
X101219857Y-98295193D01*
X101276229Y-98217601D01*
X101348407Y-98118257D01*
X101379005Y-98058204D01*
X101426980Y-98007409D01*
X101489490Y-97990500D01*
X116610510Y-97990500D01*
X116677549Y-98010185D01*
G37*
%TD.AperFunction*%
%TA.AperFunction,Conductor*%
G36*
X56888365Y-27610185D02*
G01*
X56934120Y-27662989D01*
X56944064Y-27732147D01*
X56915039Y-27795703D01*
X56909007Y-27802181D01*
X56786029Y-27925158D01*
X56786029Y-27925159D01*
X56786027Y-27925161D01*
X56727789Y-28005317D01*
X56650421Y-28111805D01*
X56545685Y-28317362D01*
X56474390Y-28536780D01*
X56438300Y-28764647D01*
X56438300Y-28995352D01*
X56474390Y-29223219D01*
X56516320Y-29352264D01*
X56545683Y-29442633D01*
X56650421Y-29648194D01*
X56786027Y-29834839D01*
X56949161Y-29997973D01*
X57013024Y-30044373D01*
X57020332Y-30049682D01*
X57062998Y-30105013D01*
X57068976Y-30174626D01*
X57036370Y-30236421D01*
X57020332Y-30250318D01*
X56949159Y-30302028D01*
X56786029Y-30465158D01*
X56786029Y-30465159D01*
X56786027Y-30465161D01*
X56727789Y-30545317D01*
X56650421Y-30651805D01*
X56545685Y-30857362D01*
X56474390Y-31076780D01*
X56438300Y-31304647D01*
X56438300Y-31535352D01*
X56474390Y-31763219D01*
X56516320Y-31892264D01*
X56545683Y-31982633D01*
X56650421Y-32188194D01*
X56786027Y-32374839D01*
X56949161Y-32537973D01*
X56991376Y-32568644D01*
X57020332Y-32589682D01*
X57062998Y-32645013D01*
X57068976Y-32714626D01*
X57036370Y-32776421D01*
X57020332Y-32790318D01*
X56949159Y-32842028D01*
X56786029Y-33005158D01*
X56786029Y-33005159D01*
X56786027Y-33005161D01*
X56766469Y-33032080D01*
X56650421Y-33191805D01*
X56545685Y-33397362D01*
X56474390Y-33616780D01*
X56438300Y-33844647D01*
X56438300Y-34075352D01*
X56474390Y-34303219D01*
X56512335Y-34420000D01*
X56545683Y-34522633D01*
X56650421Y-34728194D01*
X56786027Y-34914839D01*
X56949161Y-35077973D01*
X56997362Y-35112993D01*
X57020332Y-35129682D01*
X57062998Y-35185013D01*
X57068976Y-35254626D01*
X57036370Y-35316421D01*
X57020332Y-35330318D01*
X56949159Y-35382028D01*
X56786029Y-35545158D01*
X56786029Y-35545159D01*
X56786027Y-35545161D01*
X56748631Y-35596632D01*
X56650421Y-35731805D01*
X56545685Y-35937362D01*
X56474390Y-36156780D01*
X56438300Y-36384647D01*
X56438300Y-36615352D01*
X56474390Y-36843219D01*
X56497160Y-36913295D01*
X56545683Y-37062633D01*
X56650421Y-37268194D01*
X56786027Y-37454839D01*
X56949161Y-37617973D01*
X57013024Y-37664373D01*
X57020332Y-37669682D01*
X57062998Y-37725013D01*
X57068976Y-37794626D01*
X57036370Y-37856421D01*
X57020332Y-37870318D01*
X56949159Y-37922028D01*
X56786029Y-38085158D01*
X56786029Y-38085159D01*
X56786027Y-38085161D01*
X56727789Y-38165317D01*
X56650421Y-38271805D01*
X56545685Y-38477362D01*
X56474390Y-38696780D01*
X56438300Y-38924647D01*
X56438300Y-39155352D01*
X56474390Y-39383219D01*
X56516320Y-39512264D01*
X56545683Y-39602633D01*
X56650421Y-39808194D01*
X56786027Y-39994839D01*
X56949161Y-40157973D01*
X57013024Y-40204373D01*
X57020332Y-40209682D01*
X57062998Y-40265013D01*
X57068976Y-40334626D01*
X57036370Y-40396421D01*
X57020332Y-40410318D01*
X56949159Y-40462028D01*
X56786029Y-40625158D01*
X56786029Y-40625159D01*
X56786027Y-40625161D01*
X56727789Y-40705317D01*
X56650421Y-40811805D01*
X56545685Y-41017362D01*
X56474390Y-41236780D01*
X56438300Y-41464647D01*
X56438300Y-41695352D01*
X56474390Y-41923219D01*
X56516320Y-42052264D01*
X56545683Y-42142633D01*
X56650421Y-42348194D01*
X56786027Y-42534839D01*
X56949161Y-42697973D01*
X57013024Y-42744373D01*
X57020332Y-42749682D01*
X57062998Y-42805013D01*
X57068976Y-42874626D01*
X57036370Y-42936421D01*
X57020332Y-42950318D01*
X56949159Y-43002028D01*
X56786029Y-43165158D01*
X56786029Y-43165159D01*
X56786027Y-43165161D01*
X56763413Y-43196287D01*
X56650421Y-43351805D01*
X56545685Y-43557362D01*
X56474390Y-43776780D01*
X56438300Y-44004647D01*
X56438300Y-44235352D01*
X56474390Y-44463219D01*
X56516320Y-44592264D01*
X56545683Y-44682633D01*
X56650421Y-44888194D01*
X56786027Y-45074839D01*
X56949161Y-45237973D01*
X57013024Y-45284373D01*
X57020332Y-45289682D01*
X57062998Y-45345013D01*
X57068976Y-45414626D01*
X57036370Y-45476421D01*
X57020332Y-45490318D01*
X56949159Y-45542028D01*
X56786029Y-45705158D01*
X56786029Y-45705159D01*
X56786027Y-45705161D01*
X56763413Y-45736287D01*
X56650421Y-45891805D01*
X56545685Y-46097362D01*
X56474390Y-46316780D01*
X56438300Y-46544647D01*
X56438300Y-46775352D01*
X56474390Y-47003219D01*
X56516320Y-47132264D01*
X56545683Y-47222633D01*
X56650421Y-47428194D01*
X56786027Y-47614839D01*
X56949161Y-47777973D01*
X56961495Y-47786934D01*
X57020332Y-47829682D01*
X57062998Y-47885013D01*
X57068976Y-47954626D01*
X57036370Y-48016421D01*
X57020332Y-48030318D01*
X56949159Y-48082028D01*
X56786029Y-48245158D01*
X56786029Y-48245159D01*
X56786027Y-48245161D01*
X56727789Y-48325317D01*
X56650421Y-48431805D01*
X56545685Y-48637362D01*
X56474390Y-48856780D01*
X56438300Y-49084647D01*
X56438300Y-49315352D01*
X56474390Y-49543219D01*
X56493995Y-49603554D01*
X56545683Y-49762633D01*
X56650421Y-49968194D01*
X56727584Y-50074400D01*
X56729847Y-50077514D01*
X56753327Y-50143321D01*
X56737502Y-50211375D01*
X56687396Y-50260070D01*
X56629529Y-50274400D01*
X50684997Y-50274400D01*
X50617958Y-50254715D01*
X50597316Y-50238081D01*
X36829116Y-36469881D01*
X36795631Y-36408558D01*
X36800615Y-36338866D01*
X36842487Y-36282933D01*
X36907951Y-36258516D01*
X36916797Y-36258200D01*
X37075318Y-36258200D01*
X37283364Y-36225248D01*
X37483688Y-36160160D01*
X37671370Y-36064530D01*
X37723268Y-36026823D01*
X37723268Y-36026822D01*
X37099408Y-35402962D01*
X37162993Y-35385925D01*
X37277007Y-35320099D01*
X37370099Y-35227007D01*
X37435925Y-35112993D01*
X37452962Y-35049408D01*
X38076822Y-35673268D01*
X38076823Y-35673268D01*
X38114532Y-35621368D01*
X38114532Y-35621367D01*
X38129234Y-35592514D01*
X38177208Y-35541718D01*
X38245029Y-35524922D01*
X38311164Y-35547459D01*
X38350203Y-35592512D01*
X38365041Y-35621633D01*
X38488890Y-35792099D01*
X38637900Y-35941109D01*
X38797415Y-36057001D01*
X38808368Y-36064959D01*
X38928000Y-36125914D01*
X38996112Y-36160620D01*
X38996114Y-36160620D01*
X38996117Y-36160622D01*
X39090534Y-36191300D01*
X39196519Y-36225737D01*
X39404637Y-36258700D01*
X39404642Y-36258700D01*
X39615363Y-36258700D01*
X39823480Y-36225737D01*
X39824985Y-36225248D01*
X40023883Y-36160622D01*
X40211632Y-36064959D01*
X40307344Y-35995420D01*
X40382099Y-35941109D01*
X40382101Y-35941106D01*
X40382105Y-35941104D01*
X40531104Y-35792105D01*
X40531106Y-35792101D01*
X40531109Y-35792099D01*
X40588804Y-35712686D01*
X40654959Y-35621632D01*
X40727195Y-35479857D01*
X40749994Y-35448478D01*
X41032545Y-35165928D01*
X41093867Y-35132444D01*
X41163559Y-35137428D01*
X41219492Y-35179300D01*
X41243164Y-35237424D01*
X41255440Y-35330666D01*
X41269203Y-35382029D01*
X41326704Y-35596630D01*
X41432075Y-35851017D01*
X41432080Y-35851028D01*
X41484089Y-35941109D01*
X41569751Y-36089479D01*
X41569753Y-36089482D01*
X41569754Y-36089483D01*
X41737370Y-36307926D01*
X41737376Y-36307933D01*
X41932066Y-36502623D01*
X41932072Y-36502628D01*
X42150521Y-36670249D01*
X42303778Y-36758732D01*
X42388971Y-36807919D01*
X42388976Y-36807921D01*
X42388979Y-36807923D01*
X42643368Y-36913295D01*
X42909334Y-36984560D01*
X43182326Y-37020500D01*
X43182333Y-37020500D01*
X43457667Y-37020500D01*
X43457674Y-37020500D01*
X43730666Y-36984560D01*
X43996632Y-36913295D01*
X44251021Y-36807923D01*
X44489479Y-36670249D01*
X44707928Y-36502628D01*
X44902628Y-36307928D01*
X45070249Y-36089479D01*
X45207923Y-35851021D01*
X45313295Y-35596632D01*
X45384560Y-35330666D01*
X45420500Y-35057674D01*
X45420500Y-34782326D01*
X45384560Y-34509334D01*
X45313295Y-34243368D01*
X45207923Y-33988979D01*
X45207921Y-33988976D01*
X45207919Y-33988971D01*
X45127694Y-33850019D01*
X45070249Y-33750521D01*
X44993117Y-33650000D01*
X44902629Y-33532073D01*
X44902623Y-33532066D01*
X44707933Y-33337376D01*
X44707926Y-33337370D01*
X44489483Y-33169754D01*
X44489482Y-33169753D01*
X44489479Y-33169751D01*
X44394407Y-33114861D01*
X44251028Y-33032080D01*
X44251017Y-33032075D01*
X43996630Y-32926704D01*
X43863649Y-32891072D01*
X43730666Y-32855440D01*
X43704914Y-32852049D01*
X43637424Y-32843164D01*
X43573528Y-32814897D01*
X43535057Y-32756572D01*
X43534226Y-32686708D01*
X43565927Y-32632546D01*
X48571655Y-27626819D01*
X48632978Y-27593334D01*
X48659336Y-27590500D01*
X56821326Y-27590500D01*
X56888365Y-27610185D01*
G37*
%TD.AperFunction*%
%TA.AperFunction,Conductor*%
G36*
X120692539Y-14520185D02*
G01*
X120738294Y-14572989D01*
X120749500Y-14624500D01*
X120749500Y-140375500D01*
X120729815Y-140442539D01*
X120677011Y-140488294D01*
X120625500Y-140499500D01*
X14624500Y-140499500D01*
X14557461Y-140479815D01*
X14511706Y-140427011D01*
X14500500Y-140375500D01*
X14500500Y-135336232D01*
X16868700Y-135336232D01*
X16868700Y-135611567D01*
X16868701Y-135611584D01*
X16904638Y-135884555D01*
X16904639Y-135884560D01*
X16904640Y-135884566D01*
X16904641Y-135884568D01*
X16975904Y-136150530D01*
X17081275Y-136404917D01*
X17081280Y-136404928D01*
X17164061Y-136548307D01*
X17218951Y-136643379D01*
X17218953Y-136643382D01*
X17218954Y-136643383D01*
X17386570Y-136861826D01*
X17386576Y-136861833D01*
X17581266Y-137056523D01*
X17581272Y-137056528D01*
X17799721Y-137224149D01*
X17952978Y-137312632D01*
X18038171Y-137361819D01*
X18038176Y-137361821D01*
X18038179Y-137361823D01*
X18292568Y-137467195D01*
X18558534Y-137538460D01*
X18831526Y-137574400D01*
X18831533Y-137574400D01*
X19106867Y-137574400D01*
X19106874Y-137574400D01*
X19379866Y-137538460D01*
X19645832Y-137467195D01*
X19900221Y-137361823D01*
X20138679Y-137224149D01*
X20357128Y-137056528D01*
X20551828Y-136861828D01*
X20719449Y-136643379D01*
X20857123Y-136404921D01*
X20962495Y-136150532D01*
X21033760Y-135884566D01*
X21069700Y-135611574D01*
X21069700Y-135336232D01*
X74868700Y-135336232D01*
X74868700Y-135611567D01*
X74868701Y-135611584D01*
X74904638Y-135884555D01*
X74904639Y-135884560D01*
X74904640Y-135884566D01*
X74904641Y-135884568D01*
X74975904Y-136150530D01*
X75081275Y-136404917D01*
X75081280Y-136404928D01*
X75164061Y-136548307D01*
X75218951Y-136643379D01*
X75218953Y-136643382D01*
X75218954Y-136643383D01*
X75386570Y-136861826D01*
X75386576Y-136861833D01*
X75581266Y-137056523D01*
X75581272Y-137056528D01*
X75799721Y-137224149D01*
X75952978Y-137312632D01*
X76038171Y-137361819D01*
X76038176Y-137361821D01*
X76038179Y-137361823D01*
X76292568Y-137467195D01*
X76558534Y-137538460D01*
X76831526Y-137574400D01*
X76831533Y-137574400D01*
X77106867Y-137574400D01*
X77106874Y-137574400D01*
X77379866Y-137538460D01*
X77645832Y-137467195D01*
X77900221Y-137361823D01*
X78138679Y-137224149D01*
X78357128Y-137056528D01*
X78551828Y-136861828D01*
X78719449Y-136643379D01*
X78857123Y-136404921D01*
X78962495Y-136150532D01*
X79033760Y-135884566D01*
X79069700Y-135611574D01*
X79069700Y-135336226D01*
X79033760Y-135063234D01*
X78962495Y-134797268D01*
X78857123Y-134542879D01*
X78857121Y-134542876D01*
X78857119Y-134542871D01*
X78807932Y-134457678D01*
X78719449Y-134304421D01*
X78551828Y-134085972D01*
X78551823Y-134085966D01*
X78357133Y-133891276D01*
X78357126Y-133891270D01*
X78138683Y-133723654D01*
X78138682Y-133723653D01*
X78138679Y-133723651D01*
X78043607Y-133668761D01*
X77900228Y-133585980D01*
X77900217Y-133585975D01*
X77645830Y-133480604D01*
X77512849Y-133444972D01*
X77379866Y-133409340D01*
X77379860Y-133409339D01*
X77379855Y-133409338D01*
X77106884Y-133373401D01*
X77106879Y-133373400D01*
X77106874Y-133373400D01*
X76831526Y-133373400D01*
X76831520Y-133373400D01*
X76831515Y-133373401D01*
X76558544Y-133409338D01*
X76558537Y-133409339D01*
X76558534Y-133409340D01*
X76502325Y-133424400D01*
X76292569Y-133480604D01*
X76038182Y-133585975D01*
X76038171Y-133585980D01*
X75799716Y-133723654D01*
X75581273Y-133891270D01*
X75581266Y-133891276D01*
X75386576Y-134085966D01*
X75386570Y-134085973D01*
X75218954Y-134304416D01*
X75081280Y-134542871D01*
X75081275Y-134542882D01*
X74975904Y-134797269D01*
X74904641Y-135063231D01*
X74904638Y-135063244D01*
X74868701Y-135336215D01*
X74868700Y-135336232D01*
X21069700Y-135336232D01*
X21069700Y-135336226D01*
X21033760Y-135063234D01*
X20962495Y-134797268D01*
X20857123Y-134542879D01*
X20857121Y-134542876D01*
X20857119Y-134542871D01*
X20807932Y-134457678D01*
X20719449Y-134304421D01*
X20551828Y-134085972D01*
X20551823Y-134085966D01*
X20357133Y-133891276D01*
X20357126Y-133891270D01*
X20138683Y-133723654D01*
X20138682Y-133723653D01*
X20138679Y-133723651D01*
X20043607Y-133668761D01*
X19900228Y-133585980D01*
X19900217Y-133585975D01*
X19645830Y-133480604D01*
X19512849Y-133444972D01*
X19379866Y-133409340D01*
X19379860Y-133409339D01*
X19379855Y-133409338D01*
X19106884Y-133373401D01*
X19106879Y-133373400D01*
X19106874Y-133373400D01*
X18831526Y-133373400D01*
X18831520Y-133373400D01*
X18831515Y-133373401D01*
X18558544Y-133409338D01*
X18558537Y-133409339D01*
X18558534Y-133409340D01*
X18502325Y-133424400D01*
X18292569Y-133480604D01*
X18038182Y-133585975D01*
X18038171Y-133585980D01*
X17799716Y-133723654D01*
X17581273Y-133891270D01*
X17581266Y-133891276D01*
X17386576Y-134085966D01*
X17386570Y-134085973D01*
X17218954Y-134304416D01*
X17081280Y-134542871D01*
X17081275Y-134542882D01*
X16975904Y-134797269D01*
X16904641Y-135063231D01*
X16904638Y-135063244D01*
X16868701Y-135336215D01*
X16868700Y-135336232D01*
X14500500Y-135336232D01*
X14500500Y-120112332D01*
X98694500Y-120112332D01*
X98694500Y-120387667D01*
X98694501Y-120387684D01*
X98730438Y-120660655D01*
X98730439Y-120660660D01*
X98730440Y-120660666D01*
X98730441Y-120660668D01*
X98801704Y-120926630D01*
X98907075Y-121181017D01*
X98907080Y-121181028D01*
X98989861Y-121324407D01*
X99044751Y-121419479D01*
X99044753Y-121419482D01*
X99044754Y-121419483D01*
X99212370Y-121637926D01*
X99212376Y-121637933D01*
X99407066Y-121832623D01*
X99407072Y-121832628D01*
X99625521Y-122000249D01*
X99778778Y-122088732D01*
X99863971Y-122137919D01*
X99863976Y-122137921D01*
X99863979Y-122137923D01*
X100118368Y-122243295D01*
X100384334Y-122314560D01*
X100657326Y-122350500D01*
X100657333Y-122350500D01*
X100932667Y-122350500D01*
X100932674Y-122350500D01*
X101205666Y-122314560D01*
X101471632Y-122243295D01*
X101726021Y-122137923D01*
X101964479Y-122000249D01*
X102182928Y-121832628D01*
X102377628Y-121637928D01*
X102545249Y-121419479D01*
X102682923Y-121181021D01*
X102788295Y-120926632D01*
X102859560Y-120660666D01*
X102895500Y-120387674D01*
X102895500Y-120112332D01*
X115204500Y-120112332D01*
X115204500Y-120387667D01*
X115204501Y-120387684D01*
X115240438Y-120660655D01*
X115240439Y-120660660D01*
X115240440Y-120660666D01*
X115240441Y-120660668D01*
X115311704Y-120926630D01*
X115417075Y-121181017D01*
X115417080Y-121181028D01*
X115499861Y-121324407D01*
X115554751Y-121419479D01*
X115554753Y-121419482D01*
X115554754Y-121419483D01*
X115722370Y-121637926D01*
X115722376Y-121637933D01*
X115917066Y-121832623D01*
X115917072Y-121832628D01*
X116135521Y-122000249D01*
X116288778Y-122088732D01*
X116373971Y-122137919D01*
X116373976Y-122137921D01*
X116373979Y-122137923D01*
X116628368Y-122243295D01*
X116894334Y-122314560D01*
X117167326Y-122350500D01*
X117167333Y-122350500D01*
X117442667Y-122350500D01*
X117442674Y-122350500D01*
X117715666Y-122314560D01*
X117981632Y-122243295D01*
X118236021Y-122137923D01*
X118474479Y-122000249D01*
X118692928Y-121832628D01*
X118887628Y-121637928D01*
X119055249Y-121419479D01*
X119192923Y-121181021D01*
X119298295Y-120926632D01*
X119369560Y-120660666D01*
X119405500Y-120387674D01*
X119405500Y-120112326D01*
X119369560Y-119839334D01*
X119298295Y-119573368D01*
X119192923Y-119318979D01*
X119192921Y-119318976D01*
X119192919Y-119318971D01*
X119143732Y-119233778D01*
X119055249Y-119080521D01*
X118887628Y-118862072D01*
X118887623Y-118862066D01*
X118692933Y-118667376D01*
X118692926Y-118667370D01*
X118474483Y-118499754D01*
X118474482Y-118499753D01*
X118474479Y-118499751D01*
X118379407Y-118444861D01*
X118236028Y-118362080D01*
X118236017Y-118362075D01*
X117981630Y-118256704D01*
X117848649Y-118221072D01*
X117715666Y-118185440D01*
X117715660Y-118185439D01*
X117715655Y-118185438D01*
X117442684Y-118149501D01*
X117442679Y-118149500D01*
X117442674Y-118149500D01*
X117167326Y-118149500D01*
X117167320Y-118149500D01*
X117167315Y-118149501D01*
X116894344Y-118185438D01*
X116894337Y-118185439D01*
X116894334Y-118185440D01*
X116838125Y-118200500D01*
X116628369Y-118256704D01*
X116373982Y-118362075D01*
X116373971Y-118362080D01*
X116135516Y-118499754D01*
X115917073Y-118667370D01*
X115917066Y-118667376D01*
X115722376Y-118862066D01*
X115722370Y-118862073D01*
X115554754Y-119080516D01*
X115417080Y-119318971D01*
X115417075Y-119318982D01*
X115311704Y-119573369D01*
X115240441Y-119839331D01*
X115240438Y-119839344D01*
X115204501Y-120112315D01*
X115204500Y-120112332D01*
X102895500Y-120112332D01*
X102895500Y-120112326D01*
X102859560Y-119839334D01*
X102788295Y-119573368D01*
X102682923Y-119318979D01*
X102682921Y-119318976D01*
X102682919Y-119318971D01*
X102633732Y-119233778D01*
X102545249Y-119080521D01*
X102377628Y-118862072D01*
X102377623Y-118862066D01*
X102182933Y-118667376D01*
X102182926Y-118667370D01*
X101964483Y-118499754D01*
X101964482Y-118499753D01*
X101964479Y-118499751D01*
X101869407Y-118444861D01*
X101726028Y-118362080D01*
X101726017Y-118362075D01*
X101471630Y-118256704D01*
X101338649Y-118221072D01*
X101205666Y-118185440D01*
X101205660Y-118185439D01*
X101205655Y-118185438D01*
X100932684Y-118149501D01*
X100932679Y-118149500D01*
X100932674Y-118149500D01*
X100657326Y-118149500D01*
X100657320Y-118149500D01*
X100657315Y-118149501D01*
X100384344Y-118185438D01*
X100384337Y-118185439D01*
X100384334Y-118185440D01*
X100328125Y-118200500D01*
X100118369Y-118256704D01*
X99863982Y-118362075D01*
X99863971Y-118362080D01*
X99625516Y-118499754D01*
X99407073Y-118667370D01*
X99407066Y-118667376D01*
X99212376Y-118862066D01*
X99212370Y-118862073D01*
X99044754Y-119080516D01*
X98907080Y-119318971D01*
X98907075Y-119318982D01*
X98801704Y-119573369D01*
X98730441Y-119839331D01*
X98730438Y-119839344D01*
X98694501Y-120112315D01*
X98694500Y-120112332D01*
X14500500Y-120112332D01*
X14500500Y-112336232D01*
X16868700Y-112336232D01*
X16868700Y-112611567D01*
X16868701Y-112611584D01*
X16904638Y-112884555D01*
X16904639Y-112884560D01*
X16904640Y-112884566D01*
X16915916Y-112926648D01*
X16975904Y-113150530D01*
X17081275Y-113404917D01*
X17081280Y-113404928D01*
X17164061Y-113548307D01*
X17218951Y-113643379D01*
X17218953Y-113643382D01*
X17218954Y-113643383D01*
X17386570Y-113861826D01*
X17386576Y-113861833D01*
X17581266Y-114056523D01*
X17581272Y-114056528D01*
X17799721Y-114224149D01*
X17952978Y-114312632D01*
X18038171Y-114361819D01*
X18038176Y-114361821D01*
X18038179Y-114361823D01*
X18292568Y-114467195D01*
X18558534Y-114538460D01*
X18831526Y-114574400D01*
X18831533Y-114574400D01*
X19106867Y-114574400D01*
X19106874Y-114574400D01*
X19379866Y-114538460D01*
X19645832Y-114467195D01*
X19900221Y-114361823D01*
X20138679Y-114224149D01*
X20357128Y-114056528D01*
X20551828Y-113861828D01*
X20719449Y-113643379D01*
X20857123Y-113404921D01*
X20962495Y-113150532D01*
X21033760Y-112884566D01*
X21069700Y-112611574D01*
X21069700Y-112336226D01*
X21033760Y-112063234D01*
X20962495Y-111797268D01*
X20857123Y-111542879D01*
X20857121Y-111542876D01*
X20857119Y-111542871D01*
X20807932Y-111457678D01*
X20719449Y-111304421D01*
X20591807Y-111138074D01*
X20566554Y-111105163D01*
X22584700Y-111105163D01*
X22584700Y-111302636D01*
X22615589Y-111497663D01*
X22676608Y-111685458D01*
X22676609Y-111685461D01*
X22733579Y-111797269D01*
X22766258Y-111861404D01*
X22882315Y-112021146D01*
X22882321Y-112021152D01*
X23021948Y-112160779D01*
X23165511Y-112265083D01*
X23208176Y-112320411D01*
X23214155Y-112390024D01*
X23181550Y-112451819D01*
X23120712Y-112486177D01*
X23092627Y-112489400D01*
X23037330Y-112489400D01*
X23037323Y-112489401D01*
X22977716Y-112495808D01*
X22842871Y-112546102D01*
X22842864Y-112546106D01*
X22727655Y-112632352D01*
X22727652Y-112632355D01*
X22641406Y-112747564D01*
X22641402Y-112747571D01*
X22591108Y-112882417D01*
X22584701Y-112942016D01*
X22584700Y-112942035D01*
X22584700Y-114545770D01*
X22584701Y-114545776D01*
X22591108Y-114605383D01*
X22641402Y-114740228D01*
X22641406Y-114740235D01*
X22727652Y-114855444D01*
X22727655Y-114855447D01*
X22842864Y-114941693D01*
X22842871Y-114941697D01*
X22977717Y-114991991D01*
X22977716Y-114991991D01*
X22984644Y-114992735D01*
X23037327Y-114998400D01*
X24641072Y-114998399D01*
X24700683Y-114991991D01*
X24835531Y-114941696D01*
X24950746Y-114855446D01*
X24950751Y-114855438D01*
X24957013Y-114849178D01*
X24959307Y-114851472D01*
X25002497Y-114819113D01*
X25072187Y-114814100D01*
X25133524Y-114847559D01*
X25133560Y-114847596D01*
X26701865Y-116415901D01*
X26823884Y-116537920D01*
X26823886Y-116537921D01*
X26823890Y-116537924D01*
X26960809Y-116616973D01*
X26960816Y-116616977D01*
X27113543Y-116657901D01*
X27113545Y-116657901D01*
X27279254Y-116657901D01*
X27279270Y-116657900D01*
X91565931Y-116657900D01*
X91565947Y-116657901D01*
X91573543Y-116657901D01*
X91731654Y-116657901D01*
X91731657Y-116657901D01*
X91884385Y-116616977D01*
X91934504Y-116588039D01*
X92021316Y-116537920D01*
X92133120Y-116426116D01*
X92133120Y-116426114D01*
X92143328Y-116415907D01*
X92143330Y-116415904D01*
X99644527Y-108914706D01*
X99705848Y-108881223D01*
X99770523Y-108884457D01*
X99834625Y-108905286D01*
X99915283Y-108918061D01*
X100050639Y-108939500D01*
X100050644Y-108939500D01*
X100269361Y-108939500D01*
X100374082Y-108922912D01*
X100485375Y-108905286D01*
X100693383Y-108837701D01*
X100888257Y-108738407D01*
X101026959Y-108637635D01*
X101065193Y-108609857D01*
X101065195Y-108609854D01*
X101065199Y-108609852D01*
X101219852Y-108455199D01*
X101219854Y-108455195D01*
X101219857Y-108455193D01*
X101325457Y-108309845D01*
X101348407Y-108278257D01*
X101379005Y-108218204D01*
X101426980Y-108167409D01*
X101489490Y-108150500D01*
X116610510Y-108150500D01*
X116677549Y-108170185D01*
X116720995Y-108218205D01*
X116751595Y-108278260D01*
X116880142Y-108455193D01*
X117034806Y-108609857D01*
X117143735Y-108688997D01*
X117211743Y-108738407D01*
X117339132Y-108803315D01*
X117406616Y-108837701D01*
X117406619Y-108837702D01*
X117478254Y-108860977D01*
X117614625Y-108905286D01*
X117714672Y-108921132D01*
X117830639Y-108939500D01*
X117830644Y-108939500D01*
X118049361Y-108939500D01*
X118154082Y-108922912D01*
X118265375Y-108905286D01*
X118473383Y-108837701D01*
X118668257Y-108738407D01*
X118806959Y-108637635D01*
X118845193Y-108609857D01*
X118845195Y-108609854D01*
X118845199Y-108609852D01*
X118999852Y-108455199D01*
X118999854Y-108455195D01*
X118999857Y-108455193D01*
X119105457Y-108309845D01*
X119128407Y-108278257D01*
X119227701Y-108083383D01*
X119295286Y-107875375D01*
X119316084Y-107744060D01*
X119329500Y-107659361D01*
X119329500Y-107440638D01*
X119309595Y-107314971D01*
X119295286Y-107224625D01*
X119235483Y-107040568D01*
X119227702Y-107016619D01*
X119227701Y-107016616D01*
X119183473Y-106929815D01*
X119128407Y-106821743D01*
X119081719Y-106757482D01*
X118999857Y-106644806D01*
X118845199Y-106490148D01*
X118845191Y-106490142D01*
X118694028Y-106380316D01*
X118651364Y-106324989D01*
X118645385Y-106255376D01*
X118677990Y-106193580D01*
X118694023Y-106179686D01*
X118845199Y-106069852D01*
X118999852Y-105915199D01*
X118999854Y-105915195D01*
X118999857Y-105915193D01*
X119058985Y-105833809D01*
X119128407Y-105738257D01*
X119227701Y-105543383D01*
X119295286Y-105335375D01*
X119312912Y-105224082D01*
X119329500Y-105119361D01*
X119329500Y-104900638D01*
X119309595Y-104774971D01*
X119295286Y-104684625D01*
X119227701Y-104476617D01*
X119227701Y-104476616D01*
X119159005Y-104341795D01*
X119128407Y-104281743D01*
X119073527Y-104206206D01*
X118999857Y-104104806D01*
X118845199Y-103950148D01*
X118845191Y-103950142D01*
X118694028Y-103840316D01*
X118651364Y-103784989D01*
X118645385Y-103715376D01*
X118677990Y-103653580D01*
X118694023Y-103639686D01*
X118845199Y-103529852D01*
X118999852Y-103375199D01*
X118999854Y-103375195D01*
X118999857Y-103375193D01*
X119076259Y-103270033D01*
X119128407Y-103198257D01*
X119227701Y-103003383D01*
X119295286Y-102795375D01*
X119312912Y-102684082D01*
X119329500Y-102579361D01*
X119329500Y-102360638D01*
X119298398Y-102164275D01*
X119295286Y-102144625D01*
X119227701Y-101936617D01*
X119227701Y-101936616D01*
X119183473Y-101849815D01*
X119128407Y-101741743D01*
X119120147Y-101730374D01*
X118999857Y-101564806D01*
X118845197Y-101410146D01*
X118845192Y-101410142D01*
X118693605Y-101300008D01*
X118650939Y-101244678D01*
X118644960Y-101175065D01*
X118677565Y-101113270D01*
X118693605Y-101099372D01*
X118729638Y-101073191D01*
X118729639Y-101073191D01*
X118069409Y-100412962D01*
X118132993Y-100395925D01*
X118247007Y-100330099D01*
X118340099Y-100237007D01*
X118405925Y-100122993D01*
X118422962Y-100059410D01*
X119083191Y-100719639D01*
X119083191Y-100719638D01*
X119127978Y-100657995D01*
X119227237Y-100463191D01*
X119227238Y-100463188D01*
X119294797Y-100255259D01*
X119329000Y-100039316D01*
X119329000Y-99820683D01*
X119294797Y-99604740D01*
X119227238Y-99396811D01*
X119227237Y-99396808D01*
X119127980Y-99202008D01*
X119083191Y-99140360D01*
X118422962Y-99800589D01*
X118405925Y-99737007D01*
X118340099Y-99622993D01*
X118247007Y-99529901D01*
X118132993Y-99464075D01*
X118069407Y-99447037D01*
X118729638Y-98786807D01*
X118729638Y-98786806D01*
X118693606Y-98760628D01*
X118650939Y-98705299D01*
X118644959Y-98635685D01*
X118677565Y-98573890D01*
X118693599Y-98559994D01*
X118845199Y-98449852D01*
X118999852Y-98295199D01*
X118999854Y-98295195D01*
X118999857Y-98295193D01*
X119056229Y-98217601D01*
X119128407Y-98118257D01*
X119227701Y-97923383D01*
X119295286Y-97715375D01*
X119312912Y-97604082D01*
X119329500Y-97499361D01*
X119329500Y-97280638D01*
X119296137Y-97070000D01*
X119295286Y-97064625D01*
X119236153Y-96882629D01*
X119227702Y-96856619D01*
X119227701Y-96856616D01*
X119159005Y-96721795D01*
X119128407Y-96661743D01*
X119109577Y-96635826D01*
X118999857Y-96484806D01*
X118845199Y-96330148D01*
X118811553Y-96305703D01*
X118694028Y-96220316D01*
X118651364Y-96164989D01*
X118645385Y-96095376D01*
X118677990Y-96033580D01*
X118694023Y-96019686D01*
X118845199Y-95909852D01*
X118999852Y-95755199D01*
X118999854Y-95755195D01*
X118999857Y-95755193D01*
X119056229Y-95677601D01*
X119128407Y-95578257D01*
X119227701Y-95383383D01*
X119295286Y-95175375D01*
X119317770Y-95033419D01*
X119329500Y-94959361D01*
X119329500Y-94740638D01*
X119303606Y-94577155D01*
X119295286Y-94524625D01*
X119227701Y-94316617D01*
X119227701Y-94316616D01*
X119167263Y-94198002D01*
X119128407Y-94121743D01*
X119120147Y-94110374D01*
X118999857Y-93944806D01*
X118845193Y-93790142D01*
X118668260Y-93661595D01*
X118668259Y-93661594D01*
X118668257Y-93661593D01*
X118546394Y-93599500D01*
X118473383Y-93562298D01*
X118473380Y-93562297D01*
X118265376Y-93494714D01*
X118049361Y-93460500D01*
X118049356Y-93460500D01*
X117830644Y-93460500D01*
X117830639Y-93460500D01*
X117614623Y-93494714D01*
X117406619Y-93562297D01*
X117406617Y-93562298D01*
X117360131Y-93585985D01*
X117303836Y-93599500D01*
X100796164Y-93599500D01*
X100739869Y-93585985D01*
X100693382Y-93562298D01*
X100693380Y-93562297D01*
X100485376Y-93494714D01*
X100269361Y-93460500D01*
X100269356Y-93460500D01*
X100050644Y-93460500D01*
X100050639Y-93460500D01*
X99834623Y-93494714D01*
X99626619Y-93562297D01*
X99626616Y-93562298D01*
X99431739Y-93661595D01*
X99254806Y-93790142D01*
X99100142Y-93944806D01*
X98971595Y-94121739D01*
X98872298Y-94316616D01*
X98872297Y-94316619D01*
X98804714Y-94524623D01*
X98770500Y-94740638D01*
X98770500Y-94959361D01*
X98804714Y-95175376D01*
X98872297Y-95383380D01*
X98872298Y-95383383D01*
X98971595Y-95578260D01*
X99100142Y-95755193D01*
X99254806Y-95909857D01*
X99405969Y-96019682D01*
X99448635Y-96075011D01*
X99454614Y-96144625D01*
X99422009Y-96206420D01*
X99405969Y-96220318D01*
X99254806Y-96330142D01*
X99100142Y-96484806D01*
X98971595Y-96661739D01*
X98872298Y-96856616D01*
X98872297Y-96856619D01*
X98804714Y-97064623D01*
X98770500Y-97280638D01*
X98770500Y-97499361D01*
X98804714Y-97715376D01*
X98872297Y-97923380D01*
X98872298Y-97923383D01*
X98971595Y-98118260D01*
X99100142Y-98295193D01*
X99100148Y-98295199D01*
X99254801Y-98449852D01*
X99406395Y-98559991D01*
X99449060Y-98615319D01*
X99455039Y-98684932D01*
X99422434Y-98746728D01*
X99406394Y-98760626D01*
X99370360Y-98786805D01*
X99370360Y-98786807D01*
X100030590Y-99447037D01*
X99967007Y-99464075D01*
X99852993Y-99529901D01*
X99759901Y-99622993D01*
X99694075Y-99737007D01*
X99677037Y-99800590D01*
X99016807Y-99140360D01*
X99016806Y-99140360D01*
X98972023Y-99202001D01*
X98872762Y-99396808D01*
X98872761Y-99396811D01*
X98805202Y-99604740D01*
X98771000Y-99820683D01*
X98771000Y-100039316D01*
X98805202Y-100255259D01*
X98872761Y-100463188D01*
X98872762Y-100463191D01*
X98972020Y-100657993D01*
X98972021Y-100657995D01*
X99016806Y-100719638D01*
X99016807Y-100719638D01*
X99677037Y-100059408D01*
X99694075Y-100122993D01*
X99759901Y-100237007D01*
X99852993Y-100330099D01*
X99967007Y-100395925D01*
X100030590Y-100412962D01*
X99370360Y-101073191D01*
X99370360Y-101073192D01*
X99406394Y-101099372D01*
X99449060Y-101154701D01*
X99455039Y-101224315D01*
X99422434Y-101286110D01*
X99406394Y-101300008D01*
X99254807Y-101410142D01*
X99254802Y-101410146D01*
X99100142Y-101564806D01*
X98971595Y-101741739D01*
X98872298Y-101936616D01*
X98872297Y-101936619D01*
X98804714Y-102144623D01*
X98770500Y-102360638D01*
X98770500Y-102579361D01*
X98804714Y-102795378D01*
X98825540Y-102859475D01*
X98827535Y-102929316D01*
X98795290Y-102985473D01*
X87163584Y-114617181D01*
X87102261Y-114650666D01*
X87075903Y-114653500D01*
X77819441Y-114653500D01*
X77752402Y-114633815D01*
X77706647Y-114581011D01*
X77696703Y-114511853D01*
X77725728Y-114448297D01*
X77771988Y-114414939D01*
X77900221Y-114361823D01*
X78138679Y-114224149D01*
X78357128Y-114056528D01*
X78551828Y-113861828D01*
X78719449Y-113643379D01*
X78857123Y-113404921D01*
X78962495Y-113150532D01*
X79033760Y-112884566D01*
X79069700Y-112611574D01*
X79069700Y-112336226D01*
X79033760Y-112063234D01*
X78962495Y-111797268D01*
X78857123Y-111542879D01*
X78857121Y-111542876D01*
X78857119Y-111542871D01*
X78807932Y-111457678D01*
X78719449Y-111304421D01*
X78591807Y-111138074D01*
X78551829Y-111085973D01*
X78551823Y-111085966D01*
X78357133Y-110891276D01*
X78357126Y-110891270D01*
X78138683Y-110723654D01*
X78138682Y-110723653D01*
X78138679Y-110723651D01*
X78043607Y-110668761D01*
X77900228Y-110585980D01*
X77900217Y-110585975D01*
X77645830Y-110480604D01*
X77512849Y-110444972D01*
X77379866Y-110409340D01*
X77379860Y-110409339D01*
X77379855Y-110409338D01*
X77106884Y-110373401D01*
X77106879Y-110373400D01*
X77106874Y-110373400D01*
X76831526Y-110373400D01*
X76831520Y-110373400D01*
X76831515Y-110373401D01*
X76558544Y-110409338D01*
X76558537Y-110409339D01*
X76558534Y-110409340D01*
X76502325Y-110424400D01*
X76292569Y-110480604D01*
X76038182Y-110585975D01*
X76038171Y-110585980D01*
X75815306Y-110714652D01*
X75801994Y-110722339D01*
X75799716Y-110723654D01*
X75581273Y-110891270D01*
X75581266Y-110891276D01*
X75386576Y-111085966D01*
X75386570Y-111085973D01*
X75218954Y-111304416D01*
X75081280Y-111542871D01*
X75081275Y-111542882D01*
X74975904Y-111797269D01*
X74904641Y-112063231D01*
X74904638Y-112063244D01*
X74868701Y-112336215D01*
X74868700Y-112336232D01*
X74868700Y-112611567D01*
X74868701Y-112611584D01*
X74904638Y-112884555D01*
X74904639Y-112884560D01*
X74904640Y-112884566D01*
X74915916Y-112926648D01*
X74975904Y-113150530D01*
X75081275Y-113404917D01*
X75081280Y-113404928D01*
X75164061Y-113548307D01*
X75218951Y-113643379D01*
X75218953Y-113643382D01*
X75218954Y-113643383D01*
X75386570Y-113861826D01*
X75386576Y-113861833D01*
X75581266Y-114056523D01*
X75581272Y-114056528D01*
X75799721Y-114224149D01*
X75952978Y-114312632D01*
X76038171Y-114361819D01*
X76038176Y-114361821D01*
X76038179Y-114361823D01*
X76166412Y-114414939D01*
X76220815Y-114458780D01*
X76242880Y-114525074D01*
X76225601Y-114592773D01*
X76174464Y-114640384D01*
X76118959Y-114653500D01*
X70692348Y-114653500D01*
X70625309Y-114633815D01*
X70579554Y-114581011D01*
X70569610Y-114511853D01*
X70592029Y-114456615D01*
X70622308Y-114414939D01*
X70632144Y-114401401D01*
X70721791Y-114225461D01*
X70782810Y-114037663D01*
X70813700Y-113842636D01*
X70813700Y-113645163D01*
X70782810Y-113450136D01*
X70726871Y-113277975D01*
X70721791Y-113262339D01*
X70632144Y-113086399D01*
X70606359Y-113050909D01*
X70516084Y-112926653D01*
X70376446Y-112787015D01*
X70216705Y-112670958D01*
X70210319Y-112667704D01*
X70046793Y-112584382D01*
X69996000Y-112536410D01*
X69979205Y-112468589D01*
X70001742Y-112402454D01*
X70046793Y-112363417D01*
X70216701Y-112276844D01*
X70287832Y-112225165D01*
X70376446Y-112160784D01*
X70376448Y-112160781D01*
X70376452Y-112160779D01*
X70516079Y-112021152D01*
X70516081Y-112021148D01*
X70516084Y-112021146D01*
X70632141Y-111861405D01*
X70632143Y-111861402D01*
X70632144Y-111861401D01*
X70718717Y-111691493D01*
X70766690Y-111640700D01*
X70834511Y-111623905D01*
X70900646Y-111646442D01*
X70939682Y-111691493D01*
X70993579Y-111797269D01*
X71026258Y-111861405D01*
X71142315Y-112021146D01*
X71281953Y-112160784D01*
X71429700Y-112268126D01*
X71441699Y-112276844D01*
X71617639Y-112366491D01*
X71704886Y-112394839D01*
X71805436Y-112427510D01*
X72000464Y-112458400D01*
X72000469Y-112458400D01*
X72197936Y-112458400D01*
X72392963Y-112427510D01*
X72398389Y-112425747D01*
X72580761Y-112366491D01*
X72756701Y-112276844D01*
X72846392Y-112211679D01*
X72916446Y-112160784D01*
X72916448Y-112160781D01*
X72916452Y-112160779D01*
X73056079Y-112021152D01*
X73056081Y-112021148D01*
X73056084Y-112021146D01*
X73106979Y-111951092D01*
X73172144Y-111861401D01*
X73261791Y-111685461D01*
X73322810Y-111497663D01*
X73327452Y-111468357D01*
X73353700Y-111302636D01*
X73353700Y-111105163D01*
X73322810Y-110910136D01*
X73262217Y-110723651D01*
X73261791Y-110722339D01*
X73172144Y-110546399D01*
X73146359Y-110510909D01*
X73056084Y-110386653D01*
X72916446Y-110247015D01*
X72756704Y-110130958D01*
X72756703Y-110130957D01*
X72756701Y-110130956D01*
X72580761Y-110041309D01*
X72557780Y-110033842D01*
X72392963Y-109980289D01*
X72197936Y-109949400D01*
X72197931Y-109949400D01*
X72000469Y-109949400D01*
X72000464Y-109949400D01*
X71800625Y-109981052D01*
X71800349Y-109979313D01*
X71797565Y-109979172D01*
X71787854Y-109982795D01*
X71763265Y-109977446D01*
X71738136Y-109976181D01*
X71727896Y-109969751D01*
X71719581Y-109967943D01*
X71691327Y-109946792D01*
X71577719Y-109833184D01*
X71544234Y-109771861D01*
X71541400Y-109745503D01*
X71541400Y-109608955D01*
X71541399Y-109608953D01*
X71510638Y-109454310D01*
X71510637Y-109454303D01*
X71502177Y-109433878D01*
X71450297Y-109308627D01*
X71450290Y-109308614D01*
X71362689Y-109177511D01*
X71362686Y-109177507D01*
X71251192Y-109066013D01*
X71251188Y-109066010D01*
X71120085Y-108978409D01*
X71120072Y-108978402D01*
X70974401Y-108918064D01*
X70974389Y-108918061D01*
X70819745Y-108887300D01*
X70819742Y-108887300D01*
X70662058Y-108887300D01*
X70662055Y-108887300D01*
X70507410Y-108918061D01*
X70507398Y-108918064D01*
X70361727Y-108978402D01*
X70361714Y-108978409D01*
X70230611Y-109066010D01*
X70230607Y-109066013D01*
X70119113Y-109177507D01*
X70119110Y-109177511D01*
X70031509Y-109308614D01*
X70031502Y-109308627D01*
X69971164Y-109454298D01*
X69971161Y-109454310D01*
X69940400Y-109608953D01*
X69940400Y-109766641D01*
X69952414Y-109827043D01*
X69946185Y-109896634D01*
X69903322Y-109951811D01*
X69837432Y-109975055D01*
X69811398Y-109973706D01*
X69657936Y-109949400D01*
X69657931Y-109949400D01*
X69460469Y-109949400D01*
X69460464Y-109949400D01*
X69265436Y-109980289D01*
X69077641Y-110041308D01*
X68901695Y-110130958D01*
X68741953Y-110247015D01*
X68602315Y-110386653D01*
X68486258Y-110546395D01*
X68486256Y-110546399D01*
X68406005Y-110703900D01*
X68399685Y-110716303D01*
X68351710Y-110767099D01*
X68283889Y-110783894D01*
X68217754Y-110761356D01*
X68178715Y-110716303D01*
X68092144Y-110546399D01*
X68066359Y-110510909D01*
X67976084Y-110386653D01*
X67836446Y-110247015D01*
X67676704Y-110130958D01*
X67676703Y-110130957D01*
X67676701Y-110130956D01*
X67500761Y-110041309D01*
X67477780Y-110033842D01*
X67312963Y-109980289D01*
X67117936Y-109949400D01*
X67117931Y-109949400D01*
X66920469Y-109949400D01*
X66920464Y-109949400D01*
X66725436Y-109980289D01*
X66537641Y-110041308D01*
X66361695Y-110130958D01*
X66201953Y-110247015D01*
X66062315Y-110386653D01*
X65946258Y-110546395D01*
X65946256Y-110546399D01*
X65859403Y-110716854D01*
X65811430Y-110767649D01*
X65743609Y-110784444D01*
X65677474Y-110761906D01*
X65638435Y-110716853D01*
X65551720Y-110546668D01*
X65551712Y-110546655D01*
X65525742Y-110510910D01*
X65525741Y-110510909D01*
X64962162Y-111074489D01*
X64945125Y-111010907D01*
X64879299Y-110896893D01*
X64786207Y-110803801D01*
X64672193Y-110737975D01*
X64608608Y-110720937D01*
X65172189Y-110157357D01*
X65136439Y-110131383D01*
X64960573Y-110041773D01*
X64772846Y-109980776D01*
X64577897Y-109949900D01*
X64380503Y-109949900D01*
X64185553Y-109980776D01*
X63997826Y-110041773D01*
X63841010Y-110121677D01*
X63772341Y-110134573D01*
X63707601Y-110108297D01*
X63695898Y-110096399D01*
X63695467Y-110096831D01*
X61025566Y-107426930D01*
X58200770Y-104602135D01*
X72849500Y-104602135D01*
X72849500Y-106697870D01*
X72849501Y-106697876D01*
X72855908Y-106757483D01*
X72906202Y-106892328D01*
X72906206Y-106892335D01*
X72992452Y-107007544D01*
X72992455Y-107007547D01*
X73107664Y-107093793D01*
X73107671Y-107093797D01*
X73242517Y-107144091D01*
X73242516Y-107144091D01*
X73249444Y-107144835D01*
X73302127Y-107150500D01*
X75397872Y-107150499D01*
X75457483Y-107144091D01*
X75592331Y-107093796D01*
X75707546Y-107007546D01*
X75793796Y-106892331D01*
X75844091Y-106757483D01*
X75850500Y-106697873D01*
X75850499Y-104602128D01*
X75844091Y-104542517D01*
X75830278Y-104505483D01*
X75793797Y-104407671D01*
X75793793Y-104407664D01*
X75707547Y-104292455D01*
X75707544Y-104292452D01*
X75592335Y-104206206D01*
X75592328Y-104206202D01*
X75457482Y-104155908D01*
X75457483Y-104155908D01*
X75397883Y-104149501D01*
X75397881Y-104149500D01*
X75397873Y-104149500D01*
X75397864Y-104149500D01*
X73302129Y-104149500D01*
X73302123Y-104149501D01*
X73242516Y-104155908D01*
X73107671Y-104206202D01*
X73107664Y-104206206D01*
X72992455Y-104292452D01*
X72992452Y-104292455D01*
X72906206Y-104407664D01*
X72906202Y-104407671D01*
X72855908Y-104542517D01*
X72849501Y-104602116D01*
X72849501Y-104602123D01*
X72849500Y-104602135D01*
X58200770Y-104602135D01*
X57055615Y-103456980D01*
X57022131Y-103395658D01*
X57027115Y-103325966D01*
X57068987Y-103270033D01*
X57134451Y-103245616D01*
X57143297Y-103245300D01*
X76044703Y-103245300D01*
X76111742Y-103264985D01*
X76132384Y-103281619D01*
X77897200Y-105046435D01*
X77930685Y-105107758D01*
X77927450Y-105172433D01*
X77886447Y-105298628D01*
X77849500Y-105531902D01*
X77849500Y-105768097D01*
X77886446Y-106001368D01*
X77959433Y-106225996D01*
X78066657Y-106436433D01*
X78205483Y-106627510D01*
X78372490Y-106794517D01*
X78563567Y-106933343D01*
X78662991Y-106984002D01*
X78774003Y-107040566D01*
X78774005Y-107040566D01*
X78774008Y-107040568D01*
X78862476Y-107069313D01*
X78998631Y-107113553D01*
X79231903Y-107150500D01*
X79231908Y-107150500D01*
X79468097Y-107150500D01*
X79701368Y-107113553D01*
X79734468Y-107102798D01*
X79925992Y-107040568D01*
X80136433Y-106933343D01*
X80327510Y-106794517D01*
X80494517Y-106627510D01*
X80633343Y-106436433D01*
X80740568Y-106225992D01*
X80813553Y-106001368D01*
X80822302Y-105946129D01*
X80850500Y-105768097D01*
X80850500Y-105531902D01*
X80813553Y-105298631D01*
X80755304Y-105119361D01*
X80740568Y-105074008D01*
X80740566Y-105074005D01*
X80740566Y-105074003D01*
X80654548Y-104905184D01*
X80633343Y-104863567D01*
X80494517Y-104672490D01*
X80327510Y-104505483D01*
X80136433Y-104366657D01*
X80087639Y-104341795D01*
X79925996Y-104259433D01*
X79701368Y-104186446D01*
X79468097Y-104149500D01*
X79468092Y-104149500D01*
X79231908Y-104149500D01*
X79231903Y-104149500D01*
X78998628Y-104186447D01*
X78872433Y-104227450D01*
X78802592Y-104229445D01*
X78746435Y-104197200D01*
X76832390Y-102283155D01*
X76832388Y-102283152D01*
X76713517Y-102164281D01*
X76713509Y-102164275D01*
X76604404Y-102101284D01*
X76604403Y-102101283D01*
X76584849Y-102089994D01*
X76576585Y-102085223D01*
X76423857Y-102044299D01*
X76265743Y-102044299D01*
X76258147Y-102044299D01*
X76258131Y-102044300D01*
X52920896Y-102044300D01*
X52853857Y-102024615D01*
X52808102Y-101971811D01*
X52798158Y-101902653D01*
X52827183Y-101839097D01*
X52833215Y-101832619D01*
X58163701Y-96502135D01*
X69749500Y-96502135D01*
X69749500Y-99797870D01*
X69749501Y-99797876D01*
X69755908Y-99857483D01*
X69806202Y-99992328D01*
X69806206Y-99992335D01*
X69892452Y-100107544D01*
X69892455Y-100107547D01*
X70007664Y-100193793D01*
X70007671Y-100193797D01*
X70142517Y-100244091D01*
X70142516Y-100244091D01*
X70149444Y-100244835D01*
X70202127Y-100250500D01*
X72297872Y-100250499D01*
X72357483Y-100244091D01*
X72492331Y-100193796D01*
X72607546Y-100107546D01*
X72693796Y-99992331D01*
X72744091Y-99857483D01*
X72750500Y-99797873D01*
X72750499Y-96502135D01*
X80949500Y-96502135D01*
X80949500Y-99797870D01*
X80949501Y-99797876D01*
X80955908Y-99857483D01*
X81006202Y-99992328D01*
X81006206Y-99992335D01*
X81092452Y-100107544D01*
X81092455Y-100107547D01*
X81207664Y-100193793D01*
X81207671Y-100193797D01*
X81342517Y-100244091D01*
X81342516Y-100244091D01*
X81349444Y-100244835D01*
X81402127Y-100250500D01*
X83497872Y-100250499D01*
X83557483Y-100244091D01*
X83692331Y-100193796D01*
X83807546Y-100107546D01*
X83893796Y-99992331D01*
X83944091Y-99857483D01*
X83950500Y-99797873D01*
X83950499Y-96502128D01*
X83944091Y-96442517D01*
X83919657Y-96377007D01*
X83893797Y-96307671D01*
X83893793Y-96307664D01*
X83807547Y-96192455D01*
X83807544Y-96192452D01*
X83692335Y-96106206D01*
X83692328Y-96106202D01*
X83557482Y-96055908D01*
X83557483Y-96055908D01*
X83497883Y-96049501D01*
X83497881Y-96049500D01*
X83497873Y-96049500D01*
X83497864Y-96049500D01*
X81402129Y-96049500D01*
X81402123Y-96049501D01*
X81342516Y-96055908D01*
X81207671Y-96106202D01*
X81207664Y-96106206D01*
X81092455Y-96192452D01*
X81092452Y-96192455D01*
X81006206Y-96307664D01*
X81006202Y-96307671D01*
X80955908Y-96442517D01*
X80951362Y-96484806D01*
X80949501Y-96502123D01*
X80949500Y-96502135D01*
X72750499Y-96502135D01*
X72750499Y-96502128D01*
X72744091Y-96442517D01*
X72719657Y-96377007D01*
X72693797Y-96307671D01*
X72693793Y-96307664D01*
X72607547Y-96192455D01*
X72607544Y-96192452D01*
X72492335Y-96106206D01*
X72492328Y-96106202D01*
X72357482Y-96055908D01*
X72357483Y-96055908D01*
X72297883Y-96049501D01*
X72297881Y-96049500D01*
X72297873Y-96049500D01*
X72297864Y-96049500D01*
X70202129Y-96049500D01*
X70202123Y-96049501D01*
X70142516Y-96055908D01*
X70007671Y-96106202D01*
X70007664Y-96106206D01*
X69892455Y-96192452D01*
X69892452Y-96192455D01*
X69806206Y-96307664D01*
X69806202Y-96307671D01*
X69755908Y-96442517D01*
X69751362Y-96484806D01*
X69749501Y-96502123D01*
X69749500Y-96502135D01*
X58163701Y-96502135D01*
X58254711Y-96411125D01*
X59632417Y-95033419D01*
X59693740Y-94999934D01*
X59720098Y-94997100D01*
X76016731Y-94997100D01*
X76016747Y-94997101D01*
X76024343Y-94997101D01*
X76182454Y-94997101D01*
X76182457Y-94997101D01*
X76335185Y-94956177D01*
X76385304Y-94927239D01*
X76472116Y-94877120D01*
X76583920Y-94765316D01*
X76583920Y-94765314D01*
X76594128Y-94755107D01*
X76594130Y-94755104D01*
X78746437Y-92602796D01*
X78807758Y-92569313D01*
X78872433Y-92572547D01*
X78998632Y-92613553D01*
X79086110Y-92627408D01*
X79231903Y-92650500D01*
X79231908Y-92650500D01*
X79468097Y-92650500D01*
X79701368Y-92613553D01*
X79718541Y-92607973D01*
X79925992Y-92540568D01*
X80136433Y-92433343D01*
X80327510Y-92294517D01*
X80494517Y-92127510D01*
X80633343Y-91936433D01*
X80740568Y-91725992D01*
X80813553Y-91501368D01*
X80820579Y-91457007D01*
X80850500Y-91268097D01*
X80850500Y-91031902D01*
X80813553Y-90798631D01*
X80740566Y-90574003D01*
X80684002Y-90462991D01*
X80633343Y-90363567D01*
X80494517Y-90172490D01*
X80327510Y-90005483D01*
X80136433Y-89866657D01*
X79925996Y-89759433D01*
X79701368Y-89686446D01*
X79468097Y-89649500D01*
X79468092Y-89649500D01*
X79231908Y-89649500D01*
X79231903Y-89649500D01*
X78998631Y-89686446D01*
X78774003Y-89759433D01*
X78563566Y-89866657D01*
X78511011Y-89904841D01*
X78372490Y-90005483D01*
X78372488Y-90005485D01*
X78372487Y-90005485D01*
X78205485Y-90172487D01*
X78205485Y-90172488D01*
X78205483Y-90172490D01*
X78170965Y-90220000D01*
X78066657Y-90363566D01*
X77959433Y-90574003D01*
X77886446Y-90798631D01*
X77849500Y-91031902D01*
X77849500Y-91268097D01*
X77886447Y-91501369D01*
X77886447Y-91501372D01*
X77927450Y-91627564D01*
X77929445Y-91697405D01*
X77897200Y-91753563D01*
X75890984Y-93759781D01*
X75829661Y-93793266D01*
X75803303Y-93796100D01*
X59506670Y-93796100D01*
X59506654Y-93796099D01*
X59499058Y-93796099D01*
X59340943Y-93796099D01*
X59264579Y-93816561D01*
X59188214Y-93837023D01*
X59188209Y-93837026D01*
X59051290Y-93916075D01*
X59051282Y-93916081D01*
X47054719Y-105912644D01*
X46993396Y-105946129D01*
X46923704Y-105941145D01*
X46867771Y-105899273D01*
X46843354Y-105833809D01*
X46844565Y-105805563D01*
X46850500Y-105768094D01*
X46850500Y-105531902D01*
X46813553Y-105298631D01*
X46755304Y-105119361D01*
X46740568Y-105074008D01*
X46740566Y-105074005D01*
X46740566Y-105074003D01*
X46654548Y-104905184D01*
X46633343Y-104863567D01*
X46494517Y-104672490D01*
X46327510Y-104505483D01*
X46136433Y-104366657D01*
X46087639Y-104341795D01*
X45925996Y-104259433D01*
X45701368Y-104186446D01*
X45468097Y-104149500D01*
X45468092Y-104149500D01*
X45231908Y-104149500D01*
X45231903Y-104149500D01*
X44998631Y-104186446D01*
X44774003Y-104259433D01*
X44563566Y-104366657D01*
X44454550Y-104445862D01*
X44372490Y-104505483D01*
X44372488Y-104505485D01*
X44372487Y-104505485D01*
X44205485Y-104672487D01*
X44205485Y-104672488D01*
X44205483Y-104672490D01*
X44195314Y-104686487D01*
X44066657Y-104863566D01*
X43959433Y-105074003D01*
X43886446Y-105298631D01*
X43849500Y-105531902D01*
X43849500Y-105768097D01*
X43886447Y-106001369D01*
X43886447Y-106001372D01*
X43927450Y-106127564D01*
X43929445Y-106197405D01*
X43897200Y-106253563D01*
X42512884Y-107637881D01*
X42451561Y-107671366D01*
X42425203Y-107674200D01*
X34294369Y-107674200D01*
X34294353Y-107674199D01*
X34286757Y-107674199D01*
X34128643Y-107674199D01*
X34021287Y-107702965D01*
X33975910Y-107715124D01*
X33975909Y-107715125D01*
X33925796Y-107744059D01*
X33925795Y-107744060D01*
X33882389Y-107769120D01*
X33838985Y-107794179D01*
X33838982Y-107794181D01*
X32271381Y-109361783D01*
X32210058Y-109395268D01*
X32140366Y-109390284D01*
X32084433Y-109348412D01*
X32060016Y-109282948D01*
X32059700Y-109274102D01*
X32059700Y-108688997D01*
X32079385Y-108621958D01*
X32096019Y-108601316D01*
X36095200Y-104602135D01*
X38849500Y-104602135D01*
X38849500Y-106697870D01*
X38849501Y-106697876D01*
X38855908Y-106757483D01*
X38906202Y-106892328D01*
X38906206Y-106892335D01*
X38992452Y-107007544D01*
X38992455Y-107007547D01*
X39107664Y-107093793D01*
X39107671Y-107093797D01*
X39242517Y-107144091D01*
X39242516Y-107144091D01*
X39249444Y-107144835D01*
X39302127Y-107150500D01*
X41397872Y-107150499D01*
X41457483Y-107144091D01*
X41592331Y-107093796D01*
X41707546Y-107007546D01*
X41793796Y-106892331D01*
X41844091Y-106757483D01*
X41850500Y-106697873D01*
X41850499Y-104602128D01*
X41844091Y-104542517D01*
X41830278Y-104505483D01*
X41793797Y-104407671D01*
X41793793Y-104407664D01*
X41707547Y-104292455D01*
X41707544Y-104292452D01*
X41592335Y-104206206D01*
X41592328Y-104206202D01*
X41457482Y-104155908D01*
X41457483Y-104155908D01*
X41397883Y-104149501D01*
X41397881Y-104149500D01*
X41397873Y-104149500D01*
X41397864Y-104149500D01*
X39302129Y-104149500D01*
X39302123Y-104149501D01*
X39242516Y-104155908D01*
X39107671Y-104206202D01*
X39107664Y-104206206D01*
X38992455Y-104292452D01*
X38992452Y-104292455D01*
X38906206Y-104407664D01*
X38906202Y-104407671D01*
X38855908Y-104542517D01*
X38849501Y-104602116D01*
X38849501Y-104602123D01*
X38849500Y-104602135D01*
X36095200Y-104602135D01*
X36186210Y-104511125D01*
X38955593Y-101741743D01*
X44195201Y-96502135D01*
X46949500Y-96502135D01*
X46949500Y-99797870D01*
X46949501Y-99797876D01*
X46955908Y-99857483D01*
X47006202Y-99992328D01*
X47006206Y-99992335D01*
X47092452Y-100107544D01*
X47092455Y-100107547D01*
X47207664Y-100193793D01*
X47207671Y-100193797D01*
X47342517Y-100244091D01*
X47342516Y-100244091D01*
X47349444Y-100244835D01*
X47402127Y-100250500D01*
X49497872Y-100250499D01*
X49557483Y-100244091D01*
X49692331Y-100193796D01*
X49807546Y-100107546D01*
X49893796Y-99992331D01*
X49944091Y-99857483D01*
X49950500Y-99797873D01*
X49950499Y-96502128D01*
X49944091Y-96442517D01*
X49919657Y-96377007D01*
X49893797Y-96307671D01*
X49893793Y-96307664D01*
X49807547Y-96192455D01*
X49807544Y-96192452D01*
X49692335Y-96106206D01*
X49692328Y-96106202D01*
X49557482Y-96055908D01*
X49557483Y-96055908D01*
X49497883Y-96049501D01*
X49497881Y-96049500D01*
X49497873Y-96049500D01*
X49497864Y-96049500D01*
X47402129Y-96049500D01*
X47402123Y-96049501D01*
X47342516Y-96055908D01*
X47207671Y-96106202D01*
X47207664Y-96106206D01*
X47092455Y-96192452D01*
X47092452Y-96192455D01*
X47006206Y-96307664D01*
X47006202Y-96307671D01*
X46955908Y-96442517D01*
X46951362Y-96484806D01*
X46949501Y-96502123D01*
X46949500Y-96502135D01*
X44195201Y-96502135D01*
X45830520Y-94866816D01*
X45909577Y-94729884D01*
X45950501Y-94577157D01*
X45950501Y-94419042D01*
X45950501Y-94411447D01*
X45950500Y-94411429D01*
X45950500Y-92604067D01*
X45970185Y-92537028D01*
X46018205Y-92493582D01*
X46136433Y-92433343D01*
X46327510Y-92294517D01*
X46494517Y-92127510D01*
X46633343Y-91936433D01*
X46740568Y-91725992D01*
X46813553Y-91501368D01*
X46820579Y-91457007D01*
X46850500Y-91268097D01*
X46850500Y-91031902D01*
X46813553Y-90798631D01*
X46740566Y-90574003D01*
X46684002Y-90462991D01*
X46633343Y-90363567D01*
X46494517Y-90172490D01*
X46327510Y-90005483D01*
X46136433Y-89866657D01*
X45925996Y-89759433D01*
X45701368Y-89686446D01*
X45468097Y-89649500D01*
X45468092Y-89649500D01*
X45231908Y-89649500D01*
X45231903Y-89649500D01*
X44998631Y-89686446D01*
X44774003Y-89759433D01*
X44563566Y-89866657D01*
X44511011Y-89904841D01*
X44372490Y-90005483D01*
X44372488Y-90005485D01*
X44372487Y-90005485D01*
X44205485Y-90172487D01*
X44205485Y-90172488D01*
X44205483Y-90172490D01*
X44170965Y-90220000D01*
X44066657Y-90363566D01*
X43959433Y-90574003D01*
X43886446Y-90798631D01*
X43849500Y-91031902D01*
X43849500Y-91268097D01*
X43886446Y-91501368D01*
X43959433Y-91725996D01*
X44053454Y-91910521D01*
X44066657Y-91936433D01*
X44205483Y-92127510D01*
X44372490Y-92294517D01*
X44474379Y-92368544D01*
X44563568Y-92433344D01*
X44586129Y-92444839D01*
X44681794Y-92493582D01*
X44732590Y-92541556D01*
X44749500Y-92604067D01*
X44749500Y-94198002D01*
X44729815Y-94265041D01*
X44713181Y-94285683D01*
X38910829Y-100088034D01*
X38849506Y-100121519D01*
X38779814Y-100116535D01*
X38723881Y-100074663D01*
X38699464Y-100009199D01*
X38706966Y-99957020D01*
X38744091Y-99857483D01*
X38750500Y-99797873D01*
X38750499Y-96502128D01*
X38744091Y-96442517D01*
X38719657Y-96377007D01*
X38693797Y-96307671D01*
X38693793Y-96307664D01*
X38607547Y-96192455D01*
X38607544Y-96192452D01*
X38492335Y-96106206D01*
X38492328Y-96106202D01*
X38357482Y-96055908D01*
X38357483Y-96055908D01*
X38297883Y-96049501D01*
X38297881Y-96049500D01*
X38297873Y-96049500D01*
X38297864Y-96049500D01*
X36202129Y-96049500D01*
X36202123Y-96049501D01*
X36142516Y-96055908D01*
X36007671Y-96106202D01*
X36007664Y-96106206D01*
X35892455Y-96192452D01*
X35892452Y-96192455D01*
X35806206Y-96307664D01*
X35806202Y-96307671D01*
X35755908Y-96442517D01*
X35751362Y-96484806D01*
X35749501Y-96502123D01*
X35749500Y-96502135D01*
X35749500Y-99797870D01*
X35749501Y-99797876D01*
X35755908Y-99857483D01*
X35806202Y-99992328D01*
X35806206Y-99992335D01*
X35892452Y-100107544D01*
X35892455Y-100107547D01*
X36007664Y-100193793D01*
X36007671Y-100193797D01*
X36142517Y-100244091D01*
X36142516Y-100244091D01*
X36149444Y-100244835D01*
X36202127Y-100250500D01*
X38297872Y-100250499D01*
X38357483Y-100244091D01*
X38457020Y-100206965D01*
X38526711Y-100201982D01*
X38588034Y-100235467D01*
X38621519Y-100296790D01*
X38616535Y-100366482D01*
X38588034Y-100410829D01*
X31090486Y-107908378D01*
X30978681Y-108020182D01*
X30978679Y-108020185D01*
X30928561Y-108106994D01*
X30928559Y-108106996D01*
X30899625Y-108157109D01*
X30899624Y-108157110D01*
X30896121Y-108170185D01*
X30858699Y-108309843D01*
X30858699Y-108309845D01*
X30858699Y-108477946D01*
X30858700Y-108477959D01*
X30858700Y-110026582D01*
X30839015Y-110093621D01*
X30804875Y-110127039D01*
X30805640Y-110128092D01*
X30641953Y-110247015D01*
X30502315Y-110386653D01*
X30386258Y-110546395D01*
X30386256Y-110546399D01*
X30299403Y-110716854D01*
X30251430Y-110767649D01*
X30183609Y-110784444D01*
X30117474Y-110761906D01*
X30078435Y-110716853D01*
X29991720Y-110546668D01*
X29991712Y-110546655D01*
X29965742Y-110510910D01*
X29965741Y-110510909D01*
X29402162Y-111074489D01*
X29385125Y-111010907D01*
X29319299Y-110896893D01*
X29226207Y-110803801D01*
X29112193Y-110737975D01*
X29048609Y-110720937D01*
X29612189Y-110157357D01*
X29576439Y-110131383D01*
X29400573Y-110041773D01*
X29212846Y-109980776D01*
X29017897Y-109949900D01*
X28820503Y-109949900D01*
X28625553Y-109980776D01*
X28437826Y-110041773D01*
X28261962Y-110131382D01*
X28261960Y-110131383D01*
X28226210Y-110157356D01*
X28226210Y-110157357D01*
X28789791Y-110720937D01*
X28726207Y-110737975D01*
X28612193Y-110803801D01*
X28519101Y-110896893D01*
X28453275Y-111010907D01*
X28436237Y-111074491D01*
X27872657Y-110510910D01*
X27872656Y-110510910D01*
X27846683Y-110546660D01*
X27846679Y-110546667D01*
X27759963Y-110716854D01*
X27711988Y-110767649D01*
X27644167Y-110784444D01*
X27578033Y-110761906D01*
X27538998Y-110716857D01*
X27452144Y-110546399D01*
X27452142Y-110546396D01*
X27452141Y-110546394D01*
X27336084Y-110386653D01*
X27196446Y-110247015D01*
X27036704Y-110130958D01*
X27036703Y-110130957D01*
X27036701Y-110130956D01*
X26860761Y-110041309D01*
X26837780Y-110033842D01*
X26672963Y-109980289D01*
X26477936Y-109949400D01*
X26477931Y-109949400D01*
X26280469Y-109949400D01*
X26264843Y-109951874D01*
X26245457Y-109953400D01*
X23972943Y-109953400D01*
X23953556Y-109951874D01*
X23937931Y-109949400D01*
X23740469Y-109949400D01*
X23740464Y-109949400D01*
X23545436Y-109980289D01*
X23357641Y-110041308D01*
X23181695Y-110130958D01*
X23021953Y-110247015D01*
X22882315Y-110386653D01*
X22766258Y-110546395D01*
X22676608Y-110722341D01*
X22615589Y-110910136D01*
X22584700Y-111105163D01*
X20566554Y-111105163D01*
X20551829Y-111085973D01*
X20551823Y-111085966D01*
X20357133Y-110891276D01*
X20357126Y-110891270D01*
X20138683Y-110723654D01*
X20138682Y-110723653D01*
X20138679Y-110723651D01*
X20043607Y-110668761D01*
X19900228Y-110585980D01*
X19900217Y-110585975D01*
X19645830Y-110480604D01*
X19512849Y-110444972D01*
X19379866Y-110409340D01*
X19379860Y-110409339D01*
X19379855Y-110409338D01*
X19106884Y-110373401D01*
X19106879Y-110373400D01*
X19106874Y-110373400D01*
X18831526Y-110373400D01*
X18831520Y-110373400D01*
X18831515Y-110373401D01*
X18558544Y-110409338D01*
X18558537Y-110409339D01*
X18558534Y-110409340D01*
X18502325Y-110424400D01*
X18292569Y-110480604D01*
X18038182Y-110585975D01*
X18038171Y-110585980D01*
X17815306Y-110714652D01*
X17801994Y-110722339D01*
X17799716Y-110723654D01*
X17581273Y-110891270D01*
X17581266Y-110891276D01*
X17386576Y-111085966D01*
X17386570Y-111085973D01*
X17218954Y-111304416D01*
X17081280Y-111542871D01*
X17081275Y-111542882D01*
X16975904Y-111797269D01*
X16904641Y-112063231D01*
X16904638Y-112063244D01*
X16868701Y-112336215D01*
X16868700Y-112336232D01*
X14500500Y-112336232D01*
X14500500Y-95162332D01*
X15839500Y-95162332D01*
X15839500Y-95437667D01*
X15839501Y-95437684D01*
X15875438Y-95710655D01*
X15875439Y-95710660D01*
X15875440Y-95710666D01*
X15875441Y-95710668D01*
X15946704Y-95976630D01*
X16052075Y-96231017D01*
X16052080Y-96231028D01*
X16109308Y-96330148D01*
X16189751Y-96469479D01*
X16189753Y-96469482D01*
X16189754Y-96469483D01*
X16357370Y-96687926D01*
X16357376Y-96687933D01*
X16552066Y-96882623D01*
X16552073Y-96882629D01*
X16605407Y-96923553D01*
X16770521Y-97050249D01*
X16912890Y-97132446D01*
X17008971Y-97187919D01*
X17008976Y-97187921D01*
X17008979Y-97187923D01*
X17263368Y-97293295D01*
X17529334Y-97364560D01*
X17802326Y-97400500D01*
X17802333Y-97400500D01*
X18077667Y-97400500D01*
X18077674Y-97400500D01*
X18350666Y-97364560D01*
X18616632Y-97293295D01*
X18871021Y-97187923D01*
X19109479Y-97050249D01*
X19327928Y-96882628D01*
X19522628Y-96687928D01*
X19690249Y-96469479D01*
X19827923Y-96231021D01*
X19933295Y-95976632D01*
X20004560Y-95710666D01*
X20040500Y-95437674D01*
X20040500Y-95162326D01*
X20004560Y-94889334D01*
X19933295Y-94623368D01*
X19827923Y-94368979D01*
X19827921Y-94368976D01*
X19827919Y-94368971D01*
X19729209Y-94198002D01*
X19690249Y-94130521D01*
X19525704Y-93916081D01*
X19522629Y-93912073D01*
X19522623Y-93912066D01*
X19327933Y-93717376D01*
X19327926Y-93717370D01*
X19109483Y-93549754D01*
X19109482Y-93549753D01*
X19109479Y-93549751D01*
X19014152Y-93494714D01*
X18871028Y-93412080D01*
X18871017Y-93412075D01*
X18616632Y-93306705D01*
X18380653Y-93243475D01*
X18320993Y-93207110D01*
X18290464Y-93144263D01*
X18298759Y-93074887D01*
X18343244Y-93021009D01*
X18392847Y-93003101D01*
X18392566Y-93001689D01*
X18535022Y-92973351D01*
X18591835Y-92962051D01*
X18765300Y-92890200D01*
X18773907Y-92886635D01*
X18773907Y-92886634D01*
X18773914Y-92886632D01*
X18937782Y-92777139D01*
X19077139Y-92637782D01*
X19186632Y-92473914D01*
X19262051Y-92291835D01*
X19278160Y-92210853D01*
X19300500Y-92098543D01*
X20879499Y-92098543D01*
X20917947Y-92291829D01*
X20917950Y-92291839D01*
X20993364Y-92473907D01*
X20993371Y-92473920D01*
X21102860Y-92637781D01*
X21102863Y-92637785D01*
X21242214Y-92777136D01*
X21242218Y-92777139D01*
X21406079Y-92886628D01*
X21406092Y-92886635D01*
X21588160Y-92962049D01*
X21588165Y-92962051D01*
X21588169Y-92962051D01*
X21588170Y-92962052D01*
X21781456Y-93000500D01*
X21781459Y-93000500D01*
X22578543Y-93000500D01*
X22708582Y-92974632D01*
X22771835Y-92962051D01*
X22945300Y-92890200D01*
X22953907Y-92886635D01*
X22953907Y-92886634D01*
X22953914Y-92886632D01*
X23117782Y-92777139D01*
X23257139Y-92637782D01*
X23366632Y-92473914D01*
X23442051Y-92291835D01*
X23458160Y-92210853D01*
X23480500Y-92098543D01*
X23480500Y-91901456D01*
X23442052Y-91708170D01*
X23442051Y-91708169D01*
X23442051Y-91708165D01*
X23426042Y-91669515D01*
X23366635Y-91526092D01*
X23366628Y-91526079D01*
X23257139Y-91362218D01*
X23257136Y-91362214D01*
X23117785Y-91222863D01*
X23117781Y-91222860D01*
X22953920Y-91113371D01*
X22953907Y-91113364D01*
X22771839Y-91037950D01*
X22771829Y-91037947D01*
X22578543Y-90999500D01*
X22578541Y-90999500D01*
X21781459Y-90999500D01*
X21781457Y-90999500D01*
X21588170Y-91037947D01*
X21588160Y-91037950D01*
X21406092Y-91113364D01*
X21406079Y-91113371D01*
X21242218Y-91222860D01*
X21242214Y-91222863D01*
X21102863Y-91362214D01*
X21102860Y-91362218D01*
X20993371Y-91526079D01*
X20993364Y-91526092D01*
X20917950Y-91708160D01*
X20917947Y-91708170D01*
X20879500Y-91901456D01*
X20879500Y-91901459D01*
X20879500Y-92098541D01*
X20879500Y-92098543D01*
X20879499Y-92098543D01*
X19300500Y-92098543D01*
X19300500Y-91901456D01*
X19262052Y-91708170D01*
X19262051Y-91708169D01*
X19262051Y-91708165D01*
X19246042Y-91669515D01*
X19186635Y-91526092D01*
X19186628Y-91526079D01*
X19077139Y-91362218D01*
X19077136Y-91362214D01*
X18937785Y-91222863D01*
X18937781Y-91222860D01*
X18773920Y-91113371D01*
X18773907Y-91113364D01*
X18591839Y-91037950D01*
X18591829Y-91037947D01*
X18398543Y-90999500D01*
X18398541Y-90999500D01*
X17601459Y-90999500D01*
X17601457Y-90999500D01*
X17408170Y-91037947D01*
X17408160Y-91037950D01*
X17226092Y-91113364D01*
X17226079Y-91113371D01*
X17062218Y-91222860D01*
X17062214Y-91222863D01*
X16922863Y-91362214D01*
X16922860Y-91362218D01*
X16813371Y-91526079D01*
X16813364Y-91526092D01*
X16737950Y-91708160D01*
X16737947Y-91708170D01*
X16699500Y-91901456D01*
X16699500Y-91901459D01*
X16699500Y-92098541D01*
X16699500Y-92098543D01*
X16699499Y-92098543D01*
X16737947Y-92291829D01*
X16737950Y-92291839D01*
X16813364Y-92473907D01*
X16813371Y-92473920D01*
X16922860Y-92637781D01*
X16922863Y-92637785D01*
X17062214Y-92777136D01*
X17062218Y-92777139D01*
X17226079Y-92886628D01*
X17226092Y-92886635D01*
X17408160Y-92962049D01*
X17408165Y-92962051D01*
X17485951Y-92977523D01*
X17546831Y-92989634D01*
X17608742Y-93022019D01*
X17643316Y-93082734D01*
X17639577Y-93152504D01*
X17598710Y-93209176D01*
X17538830Y-93234189D01*
X17529352Y-93235437D01*
X17529341Y-93235439D01*
X17529334Y-93235440D01*
X17499347Y-93243475D01*
X17263369Y-93306704D01*
X17008982Y-93412075D01*
X17008971Y-93412080D01*
X16770516Y-93549754D01*
X16552073Y-93717370D01*
X16552066Y-93717376D01*
X16357376Y-93912066D01*
X16357370Y-93912073D01*
X16189754Y-94130516D01*
X16052080Y-94368971D01*
X16052075Y-94368982D01*
X15946704Y-94623369D01*
X15875441Y-94889331D01*
X15875438Y-94889344D01*
X15839501Y-95162315D01*
X15839500Y-95162332D01*
X14500500Y-95162332D01*
X14500500Y-79922332D01*
X15839500Y-79922332D01*
X15839500Y-80197667D01*
X15839501Y-80197684D01*
X15875438Y-80470655D01*
X15875439Y-80470660D01*
X15875440Y-80470666D01*
X15899861Y-80561806D01*
X15946704Y-80736630D01*
X16052075Y-80991017D01*
X16052080Y-80991028D01*
X16107171Y-81086447D01*
X16189751Y-81229479D01*
X16189753Y-81229482D01*
X16189754Y-81229483D01*
X16357370Y-81447926D01*
X16357376Y-81447933D01*
X16552066Y-81642623D01*
X16552073Y-81642629D01*
X16678098Y-81739331D01*
X16770521Y-81810249D01*
X16913214Y-81892633D01*
X17008971Y-81947919D01*
X17008976Y-81947921D01*
X17008979Y-81947923D01*
X17263368Y-82053295D01*
X17529334Y-82124560D01*
X17538825Y-82125809D01*
X17602719Y-82154073D01*
X17641192Y-82212396D01*
X17642025Y-82282261D01*
X17604955Y-82341486D01*
X17546832Y-82370365D01*
X17408170Y-82397947D01*
X17408160Y-82397950D01*
X17226092Y-82473364D01*
X17226079Y-82473371D01*
X17062218Y-82582860D01*
X17062214Y-82582863D01*
X16922863Y-82722214D01*
X16922860Y-82722218D01*
X16813371Y-82886079D01*
X16813364Y-82886092D01*
X16737950Y-83068160D01*
X16737947Y-83068170D01*
X16699500Y-83261456D01*
X16699500Y-83261459D01*
X16699500Y-83458541D01*
X16699500Y-83458543D01*
X16699499Y-83458543D01*
X16737947Y-83651829D01*
X16737950Y-83651839D01*
X16813364Y-83833907D01*
X16813371Y-83833920D01*
X16922860Y-83997781D01*
X16922863Y-83997785D01*
X17062214Y-84137136D01*
X17062218Y-84137139D01*
X17226079Y-84246628D01*
X17226092Y-84246635D01*
X17408160Y-84322049D01*
X17408165Y-84322051D01*
X17408169Y-84322051D01*
X17408170Y-84322052D01*
X17601456Y-84360500D01*
X17601459Y-84360500D01*
X18398543Y-84360500D01*
X18528582Y-84334632D01*
X18591835Y-84322051D01*
X18773914Y-84246632D01*
X18937782Y-84137139D01*
X19077139Y-83997782D01*
X19186632Y-83833914D01*
X19262051Y-83651835D01*
X19300500Y-83458543D01*
X20879499Y-83458543D01*
X20917947Y-83651829D01*
X20917950Y-83651839D01*
X20993364Y-83833907D01*
X20993371Y-83833920D01*
X21102860Y-83997781D01*
X21102863Y-83997785D01*
X21242214Y-84137136D01*
X21242218Y-84137139D01*
X21406079Y-84246628D01*
X21406092Y-84246635D01*
X21588160Y-84322049D01*
X21588165Y-84322051D01*
X21588169Y-84322051D01*
X21588170Y-84322052D01*
X21781456Y-84360500D01*
X21781459Y-84360500D01*
X22578543Y-84360500D01*
X22708582Y-84334632D01*
X22771835Y-84322051D01*
X22953914Y-84246632D01*
X23117782Y-84137139D01*
X23257139Y-83997782D01*
X23366632Y-83833914D01*
X23442051Y-83651835D01*
X23480500Y-83458541D01*
X23480500Y-83261459D01*
X23480500Y-83261456D01*
X23442052Y-83068170D01*
X23442051Y-83068169D01*
X23442051Y-83068165D01*
X23442049Y-83068160D01*
X23366635Y-82886092D01*
X23366628Y-82886079D01*
X23257139Y-82722218D01*
X23257136Y-82722214D01*
X23117785Y-82582863D01*
X23117781Y-82582860D01*
X22953920Y-82473371D01*
X22953907Y-82473364D01*
X22771839Y-82397950D01*
X22771829Y-82397947D01*
X22578543Y-82359500D01*
X22578541Y-82359500D01*
X21781459Y-82359500D01*
X21781457Y-82359500D01*
X21588170Y-82397947D01*
X21588160Y-82397950D01*
X21406092Y-82473364D01*
X21406079Y-82473371D01*
X21242218Y-82582860D01*
X21242214Y-82582863D01*
X21102863Y-82722214D01*
X21102860Y-82722218D01*
X20993371Y-82886079D01*
X20993364Y-82886092D01*
X20917950Y-83068160D01*
X20917947Y-83068170D01*
X20879500Y-83261456D01*
X20879500Y-83261459D01*
X20879500Y-83458541D01*
X20879500Y-83458543D01*
X20879499Y-83458543D01*
X19300500Y-83458543D01*
X19300500Y-83458541D01*
X19300500Y-83261459D01*
X19300500Y-83261456D01*
X19262052Y-83068170D01*
X19262051Y-83068169D01*
X19262051Y-83068165D01*
X19262049Y-83068160D01*
X19186635Y-82886092D01*
X19186628Y-82886079D01*
X19077139Y-82722218D01*
X19077136Y-82722214D01*
X18937785Y-82582863D01*
X18937781Y-82582860D01*
X18773920Y-82473371D01*
X18773907Y-82473364D01*
X18591839Y-82397950D01*
X18591829Y-82397947D01*
X18392566Y-82358311D01*
X18392906Y-82356598D01*
X18335807Y-82333542D01*
X18295447Y-82276508D01*
X18292330Y-82206708D01*
X18327443Y-82146303D01*
X18380651Y-82116525D01*
X18616632Y-82053295D01*
X18871021Y-81947923D01*
X19109479Y-81810249D01*
X19327928Y-81642628D01*
X19522628Y-81447928D01*
X19690249Y-81229479D01*
X19827923Y-80991021D01*
X19933295Y-80736632D01*
X20004560Y-80470666D01*
X20040500Y-80197674D01*
X20040500Y-79922326D01*
X20004560Y-79649334D01*
X19933295Y-79383368D01*
X19827923Y-79128979D01*
X19827921Y-79128976D01*
X19827919Y-79128971D01*
X19778732Y-79043778D01*
X19690249Y-78890521D01*
X19524604Y-78674647D01*
X25364300Y-78674647D01*
X25364300Y-78905352D01*
X25400390Y-79133219D01*
X25442320Y-79262264D01*
X25471683Y-79352633D01*
X25576421Y-79558194D01*
X25712027Y-79744839D01*
X25875161Y-79907973D01*
X25939024Y-79954373D01*
X25946332Y-79959682D01*
X25988998Y-80015013D01*
X25994976Y-80084626D01*
X25962370Y-80146421D01*
X25946332Y-80160318D01*
X25875159Y-80212028D01*
X25712029Y-80375158D01*
X25712029Y-80375159D01*
X25712027Y-80375161D01*
X25694159Y-80399754D01*
X25576421Y-80561805D01*
X25471685Y-80767362D01*
X25400390Y-80986780D01*
X25364300Y-81214647D01*
X25364300Y-81445352D01*
X25400390Y-81673219D01*
X25429747Y-81763567D01*
X25471683Y-81892633D01*
X25471684Y-81892636D01*
X25471685Y-81892637D01*
X25499855Y-81947924D01*
X25576421Y-82098194D01*
X25712027Y-82284839D01*
X25875161Y-82447973D01*
X25939024Y-82494373D01*
X25946332Y-82499682D01*
X25988998Y-82555013D01*
X25994976Y-82624626D01*
X25962370Y-82686421D01*
X25946332Y-82700318D01*
X25875159Y-82752028D01*
X25712029Y-82915158D01*
X25712029Y-82915159D01*
X25712027Y-82915161D01*
X25653789Y-82995317D01*
X25576421Y-83101805D01*
X25471685Y-83307362D01*
X25471684Y-83307364D01*
X25471683Y-83307367D01*
X25462239Y-83336433D01*
X25400390Y-83526780D01*
X25367787Y-83732629D01*
X25364300Y-83754647D01*
X25364300Y-83985353D01*
X25366269Y-83997782D01*
X25400390Y-84213219D01*
X25412504Y-84250500D01*
X25471683Y-84432633D01*
X25576421Y-84638194D01*
X25712027Y-84824839D01*
X25875161Y-84987973D01*
X25896147Y-85003220D01*
X25946332Y-85039682D01*
X25988998Y-85095013D01*
X25994976Y-85164626D01*
X25962370Y-85226421D01*
X25946332Y-85240318D01*
X25875159Y-85292028D01*
X25712029Y-85455158D01*
X25712029Y-85455159D01*
X25712027Y-85455161D01*
X25653789Y-85535317D01*
X25576421Y-85641805D01*
X25471685Y-85847362D01*
X25400390Y-86066780D01*
X25364300Y-86294647D01*
X25364300Y-86525352D01*
X25400390Y-86753219D01*
X25442320Y-86882264D01*
X25471683Y-86972633D01*
X25576421Y-87178194D01*
X25712027Y-87364839D01*
X25875161Y-87527973D01*
X25939024Y-87574373D01*
X25946332Y-87579682D01*
X25988998Y-87635013D01*
X25994976Y-87704626D01*
X25962370Y-87766421D01*
X25946332Y-87780318D01*
X25875159Y-87832028D01*
X25712029Y-87995158D01*
X25712029Y-87995159D01*
X25712027Y-87995161D01*
X25653789Y-88075317D01*
X25576421Y-88181805D01*
X25471685Y-88387362D01*
X25400390Y-88606780D01*
X25364300Y-88834647D01*
X25364300Y-89065352D01*
X25400390Y-89293219D01*
X25442320Y-89422264D01*
X25471683Y-89512633D01*
X25576421Y-89718194D01*
X25712027Y-89904839D01*
X25875161Y-90067973D01*
X25939024Y-90114373D01*
X25946332Y-90119682D01*
X25988998Y-90175013D01*
X25994976Y-90244626D01*
X25962370Y-90306421D01*
X25946332Y-90320318D01*
X25875159Y-90372028D01*
X25712029Y-90535158D01*
X25712029Y-90535159D01*
X25712027Y-90535161D01*
X25683807Y-90574003D01*
X25576421Y-90721805D01*
X25471685Y-90927362D01*
X25471684Y-90927364D01*
X25471683Y-90927367D01*
X25458060Y-90969293D01*
X25400390Y-91146780D01*
X25366269Y-91362214D01*
X25364300Y-91374647D01*
X25364300Y-91605353D01*
X25367818Y-91627564D01*
X25400390Y-91833219D01*
X25433843Y-91936174D01*
X25471683Y-92052633D01*
X25576421Y-92258194D01*
X25712027Y-92444839D01*
X25875161Y-92607973D01*
X25916194Y-92637785D01*
X25946332Y-92659682D01*
X25988998Y-92715013D01*
X25994976Y-92784626D01*
X25962370Y-92846421D01*
X25946332Y-92860318D01*
X25875159Y-92912028D01*
X25712029Y-93075158D01*
X25712029Y-93075159D01*
X25712027Y-93075161D01*
X25661821Y-93144263D01*
X25576421Y-93261805D01*
X25471685Y-93467362D01*
X25471684Y-93467364D01*
X25471683Y-93467367D01*
X25455944Y-93515805D01*
X25400390Y-93686780D01*
X25364300Y-93914647D01*
X25364300Y-94145352D01*
X25400390Y-94373219D01*
X25442320Y-94502264D01*
X25471683Y-94592633D01*
X25471684Y-94592636D01*
X25471685Y-94592637D01*
X25541616Y-94729885D01*
X25576421Y-94798194D01*
X25712027Y-94984839D01*
X25875161Y-95147973D01*
X25912878Y-95175376D01*
X25946756Y-95199990D01*
X25989421Y-95255321D01*
X25995400Y-95324934D01*
X25988503Y-95338004D01*
X25985807Y-95372254D01*
X26700591Y-96087037D01*
X26637007Y-96104075D01*
X26522993Y-96169901D01*
X26429901Y-96262993D01*
X26364075Y-96377007D01*
X26347037Y-96440590D01*
X25632254Y-95725807D01*
X25576847Y-95802069D01*
X25472147Y-96007553D01*
X25400877Y-96226897D01*
X25364800Y-96454680D01*
X25364800Y-96685319D01*
X25400877Y-96913102D01*
X25472147Y-97132446D01*
X25576850Y-97337935D01*
X25632253Y-97414191D01*
X25632254Y-97414192D01*
X26347037Y-96699409D01*
X26364075Y-96762993D01*
X26429901Y-96877007D01*
X26522993Y-96970099D01*
X26637007Y-97035925D01*
X26700590Y-97052962D01*
X25985806Y-97767744D01*
X26062067Y-97823151D01*
X26267553Y-97927852D01*
X26486897Y-97999122D01*
X26714681Y-98035200D01*
X26945319Y-98035200D01*
X27173102Y-97999122D01*
X27392446Y-97927852D01*
X27597924Y-97823155D01*
X27597930Y-97823151D01*
X27674191Y-97767744D01*
X27674192Y-97767744D01*
X26959409Y-97052962D01*
X27022993Y-97035925D01*
X27137007Y-96970099D01*
X27230099Y-96877007D01*
X27295925Y-96762993D01*
X27312962Y-96699410D01*
X28027744Y-97414192D01*
X28027744Y-97414191D01*
X28083151Y-97337930D01*
X28083155Y-97337924D01*
X28187852Y-97132446D01*
X28259122Y-96913102D01*
X28295200Y-96685319D01*
X28295200Y-96454680D01*
X28259122Y-96226897D01*
X28187852Y-96007553D01*
X28083151Y-95802067D01*
X28027744Y-95725807D01*
X28027744Y-95725806D01*
X27312962Y-96440589D01*
X27295925Y-96377007D01*
X27230099Y-96262993D01*
X27137007Y-96169901D01*
X27022993Y-96104075D01*
X26959408Y-96087037D01*
X27674192Y-95372254D01*
X27672240Y-95347452D01*
X27670579Y-95345298D01*
X27664598Y-95275685D01*
X27697203Y-95213889D01*
X27713237Y-95199994D01*
X27784839Y-95147973D01*
X27947973Y-94984839D01*
X28083579Y-94798194D01*
X28102399Y-94761256D01*
X28125200Y-94729872D01*
X31823126Y-91031947D01*
X38850000Y-91031947D01*
X38850000Y-91268052D01*
X38886934Y-91501247D01*
X38959897Y-91725802D01*
X39067087Y-91936174D01*
X39127338Y-92019104D01*
X39127340Y-92019105D01*
X39867037Y-91279408D01*
X39884075Y-91342993D01*
X39949901Y-91457007D01*
X40042993Y-91550099D01*
X40157007Y-91615925D01*
X40220590Y-91632962D01*
X39480893Y-92372658D01*
X39563828Y-92432914D01*
X39774197Y-92540102D01*
X39998752Y-92613065D01*
X39998751Y-92613065D01*
X40231948Y-92650000D01*
X40468052Y-92650000D01*
X40701247Y-92613065D01*
X40925802Y-92540102D01*
X41136163Y-92432918D01*
X41136169Y-92432914D01*
X41219104Y-92372658D01*
X41219105Y-92372658D01*
X40479408Y-91632962D01*
X40542993Y-91615925D01*
X40657007Y-91550099D01*
X40750099Y-91457007D01*
X40815925Y-91342993D01*
X40832962Y-91279409D01*
X41572658Y-92019105D01*
X41572658Y-92019104D01*
X41632914Y-91936169D01*
X41632918Y-91936163D01*
X41740102Y-91725802D01*
X41813065Y-91501247D01*
X41850000Y-91268052D01*
X41850000Y-91031947D01*
X41813065Y-90798752D01*
X41740102Y-90574197D01*
X41632914Y-90363828D01*
X41572658Y-90280894D01*
X41572658Y-90280893D01*
X40832962Y-91020590D01*
X40815925Y-90957007D01*
X40750099Y-90842993D01*
X40657007Y-90749901D01*
X40542993Y-90684075D01*
X40479409Y-90667037D01*
X41219105Y-89927340D01*
X41219104Y-89927338D01*
X41136174Y-89867087D01*
X40925802Y-89759897D01*
X40701247Y-89686934D01*
X40701248Y-89686934D01*
X40468052Y-89650000D01*
X40231948Y-89650000D01*
X39998752Y-89686934D01*
X39774197Y-89759897D01*
X39563830Y-89867084D01*
X39480894Y-89927340D01*
X40220591Y-90667037D01*
X40157007Y-90684075D01*
X40042993Y-90749901D01*
X39949901Y-90842993D01*
X39884075Y-90957007D01*
X39867037Y-91020591D01*
X39127340Y-90280894D01*
X39067084Y-90363830D01*
X38959897Y-90574197D01*
X38886934Y-90798752D01*
X38850000Y-91031947D01*
X31823126Y-91031947D01*
X36353828Y-86501246D01*
X36469523Y-86342006D01*
X36485088Y-86311459D01*
X36558884Y-86166625D01*
X36619709Y-85979426D01*
X36640626Y-85847362D01*
X36650500Y-85785022D01*
X36650500Y-85075637D01*
X36670185Y-85008598D01*
X36709400Y-84970100D01*
X36818655Y-84902711D01*
X36942711Y-84778655D01*
X37034814Y-84629334D01*
X37089999Y-84462797D01*
X37100500Y-84360008D01*
X37100500Y-82359992D01*
X37089999Y-82257203D01*
X37034814Y-82090666D01*
X37011763Y-82053295D01*
X36942713Y-81941348D01*
X36942710Y-81941344D01*
X36818655Y-81817289D01*
X36818651Y-81817286D01*
X36669337Y-81725187D01*
X36669335Y-81725186D01*
X36586065Y-81697593D01*
X36502797Y-81670001D01*
X36502795Y-81670000D01*
X36400015Y-81659500D01*
X36400008Y-81659500D01*
X34399992Y-81659500D01*
X34399984Y-81659500D01*
X34297204Y-81670000D01*
X34297203Y-81670001D01*
X34130664Y-81725186D01*
X34130662Y-81725187D01*
X33981348Y-81817286D01*
X33981344Y-81817289D01*
X33857289Y-81941344D01*
X33857286Y-81941348D01*
X33765187Y-82090662D01*
X33765186Y-82090664D01*
X33710001Y-82257203D01*
X33710000Y-82257204D01*
X33699500Y-82359984D01*
X33699500Y-84360015D01*
X33710000Y-84462795D01*
X33710001Y-84462796D01*
X33765186Y-84629335D01*
X33765187Y-84629337D01*
X33857286Y-84778651D01*
X33857289Y-84778655D01*
X33981345Y-84902711D01*
X34090598Y-84970100D01*
X34097421Y-84977685D01*
X34106703Y-84981924D01*
X34120389Y-85003220D01*
X34137322Y-85022046D01*
X34139966Y-85033683D01*
X34144477Y-85040702D01*
X34149500Y-85075637D01*
X34149500Y-85117263D01*
X34129815Y-85184302D01*
X34113181Y-85204944D01*
X28377332Y-90940792D01*
X28316009Y-90974277D01*
X28246317Y-90969293D01*
X28190384Y-90927421D01*
X28179166Y-90909406D01*
X28083578Y-90721805D01*
X27947973Y-90535161D01*
X27784839Y-90372027D01*
X27713665Y-90320316D01*
X27671002Y-90264988D01*
X27665023Y-90195375D01*
X27697629Y-90133580D01*
X27713662Y-90119686D01*
X27784839Y-90067973D01*
X27947973Y-89904839D01*
X28083579Y-89718194D01*
X28188317Y-89512633D01*
X28259609Y-89293219D01*
X28295700Y-89065353D01*
X28295700Y-88834647D01*
X28259609Y-88606781D01*
X28188317Y-88387367D01*
X28083579Y-88181806D01*
X27947973Y-87995161D01*
X27784839Y-87832027D01*
X27713665Y-87780316D01*
X27671002Y-87724988D01*
X27665023Y-87655375D01*
X27697629Y-87593580D01*
X27713662Y-87579686D01*
X27784839Y-87527973D01*
X27947973Y-87364839D01*
X28083579Y-87178194D01*
X28188317Y-86972633D01*
X28259609Y-86753219D01*
X28295700Y-86525353D01*
X28295700Y-86294647D01*
X28259609Y-86066781D01*
X28188317Y-85847367D01*
X28083579Y-85641806D01*
X27947973Y-85455161D01*
X27784839Y-85292027D01*
X27713665Y-85240316D01*
X27671002Y-85184988D01*
X27665023Y-85115375D01*
X27697629Y-85053580D01*
X27713662Y-85039686D01*
X27784839Y-84987973D01*
X27947973Y-84824839D01*
X28083579Y-84638194D01*
X28188317Y-84432633D01*
X28259609Y-84213219D01*
X28295700Y-83985353D01*
X28295700Y-83754647D01*
X28286176Y-83694514D01*
X28259609Y-83526780D01*
X28237436Y-83458541D01*
X28188317Y-83307367D01*
X28083579Y-83101806D01*
X27947973Y-82915161D01*
X27784839Y-82752027D01*
X27713665Y-82700316D01*
X27671002Y-82644988D01*
X27665023Y-82575375D01*
X27697629Y-82513580D01*
X27713662Y-82499686D01*
X27784839Y-82447973D01*
X27947973Y-82284839D01*
X28083579Y-82098194D01*
X28188317Y-81892633D01*
X28259609Y-81673219D01*
X28295700Y-81445353D01*
X28295700Y-81214647D01*
X28259609Y-80986781D01*
X28257573Y-80980516D01*
X28245984Y-80944850D01*
X28188317Y-80767367D01*
X28083579Y-80561806D01*
X27947973Y-80375161D01*
X27784839Y-80212027D01*
X27713665Y-80160316D01*
X27671002Y-80104988D01*
X27665023Y-80035375D01*
X27697629Y-79973580D01*
X27713662Y-79959686D01*
X27784839Y-79907973D01*
X27947973Y-79744839D01*
X28083579Y-79558194D01*
X28188317Y-79352633D01*
X28259609Y-79133219D01*
X28295700Y-78905353D01*
X28295700Y-78674647D01*
X28259609Y-78446781D01*
X28188317Y-78227367D01*
X28083579Y-78021806D01*
X27947973Y-77835161D01*
X27784839Y-77672027D01*
X27598194Y-77536421D01*
X27392633Y-77431683D01*
X27302264Y-77402320D01*
X27173219Y-77360390D01*
X26976508Y-77329234D01*
X26945353Y-77324300D01*
X26714647Y-77324300D01*
X26687239Y-77328641D01*
X26486780Y-77360390D01*
X26315805Y-77415944D01*
X26267367Y-77431683D01*
X26267364Y-77431684D01*
X26267362Y-77431685D01*
X26061805Y-77536421D01*
X25955317Y-77613789D01*
X25875161Y-77672027D01*
X25875159Y-77672029D01*
X25875158Y-77672029D01*
X25712029Y-77835158D01*
X25712029Y-77835159D01*
X25712027Y-77835161D01*
X25653789Y-77915317D01*
X25576421Y-78021805D01*
X25471685Y-78227362D01*
X25400390Y-78446780D01*
X25364300Y-78674647D01*
X19524604Y-78674647D01*
X19522628Y-78672072D01*
X19522623Y-78672066D01*
X19327933Y-78477376D01*
X19327926Y-78477370D01*
X19109483Y-78309754D01*
X19109482Y-78309753D01*
X19109479Y-78309751D01*
X19014407Y-78254861D01*
X18871028Y-78172080D01*
X18871017Y-78172075D01*
X18616630Y-78066704D01*
X18483649Y-78031072D01*
X18350666Y-77995440D01*
X18350660Y-77995439D01*
X18350655Y-77995438D01*
X18077684Y-77959501D01*
X18077679Y-77959500D01*
X18077674Y-77959500D01*
X17802326Y-77959500D01*
X17802320Y-77959500D01*
X17802315Y-77959501D01*
X17529344Y-77995438D01*
X17529337Y-77995439D01*
X17529334Y-77995440D01*
X17473125Y-78010500D01*
X17263369Y-78066704D01*
X17008982Y-78172075D01*
X17008971Y-78172080D01*
X16770516Y-78309754D01*
X16552073Y-78477370D01*
X16552066Y-78477376D01*
X16357376Y-78672066D01*
X16357370Y-78672073D01*
X16189754Y-78890516D01*
X16052080Y-79128971D01*
X16052075Y-79128982D01*
X15946704Y-79383369D01*
X15875441Y-79649331D01*
X15875438Y-79649344D01*
X15839501Y-79922315D01*
X15839500Y-79922332D01*
X14500500Y-79922332D01*
X14500500Y-73088575D01*
X33700000Y-73088575D01*
X33700000Y-73311424D01*
X33729085Y-73532354D01*
X33729088Y-73532367D01*
X33786763Y-73747618D01*
X33872045Y-73953502D01*
X33872054Y-73953520D01*
X33983464Y-74146491D01*
X33983473Y-74146504D01*
X34034040Y-74212403D01*
X34034043Y-74212403D01*
X34835387Y-73411059D01*
X34840889Y-73431591D01*
X34919881Y-73568408D01*
X35031592Y-73680119D01*
X35168409Y-73759111D01*
X35188940Y-73764612D01*
X34387595Y-74565955D01*
X34387595Y-74565956D01*
X34453507Y-74616533D01*
X34646485Y-74727949D01*
X34646497Y-74727954D01*
X34852381Y-74813236D01*
X35067632Y-74870911D01*
X35067645Y-74870914D01*
X35288575Y-74900000D01*
X35511425Y-74900000D01*
X35732354Y-74870914D01*
X35732367Y-74870911D01*
X35947618Y-74813236D01*
X36153502Y-74727954D01*
X36153514Y-74727949D01*
X36346498Y-74616530D01*
X36412403Y-74565957D01*
X36412404Y-74565956D01*
X35611059Y-73764612D01*
X35631591Y-73759111D01*
X35768408Y-73680119D01*
X35880119Y-73568408D01*
X35959111Y-73431591D01*
X35964612Y-73411059D01*
X36765956Y-74212404D01*
X36765957Y-74212403D01*
X36816530Y-74146498D01*
X36927949Y-73953514D01*
X36927954Y-73953502D01*
X37013236Y-73747618D01*
X37070911Y-73532367D01*
X37070914Y-73532354D01*
X37100000Y-73311424D01*
X37100000Y-73088575D01*
X37070914Y-72867645D01*
X37070911Y-72867632D01*
X37013236Y-72652381D01*
X36927954Y-72446497D01*
X36927949Y-72446485D01*
X36816533Y-72253507D01*
X36765956Y-72187595D01*
X36765955Y-72187595D01*
X35964612Y-72988939D01*
X35959111Y-72968409D01*
X35880119Y-72831592D01*
X35768408Y-72719881D01*
X35631591Y-72640889D01*
X35611058Y-72635387D01*
X36412403Y-71834043D01*
X36412403Y-71834040D01*
X36346504Y-71783473D01*
X36346491Y-71783464D01*
X36153520Y-71672054D01*
X36153502Y-71672045D01*
X35947618Y-71586763D01*
X35732367Y-71529088D01*
X35732354Y-71529085D01*
X35511425Y-71500000D01*
X35288575Y-71500000D01*
X35067645Y-71529085D01*
X35067632Y-71529088D01*
X34852381Y-71586763D01*
X34646497Y-71672045D01*
X34646479Y-71672054D01*
X34453511Y-71783462D01*
X34387595Y-71834042D01*
X35188941Y-72635387D01*
X35168409Y-72640889D01*
X35031592Y-72719881D01*
X34919881Y-72831592D01*
X34840889Y-72968409D01*
X34835387Y-72988940D01*
X34034042Y-72187595D01*
X33983462Y-72253511D01*
X33872054Y-72446479D01*
X33872045Y-72446497D01*
X33786763Y-72652381D01*
X33729088Y-72867632D01*
X33729085Y-72867645D01*
X33700000Y-73088575D01*
X14500500Y-73088575D01*
X14500500Y-62702135D01*
X25549500Y-62702135D01*
X25549500Y-64797870D01*
X25549501Y-64797876D01*
X25555908Y-64857483D01*
X25606202Y-64992328D01*
X25606206Y-64992335D01*
X25692452Y-65107544D01*
X25692455Y-65107547D01*
X25807664Y-65193793D01*
X25807671Y-65193797D01*
X25942517Y-65244091D01*
X25942516Y-65244091D01*
X25949444Y-65244835D01*
X26002127Y-65250500D01*
X28097872Y-65250499D01*
X28157483Y-65244091D01*
X28292331Y-65193796D01*
X28407546Y-65107546D01*
X28493796Y-64992331D01*
X28544091Y-64857483D01*
X28550500Y-64797873D01*
X28550499Y-63631902D01*
X30549500Y-63631902D01*
X30549500Y-63868097D01*
X30586446Y-64101368D01*
X30659433Y-64325996D01*
X30730118Y-64464722D01*
X30766657Y-64536433D01*
X30905483Y-64727510D01*
X31072490Y-64894517D01*
X31263567Y-65033343D01*
X31362991Y-65084002D01*
X31474003Y-65140566D01*
X31474005Y-65140566D01*
X31474008Y-65140568D01*
X31594412Y-65179689D01*
X31698631Y-65213553D01*
X31931903Y-65250500D01*
X31931908Y-65250500D01*
X32168097Y-65250500D01*
X32274126Y-65233705D01*
X32401368Y-65213553D01*
X32415854Y-65208845D01*
X32485691Y-65206845D01*
X32541858Y-65239093D01*
X59956839Y-92654074D01*
X59956849Y-92654085D01*
X59961179Y-92658415D01*
X59961180Y-92658416D01*
X60072984Y-92770220D01*
X60142390Y-92810291D01*
X60142391Y-92810292D01*
X60183715Y-92834150D01*
X60209915Y-92849277D01*
X60362642Y-92890200D01*
X60362643Y-92890200D01*
X63331534Y-92890200D01*
X63398573Y-92909885D01*
X63400425Y-92911098D01*
X63532114Y-92999090D01*
X63532127Y-92999097D01*
X63677798Y-93059435D01*
X63677803Y-93059437D01*
X63832453Y-93090199D01*
X63832456Y-93090200D01*
X63832458Y-93090200D01*
X63990144Y-93090200D01*
X63990145Y-93090199D01*
X64144797Y-93059437D01*
X64290479Y-92999094D01*
X64421589Y-92911489D01*
X64533089Y-92799989D01*
X64620694Y-92668879D01*
X64624504Y-92659682D01*
X64670321Y-92549067D01*
X64681037Y-92523197D01*
X64711800Y-92368542D01*
X64711800Y-92210858D01*
X64711800Y-92210855D01*
X64711799Y-92210853D01*
X64689459Y-92098543D01*
X64681037Y-92056203D01*
X64631318Y-91936169D01*
X64620697Y-91910527D01*
X64620690Y-91910514D01*
X64533089Y-91779411D01*
X64533086Y-91779407D01*
X64421592Y-91667913D01*
X64421588Y-91667910D01*
X64290485Y-91580309D01*
X64290472Y-91580302D01*
X64144801Y-91519964D01*
X64144789Y-91519961D01*
X63990145Y-91489200D01*
X63990142Y-91489200D01*
X63832458Y-91489200D01*
X63832455Y-91489200D01*
X63677810Y-91519961D01*
X63677798Y-91519964D01*
X63532127Y-91580302D01*
X63532114Y-91580309D01*
X63400425Y-91668302D01*
X63333747Y-91689180D01*
X63331534Y-91689200D01*
X60741797Y-91689200D01*
X60674758Y-91669515D01*
X60654116Y-91652881D01*
X60033182Y-91031947D01*
X72850000Y-91031947D01*
X72850000Y-91268052D01*
X72886934Y-91501247D01*
X72959897Y-91725802D01*
X73067087Y-91936174D01*
X73127338Y-92019104D01*
X73127340Y-92019105D01*
X73867037Y-91279408D01*
X73884075Y-91342993D01*
X73949901Y-91457007D01*
X74042993Y-91550099D01*
X74157007Y-91615925D01*
X74220590Y-91632962D01*
X73480893Y-92372658D01*
X73563828Y-92432914D01*
X73774197Y-92540102D01*
X73998752Y-92613065D01*
X73998751Y-92613065D01*
X74231948Y-92650000D01*
X74468052Y-92650000D01*
X74701247Y-92613065D01*
X74925802Y-92540102D01*
X75136163Y-92432918D01*
X75136169Y-92432914D01*
X75219104Y-92372658D01*
X75219105Y-92372658D01*
X74479408Y-91632962D01*
X74542993Y-91615925D01*
X74657007Y-91550099D01*
X74750099Y-91457007D01*
X74815925Y-91342993D01*
X74832962Y-91279409D01*
X75572658Y-92019105D01*
X75572658Y-92019104D01*
X75632914Y-91936169D01*
X75632918Y-91936163D01*
X75740102Y-91725802D01*
X75813065Y-91501247D01*
X75850000Y-91268052D01*
X75850000Y-91031947D01*
X75813065Y-90798752D01*
X75740102Y-90574197D01*
X75632914Y-90363828D01*
X75572658Y-90280894D01*
X75572658Y-90280893D01*
X74832962Y-91020590D01*
X74815925Y-90957007D01*
X74750099Y-90842993D01*
X74657007Y-90749901D01*
X74542993Y-90684075D01*
X74479409Y-90667037D01*
X75219105Y-89927340D01*
X75219104Y-89927338D01*
X75136174Y-89867087D01*
X74925802Y-89759897D01*
X74701247Y-89686934D01*
X74701248Y-89686934D01*
X74468052Y-89650000D01*
X74231948Y-89650000D01*
X73998752Y-89686934D01*
X73774197Y-89759897D01*
X73563830Y-89867084D01*
X73480894Y-89927340D01*
X74220591Y-90667037D01*
X74157007Y-90684075D01*
X74042993Y-90749901D01*
X73949901Y-90842993D01*
X73884075Y-90957007D01*
X73867037Y-91020591D01*
X73127340Y-90280894D01*
X73067084Y-90363830D01*
X72959897Y-90574197D01*
X72886934Y-90798752D01*
X72850000Y-91031947D01*
X60033182Y-91031947D01*
X50503370Y-81502135D01*
X55849500Y-81502135D01*
X55849500Y-83597870D01*
X55849501Y-83597876D01*
X55855908Y-83657483D01*
X55906202Y-83792328D01*
X55906206Y-83792335D01*
X55992452Y-83907544D01*
X55992455Y-83907547D01*
X56107664Y-83993793D01*
X56107671Y-83993797D01*
X56242517Y-84044091D01*
X56242516Y-84044091D01*
X56249444Y-84044835D01*
X56302127Y-84050500D01*
X58397872Y-84050499D01*
X58457483Y-84044091D01*
X58592331Y-83993796D01*
X58707546Y-83907546D01*
X58793796Y-83792331D01*
X58844091Y-83657483D01*
X58850500Y-83597873D01*
X58850499Y-82431902D01*
X60849500Y-82431902D01*
X60849500Y-82668097D01*
X60886446Y-82901368D01*
X60959433Y-83125996D01*
X61066657Y-83336433D01*
X61205483Y-83527510D01*
X61372490Y-83694517D01*
X61563567Y-83833343D01*
X61662991Y-83884002D01*
X61774003Y-83940566D01*
X61774005Y-83940566D01*
X61774008Y-83940568D01*
X61894412Y-83979689D01*
X61998631Y-84013553D01*
X62231903Y-84050500D01*
X62231908Y-84050500D01*
X62468097Y-84050500D01*
X62701368Y-84013553D01*
X62925992Y-83940568D01*
X63136433Y-83833343D01*
X63327510Y-83694517D01*
X63494517Y-83527510D01*
X63633343Y-83336433D01*
X63740568Y-83125992D01*
X63813553Y-82901368D01*
X63850500Y-82668097D01*
X63850500Y-82431902D01*
X63813553Y-82198631D01*
X63764150Y-82046586D01*
X63753020Y-82012332D01*
X98694500Y-82012332D01*
X98694500Y-82287667D01*
X98694501Y-82287684D01*
X98730438Y-82560655D01*
X98730439Y-82560660D01*
X98730440Y-82560666D01*
X98747578Y-82624626D01*
X98801704Y-82826630D01*
X98907075Y-83081017D01*
X98907080Y-83081028D01*
X98933043Y-83125996D01*
X99044751Y-83319479D01*
X99044753Y-83319482D01*
X99044754Y-83319483D01*
X99212370Y-83537926D01*
X99212376Y-83537933D01*
X99407066Y-83732623D01*
X99407072Y-83732628D01*
X99625521Y-83900249D01*
X99772925Y-83985353D01*
X99863971Y-84037919D01*
X99863976Y-84037921D01*
X99863979Y-84037923D01*
X100118368Y-84143295D01*
X100384334Y-84214560D01*
X100657326Y-84250500D01*
X100657333Y-84250500D01*
X100932667Y-84250500D01*
X100932674Y-84250500D01*
X101205666Y-84214560D01*
X101471632Y-84143295D01*
X101726021Y-84037923D01*
X101964479Y-83900249D01*
X102182928Y-83732628D01*
X102377628Y-83537928D01*
X102545249Y-83319479D01*
X102682923Y-83081021D01*
X102788295Y-82826632D01*
X102859560Y-82560666D01*
X102895500Y-82287674D01*
X102895500Y-82012332D01*
X115204500Y-82012332D01*
X115204500Y-82287667D01*
X115204501Y-82287684D01*
X115240438Y-82560655D01*
X115240439Y-82560660D01*
X115240440Y-82560666D01*
X115257578Y-82624626D01*
X115311704Y-82826630D01*
X115417075Y-83081017D01*
X115417080Y-83081028D01*
X115443043Y-83125996D01*
X115554751Y-83319479D01*
X115554753Y-83319482D01*
X115554754Y-83319483D01*
X115722370Y-83537926D01*
X115722376Y-83537933D01*
X115917066Y-83732623D01*
X115917072Y-83732628D01*
X116135521Y-83900249D01*
X116282925Y-83985353D01*
X116373971Y-84037919D01*
X116373976Y-84037921D01*
X116373979Y-84037923D01*
X116628368Y-84143295D01*
X116894334Y-84214560D01*
X117167326Y-84250500D01*
X117167333Y-84250500D01*
X117442667Y-84250500D01*
X117442674Y-84250500D01*
X117715666Y-84214560D01*
X117981632Y-84143295D01*
X118236021Y-84037923D01*
X118474479Y-83900249D01*
X118692928Y-83732628D01*
X118887628Y-83537928D01*
X119055249Y-83319479D01*
X119192923Y-83081021D01*
X119298295Y-82826632D01*
X119369560Y-82560666D01*
X119405500Y-82287674D01*
X119405500Y-82012326D01*
X119369560Y-81739334D01*
X119298295Y-81473368D01*
X119192923Y-81218979D01*
X119192921Y-81218976D01*
X119192919Y-81218971D01*
X119098774Y-81055909D01*
X119055249Y-80980521D01*
X118887628Y-80762072D01*
X118887623Y-80762066D01*
X118692933Y-80567376D01*
X118692926Y-80567370D01*
X118474483Y-80399754D01*
X118474482Y-80399753D01*
X118474479Y-80399751D01*
X118379407Y-80344861D01*
X118236028Y-80262080D01*
X118236017Y-80262075D01*
X117981630Y-80156704D01*
X117848649Y-80121072D01*
X117715666Y-80085440D01*
X117715660Y-80085439D01*
X117715655Y-80085438D01*
X117442684Y-80049501D01*
X117442679Y-80049500D01*
X117442674Y-80049500D01*
X117167326Y-80049500D01*
X117167320Y-80049500D01*
X117167315Y-80049501D01*
X116894344Y-80085438D01*
X116894337Y-80085439D01*
X116894334Y-80085440D01*
X116838125Y-80100500D01*
X116628369Y-80156704D01*
X116373982Y-80262075D01*
X116373971Y-80262080D01*
X116135516Y-80399754D01*
X115917073Y-80567370D01*
X115917066Y-80567376D01*
X115722376Y-80762066D01*
X115722370Y-80762073D01*
X115554754Y-80980516D01*
X115417080Y-81218971D01*
X115417075Y-81218982D01*
X115311704Y-81473369D01*
X115240441Y-81739331D01*
X115240438Y-81739344D01*
X115204501Y-82012315D01*
X115204500Y-82012332D01*
X102895500Y-82012332D01*
X102895500Y-82012326D01*
X102859560Y-81739334D01*
X102788295Y-81473368D01*
X102682923Y-81218979D01*
X102682921Y-81218976D01*
X102682919Y-81218971D01*
X102588774Y-81055909D01*
X102545249Y-80980521D01*
X102377628Y-80762072D01*
X102377623Y-80762066D01*
X102182933Y-80567376D01*
X102182926Y-80567370D01*
X101964483Y-80399754D01*
X101964482Y-80399753D01*
X101964479Y-80399751D01*
X101869407Y-80344861D01*
X101726028Y-80262080D01*
X101726017Y-80262075D01*
X101471630Y-80156704D01*
X101338649Y-80121072D01*
X101205666Y-80085440D01*
X101205660Y-80085439D01*
X101205655Y-80085438D01*
X100932684Y-80049501D01*
X100932679Y-80049500D01*
X100932674Y-80049500D01*
X100657326Y-80049500D01*
X100657320Y-80049500D01*
X100657315Y-80049501D01*
X100384344Y-80085438D01*
X100384337Y-80085439D01*
X100384334Y-80085440D01*
X100328125Y-80100500D01*
X100118369Y-80156704D01*
X99863982Y-80262075D01*
X99863971Y-80262080D01*
X99625516Y-80399754D01*
X99407073Y-80567370D01*
X99407066Y-80567376D01*
X99212376Y-80762066D01*
X99212370Y-80762073D01*
X99044754Y-80980516D01*
X98907080Y-81218971D01*
X98907075Y-81218982D01*
X98801704Y-81473369D01*
X98730441Y-81739331D01*
X98730438Y-81739344D01*
X98694501Y-82012315D01*
X98694500Y-82012332D01*
X63753020Y-82012332D01*
X63740566Y-81974003D01*
X63684002Y-81862991D01*
X63633343Y-81763567D01*
X63494517Y-81572490D01*
X63327510Y-81405483D01*
X63136433Y-81266657D01*
X62925996Y-81159433D01*
X62701368Y-81086446D01*
X62468097Y-81049500D01*
X62468092Y-81049500D01*
X62231908Y-81049500D01*
X62231903Y-81049500D01*
X61998631Y-81086446D01*
X61774003Y-81159433D01*
X61563566Y-81266657D01*
X61507119Y-81307669D01*
X61372490Y-81405483D01*
X61372488Y-81405485D01*
X61372487Y-81405485D01*
X61205485Y-81572487D01*
X61205485Y-81572488D01*
X61205483Y-81572490D01*
X61154528Y-81642623D01*
X61066657Y-81763566D01*
X60959433Y-81974003D01*
X60886446Y-82198631D01*
X60849500Y-82431902D01*
X58850499Y-82431902D01*
X58850499Y-81502128D01*
X58844673Y-81447928D01*
X58844091Y-81442516D01*
X58793797Y-81307671D01*
X58793793Y-81307664D01*
X58707547Y-81192455D01*
X58707544Y-81192452D01*
X58592335Y-81106206D01*
X58592328Y-81106202D01*
X58457482Y-81055908D01*
X58457483Y-81055908D01*
X58397883Y-81049501D01*
X58397881Y-81049500D01*
X58397873Y-81049500D01*
X58397864Y-81049500D01*
X56302129Y-81049500D01*
X56302123Y-81049501D01*
X56242516Y-81055908D01*
X56107671Y-81106202D01*
X56107664Y-81106206D01*
X55992455Y-81192452D01*
X55992452Y-81192455D01*
X55906206Y-81307664D01*
X55906202Y-81307671D01*
X55855908Y-81442517D01*
X55849501Y-81502116D01*
X55849501Y-81502123D01*
X55849500Y-81502135D01*
X50503370Y-81502135D01*
X43554559Y-74553324D01*
X43521074Y-74492001D01*
X43526058Y-74422309D01*
X43539136Y-74396756D01*
X43615494Y-74282479D01*
X43675837Y-74136797D01*
X43706600Y-73982142D01*
X43706738Y-73981450D01*
X43739123Y-73919539D01*
X43740614Y-73918020D01*
X44155117Y-73503519D01*
X44216440Y-73470034D01*
X44242798Y-73467200D01*
X52625500Y-73467200D01*
X52692539Y-73486885D01*
X52738294Y-73539689D01*
X52749500Y-73591200D01*
X52749500Y-76697870D01*
X52749501Y-76697876D01*
X52755908Y-76757483D01*
X52806202Y-76892328D01*
X52806206Y-76892335D01*
X52892452Y-77007544D01*
X52892455Y-77007547D01*
X53007664Y-77093793D01*
X53007671Y-77093797D01*
X53142517Y-77144091D01*
X53142516Y-77144091D01*
X53149444Y-77144835D01*
X53202127Y-77150500D01*
X55297872Y-77150499D01*
X55357483Y-77144091D01*
X55492331Y-77093796D01*
X55607546Y-77007546D01*
X55693796Y-76892331D01*
X55744091Y-76757483D01*
X55750500Y-76697873D01*
X55750499Y-73591199D01*
X55770184Y-73524161D01*
X55822988Y-73478406D01*
X55874499Y-73467200D01*
X57446631Y-73467200D01*
X57446647Y-73467201D01*
X57454243Y-73467201D01*
X57612354Y-73467201D01*
X57612357Y-73467201D01*
X57765085Y-73426277D01*
X57806900Y-73402135D01*
X63949500Y-73402135D01*
X63949500Y-76697870D01*
X63949501Y-76697876D01*
X63955908Y-76757483D01*
X64006202Y-76892328D01*
X64006206Y-76892335D01*
X64092452Y-77007544D01*
X64092455Y-77007547D01*
X64207664Y-77093793D01*
X64207671Y-77093797D01*
X64342517Y-77144091D01*
X64342516Y-77144091D01*
X64349444Y-77144835D01*
X64402127Y-77150500D01*
X66497872Y-77150499D01*
X66557483Y-77144091D01*
X66692331Y-77093796D01*
X66807546Y-77007546D01*
X66893796Y-76892331D01*
X66944091Y-76757483D01*
X66950500Y-76697873D01*
X66950499Y-73402128D01*
X66944091Y-73342517D01*
X66942422Y-73338043D01*
X66893797Y-73207671D01*
X66893793Y-73207664D01*
X66807547Y-73092455D01*
X66807544Y-73092452D01*
X66692335Y-73006206D01*
X66692328Y-73006202D01*
X66557482Y-72955908D01*
X66557483Y-72955908D01*
X66497883Y-72949501D01*
X66497881Y-72949500D01*
X66497873Y-72949500D01*
X66497864Y-72949500D01*
X64402129Y-72949500D01*
X64402123Y-72949501D01*
X64342516Y-72955908D01*
X64207671Y-73006202D01*
X64207664Y-73006206D01*
X64092455Y-73092452D01*
X64092452Y-73092455D01*
X64006206Y-73207664D01*
X64006202Y-73207671D01*
X63955908Y-73342517D01*
X63950480Y-73393011D01*
X63949501Y-73402123D01*
X63949500Y-73402135D01*
X57806900Y-73402135D01*
X57822703Y-73393011D01*
X57902016Y-73347220D01*
X58013820Y-73235416D01*
X58013821Y-73235413D01*
X61746437Y-69502796D01*
X61807758Y-69469313D01*
X61872433Y-69472547D01*
X61998632Y-69513553D01*
X62086110Y-69527408D01*
X62231903Y-69550500D01*
X62231908Y-69550500D01*
X62468097Y-69550500D01*
X62701368Y-69513553D01*
X62734468Y-69502798D01*
X62925992Y-69440568D01*
X63136433Y-69333343D01*
X63327510Y-69194517D01*
X63494517Y-69027510D01*
X63633343Y-68836433D01*
X63740568Y-68625992D01*
X63813553Y-68401368D01*
X63850500Y-68168097D01*
X63850500Y-67931902D01*
X63813553Y-67698631D01*
X63740566Y-67474003D01*
X63633342Y-67263566D01*
X63494517Y-67072490D01*
X63327510Y-66905483D01*
X63136433Y-66766657D01*
X62925996Y-66659433D01*
X62701368Y-66586446D01*
X62468097Y-66549500D01*
X62468092Y-66549500D01*
X62231908Y-66549500D01*
X62231903Y-66549500D01*
X61998631Y-66586446D01*
X61774003Y-66659433D01*
X61563566Y-66766657D01*
X61454550Y-66845862D01*
X61372490Y-66905483D01*
X61372488Y-66905485D01*
X61372487Y-66905485D01*
X61205485Y-67072487D01*
X61205485Y-67072488D01*
X61205483Y-67072490D01*
X61145862Y-67154550D01*
X61066657Y-67263566D01*
X60959433Y-67474003D01*
X60886446Y-67698631D01*
X60849500Y-67931902D01*
X60849500Y-68168097D01*
X60886447Y-68401369D01*
X60886447Y-68401372D01*
X60927450Y-68527564D01*
X60929445Y-68597405D01*
X60897200Y-68653563D01*
X57320884Y-72229881D01*
X57259561Y-72263366D01*
X57233203Y-72266200D01*
X44029370Y-72266200D01*
X44029354Y-72266199D01*
X44021758Y-72266199D01*
X43863643Y-72266199D01*
X43787279Y-72286661D01*
X43710914Y-72307123D01*
X43710909Y-72307126D01*
X43573990Y-72386175D01*
X43573982Y-72386181D01*
X42891439Y-73068725D01*
X42830116Y-73102210D01*
X42827950Y-73102661D01*
X42672608Y-73133561D01*
X42672598Y-73133564D01*
X42526927Y-73193902D01*
X42526914Y-73193909D01*
X42412647Y-73270261D01*
X42345969Y-73291139D01*
X42278589Y-73272654D01*
X42256075Y-73254840D01*
X33465957Y-64464722D01*
X33432472Y-64403399D01*
X33437456Y-64333707D01*
X33439083Y-64329575D01*
X33440561Y-64326004D01*
X33440568Y-64325992D01*
X33513553Y-64101368D01*
X33550500Y-63868097D01*
X33550500Y-63631902D01*
X33513553Y-63398631D01*
X33440566Y-63174003D01*
X33333342Y-62963566D01*
X33317090Y-62941197D01*
X33194517Y-62772490D01*
X33027510Y-62605483D01*
X32836433Y-62466657D01*
X32625996Y-62359433D01*
X32401368Y-62286446D01*
X32168097Y-62249500D01*
X32168092Y-62249500D01*
X31931908Y-62249500D01*
X31931903Y-62249500D01*
X31698631Y-62286446D01*
X31474003Y-62359433D01*
X31263566Y-62466657D01*
X31207119Y-62507669D01*
X31072490Y-62605483D01*
X31072488Y-62605485D01*
X31072487Y-62605485D01*
X30905485Y-62772487D01*
X30905485Y-62772488D01*
X30905483Y-62772490D01*
X30895271Y-62786546D01*
X30766657Y-62963566D01*
X30659433Y-63174003D01*
X30586446Y-63398631D01*
X30549500Y-63631902D01*
X28550499Y-63631902D01*
X28550499Y-62702128D01*
X28544091Y-62642517D01*
X28538995Y-62628855D01*
X28493797Y-62507671D01*
X28493793Y-62507664D01*
X28407547Y-62392455D01*
X28407544Y-62392452D01*
X28292335Y-62306206D01*
X28292328Y-62306202D01*
X28157482Y-62255908D01*
X28157483Y-62255908D01*
X28097883Y-62249501D01*
X28097881Y-62249500D01*
X28097873Y-62249500D01*
X28097864Y-62249500D01*
X26002129Y-62249500D01*
X26002123Y-62249501D01*
X25942516Y-62255908D01*
X25807671Y-62306202D01*
X25807664Y-62306206D01*
X25692455Y-62392452D01*
X25692452Y-62392455D01*
X25606206Y-62507664D01*
X25606202Y-62507671D01*
X25555908Y-62642517D01*
X25549501Y-62702116D01*
X25549501Y-62702123D01*
X25549500Y-62702135D01*
X14500500Y-62702135D01*
X14500500Y-54602135D01*
X22449500Y-54602135D01*
X22449500Y-57897870D01*
X22449501Y-57897876D01*
X22455908Y-57957483D01*
X22506202Y-58092328D01*
X22506206Y-58092335D01*
X22592452Y-58207544D01*
X22592455Y-58207547D01*
X22707664Y-58293793D01*
X22707671Y-58293797D01*
X22842517Y-58344091D01*
X22842516Y-58344091D01*
X22849444Y-58344835D01*
X22902127Y-58350500D01*
X24997872Y-58350499D01*
X25057483Y-58344091D01*
X25192331Y-58293796D01*
X25307546Y-58207546D01*
X25393796Y-58092331D01*
X25444091Y-57957483D01*
X25450500Y-57897873D01*
X25450499Y-54602128D01*
X25444091Y-54542517D01*
X25428813Y-54501555D01*
X25393797Y-54407671D01*
X25393793Y-54407664D01*
X25307547Y-54292455D01*
X25307544Y-54292452D01*
X25192335Y-54206206D01*
X25192328Y-54206202D01*
X25057482Y-54155908D01*
X25057483Y-54155908D01*
X24997883Y-54149501D01*
X24997881Y-54149500D01*
X24997873Y-54149500D01*
X24997864Y-54149500D01*
X22902129Y-54149500D01*
X22902123Y-54149501D01*
X22842516Y-54155908D01*
X22707671Y-54206202D01*
X22707664Y-54206206D01*
X22592455Y-54292452D01*
X22592452Y-54292455D01*
X22506206Y-54407664D01*
X22506202Y-54407671D01*
X22455908Y-54542517D01*
X22453250Y-54567246D01*
X22449501Y-54602123D01*
X22449500Y-54602135D01*
X14500500Y-54602135D01*
X14500500Y-49131947D01*
X25550000Y-49131947D01*
X25550000Y-49368052D01*
X25586934Y-49601247D01*
X25659897Y-49825802D01*
X25767087Y-50036174D01*
X25827338Y-50119104D01*
X25827340Y-50119105D01*
X26567037Y-49379408D01*
X26584075Y-49442993D01*
X26649901Y-49557007D01*
X26742993Y-49650099D01*
X26857007Y-49715925D01*
X26920590Y-49732962D01*
X26180893Y-50472658D01*
X26263828Y-50532914D01*
X26474197Y-50640102D01*
X26698752Y-50713065D01*
X26698751Y-50713065D01*
X26931948Y-50750000D01*
X27168052Y-50750000D01*
X27401247Y-50713065D01*
X27625802Y-50640102D01*
X27836163Y-50532918D01*
X27836169Y-50532914D01*
X27919104Y-50472658D01*
X27919105Y-50472658D01*
X27179408Y-49732962D01*
X27242993Y-49715925D01*
X27357007Y-49650099D01*
X27450099Y-49557007D01*
X27515925Y-49442993D01*
X27532962Y-49379408D01*
X28272658Y-50119105D01*
X28272658Y-50119104D01*
X28332914Y-50036169D01*
X28332918Y-50036163D01*
X28440102Y-49825802D01*
X28513065Y-49601247D01*
X28550000Y-49368052D01*
X28550000Y-49131947D01*
X28549993Y-49131902D01*
X30549500Y-49131902D01*
X30549500Y-49368097D01*
X30586446Y-49601368D01*
X30659433Y-49825996D01*
X30749204Y-50002179D01*
X30766657Y-50036433D01*
X30905483Y-50227510D01*
X31072490Y-50394517D01*
X31263567Y-50533343D01*
X31362991Y-50584002D01*
X31474003Y-50640566D01*
X31474005Y-50640566D01*
X31474008Y-50640568D01*
X31566292Y-50670553D01*
X31698631Y-50713553D01*
X31931903Y-50750500D01*
X31931908Y-50750500D01*
X32168097Y-50750500D01*
X32274126Y-50733705D01*
X32401368Y-50713553D01*
X32527566Y-50672547D01*
X32597404Y-50670553D01*
X32653563Y-50702798D01*
X35888584Y-53937819D01*
X35922069Y-53999142D01*
X35917085Y-54068834D01*
X35875213Y-54124767D01*
X35809749Y-54149184D01*
X35800903Y-54149500D01*
X34102129Y-54149500D01*
X34102123Y-54149501D01*
X34042516Y-54155908D01*
X33907671Y-54206202D01*
X33907664Y-54206206D01*
X33792455Y-54292452D01*
X33792452Y-54292455D01*
X33706206Y-54407664D01*
X33706202Y-54407671D01*
X33655908Y-54542517D01*
X33653250Y-54567246D01*
X33649501Y-54602123D01*
X33649500Y-54602135D01*
X33649500Y-57897870D01*
X33649501Y-57897876D01*
X33655908Y-57957483D01*
X33706202Y-58092328D01*
X33706206Y-58092335D01*
X33792452Y-58207544D01*
X33792455Y-58207547D01*
X33907664Y-58293793D01*
X33907671Y-58293797D01*
X34042517Y-58344091D01*
X34042516Y-58344091D01*
X34049444Y-58344835D01*
X34102127Y-58350500D01*
X36197872Y-58350499D01*
X36257483Y-58344091D01*
X36392331Y-58293796D01*
X36507546Y-58207546D01*
X36593796Y-58092331D01*
X36644091Y-57957483D01*
X36650500Y-57897873D01*
X36650499Y-54999095D01*
X36670184Y-54932057D01*
X36722987Y-54886302D01*
X36792146Y-54876358D01*
X36855702Y-54905383D01*
X36862180Y-54911415D01*
X42064639Y-60113874D01*
X42064649Y-60113885D01*
X42068979Y-60118215D01*
X42068980Y-60118216D01*
X42180784Y-60230020D01*
X42232345Y-60259788D01*
X42267595Y-60280139D01*
X42267597Y-60280141D01*
X42317713Y-60309076D01*
X42317715Y-60309077D01*
X42470442Y-60350000D01*
X42470443Y-60350000D01*
X63822434Y-60350000D01*
X63889473Y-60369685D01*
X63891325Y-60370898D01*
X64023014Y-60458890D01*
X64023027Y-60458897D01*
X64168698Y-60519235D01*
X64168703Y-60519237D01*
X64323353Y-60549999D01*
X64323356Y-60550000D01*
X64323358Y-60550000D01*
X64481044Y-60550000D01*
X64481045Y-60549999D01*
X64635697Y-60519237D01*
X64781379Y-60458894D01*
X64912489Y-60371289D01*
X65023989Y-60259789D01*
X65111594Y-60128679D01*
X65171937Y-59982997D01*
X65202700Y-59828342D01*
X65202700Y-59670658D01*
X65202700Y-59670655D01*
X65202699Y-59670653D01*
X65171938Y-59516010D01*
X65171937Y-59516003D01*
X65171935Y-59515998D01*
X65111597Y-59370327D01*
X65111590Y-59370314D01*
X65023989Y-59239211D01*
X65023986Y-59239207D01*
X64912492Y-59127713D01*
X64912488Y-59127710D01*
X64781385Y-59040109D01*
X64781372Y-59040102D01*
X64635701Y-58979764D01*
X64635689Y-58979761D01*
X64481045Y-58949000D01*
X64481042Y-58949000D01*
X64323358Y-58949000D01*
X64323355Y-58949000D01*
X64168710Y-58979761D01*
X64168698Y-58979764D01*
X64023027Y-59040102D01*
X64023014Y-59040109D01*
X63891325Y-59128102D01*
X63824647Y-59148980D01*
X63822434Y-59149000D01*
X42849597Y-59149000D01*
X42782558Y-59129315D01*
X42761916Y-59112681D01*
X33502798Y-49853563D01*
X33469313Y-49792240D01*
X33472547Y-49727566D01*
X33513553Y-49601368D01*
X33538637Y-49442993D01*
X33550500Y-49368097D01*
X33550500Y-49131902D01*
X33513553Y-48898631D01*
X33440566Y-48674003D01*
X33333477Y-48463830D01*
X33333343Y-48463567D01*
X33194517Y-48272490D01*
X33027510Y-48105483D01*
X32836433Y-47966657D01*
X32764490Y-47930000D01*
X32625996Y-47859433D01*
X32401368Y-47786446D01*
X32168097Y-47749500D01*
X32168092Y-47749500D01*
X31931908Y-47749500D01*
X31931903Y-47749500D01*
X31698631Y-47786446D01*
X31474003Y-47859433D01*
X31263566Y-47966657D01*
X31252100Y-47974988D01*
X31072490Y-48105483D01*
X31072488Y-48105485D01*
X31072487Y-48105485D01*
X30905485Y-48272487D01*
X30905485Y-48272488D01*
X30905483Y-48272490D01*
X30845862Y-48354550D01*
X30766657Y-48463566D01*
X30659433Y-48674003D01*
X30586446Y-48898631D01*
X30549500Y-49131902D01*
X28549993Y-49131902D01*
X28513065Y-48898752D01*
X28440102Y-48674197D01*
X28332914Y-48463828D01*
X28272658Y-48380894D01*
X28272658Y-48380893D01*
X27532962Y-49120590D01*
X27515925Y-49057007D01*
X27450099Y-48942993D01*
X27357007Y-48849901D01*
X27242993Y-48784075D01*
X27179409Y-48767037D01*
X27919105Y-48027340D01*
X27919104Y-48027338D01*
X27836174Y-47967087D01*
X27625802Y-47859897D01*
X27401247Y-47786934D01*
X27401248Y-47786934D01*
X27168052Y-47750000D01*
X26931948Y-47750000D01*
X26698752Y-47786934D01*
X26474197Y-47859897D01*
X26263830Y-47967084D01*
X26180894Y-48027340D01*
X26920591Y-48767037D01*
X26857007Y-48784075D01*
X26742993Y-48849901D01*
X26649901Y-48942993D01*
X26584075Y-49057007D01*
X26567037Y-49120591D01*
X25827340Y-48380894D01*
X25767084Y-48463830D01*
X25659897Y-48674197D01*
X25586934Y-48898752D01*
X25550000Y-49131947D01*
X14500500Y-49131947D01*
X14500500Y-34782332D01*
X15819500Y-34782332D01*
X15819500Y-35057667D01*
X15819501Y-35057684D01*
X15855438Y-35330655D01*
X15855439Y-35330660D01*
X15855440Y-35330666D01*
X15869203Y-35382029D01*
X15926704Y-35596630D01*
X16032075Y-35851017D01*
X16032080Y-35851028D01*
X16084089Y-35941109D01*
X16169751Y-36089479D01*
X16169753Y-36089482D01*
X16169754Y-36089483D01*
X16337370Y-36307926D01*
X16337376Y-36307933D01*
X16532066Y-36502623D01*
X16532072Y-36502628D01*
X16750521Y-36670249D01*
X16903778Y-36758732D01*
X16988971Y-36807919D01*
X16988976Y-36807921D01*
X16988979Y-36807923D01*
X17243368Y-36913295D01*
X17509334Y-36984560D01*
X17782326Y-37020500D01*
X17782333Y-37020500D01*
X18057667Y-37020500D01*
X18057674Y-37020500D01*
X18330666Y-36984560D01*
X18596632Y-36913295D01*
X18851021Y-36807923D01*
X19089479Y-36670249D01*
X19307928Y-36502628D01*
X19502628Y-36307928D01*
X19670249Y-36089479D01*
X19807923Y-35851021D01*
X19913295Y-35596632D01*
X19984560Y-35330666D01*
X20020500Y-35057674D01*
X20020500Y-34814636D01*
X20391300Y-34814636D01*
X20391300Y-35025363D01*
X20424262Y-35233480D01*
X20489379Y-35433887D01*
X20546076Y-35545159D01*
X20584906Y-35621368D01*
X20585043Y-35621635D01*
X20708890Y-35792099D01*
X20857900Y-35941109D01*
X21017415Y-36057001D01*
X21028368Y-36064959D01*
X21148000Y-36125914D01*
X21216112Y-36160620D01*
X21216114Y-36160620D01*
X21216117Y-36160622D01*
X21310534Y-36191300D01*
X21416519Y-36225737D01*
X21624637Y-36258700D01*
X21624642Y-36258700D01*
X21835363Y-36258700D01*
X22043480Y-36225737D01*
X22044985Y-36225248D01*
X22243883Y-36160622D01*
X22431632Y-36064959D01*
X22527344Y-35995420D01*
X22602099Y-35941109D01*
X22602101Y-35941106D01*
X22602105Y-35941104D01*
X22751104Y-35792105D01*
X22751106Y-35792101D01*
X22751109Y-35792099D01*
X22874956Y-35621636D01*
X22874958Y-35621633D01*
X22874959Y-35621632D01*
X22889515Y-35593063D01*
X22937490Y-35542268D01*
X23005311Y-35525473D01*
X23071446Y-35548010D01*
X23110485Y-35593064D01*
X23125043Y-35621636D01*
X23248890Y-35792099D01*
X23397900Y-35941109D01*
X23557415Y-36057001D01*
X23568368Y-36064959D01*
X23688000Y-36125914D01*
X23756112Y-36160620D01*
X23756114Y-36160620D01*
X23756117Y-36160622D01*
X23850534Y-36191300D01*
X23956519Y-36225737D01*
X24164637Y-36258700D01*
X24164642Y-36258700D01*
X24375363Y-36258700D01*
X24583480Y-36225737D01*
X24584985Y-36225248D01*
X24783883Y-36160622D01*
X24971632Y-36064959D01*
X25067344Y-35995420D01*
X25142099Y-35941109D01*
X25142101Y-35941106D01*
X25142105Y-35941104D01*
X25291104Y-35792105D01*
X25291106Y-35792101D01*
X25291109Y-35792099D01*
X25414956Y-35621636D01*
X25414958Y-35621633D01*
X25414959Y-35621632D01*
X25429515Y-35593063D01*
X25477490Y-35542268D01*
X25545311Y-35525473D01*
X25611446Y-35548010D01*
X25650485Y-35593064D01*
X25665043Y-35621636D01*
X25788890Y-35792099D01*
X25937900Y-35941109D01*
X26097415Y-36057001D01*
X26108368Y-36064959D01*
X26228000Y-36125914D01*
X26296112Y-36160620D01*
X26296114Y-36160620D01*
X26296117Y-36160622D01*
X26390534Y-36191300D01*
X26496519Y-36225737D01*
X26704637Y-36258700D01*
X26704642Y-36258700D01*
X26915363Y-36258700D01*
X27123480Y-36225737D01*
X27124985Y-36225248D01*
X27323883Y-36160622D01*
X27511632Y-36064959D01*
X27607344Y-35995420D01*
X27682099Y-35941109D01*
X27682101Y-35941106D01*
X27682105Y-35941104D01*
X27831104Y-35792105D01*
X27831106Y-35792101D01*
X27831109Y-35792099D01*
X27954956Y-35621636D01*
X27954958Y-35621633D01*
X27954959Y-35621632D01*
X27969515Y-35593063D01*
X28017490Y-35542268D01*
X28085311Y-35525473D01*
X28151446Y-35548010D01*
X28190485Y-35593064D01*
X28205043Y-35621636D01*
X28328890Y-35792099D01*
X28477900Y-35941109D01*
X28637415Y-36057001D01*
X28648368Y-36064959D01*
X28768000Y-36125914D01*
X28836112Y-36160620D01*
X28836114Y-36160620D01*
X28836117Y-36160622D01*
X28930534Y-36191300D01*
X29036519Y-36225737D01*
X29244637Y-36258700D01*
X29244642Y-36258700D01*
X29455363Y-36258700D01*
X29663480Y-36225737D01*
X29664985Y-36225248D01*
X29863883Y-36160622D01*
X30051632Y-36064959D01*
X30147344Y-35995420D01*
X30222099Y-35941109D01*
X30222101Y-35941106D01*
X30222105Y-35941104D01*
X30371104Y-35792105D01*
X30371106Y-35792101D01*
X30371109Y-35792099D01*
X30494956Y-35621636D01*
X30494958Y-35621633D01*
X30494959Y-35621632D01*
X30509515Y-35593063D01*
X30557490Y-35542268D01*
X30625311Y-35525473D01*
X30691446Y-35548010D01*
X30730485Y-35593064D01*
X30745043Y-35621636D01*
X30868890Y-35792099D01*
X31017900Y-35941109D01*
X31177415Y-36057001D01*
X31188368Y-36064959D01*
X31308000Y-36125914D01*
X31376112Y-36160620D01*
X31376114Y-36160620D01*
X31376117Y-36160622D01*
X31470534Y-36191300D01*
X31576519Y-36225737D01*
X31784637Y-36258700D01*
X31784642Y-36258700D01*
X31995363Y-36258700D01*
X32110981Y-36240387D01*
X32203480Y-36225737D01*
X32239158Y-36214143D01*
X32308998Y-36212147D01*
X32365158Y-36244393D01*
X49208339Y-53087574D01*
X49208349Y-53087585D01*
X49212679Y-53091915D01*
X49212680Y-53091916D01*
X49324484Y-53203720D01*
X49411295Y-53253839D01*
X49411297Y-53253841D01*
X49449351Y-53275811D01*
X49461415Y-53282777D01*
X49614143Y-53323701D01*
X49614146Y-53323701D01*
X49779853Y-53323701D01*
X49779869Y-53323700D01*
X58182502Y-53323700D01*
X58249541Y-53343385D01*
X58295296Y-53396189D01*
X58305240Y-53465347D01*
X58276215Y-53528903D01*
X58229955Y-53562260D01*
X58196882Y-53575959D01*
X57988982Y-53662075D01*
X57988971Y-53662080D01*
X57750516Y-53799754D01*
X57532073Y-53967370D01*
X57532066Y-53967376D01*
X57337376Y-54162066D01*
X57337370Y-54162073D01*
X57169754Y-54380516D01*
X57032080Y-54618971D01*
X57032075Y-54618982D01*
X56926704Y-54873369D01*
X56855441Y-55139331D01*
X56855438Y-55139344D01*
X56819501Y-55412315D01*
X56819500Y-55412332D01*
X56819500Y-55687667D01*
X56819501Y-55687684D01*
X56855438Y-55960655D01*
X56855439Y-55960660D01*
X56855440Y-55960666D01*
X56855441Y-55960668D01*
X56926704Y-56226630D01*
X57032075Y-56481017D01*
X57032080Y-56481028D01*
X57114861Y-56624407D01*
X57169751Y-56719479D01*
X57169753Y-56719482D01*
X57169754Y-56719483D01*
X57337370Y-56937926D01*
X57337376Y-56937933D01*
X57532066Y-57132623D01*
X57532072Y-57132628D01*
X57750521Y-57300249D01*
X57903778Y-57388732D01*
X57988971Y-57437919D01*
X57988976Y-57437921D01*
X57988979Y-57437923D01*
X58243368Y-57543295D01*
X58509334Y-57614560D01*
X58782326Y-57650500D01*
X58782333Y-57650500D01*
X59057667Y-57650500D01*
X59057674Y-57650500D01*
X59330666Y-57614560D01*
X59596632Y-57543295D01*
X59851021Y-57437923D01*
X60089479Y-57300249D01*
X60307928Y-57132628D01*
X60502628Y-56937928D01*
X60670249Y-56719479D01*
X60807923Y-56481021D01*
X60913295Y-56226632D01*
X60984560Y-55960666D01*
X61020500Y-55687674D01*
X61020500Y-55412326D01*
X60984560Y-55139334D01*
X60913295Y-54873368D01*
X60807923Y-54618979D01*
X60807921Y-54618976D01*
X60807919Y-54618971D01*
X60740128Y-54501555D01*
X60670249Y-54380521D01*
X60502628Y-54162072D01*
X60502623Y-54162066D01*
X60307933Y-53967376D01*
X60307926Y-53967370D01*
X60089483Y-53799754D01*
X60089482Y-53799753D01*
X60089479Y-53799751D01*
X59994407Y-53744861D01*
X59851028Y-53662080D01*
X59851017Y-53662075D01*
X59672665Y-53588199D01*
X59610044Y-53562260D01*
X59555642Y-53518420D01*
X59533577Y-53452126D01*
X59550856Y-53384426D01*
X59601994Y-53336816D01*
X59657498Y-53323700D01*
X61819003Y-53323700D01*
X61886042Y-53343385D01*
X61906684Y-53360019D01*
X71269025Y-62722360D01*
X71302510Y-62783683D01*
X71302961Y-62785849D01*
X71333861Y-62941191D01*
X71333864Y-62941201D01*
X71394202Y-63086872D01*
X71394209Y-63086885D01*
X71481810Y-63217988D01*
X71481813Y-63217992D01*
X71593307Y-63329486D01*
X71593311Y-63329489D01*
X71724414Y-63417090D01*
X71724427Y-63417097D01*
X71870098Y-63477435D01*
X71870103Y-63477437D01*
X72024753Y-63508199D01*
X72024756Y-63508200D01*
X72024758Y-63508200D01*
X72182444Y-63508200D01*
X72182445Y-63508199D01*
X72337097Y-63477437D01*
X72482779Y-63417094D01*
X72613889Y-63329489D01*
X72725389Y-63217989D01*
X72812994Y-63086879D01*
X72873337Y-62941197D01*
X72904100Y-62786542D01*
X72904100Y-62628858D01*
X72904100Y-62628855D01*
X72904099Y-62628853D01*
X72873338Y-62474210D01*
X72873337Y-62474203D01*
X72825798Y-62359432D01*
X72812997Y-62328527D01*
X72812990Y-62328514D01*
X72725389Y-62197411D01*
X72725386Y-62197407D01*
X72613892Y-62085913D01*
X72613888Y-62085910D01*
X72482785Y-61998309D01*
X72482772Y-61998302D01*
X72337101Y-61937964D01*
X72337091Y-61937961D01*
X72181749Y-61907061D01*
X72119838Y-61874676D01*
X72118260Y-61873125D01*
X65657467Y-55412332D01*
X93649500Y-55412332D01*
X93649500Y-55687667D01*
X93649501Y-55687684D01*
X93685438Y-55960655D01*
X93685439Y-55960660D01*
X93685440Y-55960666D01*
X93685441Y-55960668D01*
X93756704Y-56226630D01*
X93862075Y-56481017D01*
X93862080Y-56481028D01*
X93944861Y-56624407D01*
X93999751Y-56719479D01*
X93999753Y-56719482D01*
X93999754Y-56719483D01*
X94167370Y-56937926D01*
X94167376Y-56937933D01*
X94362066Y-57132623D01*
X94362072Y-57132628D01*
X94580521Y-57300249D01*
X94733778Y-57388732D01*
X94818971Y-57437919D01*
X94818976Y-57437921D01*
X94818979Y-57437923D01*
X95073368Y-57543295D01*
X95339334Y-57614560D01*
X95612326Y-57650500D01*
X95612333Y-57650500D01*
X95887667Y-57650500D01*
X95887674Y-57650500D01*
X96160666Y-57614560D01*
X96426632Y-57543295D01*
X96681021Y-57437923D01*
X96919479Y-57300249D01*
X97137928Y-57132628D01*
X97332628Y-56937928D01*
X97500249Y-56719479D01*
X97637923Y-56481021D01*
X97743295Y-56226632D01*
X97814560Y-55960666D01*
X97850500Y-55687674D01*
X97850500Y-55412326D01*
X97814560Y-55139334D01*
X97743295Y-54873368D01*
X97637923Y-54618979D01*
X97637921Y-54618976D01*
X97637919Y-54618971D01*
X97570128Y-54501555D01*
X97500249Y-54380521D01*
X97332628Y-54162072D01*
X97332623Y-54162066D01*
X97137933Y-53967376D01*
X97137926Y-53967370D01*
X96919483Y-53799754D01*
X96919482Y-53799753D01*
X96919479Y-53799751D01*
X96824407Y-53744861D01*
X96681028Y-53662080D01*
X96681017Y-53662075D01*
X96426630Y-53556704D01*
X96283750Y-53518420D01*
X96160666Y-53485440D01*
X96160660Y-53485439D01*
X96160655Y-53485438D01*
X95887684Y-53449501D01*
X95887679Y-53449500D01*
X95887674Y-53449500D01*
X95612326Y-53449500D01*
X95612320Y-53449500D01*
X95612315Y-53449501D01*
X95339344Y-53485438D01*
X95339337Y-53485439D01*
X95339334Y-53485440D01*
X95283125Y-53500500D01*
X95073369Y-53556704D01*
X94818982Y-53662075D01*
X94818971Y-53662080D01*
X94580516Y-53799754D01*
X94362073Y-53967370D01*
X94362066Y-53967376D01*
X94167376Y-54162066D01*
X94167370Y-54162073D01*
X93999754Y-54380516D01*
X93862080Y-54618971D01*
X93862075Y-54618982D01*
X93756704Y-54873369D01*
X93685441Y-55139331D01*
X93685438Y-55139344D01*
X93649501Y-55412315D01*
X93649500Y-55412332D01*
X65657467Y-55412332D01*
X62606690Y-52361555D01*
X62606688Y-52361552D01*
X62487817Y-52242681D01*
X62487816Y-52242680D01*
X62401004Y-52192560D01*
X62401004Y-52192559D01*
X62401000Y-52192558D01*
X62350885Y-52163623D01*
X62198157Y-52122699D01*
X62040043Y-52122699D01*
X62032447Y-52122699D01*
X62032431Y-52122700D01*
X49993297Y-52122700D01*
X49926258Y-52103015D01*
X49905616Y-52086381D01*
X34289616Y-36470381D01*
X34256131Y-36409058D01*
X34261115Y-36339366D01*
X34302987Y-36283433D01*
X34368451Y-36259016D01*
X34377297Y-36258700D01*
X34535363Y-36258700D01*
X34650981Y-36240387D01*
X34743480Y-36225737D01*
X34779158Y-36214143D01*
X34848998Y-36212147D01*
X34905158Y-36244393D01*
X49900039Y-51239274D01*
X49900049Y-51239285D01*
X49904379Y-51243615D01*
X49904380Y-51243616D01*
X50016184Y-51355420D01*
X50067745Y-51385188D01*
X50102995Y-51405539D01*
X50102997Y-51405541D01*
X50124265Y-51417820D01*
X50153115Y-51434477D01*
X50305843Y-51475401D01*
X50305846Y-51475401D01*
X50471553Y-51475401D01*
X50471569Y-51475400D01*
X65555834Y-51475400D01*
X65622873Y-51495085D01*
X65624725Y-51496298D01*
X65756414Y-51584290D01*
X65756427Y-51584297D01*
X65902098Y-51644635D01*
X65902103Y-51644637D01*
X66056753Y-51675399D01*
X66056756Y-51675400D01*
X66056758Y-51675400D01*
X66214444Y-51675400D01*
X66214445Y-51675399D01*
X66369097Y-51644637D01*
X66514779Y-51584294D01*
X66645889Y-51496689D01*
X66757389Y-51385189D01*
X66844994Y-51254079D01*
X66905337Y-51108397D01*
X66936100Y-50953742D01*
X66936100Y-50796058D01*
X66936100Y-50796055D01*
X66936099Y-50796053D01*
X66926938Y-50750000D01*
X66905337Y-50641403D01*
X66889725Y-50603713D01*
X108199500Y-50603713D01*
X108199500Y-50816286D01*
X108232753Y-51026239D01*
X108298444Y-51228414D01*
X108394951Y-51417820D01*
X108519890Y-51589786D01*
X108670213Y-51740109D01*
X108842182Y-51865050D01*
X108850946Y-51869516D01*
X108901742Y-51917491D01*
X108918536Y-51985312D01*
X108895998Y-52051447D01*
X108850946Y-52090484D01*
X108842182Y-52094949D01*
X108670213Y-52219890D01*
X108519890Y-52370213D01*
X108394951Y-52542179D01*
X108298444Y-52731585D01*
X108232753Y-52933760D01*
X108199500Y-53143713D01*
X108199500Y-53356286D01*
X108225179Y-53518420D01*
X108232754Y-53566243D01*
X108263893Y-53662080D01*
X108298444Y-53768414D01*
X108394951Y-53957820D01*
X108519890Y-54129786D01*
X108670213Y-54280109D01*
X108842179Y-54405048D01*
X108842181Y-54405049D01*
X108842184Y-54405051D01*
X109031588Y-54501557D01*
X109233757Y-54567246D01*
X109443713Y-54600500D01*
X109443714Y-54600500D01*
X109656286Y-54600500D01*
X109656287Y-54600500D01*
X109866243Y-54567246D01*
X110068412Y-54501557D01*
X110257816Y-54405051D01*
X110291586Y-54380516D01*
X110429786Y-54280109D01*
X110429788Y-54280106D01*
X110429792Y-54280104D01*
X110580104Y-54129792D01*
X110580106Y-54129788D01*
X110580109Y-54129786D01*
X110705048Y-53957820D01*
X110705047Y-53957820D01*
X110705051Y-53957816D01*
X110801557Y-53768412D01*
X110867246Y-53566243D01*
X110900500Y-53356287D01*
X110900500Y-53143713D01*
X110867246Y-52933757D01*
X110801557Y-52731588D01*
X110705051Y-52542184D01*
X110705049Y-52542181D01*
X110705048Y-52542179D01*
X110580109Y-52370213D01*
X110429786Y-52219890D01*
X110257820Y-52094951D01*
X110257115Y-52094591D01*
X110249054Y-52090485D01*
X110198259Y-52042512D01*
X110181463Y-51974692D01*
X110203999Y-51908556D01*
X110249054Y-51869515D01*
X110257816Y-51865051D01*
X110279789Y-51849086D01*
X110429786Y-51740109D01*
X110429788Y-51740106D01*
X110429792Y-51740104D01*
X110580104Y-51589792D01*
X110580106Y-51589788D01*
X110580109Y-51589786D01*
X110705048Y-51417820D01*
X110705047Y-51417820D01*
X110705051Y-51417816D01*
X110801557Y-51228412D01*
X110867246Y-51026243D01*
X110900500Y-50816287D01*
X110900500Y-50603713D01*
X110867246Y-50393757D01*
X110801557Y-50191588D01*
X110705051Y-50002184D01*
X110705049Y-50002181D01*
X110705048Y-50002179D01*
X110580109Y-49830213D01*
X110429786Y-49679890D01*
X110257820Y-49554951D01*
X110068414Y-49458444D01*
X110068413Y-49458443D01*
X110068412Y-49458443D01*
X109866243Y-49392754D01*
X109866241Y-49392753D01*
X109866240Y-49392753D01*
X109704957Y-49367208D01*
X109656287Y-49359500D01*
X109443713Y-49359500D01*
X109395042Y-49367208D01*
X109233760Y-49392753D01*
X109031585Y-49458444D01*
X108842179Y-49554951D01*
X108670213Y-49679890D01*
X108519890Y-49830213D01*
X108394951Y-50002179D01*
X108298444Y-50191585D01*
X108232753Y-50393760D01*
X108199500Y-50603713D01*
X66889725Y-50603713D01*
X66844997Y-50495727D01*
X66844990Y-50495714D01*
X66757389Y-50364611D01*
X66757386Y-50364607D01*
X66645892Y-50253113D01*
X66645888Y-50253110D01*
X66514785Y-50165509D01*
X66514772Y-50165502D01*
X66369101Y-50105164D01*
X66369089Y-50105161D01*
X66214445Y-50074400D01*
X66214442Y-50074400D01*
X66056758Y-50074400D01*
X66056755Y-50074400D01*
X65902110Y-50105161D01*
X65902098Y-50105164D01*
X65756427Y-50165502D01*
X65756414Y-50165509D01*
X65624725Y-50253502D01*
X65558047Y-50274380D01*
X65555834Y-50274400D01*
X59178471Y-50274400D01*
X59111432Y-50254715D01*
X59065677Y-50201911D01*
X59055733Y-50132753D01*
X59078153Y-50077514D01*
X59157579Y-49968194D01*
X59262317Y-49762633D01*
X59333609Y-49543219D01*
X59369700Y-49315353D01*
X59369700Y-49084647D01*
X59340238Y-48898632D01*
X59333609Y-48856780D01*
X59309985Y-48784075D01*
X59262317Y-48637367D01*
X59157579Y-48431806D01*
X59021973Y-48245161D01*
X58858839Y-48082027D01*
X58787665Y-48030316D01*
X58745002Y-47974988D01*
X58739023Y-47905375D01*
X58771629Y-47843580D01*
X58787662Y-47829686D01*
X58858839Y-47777973D01*
X59021973Y-47614839D01*
X59157579Y-47428194D01*
X59262317Y-47222633D01*
X59333609Y-47003219D01*
X59369700Y-46775353D01*
X59369700Y-46544647D01*
X59333609Y-46316781D01*
X59262317Y-46097367D01*
X59157579Y-45891806D01*
X59021973Y-45705161D01*
X58858839Y-45542027D01*
X58787665Y-45490316D01*
X58745002Y-45434988D01*
X58739023Y-45365375D01*
X58771629Y-45303580D01*
X58787662Y-45289686D01*
X58858839Y-45237973D01*
X59021973Y-45074839D01*
X59157579Y-44888194D01*
X59262317Y-44682633D01*
X59333609Y-44463219D01*
X59369700Y-44235353D01*
X59369700Y-44004647D01*
X59333609Y-43776781D01*
X59262317Y-43557367D01*
X59157579Y-43351806D01*
X59021973Y-43165161D01*
X58858839Y-43002027D01*
X58833632Y-42983713D01*
X108199500Y-42983713D01*
X108199500Y-43196287D01*
X108232754Y-43406243D01*
X108281857Y-43557367D01*
X108298444Y-43608414D01*
X108394951Y-43797820D01*
X108519890Y-43969786D01*
X108670213Y-44120109D01*
X108842182Y-44245050D01*
X108850946Y-44249516D01*
X108901742Y-44297491D01*
X108918536Y-44365312D01*
X108895998Y-44431447D01*
X108850946Y-44470484D01*
X108842182Y-44474949D01*
X108670213Y-44599890D01*
X108519890Y-44750213D01*
X108394951Y-44922179D01*
X108298444Y-45111585D01*
X108232753Y-45313760D01*
X108224578Y-45365375D01*
X108199500Y-45523713D01*
X108199500Y-45736287D01*
X108232754Y-45946243D01*
X108281857Y-46097367D01*
X108298444Y-46148414D01*
X108394951Y-46337820D01*
X108519890Y-46509786D01*
X108670213Y-46660109D01*
X108842179Y-46785048D01*
X108842181Y-46785049D01*
X108842184Y-46785051D01*
X109031588Y-46881557D01*
X109233757Y-46947246D01*
X109443713Y-46980500D01*
X109443714Y-46980500D01*
X109656286Y-46980500D01*
X109656287Y-46980500D01*
X109866243Y-46947246D01*
X110068412Y-46881557D01*
X110257816Y-46785051D01*
X110279789Y-46769086D01*
X110429786Y-46660109D01*
X110429788Y-46660106D01*
X110429792Y-46660104D01*
X110580104Y-46509792D01*
X110580106Y-46509788D01*
X110580109Y-46509786D01*
X110705048Y-46337820D01*
X110705047Y-46337820D01*
X110705051Y-46337816D01*
X110801557Y-46148412D01*
X110867246Y-45946243D01*
X110900500Y-45736287D01*
X110900500Y-45523713D01*
X110867246Y-45313757D01*
X110801557Y-45111588D01*
X110705051Y-44922184D01*
X110705049Y-44922181D01*
X110705048Y-44922179D01*
X110580109Y-44750213D01*
X110429786Y-44599890D01*
X110257820Y-44474951D01*
X110257115Y-44474591D01*
X110249054Y-44470485D01*
X110198259Y-44422512D01*
X110181463Y-44354692D01*
X110203999Y-44288556D01*
X110249054Y-44249515D01*
X110257816Y-44245051D01*
X110279789Y-44229086D01*
X110429786Y-44120109D01*
X110429788Y-44120106D01*
X110429792Y-44120104D01*
X110580104Y-43969792D01*
X110580106Y-43969788D01*
X110580109Y-43969786D01*
X110705048Y-43797820D01*
X110705047Y-43797820D01*
X110705051Y-43797816D01*
X110801557Y-43608412D01*
X110867246Y-43406243D01*
X110900500Y-43196287D01*
X110900500Y-42983713D01*
X110867246Y-42773757D01*
X110801557Y-42571588D01*
X110705051Y-42382184D01*
X110705049Y-42382181D01*
X110705048Y-42382179D01*
X110580109Y-42210213D01*
X110429786Y-42059890D01*
X110257820Y-41934951D01*
X110068414Y-41838444D01*
X110068413Y-41838443D01*
X110068412Y-41838443D01*
X109866243Y-41772754D01*
X109866241Y-41772753D01*
X109866240Y-41772753D01*
X109704957Y-41747208D01*
X109656287Y-41739500D01*
X109443713Y-41739500D01*
X109395042Y-41747208D01*
X109233760Y-41772753D01*
X109031585Y-41838444D01*
X108842179Y-41934951D01*
X108670213Y-42059890D01*
X108519890Y-42210213D01*
X108394951Y-42382179D01*
X108298444Y-42571585D01*
X108232753Y-42773760D01*
X108225293Y-42820864D01*
X108199500Y-42983713D01*
X58833632Y-42983713D01*
X58783661Y-42947407D01*
X58779901Y-42944187D01*
X58763437Y-42918895D01*
X58745002Y-42894988D01*
X58744565Y-42889905D01*
X58741783Y-42885631D01*
X58741605Y-42855447D01*
X58739023Y-42825375D01*
X58741402Y-42820864D01*
X58741373Y-42815763D01*
X58757545Y-42790271D01*
X58771629Y-42763580D01*
X58777958Y-42758094D01*
X58778803Y-42756764D01*
X58780290Y-42756074D01*
X58787662Y-42749686D01*
X58858839Y-42697973D01*
X59021973Y-42534839D01*
X59157579Y-42348194D01*
X59262317Y-42142633D01*
X59333609Y-41923219D01*
X59369700Y-41695353D01*
X59369700Y-41464647D01*
X59333609Y-41236781D01*
X59262317Y-41017367D01*
X59157579Y-40811806D01*
X59021973Y-40625161D01*
X58858839Y-40462027D01*
X58787665Y-40410316D01*
X58745002Y-40354988D01*
X58739023Y-40285375D01*
X58771629Y-40223580D01*
X58787662Y-40209686D01*
X58858839Y-40157973D01*
X59021973Y-39994839D01*
X59157579Y-39808194D01*
X59262317Y-39602633D01*
X59333609Y-39383219D01*
X59369700Y-39155353D01*
X59369700Y-38924647D01*
X59333609Y-38696781D01*
X59262317Y-38477367D01*
X59157579Y-38271806D01*
X59021973Y-38085161D01*
X58858839Y-37922027D01*
X58787665Y-37870316D01*
X58745002Y-37814988D01*
X58739023Y-37745375D01*
X58771629Y-37683580D01*
X58787662Y-37669686D01*
X58858839Y-37617973D01*
X59021973Y-37454839D01*
X59157579Y-37268194D01*
X59262317Y-37062633D01*
X59333609Y-36843219D01*
X59369700Y-36615353D01*
X59369700Y-36384647D01*
X59349752Y-36258700D01*
X59333609Y-36156780D01*
X59319984Y-36114850D01*
X59262317Y-35937367D01*
X59157579Y-35731806D01*
X59021973Y-35545161D01*
X58858839Y-35382027D01*
X58787665Y-35330316D01*
X58745002Y-35274988D01*
X58739023Y-35205375D01*
X58771629Y-35143580D01*
X58787662Y-35129686D01*
X58858839Y-35077973D01*
X59021973Y-34914839D01*
X59157579Y-34728194D01*
X59262317Y-34522633D01*
X59333609Y-34303219D01*
X59369700Y-34075353D01*
X59369700Y-33844647D01*
X59343524Y-33679378D01*
X59333609Y-33616780D01*
X59313346Y-33554417D01*
X59262317Y-33397367D01*
X59157579Y-33191806D01*
X59021973Y-33005161D01*
X58858839Y-32842027D01*
X58787665Y-32790316D01*
X58745002Y-32734988D01*
X58739023Y-32665375D01*
X58771629Y-32603580D01*
X58787662Y-32589686D01*
X58858839Y-32537973D01*
X59021973Y-32374839D01*
X59157579Y-32188194D01*
X59262317Y-31982633D01*
X59333609Y-31763219D01*
X59369700Y-31535353D01*
X59369700Y-31304647D01*
X59333609Y-31076781D01*
X59262317Y-30857367D01*
X59157579Y-30651806D01*
X59021973Y-30465161D01*
X58858839Y-30302027D01*
X58787665Y-30250316D01*
X58745002Y-30194988D01*
X58739023Y-30125375D01*
X58771629Y-30063580D01*
X58787662Y-30049686D01*
X58858839Y-29997973D01*
X59021973Y-29834839D01*
X59157579Y-29648194D01*
X59262317Y-29442633D01*
X59333609Y-29223219D01*
X59369700Y-28995353D01*
X59369700Y-28764647D01*
X59333609Y-28536781D01*
X59262317Y-28317367D01*
X59157579Y-28111806D01*
X59021973Y-27925161D01*
X58898993Y-27802181D01*
X58865508Y-27740858D01*
X58870492Y-27671166D01*
X58912364Y-27615233D01*
X58977828Y-27590816D01*
X58986674Y-27590500D01*
X97770664Y-27590500D01*
X97837703Y-27610185D01*
X97858345Y-27626819D01*
X103913181Y-33681656D01*
X103946666Y-33742979D01*
X103949500Y-33769336D01*
X103949500Y-33850000D01*
X103949501Y-33850019D01*
X103960000Y-33952796D01*
X103960001Y-33952799D01*
X103991513Y-34047895D01*
X104015186Y-34119334D01*
X104107288Y-34268656D01*
X104231344Y-34392712D01*
X104380666Y-34484814D01*
X104547203Y-34539999D01*
X104649991Y-34550500D01*
X105850008Y-34550499D01*
X105952797Y-34539999D01*
X106119334Y-34484814D01*
X106268656Y-34392712D01*
X106392712Y-34268656D01*
X106484814Y-34119334D01*
X106539999Y-33952797D01*
X106550500Y-33850009D01*
X106550499Y-33147682D01*
X107450000Y-33147682D01*
X107450000Y-33352317D01*
X107482009Y-33554417D01*
X107545244Y-33749031D01*
X107638141Y-33931350D01*
X107638147Y-33931359D01*
X107670523Y-33975921D01*
X107670524Y-33975922D01*
X108350000Y-33296446D01*
X108350000Y-33302661D01*
X108377259Y-33404394D01*
X108429920Y-33495606D01*
X108504394Y-33570080D01*
X108595606Y-33622741D01*
X108697339Y-33650000D01*
X108703553Y-33650000D01*
X108024076Y-34329474D01*
X108068650Y-34361859D01*
X108250968Y-34454755D01*
X108445582Y-34517990D01*
X108647683Y-34550000D01*
X108852317Y-34550000D01*
X109054417Y-34517990D01*
X109249031Y-34454755D01*
X109431349Y-34361859D01*
X109475921Y-34329474D01*
X108796447Y-33650000D01*
X108802661Y-33650000D01*
X108904394Y-33622741D01*
X108995606Y-33570080D01*
X109070080Y-33495606D01*
X109122741Y-33404394D01*
X109150000Y-33302661D01*
X109150000Y-33296448D01*
X109829474Y-33975922D01*
X109829474Y-33975921D01*
X109861859Y-33931349D01*
X109954755Y-33749031D01*
X110017990Y-33554417D01*
X110050000Y-33352317D01*
X110050000Y-33147682D01*
X110017990Y-32945582D01*
X109954755Y-32750968D01*
X109861859Y-32568650D01*
X109829474Y-32524077D01*
X109829474Y-32524076D01*
X109150000Y-33203551D01*
X109150000Y-33197339D01*
X109122741Y-33095606D01*
X109070080Y-33004394D01*
X108995606Y-32929920D01*
X108904394Y-32877259D01*
X108802661Y-32850000D01*
X108796446Y-32850000D01*
X109475922Y-32170524D01*
X109475921Y-32170523D01*
X109431359Y-32138147D01*
X109431350Y-32138141D01*
X109249031Y-32045244D01*
X109054417Y-31982009D01*
X108852317Y-31950000D01*
X108647683Y-31950000D01*
X108445582Y-31982009D01*
X108250968Y-32045244D01*
X108068644Y-32138143D01*
X108024077Y-32170523D01*
X108024077Y-32170524D01*
X108703554Y-32850000D01*
X108697339Y-32850000D01*
X108595606Y-32877259D01*
X108504394Y-32929920D01*
X108429920Y-33004394D01*
X108377259Y-33095606D01*
X108350000Y-33197339D01*
X108350000Y-33203553D01*
X107670524Y-32524077D01*
X107670523Y-32524077D01*
X107638143Y-32568644D01*
X107545244Y-32750968D01*
X107482009Y-32945582D01*
X107450000Y-33147682D01*
X106550499Y-33147682D01*
X106550499Y-32649992D01*
X106549990Y-32645013D01*
X106539999Y-32547203D01*
X106539998Y-32547200D01*
X106532335Y-32524076D01*
X106484814Y-32380666D01*
X106392712Y-32231344D01*
X106268656Y-32107288D01*
X106119334Y-32015186D01*
X105952797Y-31960001D01*
X105952795Y-31960000D01*
X105850016Y-31949500D01*
X105850009Y-31949500D01*
X105769337Y-31949500D01*
X105702298Y-31929815D01*
X105681656Y-31913181D01*
X99154648Y-25386174D01*
X99154647Y-25386173D01*
X99154646Y-25386172D01*
X98995405Y-25270476D01*
X98820030Y-25181117D01*
X98632826Y-25120290D01*
X98438422Y-25089500D01*
X98438417Y-25089500D01*
X58875113Y-25089500D01*
X58808074Y-25069815D01*
X58762319Y-25017011D01*
X58761215Y-25010767D01*
X58033409Y-24282962D01*
X58096993Y-24265925D01*
X58211007Y-24200099D01*
X58304099Y-24107007D01*
X58369925Y-23992993D01*
X58386962Y-23929409D01*
X59101744Y-24644192D01*
X59101744Y-24644191D01*
X59157151Y-24567930D01*
X59157155Y-24567924D01*
X59261852Y-24362446D01*
X59333122Y-24143102D01*
X59369200Y-23915319D01*
X59369200Y-23684680D01*
X59333122Y-23456897D01*
X59261852Y-23237553D01*
X59157151Y-23032067D01*
X59101744Y-22955807D01*
X59101744Y-22955806D01*
X58386962Y-23670589D01*
X58369925Y-23607007D01*
X58304099Y-23492993D01*
X58211007Y-23399901D01*
X58096993Y-23334075D01*
X58033408Y-23317037D01*
X58748192Y-22602254D01*
X58748191Y-22602253D01*
X58671935Y-22546850D01*
X58466446Y-22442147D01*
X58247102Y-22370877D01*
X58019319Y-22334800D01*
X57788681Y-22334800D01*
X57560897Y-22370877D01*
X57341553Y-22442147D01*
X57136069Y-22546847D01*
X57059807Y-22602254D01*
X57774591Y-23317037D01*
X57711007Y-23334075D01*
X57596993Y-23399901D01*
X57503901Y-23492993D01*
X57438075Y-23607007D01*
X57421037Y-23670590D01*
X56706254Y-22955807D01*
X56650847Y-23032069D01*
X56546147Y-23237553D01*
X56474877Y-23456897D01*
X56438800Y-23684680D01*
X56438800Y-23915319D01*
X56474877Y-24143102D01*
X56546147Y-24362446D01*
X56650850Y-24567935D01*
X56706253Y-24644191D01*
X56706254Y-24644192D01*
X57421037Y-23929409D01*
X57438075Y-23992993D01*
X57503901Y-24107007D01*
X57596993Y-24200099D01*
X57711007Y-24265925D01*
X57774590Y-24282962D01*
X57044463Y-25013087D01*
X57042141Y-25024146D01*
X56993091Y-25073904D01*
X56932886Y-25089500D01*
X47991578Y-25089500D01*
X47797172Y-25120291D01*
X47736348Y-25140053D01*
X47736348Y-25140054D01*
X47693103Y-25154105D01*
X47609970Y-25181117D01*
X47476799Y-25248972D01*
X47434595Y-25270476D01*
X47434594Y-25270477D01*
X47426696Y-25276215D01*
X47426691Y-25276217D01*
X47275352Y-25386173D01*
X47275351Y-25386174D01*
X38981524Y-33680000D01*
X38950139Y-33702803D01*
X38808366Y-33775041D01*
X38637900Y-33898890D01*
X38488890Y-34047900D01*
X38365042Y-34218364D01*
X38350203Y-34247488D01*
X38302227Y-34298283D01*
X38234406Y-34315077D01*
X38168272Y-34292538D01*
X38129235Y-34247487D01*
X38114537Y-34218642D01*
X38114526Y-34218624D01*
X38076823Y-34166730D01*
X38076822Y-34166729D01*
X37452962Y-34790590D01*
X37435925Y-34727007D01*
X37370099Y-34612993D01*
X37277007Y-34519901D01*
X37162993Y-34454075D01*
X37099409Y-34437037D01*
X37723269Y-33813177D01*
X37723268Y-33813176D01*
X37671370Y-33775469D01*
X37483688Y-33679839D01*
X37283364Y-33614751D01*
X37075318Y-33581800D01*
X36864682Y-33581800D01*
X36656635Y-33614751D01*
X36456311Y-33679839D01*
X36268633Y-33775467D01*
X36216730Y-33813176D01*
X36840591Y-34437037D01*
X36777007Y-34454075D01*
X36662993Y-34519901D01*
X36569901Y-34612993D01*
X36504075Y-34727007D01*
X36487037Y-34790591D01*
X35863176Y-34166730D01*
X35825465Y-34218636D01*
X35825464Y-34218637D01*
X35810763Y-34247489D01*
X35762787Y-34298284D01*
X35694966Y-34315077D01*
X35628831Y-34292537D01*
X35589795Y-34247485D01*
X35574958Y-34218366D01*
X35451109Y-34047900D01*
X35302099Y-33898890D01*
X35131635Y-33775043D01*
X35131634Y-33775042D01*
X35131632Y-33775041D01*
X35068707Y-33742979D01*
X34943887Y-33679379D01*
X34743480Y-33614262D01*
X34535363Y-33581300D01*
X34535358Y-33581300D01*
X34324642Y-33581300D01*
X34324637Y-33581300D01*
X34116519Y-33614262D01*
X33916112Y-33679379D01*
X33728364Y-33775043D01*
X33557900Y-33898890D01*
X33408890Y-34047900D01*
X33285041Y-34218366D01*
X33270484Y-34246936D01*
X33222509Y-34297732D01*
X33154688Y-34314526D01*
X33088553Y-34291988D01*
X33049516Y-34246936D01*
X33034958Y-34218366D01*
X32911109Y-34047900D01*
X32762099Y-33898890D01*
X32591635Y-33775043D01*
X32591634Y-33775042D01*
X32591632Y-33775041D01*
X32528707Y-33742979D01*
X32403887Y-33679379D01*
X32203480Y-33614262D01*
X31995363Y-33581300D01*
X31995358Y-33581300D01*
X31784642Y-33581300D01*
X31784637Y-33581300D01*
X31576519Y-33614262D01*
X31376112Y-33679379D01*
X31188364Y-33775043D01*
X31017900Y-33898890D01*
X30868890Y-34047900D01*
X30745041Y-34218366D01*
X30730484Y-34246936D01*
X30682509Y-34297732D01*
X30614688Y-34314526D01*
X30548553Y-34291988D01*
X30509516Y-34246936D01*
X30494958Y-34218366D01*
X30371109Y-34047900D01*
X30222099Y-33898890D01*
X30051635Y-33775043D01*
X30051634Y-33775042D01*
X30051632Y-33775041D01*
X29988707Y-33742979D01*
X29863887Y-33679379D01*
X29663480Y-33614262D01*
X29455363Y-33581300D01*
X29455358Y-33581300D01*
X29244642Y-33581300D01*
X29244637Y-33581300D01*
X29036519Y-33614262D01*
X28836112Y-33679379D01*
X28648364Y-33775043D01*
X28477900Y-33898890D01*
X28328890Y-34047900D01*
X28205041Y-34218366D01*
X28190484Y-34246936D01*
X28142509Y-34297732D01*
X28074688Y-34314526D01*
X28008553Y-34291988D01*
X27969516Y-34246936D01*
X27954958Y-34218366D01*
X27831109Y-34047900D01*
X27682099Y-33898890D01*
X27511635Y-33775043D01*
X27511634Y-33775042D01*
X27511632Y-33775041D01*
X27448707Y-33742979D01*
X27323887Y-33679379D01*
X27123480Y-33614262D01*
X26915363Y-33581300D01*
X26915358Y-33581300D01*
X26704642Y-33581300D01*
X26704637Y-33581300D01*
X26496519Y-33614262D01*
X26296112Y-33679379D01*
X26108364Y-33775043D01*
X25937900Y-33898890D01*
X25788890Y-34047900D01*
X25665041Y-34218366D01*
X25650484Y-34246936D01*
X25602509Y-34297732D01*
X25534688Y-34314526D01*
X25468553Y-34291988D01*
X25429516Y-34246936D01*
X25414958Y-34218366D01*
X25291109Y-34047900D01*
X25142099Y-33898890D01*
X24971635Y-33775043D01*
X24971634Y-33775042D01*
X24971632Y-33775041D01*
X24908707Y-33742979D01*
X24783887Y-33679379D01*
X24583480Y-33614262D01*
X24375363Y-33581300D01*
X24375358Y-33581300D01*
X24164642Y-33581300D01*
X24164637Y-33581300D01*
X23956519Y-33614262D01*
X23756112Y-33679379D01*
X23568364Y-33775043D01*
X23397900Y-33898890D01*
X23248890Y-34047900D01*
X23125041Y-34218366D01*
X23110484Y-34246936D01*
X23062509Y-34297732D01*
X22994688Y-34314526D01*
X22928553Y-34291988D01*
X22889516Y-34246936D01*
X22874958Y-34218366D01*
X22751109Y-34047900D01*
X22602099Y-33898890D01*
X22431635Y-33775043D01*
X22431634Y-33775042D01*
X22431632Y-33775041D01*
X22368707Y-33742979D01*
X22243887Y-33679379D01*
X22043480Y-33614262D01*
X21835363Y-33581300D01*
X21835358Y-33581300D01*
X21624642Y-33581300D01*
X21624637Y-33581300D01*
X21416519Y-33614262D01*
X21216112Y-33679379D01*
X21028364Y-33775043D01*
X20857900Y-33898890D01*
X20708890Y-34047900D01*
X20585043Y-34218364D01*
X20489379Y-34406112D01*
X20424262Y-34606519D01*
X20391300Y-34814636D01*
X20020500Y-34814636D01*
X20020500Y-34782326D01*
X19984560Y-34509334D01*
X19913295Y-34243368D01*
X19807923Y-33988979D01*
X19807921Y-33988976D01*
X19807919Y-33988971D01*
X19727694Y-33850019D01*
X19670249Y-33750521D01*
X19593117Y-33650000D01*
X19502629Y-33532073D01*
X19502623Y-33532066D01*
X19307933Y-33337376D01*
X19307926Y-33337370D01*
X19089483Y-33169754D01*
X19089482Y-33169753D01*
X19089479Y-33169751D01*
X18994407Y-33114861D01*
X18851028Y-33032080D01*
X18851017Y-33032075D01*
X18596630Y-32926704D01*
X18463649Y-32891072D01*
X18330666Y-32855440D01*
X18330660Y-32855439D01*
X18330655Y-32855438D01*
X18057684Y-32819501D01*
X18057679Y-32819500D01*
X18057674Y-32819500D01*
X17782326Y-32819500D01*
X17782320Y-32819500D01*
X17782315Y-32819501D01*
X17509344Y-32855438D01*
X17509337Y-32855439D01*
X17509334Y-32855440D01*
X17453125Y-32870500D01*
X17243369Y-32926704D01*
X16988982Y-33032075D01*
X16988971Y-33032080D01*
X16750516Y-33169754D01*
X16532073Y-33337370D01*
X16532066Y-33337376D01*
X16337376Y-33532066D01*
X16337370Y-33532073D01*
X16169754Y-33750516D01*
X16032080Y-33988971D01*
X16032075Y-33988982D01*
X15926704Y-34243369D01*
X15855441Y-34509331D01*
X15855438Y-34509344D01*
X15819501Y-34782315D01*
X15819500Y-34782332D01*
X14500500Y-34782332D01*
X14500500Y-19542332D01*
X15819500Y-19542332D01*
X15819500Y-19817667D01*
X15819501Y-19817684D01*
X15855438Y-20090655D01*
X15855439Y-20090660D01*
X15855440Y-20090666D01*
X15855441Y-20090668D01*
X15926704Y-20356630D01*
X16032075Y-20611017D01*
X16032080Y-20611028D01*
X16106458Y-20739852D01*
X16169751Y-20849479D01*
X16169753Y-20849482D01*
X16169754Y-20849483D01*
X16337370Y-21067926D01*
X16337376Y-21067933D01*
X16532066Y-21262623D01*
X16532072Y-21262628D01*
X16750521Y-21430249D01*
X16903778Y-21518732D01*
X16988971Y-21567919D01*
X16988976Y-21567921D01*
X16988979Y-21567923D01*
X17243368Y-21673295D01*
X17509334Y-21744560D01*
X17782326Y-21780500D01*
X17782333Y-21780500D01*
X18057667Y-21780500D01*
X18057674Y-21780500D01*
X18330666Y-21744560D01*
X18596632Y-21673295D01*
X18851021Y-21567923D01*
X19089479Y-21430249D01*
X19307928Y-21262628D01*
X19502628Y-21067928D01*
X19670249Y-20849479D01*
X19807923Y-20611021D01*
X19913295Y-20356632D01*
X19984560Y-20090666D01*
X20020500Y-19817674D01*
X20020500Y-19570638D01*
X22880500Y-19570638D01*
X22880500Y-19789361D01*
X22914714Y-20005376D01*
X22982297Y-20213380D01*
X22982298Y-20213383D01*
X23081595Y-20408260D01*
X23210142Y-20585193D01*
X23364806Y-20739857D01*
X23515696Y-20849483D01*
X23541743Y-20868407D01*
X23669132Y-20933315D01*
X23736616Y-20967701D01*
X23736619Y-20967702D01*
X23840621Y-21001493D01*
X23944625Y-21035286D01*
X24044672Y-21051132D01*
X24160639Y-21069500D01*
X24160644Y-21069500D01*
X24379361Y-21069500D01*
X24484082Y-21052912D01*
X24595375Y-21035286D01*
X24803383Y-20967701D01*
X24998257Y-20868407D01*
X25097601Y-20796229D01*
X25175193Y-20739857D01*
X25175195Y-20739854D01*
X25175199Y-20739852D01*
X25329852Y-20585199D01*
X25439683Y-20434028D01*
X25495011Y-20391364D01*
X25564624Y-20385385D01*
X25626420Y-20417990D01*
X25640313Y-20434023D01*
X25750144Y-20585193D01*
X25750148Y-20585199D01*
X25904806Y-20739857D01*
X26055696Y-20849483D01*
X26081743Y-20868407D01*
X26209132Y-20933315D01*
X26276616Y-20967701D01*
X26276619Y-20967702D01*
X26380621Y-21001493D01*
X26484625Y-21035286D01*
X26584672Y-21051132D01*
X26700639Y-21069500D01*
X26700644Y-21069500D01*
X26919361Y-21069500D01*
X27024082Y-21052912D01*
X27135375Y-21035286D01*
X27343383Y-20967701D01*
X27538257Y-20868407D01*
X27637601Y-20796229D01*
X27715193Y-20739857D01*
X27715195Y-20739854D01*
X27715199Y-20739852D01*
X27869852Y-20585199D01*
X27979683Y-20434028D01*
X28035011Y-20391364D01*
X28104624Y-20385385D01*
X28166420Y-20417990D01*
X28180313Y-20434023D01*
X28290144Y-20585193D01*
X28290148Y-20585199D01*
X28444806Y-20739857D01*
X28595696Y-20849483D01*
X28621743Y-20868407D01*
X28749132Y-20933315D01*
X28816616Y-20967701D01*
X28816619Y-20967702D01*
X28920621Y-21001493D01*
X29024625Y-21035286D01*
X29124672Y-21051132D01*
X29240639Y-21069500D01*
X29240644Y-21069500D01*
X29459361Y-21069500D01*
X29564082Y-21052912D01*
X29675375Y-21035286D01*
X29883383Y-20967701D01*
X30078257Y-20868407D01*
X30177601Y-20796229D01*
X30255193Y-20739857D01*
X30255195Y-20739854D01*
X30255199Y-20739852D01*
X30409852Y-20585199D01*
X30519683Y-20434028D01*
X30575011Y-20391364D01*
X30644624Y-20385385D01*
X30706420Y-20417990D01*
X30720313Y-20434023D01*
X30830144Y-20585193D01*
X30830148Y-20585199D01*
X30984806Y-20739857D01*
X31135696Y-20849483D01*
X31161743Y-20868407D01*
X31289132Y-20933315D01*
X31356616Y-20967701D01*
X31356619Y-20967702D01*
X31460621Y-21001493D01*
X31564625Y-21035286D01*
X31664672Y-21051132D01*
X31780639Y-21069500D01*
X31780644Y-21069500D01*
X31999361Y-21069500D01*
X32104082Y-21052912D01*
X32215375Y-21035286D01*
X32423383Y-20967701D01*
X32618257Y-20868407D01*
X32717601Y-20796229D01*
X32795193Y-20739857D01*
X32795195Y-20739854D01*
X32795199Y-20739852D01*
X32949852Y-20585199D01*
X33059683Y-20434028D01*
X33115011Y-20391364D01*
X33184624Y-20385385D01*
X33246420Y-20417990D01*
X33260313Y-20434023D01*
X33370144Y-20585193D01*
X33370148Y-20585199D01*
X33524806Y-20739857D01*
X33675696Y-20849483D01*
X33701743Y-20868407D01*
X33829132Y-20933315D01*
X33896616Y-20967701D01*
X33896619Y-20967702D01*
X34000621Y-21001493D01*
X34104625Y-21035286D01*
X34204672Y-21051132D01*
X34320639Y-21069500D01*
X34320644Y-21069500D01*
X34539361Y-21069500D01*
X34644082Y-21052912D01*
X34755375Y-21035286D01*
X34963383Y-20967701D01*
X35158257Y-20868407D01*
X35257601Y-20796229D01*
X35335193Y-20739857D01*
X35335195Y-20739854D01*
X35335199Y-20739852D01*
X35489852Y-20585199D01*
X35599683Y-20434028D01*
X35655011Y-20391364D01*
X35724624Y-20385385D01*
X35786420Y-20417990D01*
X35800313Y-20434023D01*
X35910144Y-20585193D01*
X35910148Y-20585199D01*
X36064806Y-20739857D01*
X36215696Y-20849483D01*
X36241743Y-20868407D01*
X36369132Y-20933315D01*
X36436616Y-20967701D01*
X36436619Y-20967702D01*
X36540621Y-21001493D01*
X36644625Y-21035286D01*
X36744672Y-21051132D01*
X36860639Y-21069500D01*
X36860644Y-21069500D01*
X37079361Y-21069500D01*
X37184082Y-21052912D01*
X37295375Y-21035286D01*
X37503383Y-20967701D01*
X37698257Y-20868407D01*
X37797601Y-20796229D01*
X37875193Y-20739857D01*
X37875195Y-20739854D01*
X37875199Y-20739852D01*
X38029852Y-20585199D01*
X38029854Y-20585195D01*
X38029857Y-20585193D01*
X38086229Y-20507601D01*
X38158407Y-20408257D01*
X38257701Y-20213383D01*
X38325286Y-20005375D01*
X38342912Y-19894082D01*
X38359500Y-19789361D01*
X38359500Y-19570639D01*
X38357445Y-19557666D01*
X38357445Y-19557665D01*
X38355016Y-19542332D01*
X41219500Y-19542332D01*
X41219500Y-19817667D01*
X41219501Y-19817684D01*
X41255438Y-20090655D01*
X41255439Y-20090660D01*
X41255440Y-20090666D01*
X41255441Y-20090668D01*
X41326704Y-20356630D01*
X41432075Y-20611017D01*
X41432080Y-20611028D01*
X41506458Y-20739852D01*
X41569751Y-20849479D01*
X41569753Y-20849482D01*
X41569754Y-20849483D01*
X41737370Y-21067926D01*
X41737376Y-21067933D01*
X41932066Y-21262623D01*
X41932072Y-21262628D01*
X42150521Y-21430249D01*
X42303778Y-21518732D01*
X42388971Y-21567919D01*
X42388976Y-21567921D01*
X42388979Y-21567923D01*
X42643368Y-21673295D01*
X42909334Y-21744560D01*
X43182326Y-21780500D01*
X43182333Y-21780500D01*
X43457667Y-21780500D01*
X43457674Y-21780500D01*
X43730666Y-21744560D01*
X43996632Y-21673295D01*
X44251021Y-21567923D01*
X44489479Y-21430249D01*
X44707928Y-21262628D01*
X44902628Y-21067928D01*
X45070249Y-20849479D01*
X45207923Y-20611021D01*
X45313295Y-20356632D01*
X45384560Y-20090666D01*
X45420500Y-19817674D01*
X45420500Y-19542326D01*
X45384560Y-19269334D01*
X45313295Y-19003368D01*
X45207923Y-18748979D01*
X45207921Y-18748976D01*
X45207919Y-18748971D01*
X45133542Y-18620148D01*
X45070249Y-18510521D01*
X44902628Y-18292072D01*
X44902623Y-18292066D01*
X44707933Y-18097376D01*
X44707926Y-18097370D01*
X44489483Y-17929754D01*
X44489482Y-17929753D01*
X44489479Y-17929751D01*
X44369824Y-17860668D01*
X44251028Y-17792080D01*
X44251017Y-17792075D01*
X43996630Y-17686704D01*
X43863649Y-17651072D01*
X43730666Y-17615440D01*
X43730660Y-17615439D01*
X43730655Y-17615438D01*
X43457684Y-17579501D01*
X43457679Y-17579500D01*
X43457674Y-17579500D01*
X43182326Y-17579500D01*
X43182320Y-17579500D01*
X43182315Y-17579501D01*
X42909344Y-17615438D01*
X42909337Y-17615439D01*
X42909334Y-17615440D01*
X42853125Y-17630500D01*
X42643369Y-17686704D01*
X42388982Y-17792075D01*
X42388971Y-17792080D01*
X42150516Y-17929754D01*
X41932073Y-18097370D01*
X41932066Y-18097376D01*
X41737376Y-18292066D01*
X41737370Y-18292073D01*
X41569754Y-18510516D01*
X41432080Y-18748971D01*
X41432075Y-18748982D01*
X41326704Y-19003369D01*
X41255441Y-19269331D01*
X41255438Y-19269344D01*
X41219501Y-19542315D01*
X41219500Y-19542332D01*
X38355016Y-19542332D01*
X38339330Y-19443295D01*
X38325286Y-19354625D01*
X38257701Y-19146617D01*
X38257701Y-19146616D01*
X38223315Y-19079132D01*
X38158407Y-18951743D01*
X38139681Y-18925969D01*
X38029857Y-18774806D01*
X37875193Y-18620142D01*
X37698260Y-18491595D01*
X37698259Y-18491594D01*
X37698257Y-18491593D01*
X37635825Y-18459782D01*
X37503383Y-18392298D01*
X37503380Y-18392297D01*
X37295376Y-18324714D01*
X37079361Y-18290500D01*
X37079356Y-18290500D01*
X36860644Y-18290500D01*
X36860639Y-18290500D01*
X36644623Y-18324714D01*
X36436619Y-18392297D01*
X36436616Y-18392298D01*
X36241739Y-18491595D01*
X36064806Y-18620142D01*
X35910142Y-18774806D01*
X35800318Y-18925969D01*
X35744989Y-18968635D01*
X35675375Y-18974614D01*
X35613580Y-18942009D01*
X35599682Y-18925969D01*
X35489857Y-18774806D01*
X35335193Y-18620142D01*
X35158260Y-18491595D01*
X35158259Y-18491594D01*
X35158257Y-18491593D01*
X35095825Y-18459782D01*
X34963383Y-18392298D01*
X34963380Y-18392297D01*
X34755376Y-18324714D01*
X34539361Y-18290500D01*
X34539356Y-18290500D01*
X34320644Y-18290500D01*
X34320639Y-18290500D01*
X34104623Y-18324714D01*
X33896619Y-18392297D01*
X33896616Y-18392298D01*
X33701739Y-18491595D01*
X33524806Y-18620142D01*
X33370142Y-18774806D01*
X33260318Y-18925969D01*
X33204989Y-18968635D01*
X33135375Y-18974614D01*
X33073580Y-18942009D01*
X33059682Y-18925969D01*
X32949857Y-18774806D01*
X32795193Y-18620142D01*
X32618260Y-18491595D01*
X32618259Y-18491594D01*
X32618257Y-18491593D01*
X32555825Y-18459782D01*
X32423383Y-18392298D01*
X32423380Y-18392297D01*
X32215376Y-18324714D01*
X31999361Y-18290500D01*
X31999356Y-18290500D01*
X31780644Y-18290500D01*
X31780639Y-18290500D01*
X31564623Y-18324714D01*
X31356619Y-18392297D01*
X31356616Y-18392298D01*
X31161739Y-18491595D01*
X30984806Y-18620142D01*
X30830142Y-18774806D01*
X30720318Y-18925969D01*
X30664989Y-18968635D01*
X30595375Y-18974614D01*
X30533580Y-18942009D01*
X30519682Y-18925969D01*
X30409857Y-18774806D01*
X30255193Y-18620142D01*
X30078260Y-18491595D01*
X30078259Y-18491594D01*
X30078257Y-18491593D01*
X30015825Y-18459782D01*
X29883383Y-18392298D01*
X29883380Y-18392297D01*
X29675376Y-18324714D01*
X29459361Y-18290500D01*
X29459356Y-18290500D01*
X29240644Y-18290500D01*
X29240639Y-18290500D01*
X29024623Y-18324714D01*
X28816619Y-18392297D01*
X28816616Y-18392298D01*
X28621739Y-18491595D01*
X28444806Y-18620142D01*
X28290142Y-18774806D01*
X28180318Y-18925969D01*
X28124989Y-18968635D01*
X28055375Y-18974614D01*
X27993580Y-18942009D01*
X27979682Y-18925969D01*
X27869857Y-18774806D01*
X27715193Y-18620142D01*
X27538260Y-18491595D01*
X27538259Y-18491594D01*
X27538257Y-18491593D01*
X27475825Y-18459782D01*
X27343383Y-18392298D01*
X27343380Y-18392297D01*
X27135376Y-18324714D01*
X26919361Y-18290500D01*
X26919356Y-18290500D01*
X26700644Y-18290500D01*
X26700639Y-18290500D01*
X26484623Y-18324714D01*
X26276619Y-18392297D01*
X26276616Y-18392298D01*
X26081739Y-18491595D01*
X25904806Y-18620142D01*
X25750142Y-18774806D01*
X25640318Y-18925969D01*
X25584989Y-18968635D01*
X25515375Y-18974614D01*
X25453580Y-18942009D01*
X25439682Y-18925969D01*
X25329857Y-18774806D01*
X25175193Y-18620142D01*
X24998260Y-18491595D01*
X24998259Y-18491594D01*
X24998257Y-18491593D01*
X24935825Y-18459782D01*
X24803383Y-18392298D01*
X24803380Y-18392297D01*
X24595376Y-18324714D01*
X24379361Y-18290500D01*
X24379356Y-18290500D01*
X24160644Y-18290500D01*
X24160639Y-18290500D01*
X23944623Y-18324714D01*
X23736619Y-18392297D01*
X23736616Y-18392298D01*
X23541739Y-18491595D01*
X23364806Y-18620142D01*
X23210142Y-18774806D01*
X23081595Y-18951739D01*
X22982298Y-19146616D01*
X22982297Y-19146619D01*
X22914714Y-19354623D01*
X22880500Y-19570638D01*
X20020500Y-19570638D01*
X20020500Y-19542326D01*
X19984560Y-19269334D01*
X19913295Y-19003368D01*
X19807923Y-18748979D01*
X19807921Y-18748976D01*
X19807919Y-18748971D01*
X19733542Y-18620148D01*
X19670249Y-18510521D01*
X19502628Y-18292072D01*
X19502623Y-18292066D01*
X19307933Y-18097376D01*
X19307926Y-18097370D01*
X19089483Y-17929754D01*
X19089482Y-17929753D01*
X19089479Y-17929751D01*
X18969824Y-17860668D01*
X18851028Y-17792080D01*
X18851017Y-17792075D01*
X18596630Y-17686704D01*
X18463649Y-17651072D01*
X18330666Y-17615440D01*
X18330660Y-17615439D01*
X18330655Y-17615438D01*
X18057684Y-17579501D01*
X18057679Y-17579500D01*
X18057674Y-17579500D01*
X17782326Y-17579500D01*
X17782320Y-17579500D01*
X17782315Y-17579501D01*
X17509344Y-17615438D01*
X17509337Y-17615439D01*
X17509334Y-17615440D01*
X17453125Y-17630500D01*
X17243369Y-17686704D01*
X16988982Y-17792075D01*
X16988971Y-17792080D01*
X16750516Y-17929754D01*
X16532073Y-18097370D01*
X16532066Y-18097376D01*
X16337376Y-18292066D01*
X16337370Y-18292073D01*
X16169754Y-18510516D01*
X16032080Y-18748971D01*
X16032075Y-18748982D01*
X15926704Y-19003369D01*
X15855441Y-19269331D01*
X15855438Y-19269344D01*
X15819501Y-19542315D01*
X15819500Y-19542332D01*
X14500500Y-19542332D01*
X14500500Y-17312332D01*
X56819500Y-17312332D01*
X56819500Y-17587667D01*
X56819501Y-17587684D01*
X56855438Y-17860655D01*
X56855439Y-17860660D01*
X56855440Y-17860666D01*
X56855441Y-17860668D01*
X56926704Y-18126630D01*
X57032075Y-18381017D01*
X57032080Y-18381028D01*
X57095916Y-18491593D01*
X57169751Y-18619479D01*
X57169753Y-18619482D01*
X57169754Y-18619483D01*
X57337370Y-18837926D01*
X57337376Y-18837933D01*
X57532066Y-19032623D01*
X57532072Y-19032628D01*
X57750521Y-19200249D01*
X57870180Y-19269334D01*
X57988971Y-19337919D01*
X57988976Y-19337921D01*
X57988979Y-19337923D01*
X58243368Y-19443295D01*
X58509334Y-19514560D01*
X58782326Y-19550500D01*
X58782333Y-19550500D01*
X59057667Y-19550500D01*
X59057674Y-19550500D01*
X59330666Y-19514560D01*
X59596632Y-19443295D01*
X59851021Y-19337923D01*
X60089479Y-19200249D01*
X60307928Y-19032628D01*
X60502628Y-18837928D01*
X60670249Y-18619479D01*
X60807923Y-18381021D01*
X60913295Y-18126632D01*
X60984560Y-17860666D01*
X61020500Y-17587674D01*
X61020500Y-17312332D01*
X93649500Y-17312332D01*
X93649500Y-17587667D01*
X93649501Y-17587684D01*
X93685438Y-17860655D01*
X93685439Y-17860660D01*
X93685440Y-17860666D01*
X93685441Y-17860668D01*
X93756704Y-18126630D01*
X93862075Y-18381017D01*
X93862080Y-18381028D01*
X93925916Y-18491593D01*
X93999751Y-18619479D01*
X93999753Y-18619482D01*
X93999754Y-18619483D01*
X94167370Y-18837926D01*
X94167376Y-18837933D01*
X94362066Y-19032623D01*
X94362072Y-19032628D01*
X94580521Y-19200249D01*
X94700180Y-19269334D01*
X94818971Y-19337919D01*
X94818976Y-19337921D01*
X94818979Y-19337923D01*
X95073368Y-19443295D01*
X95339334Y-19514560D01*
X95612326Y-19550500D01*
X95612333Y-19550500D01*
X95887667Y-19550500D01*
X95887674Y-19550500D01*
X96160666Y-19514560D01*
X96426632Y-19443295D01*
X96681021Y-19337923D01*
X96919479Y-19200249D01*
X97137928Y-19032628D01*
X97332628Y-18837928D01*
X97500249Y-18619479D01*
X97637923Y-18381021D01*
X97743295Y-18126632D01*
X97814560Y-17860666D01*
X97850500Y-17587674D01*
X97850500Y-17312326D01*
X97814560Y-17039334D01*
X97743295Y-16773368D01*
X97637923Y-16518979D01*
X97637921Y-16518976D01*
X97637919Y-16518971D01*
X97588732Y-16433778D01*
X97500249Y-16280521D01*
X97332628Y-16062072D01*
X97332623Y-16062066D01*
X97137933Y-15867376D01*
X97137926Y-15867370D01*
X96919483Y-15699754D01*
X96919482Y-15699753D01*
X96919479Y-15699751D01*
X96824407Y-15644861D01*
X96681028Y-15562080D01*
X96681017Y-15562075D01*
X96426630Y-15456704D01*
X96293649Y-15421072D01*
X96160666Y-15385440D01*
X96160660Y-15385439D01*
X96160655Y-15385438D01*
X95887684Y-15349501D01*
X95887679Y-15349500D01*
X95887674Y-15349500D01*
X95612326Y-15349500D01*
X95612320Y-15349500D01*
X95612315Y-15349501D01*
X95339344Y-15385438D01*
X95339337Y-15385439D01*
X95339334Y-15385440D01*
X95283125Y-15400500D01*
X95073369Y-15456704D01*
X94818982Y-15562075D01*
X94818971Y-15562080D01*
X94580516Y-15699754D01*
X94362073Y-15867370D01*
X94362066Y-15867376D01*
X94167376Y-16062066D01*
X94167370Y-16062073D01*
X93999754Y-16280516D01*
X93862080Y-16518971D01*
X93862075Y-16518982D01*
X93756704Y-16773369D01*
X93685441Y-17039331D01*
X93685438Y-17039344D01*
X93649501Y-17312315D01*
X93649500Y-17312332D01*
X61020500Y-17312332D01*
X61020500Y-17312326D01*
X60984560Y-17039334D01*
X60913295Y-16773368D01*
X60807923Y-16518979D01*
X60807921Y-16518976D01*
X60807919Y-16518971D01*
X60758732Y-16433778D01*
X60670249Y-16280521D01*
X60502628Y-16062072D01*
X60502623Y-16062066D01*
X60307933Y-15867376D01*
X60307926Y-15867370D01*
X60089483Y-15699754D01*
X60089482Y-15699753D01*
X60089479Y-15699751D01*
X59994407Y-15644861D01*
X59851028Y-15562080D01*
X59851017Y-15562075D01*
X59596630Y-15456704D01*
X59463649Y-15421072D01*
X59330666Y-15385440D01*
X59330660Y-15385439D01*
X59330655Y-15385438D01*
X59057684Y-15349501D01*
X59057679Y-15349500D01*
X59057674Y-15349500D01*
X58782326Y-15349500D01*
X58782320Y-15349500D01*
X58782315Y-15349501D01*
X58509344Y-15385438D01*
X58509337Y-15385439D01*
X58509334Y-15385440D01*
X58453125Y-15400500D01*
X58243369Y-15456704D01*
X57988982Y-15562075D01*
X57988971Y-15562080D01*
X57750516Y-15699754D01*
X57532073Y-15867370D01*
X57532066Y-15867376D01*
X57337376Y-16062066D01*
X57337370Y-16062073D01*
X57169754Y-16280516D01*
X57032080Y-16518971D01*
X57032075Y-16518982D01*
X56926704Y-16773369D01*
X56855441Y-17039331D01*
X56855438Y-17039344D01*
X56819501Y-17312315D01*
X56819500Y-17312332D01*
X14500500Y-17312332D01*
X14500500Y-14624500D01*
X14520185Y-14557461D01*
X14572989Y-14511706D01*
X14624500Y-14500500D01*
X120625500Y-14500500D01*
X120692539Y-14520185D01*
G37*
%TD.AperFunction*%
%TD*%
M02*
