%TF.GenerationSoftware,KiCad,Pcbnew,10.0.1*%
%TF.CreationDate,2026-08-18T09:52:42+02:00*%
%TF.ProjectId,octessera,6f637465-7373-4657-9261-2e6b69636164,rev?*%
%TF.SameCoordinates,Original*%
%TF.FileFunction,Legend,Top*%
%TF.FilePolarity,Positive*%
%FSLAX46Y46*%
G04 Gerber Fmt 4.6, Leading zero omitted, Abs format (unit mm)*
G04 Created by KiCad (PCBNEW 10.0.1) date 2026-08-18 09:52:42*
%MOMM*%
%LPD*%
G01*
G04 APERTURE LIST*
%ADD10C,0.000000*%
%ADD11C,0.524100*%
%ADD12C,0.474100*%
%ADD13C,0.524200*%
%ADD14C,0.090000*%
%ADD15C,0.150000*%
%ADD16C,0.120000*%
%ADD17C,0.100000*%
%ADD18C,0.127000*%
%ADD19C,0.200000*%
G04 APERTURE END LIST*
D10*
G36*
X20078150Y-43734600D02*
G01*
X17021850Y-43734600D01*
X17021850Y-43298000D01*
X20078150Y-43298000D01*
X20078150Y-43734600D01*
G37*
G36*
X17458450Y-45481100D02*
G01*
X17021850Y-45481100D01*
X17021850Y-43298000D01*
X17458450Y-43298000D01*
X17458450Y-45481100D01*
G37*
G36*
X20078150Y-45481100D02*
G01*
X17021850Y-45481100D01*
X17021850Y-45044500D01*
X20078150Y-45044500D01*
X20078150Y-45481100D01*
G37*
G36*
X18768350Y-46354300D02*
G01*
X17021850Y-46354300D01*
X17021850Y-45917700D01*
X18768350Y-45917700D01*
X18768350Y-46354300D01*
G37*
G36*
X17458450Y-48100800D02*
G01*
X17021850Y-48100800D01*
X17021850Y-45917700D01*
X17458450Y-45917700D01*
X17458450Y-48100800D01*
G37*
G36*
X20078150Y-48100800D02*
G01*
X17021850Y-48100800D01*
X17021850Y-47664200D01*
X20078150Y-47664200D01*
X20078150Y-48100800D01*
G37*
G36*
X17458450Y-50720500D02*
G01*
X17021850Y-50720500D01*
X17021850Y-48537400D01*
X17458450Y-48537400D01*
X17458450Y-50720500D01*
G37*
G36*
X20078150Y-50720500D02*
G01*
X17021850Y-50720500D01*
X17021850Y-50283800D01*
X20078150Y-50283800D01*
X20078150Y-50720500D01*
G37*
G36*
X17458450Y-53340200D02*
G01*
X17021850Y-53340200D01*
X17021850Y-51157100D01*
X17458450Y-51157100D01*
X17458450Y-53340200D01*
G37*
G36*
X18768350Y-53340200D02*
G01*
X17021850Y-53340200D01*
X17021850Y-52903500D01*
X18768350Y-52903500D01*
X18768350Y-53340200D01*
G37*
G36*
X17458450Y-55959800D02*
G01*
X17021850Y-55959800D01*
X17021850Y-53776800D01*
X17458450Y-53776800D01*
X17458450Y-55959800D01*
G37*
G36*
X18768350Y-55959800D02*
G01*
X17021850Y-55959800D01*
X17021850Y-55523200D01*
X18768350Y-55523200D01*
X18768350Y-55959800D01*
G37*
G36*
X17458450Y-58142900D02*
G01*
X17021850Y-58142900D01*
X17021850Y-56396500D01*
X17458450Y-56396500D01*
X17458450Y-58142900D01*
G37*
G36*
X20078150Y-58142900D02*
G01*
X17021850Y-58142900D01*
X17021850Y-57706300D01*
X20078150Y-57706300D01*
X20078150Y-58142900D01*
G37*
G36*
X20078150Y-59889400D02*
G01*
X17021850Y-59889400D01*
X17021850Y-59452800D01*
X20078150Y-59452800D01*
X20078150Y-59889400D01*
G37*
G36*
X17458450Y-60762600D02*
G01*
X17021850Y-60762600D01*
X17021850Y-58579500D01*
X17458450Y-58579500D01*
X17458450Y-60762600D01*
G37*
G36*
X17458450Y-63382300D02*
G01*
X17021850Y-63382300D01*
X17021850Y-61199200D01*
X17458450Y-61199200D01*
X17458450Y-63382300D01*
G37*
G36*
X20078150Y-63382300D02*
G01*
X17021850Y-63382300D01*
X17021850Y-62945700D01*
X20078150Y-62945700D01*
X20078150Y-63382300D01*
G37*
G36*
X20078150Y-64255500D02*
G01*
X17021850Y-64255500D01*
X17021850Y-63818900D01*
X20078150Y-63818900D01*
X20078150Y-64255500D01*
G37*
G36*
X17458450Y-66002000D02*
G01*
X17021850Y-66002000D01*
X17021850Y-63818900D01*
X17458450Y-63818900D01*
X17458450Y-66002000D01*
G37*
G36*
X20078150Y-66002000D02*
G01*
X17021850Y-66002000D01*
X17021850Y-65565400D01*
X20078150Y-65565400D01*
X20078150Y-66002000D01*
G37*
G36*
X18768350Y-45481100D02*
G01*
X18331650Y-45481100D01*
X18331650Y-43298000D01*
X18768350Y-43298000D01*
X18768350Y-45481100D01*
G37*
G36*
X18768350Y-48100800D02*
G01*
X18331650Y-48100800D01*
X18331650Y-45917700D01*
X18768350Y-45917700D01*
X18768350Y-48100800D01*
G37*
G36*
X18768350Y-50720500D02*
G01*
X18331650Y-50720500D01*
X18331650Y-48537400D01*
X18768350Y-48537400D01*
X18768350Y-50720500D01*
G37*
G36*
X20078150Y-51593700D02*
G01*
X18331650Y-51593700D01*
X18331650Y-51157100D01*
X20078150Y-51157100D01*
X20078150Y-51593700D01*
G37*
G36*
X18768350Y-53340200D02*
G01*
X18331650Y-53340200D01*
X18331650Y-51157100D01*
X18768350Y-51157100D01*
X18768350Y-53340200D01*
G37*
G36*
X20078150Y-54213400D02*
G01*
X18331650Y-54213400D01*
X18331650Y-53776800D01*
X20078150Y-53776800D01*
X20078150Y-54213400D01*
G37*
G36*
X18768350Y-55959800D02*
G01*
X18331650Y-55959800D01*
X18331650Y-53776800D01*
X18768350Y-53776800D01*
X18768350Y-55959800D01*
G37*
G36*
X18768350Y-58142900D02*
G01*
X18331650Y-58142900D01*
X18331650Y-56396500D01*
X18768350Y-56396500D01*
X18768350Y-58142900D01*
G37*
G36*
X20078150Y-46354300D02*
G01*
X18768350Y-46790900D01*
X18768350Y-45917700D01*
X20078150Y-45917700D01*
X20078150Y-46354300D01*
G37*
G36*
X20078150Y-50720500D02*
G01*
X19641550Y-50720500D01*
X19641550Y-48537400D01*
X20078150Y-48537400D01*
X20078150Y-50720500D01*
G37*
G36*
X20078150Y-53340200D02*
G01*
X19641550Y-53340200D01*
X19641550Y-51157100D01*
X20078150Y-51157100D01*
X20078150Y-53340200D01*
G37*
G36*
X20078150Y-55959800D02*
G01*
X19641550Y-55959800D01*
X19641550Y-53776800D01*
X20078150Y-53776800D01*
X20078150Y-55959800D01*
G37*
G36*
X20078150Y-58142900D02*
G01*
X19641550Y-58142900D01*
X19641550Y-56396500D01*
X20078150Y-56396500D01*
X20078150Y-58142900D01*
G37*
G36*
X20078150Y-63382300D02*
G01*
X19641550Y-63382300D01*
X19641550Y-61199200D01*
X20078150Y-61199200D01*
X20078150Y-63382300D01*
G37*
G36*
X20078150Y-66002000D02*
G01*
X19641550Y-66002000D01*
X19641550Y-63818900D01*
X20078150Y-63818900D01*
X20078150Y-66002000D01*
G37*
D11*
X17110850Y-69499400D02*
G75*
G02*
X16586750Y-69499400I-262050J0D01*
G01*
X16586750Y-69499400D02*
G75*
G02*
X17110850Y-69499400I262050J0D01*
G01*
D12*
X16848800Y-69499400D02*
X18599400Y-71250000D01*
D11*
X17110850Y-71250000D02*
G75*
G02*
X16586750Y-71250000I-262050J0D01*
G01*
X16586750Y-71250000D02*
G75*
G02*
X17110850Y-71250000I262050J0D01*
G01*
D12*
X18599400Y-67748800D02*
X16848800Y-69499400D01*
D11*
X18861450Y-67748800D02*
G75*
G02*
X18337350Y-67748800I-262050J0D01*
G01*
X18337350Y-67748800D02*
G75*
G02*
X18861450Y-67748800I262050J0D01*
G01*
X18861450Y-69499400D02*
G75*
G02*
X18337350Y-69499400I-262050J0D01*
G01*
X18337350Y-69499400D02*
G75*
G02*
X18861450Y-69499400I262050J0D01*
G01*
D12*
X18599400Y-69499400D02*
X20350000Y-71250000D01*
D11*
X18861450Y-71250000D02*
G75*
G02*
X18337350Y-71250000I-262050J0D01*
G01*
X18337350Y-71250000D02*
G75*
G02*
X18861450Y-71250000I262050J0D01*
G01*
D12*
X18599400Y-73000500D02*
X16848800Y-71250000D01*
D13*
X18861500Y-73000500D02*
G75*
G02*
X18337300Y-73000500I-262100J0D01*
G01*
X18337300Y-73000500D02*
G75*
G02*
X18861500Y-73000500I262100J0D01*
G01*
D12*
X20350000Y-69499400D02*
X18599400Y-67748800D01*
D11*
X20612050Y-69499400D02*
G75*
G02*
X20087950Y-69499400I-262050J0D01*
G01*
X20087950Y-69499400D02*
G75*
G02*
X20612050Y-69499400I262050J0D01*
G01*
D12*
X20350000Y-71250000D02*
X18599400Y-73000500D01*
D11*
X20612050Y-71250000D02*
G75*
G02*
X20087950Y-71250000I-262050J0D01*
G01*
X20087950Y-71250000D02*
G75*
G02*
X20612050Y-71250000I262050J0D01*
G01*
D14*
X21383415Y-47600313D02*
X20583415Y-47600313D01*
X20888177Y-47600313D02*
X20850081Y-47524123D01*
X20850081Y-47524123D02*
X20850081Y-47371742D01*
X20850081Y-47371742D02*
X20888177Y-47295551D01*
X20888177Y-47295551D02*
X20926272Y-47257456D01*
X20926272Y-47257456D02*
X21002462Y-47219361D01*
X21002462Y-47219361D02*
X21231034Y-47219361D01*
X21231034Y-47219361D02*
X21307224Y-47257456D01*
X21307224Y-47257456D02*
X21345320Y-47295551D01*
X21345320Y-47295551D02*
X21383415Y-47371742D01*
X21383415Y-47371742D02*
X21383415Y-47524123D01*
X21383415Y-47524123D02*
X21345320Y-47600313D01*
X20850081Y-46952694D02*
X21383415Y-46762218D01*
X20850081Y-46571741D02*
X21383415Y-46762218D01*
X21383415Y-46762218D02*
X21573891Y-46838408D01*
X21573891Y-46838408D02*
X21611986Y-46876503D01*
X21611986Y-46876503D02*
X21650081Y-46952694D01*
X20850081Y-45657455D02*
X21383415Y-45657455D01*
X20926272Y-45657455D02*
X20888177Y-45619360D01*
X20888177Y-45619360D02*
X20850081Y-45543170D01*
X20850081Y-45543170D02*
X20850081Y-45428884D01*
X20850081Y-45428884D02*
X20888177Y-45352693D01*
X20888177Y-45352693D02*
X20964367Y-45314598D01*
X20964367Y-45314598D02*
X21383415Y-45314598D01*
X21345320Y-44628883D02*
X21383415Y-44705074D01*
X21383415Y-44705074D02*
X21383415Y-44857455D01*
X21383415Y-44857455D02*
X21345320Y-44933645D01*
X21345320Y-44933645D02*
X21269129Y-44971741D01*
X21269129Y-44971741D02*
X20964367Y-44971741D01*
X20964367Y-44971741D02*
X20888177Y-44933645D01*
X20888177Y-44933645D02*
X20850081Y-44857455D01*
X20850081Y-44857455D02*
X20850081Y-44705074D01*
X20850081Y-44705074D02*
X20888177Y-44628883D01*
X20888177Y-44628883D02*
X20964367Y-44590788D01*
X20964367Y-44590788D02*
X21040558Y-44590788D01*
X21040558Y-44590788D02*
X21116748Y-44971741D01*
X21383415Y-44324122D02*
X20850081Y-43905074D01*
X20850081Y-44324122D02*
X21383415Y-43905074D01*
X21383415Y-43676503D02*
X20850081Y-43257455D01*
X20850081Y-43676503D02*
X21383415Y-43257455D01*
X20850081Y-43028884D02*
X21383415Y-42838408D01*
X20850081Y-42647931D02*
X21383415Y-42838408D01*
X21383415Y-42838408D02*
X21573891Y-42914598D01*
X21573891Y-42914598D02*
X21611986Y-42952693D01*
X21611986Y-42952693D02*
X21650081Y-43028884D01*
X20850081Y-42419360D02*
X20850081Y-42000312D01*
X20850081Y-42000312D02*
X21383415Y-42419360D01*
X21383415Y-42419360D02*
X21383415Y-42000312D01*
D15*
X17636855Y-106211504D02*
X17636855Y-107022557D01*
X17636855Y-107022557D02*
X17684564Y-107117975D01*
X17684564Y-107117975D02*
X17732273Y-107165685D01*
X17732273Y-107165685D02*
X17827691Y-107213394D01*
X17827691Y-107213394D02*
X18018527Y-107213394D01*
X18018527Y-107213394D02*
X18113945Y-107165685D01*
X18113945Y-107165685D02*
X18161654Y-107117975D01*
X18161654Y-107117975D02*
X18209363Y-107022557D01*
X18209363Y-107022557D02*
X18209363Y-106211504D01*
X19211253Y-107213394D02*
X18638745Y-107213394D01*
X18924999Y-107213394D02*
X18924999Y-106211504D01*
X18924999Y-106211504D02*
X18829581Y-106354631D01*
X18829581Y-106354631D02*
X18734163Y-106450049D01*
X18734163Y-106450049D02*
X18638745Y-106497758D01*
X32934819Y-79018094D02*
X31934819Y-79018094D01*
X31934819Y-79018094D02*
X31934819Y-78779999D01*
X31934819Y-78779999D02*
X31982438Y-78637142D01*
X31982438Y-78637142D02*
X32077676Y-78541904D01*
X32077676Y-78541904D02*
X32172914Y-78494285D01*
X32172914Y-78494285D02*
X32363390Y-78446666D01*
X32363390Y-78446666D02*
X32506247Y-78446666D01*
X32506247Y-78446666D02*
X32696723Y-78494285D01*
X32696723Y-78494285D02*
X32791961Y-78541904D01*
X32791961Y-78541904D02*
X32887200Y-78637142D01*
X32887200Y-78637142D02*
X32934819Y-78779999D01*
X32934819Y-78779999D02*
X32934819Y-79018094D01*
X32934819Y-77494285D02*
X32934819Y-78065713D01*
X32934819Y-77779999D02*
X31934819Y-77779999D01*
X31934819Y-77779999D02*
X32077676Y-77875237D01*
X32077676Y-77875237D02*
X32172914Y-77970475D01*
X32172914Y-77970475D02*
X32220533Y-78065713D01*
X33654819Y-83621904D02*
X32654819Y-83621904D01*
X33654819Y-83050476D02*
X33083390Y-83479047D01*
X32654819Y-83050476D02*
X33226247Y-83621904D01*
X99744819Y-37171904D02*
X100554342Y-37171904D01*
X100554342Y-37171904D02*
X100649580Y-37124285D01*
X100649580Y-37124285D02*
X100697200Y-37076666D01*
X100697200Y-37076666D02*
X100744819Y-36981428D01*
X100744819Y-36981428D02*
X100744819Y-36790952D01*
X100744819Y-36790952D02*
X100697200Y-36695714D01*
X100697200Y-36695714D02*
X100649580Y-36648095D01*
X100649580Y-36648095D02*
X100554342Y-36600476D01*
X100554342Y-36600476D02*
X99744819Y-36600476D01*
X99840057Y-36171904D02*
X99792438Y-36124285D01*
X99792438Y-36124285D02*
X99744819Y-36029047D01*
X99744819Y-36029047D02*
X99744819Y-35790952D01*
X99744819Y-35790952D02*
X99792438Y-35695714D01*
X99792438Y-35695714D02*
X99840057Y-35648095D01*
X99840057Y-35648095D02*
X99935295Y-35600476D01*
X99935295Y-35600476D02*
X100030533Y-35600476D01*
X100030533Y-35600476D02*
X100173390Y-35648095D01*
X100173390Y-35648095D02*
X100744819Y-36219523D01*
X100744819Y-36219523D02*
X100744819Y-35600476D01*
D16*
X59906667Y-23450926D02*
X59840000Y-23417593D01*
X59840000Y-23417593D02*
X59740000Y-23417593D01*
X59740000Y-23417593D02*
X59640000Y-23450926D01*
X59640000Y-23450926D02*
X59573334Y-23517593D01*
X59573334Y-23517593D02*
X59540000Y-23584260D01*
X59540000Y-23584260D02*
X59506667Y-23717593D01*
X59506667Y-23717593D02*
X59506667Y-23817593D01*
X59506667Y-23817593D02*
X59540000Y-23950926D01*
X59540000Y-23950926D02*
X59573334Y-24017593D01*
X59573334Y-24017593D02*
X59640000Y-24084260D01*
X59640000Y-24084260D02*
X59740000Y-24117593D01*
X59740000Y-24117593D02*
X59806667Y-24117593D01*
X59806667Y-24117593D02*
X59906667Y-24084260D01*
X59906667Y-24084260D02*
X59940000Y-24050926D01*
X59940000Y-24050926D02*
X59940000Y-23817593D01*
X59940000Y-23817593D02*
X59806667Y-23817593D01*
X60240000Y-24117593D02*
X60240000Y-23417593D01*
X60240000Y-23417593D02*
X60640000Y-24117593D01*
X60640000Y-24117593D02*
X60640000Y-23417593D01*
X60973333Y-24117593D02*
X60973333Y-23417593D01*
X60973333Y-23417593D02*
X61140000Y-23417593D01*
X61140000Y-23417593D02*
X61240000Y-23450926D01*
X61240000Y-23450926D02*
X61306667Y-23517593D01*
X61306667Y-23517593D02*
X61340000Y-23584260D01*
X61340000Y-23584260D02*
X61373333Y-23717593D01*
X61373333Y-23717593D02*
X61373333Y-23817593D01*
X61373333Y-23817593D02*
X61340000Y-23950926D01*
X61340000Y-23950926D02*
X61306667Y-24017593D01*
X61306667Y-24017593D02*
X61240000Y-24084260D01*
X61240000Y-24084260D02*
X61140000Y-24117593D01*
X61140000Y-24117593D02*
X60973333Y-24117593D01*
X59673333Y-25957593D02*
X59906667Y-26657593D01*
X59906667Y-26657593D02*
X60140000Y-25957593D01*
X60373333Y-26657593D02*
X60373333Y-25957593D01*
X60706666Y-26657593D02*
X60706666Y-25957593D01*
X60706666Y-25957593D02*
X61106666Y-26657593D01*
X61106666Y-26657593D02*
X61106666Y-25957593D01*
X59540000Y-28497593D02*
X59973333Y-28497593D01*
X59973333Y-28497593D02*
X59740000Y-28764260D01*
X59740000Y-28764260D02*
X59840000Y-28764260D01*
X59840000Y-28764260D02*
X59906666Y-28797593D01*
X59906666Y-28797593D02*
X59940000Y-28830926D01*
X59940000Y-28830926D02*
X59973333Y-28897593D01*
X59973333Y-28897593D02*
X59973333Y-29064260D01*
X59973333Y-29064260D02*
X59940000Y-29130926D01*
X59940000Y-29130926D02*
X59906666Y-29164260D01*
X59906666Y-29164260D02*
X59840000Y-29197593D01*
X59840000Y-29197593D02*
X59640000Y-29197593D01*
X59640000Y-29197593D02*
X59573333Y-29164260D01*
X59573333Y-29164260D02*
X59540000Y-29130926D01*
X60173333Y-28497593D02*
X60406667Y-29197593D01*
X60406667Y-29197593D02*
X60640000Y-28497593D01*
X61006667Y-28497593D02*
X61140000Y-28497593D01*
X61140000Y-28497593D02*
X61206667Y-28530926D01*
X61206667Y-28530926D02*
X61273333Y-28597593D01*
X61273333Y-28597593D02*
X61306667Y-28730926D01*
X61306667Y-28730926D02*
X61306667Y-28964260D01*
X61306667Y-28964260D02*
X61273333Y-29097593D01*
X61273333Y-29097593D02*
X61206667Y-29164260D01*
X61206667Y-29164260D02*
X61140000Y-29197593D01*
X61140000Y-29197593D02*
X61006667Y-29197593D01*
X61006667Y-29197593D02*
X60940000Y-29164260D01*
X60940000Y-29164260D02*
X60873333Y-29097593D01*
X60873333Y-29097593D02*
X60840000Y-28964260D01*
X60840000Y-28964260D02*
X60840000Y-28730926D01*
X60840000Y-28730926D02*
X60873333Y-28597593D01*
X60873333Y-28597593D02*
X60940000Y-28530926D01*
X60940000Y-28530926D02*
X61006667Y-28497593D01*
X60306666Y-31670926D02*
X60273333Y-31704260D01*
X60273333Y-31704260D02*
X60173333Y-31737593D01*
X60173333Y-31737593D02*
X60106666Y-31737593D01*
X60106666Y-31737593D02*
X60006666Y-31704260D01*
X60006666Y-31704260D02*
X59940000Y-31637593D01*
X59940000Y-31637593D02*
X59906666Y-31570926D01*
X59906666Y-31570926D02*
X59873333Y-31437593D01*
X59873333Y-31437593D02*
X59873333Y-31337593D01*
X59873333Y-31337593D02*
X59906666Y-31204260D01*
X59906666Y-31204260D02*
X59940000Y-31137593D01*
X59940000Y-31137593D02*
X60006666Y-31070926D01*
X60006666Y-31070926D02*
X60106666Y-31037593D01*
X60106666Y-31037593D02*
X60173333Y-31037593D01*
X60173333Y-31037593D02*
X60273333Y-31070926D01*
X60273333Y-31070926D02*
X60306666Y-31104260D01*
X60606666Y-31737593D02*
X60606666Y-31037593D01*
X60606666Y-31037593D02*
X60773333Y-31037593D01*
X60773333Y-31037593D02*
X60873333Y-31070926D01*
X60873333Y-31070926D02*
X60940000Y-31137593D01*
X60940000Y-31137593D02*
X60973333Y-31204260D01*
X60973333Y-31204260D02*
X61006666Y-31337593D01*
X61006666Y-31337593D02*
X61006666Y-31437593D01*
X61006666Y-31437593D02*
X60973333Y-31570926D01*
X60973333Y-31570926D02*
X60940000Y-31637593D01*
X60940000Y-31637593D02*
X60873333Y-31704260D01*
X60873333Y-31704260D02*
X60773333Y-31737593D01*
X60773333Y-31737593D02*
X60606666Y-31737593D01*
X59906666Y-44437593D02*
X59906666Y-43737593D01*
X59906666Y-43737593D02*
X60073333Y-43737593D01*
X60073333Y-43737593D02*
X60173333Y-43770926D01*
X60173333Y-43770926D02*
X60240000Y-43837593D01*
X60240000Y-43837593D02*
X60273333Y-43904260D01*
X60273333Y-43904260D02*
X60306666Y-44037593D01*
X60306666Y-44037593D02*
X60306666Y-44137593D01*
X60306666Y-44137593D02*
X60273333Y-44270926D01*
X60273333Y-44270926D02*
X60240000Y-44337593D01*
X60240000Y-44337593D02*
X60173333Y-44404260D01*
X60173333Y-44404260D02*
X60073333Y-44437593D01*
X60073333Y-44437593D02*
X59906666Y-44437593D01*
X61006666Y-44370926D02*
X60973333Y-44404260D01*
X60973333Y-44404260D02*
X60873333Y-44437593D01*
X60873333Y-44437593D02*
X60806666Y-44437593D01*
X60806666Y-44437593D02*
X60706666Y-44404260D01*
X60706666Y-44404260D02*
X60640000Y-44337593D01*
X60640000Y-44337593D02*
X60606666Y-44270926D01*
X60606666Y-44270926D02*
X60573333Y-44137593D01*
X60573333Y-44137593D02*
X60573333Y-44037593D01*
X60573333Y-44037593D02*
X60606666Y-43904260D01*
X60606666Y-43904260D02*
X60640000Y-43837593D01*
X60640000Y-43837593D02*
X60706666Y-43770926D01*
X60706666Y-43770926D02*
X60806666Y-43737593D01*
X60806666Y-43737593D02*
X60873333Y-43737593D01*
X60873333Y-43737593D02*
X60973333Y-43770926D01*
X60973333Y-43770926D02*
X61006666Y-43804260D01*
X59540000Y-46944260D02*
X59640000Y-46977593D01*
X59640000Y-46977593D02*
X59806667Y-46977593D01*
X59806667Y-46977593D02*
X59873333Y-46944260D01*
X59873333Y-46944260D02*
X59906667Y-46910926D01*
X59906667Y-46910926D02*
X59940000Y-46844260D01*
X59940000Y-46844260D02*
X59940000Y-46777593D01*
X59940000Y-46777593D02*
X59906667Y-46710926D01*
X59906667Y-46710926D02*
X59873333Y-46677593D01*
X59873333Y-46677593D02*
X59806667Y-46644260D01*
X59806667Y-46644260D02*
X59673333Y-46610926D01*
X59673333Y-46610926D02*
X59606667Y-46577593D01*
X59606667Y-46577593D02*
X59573333Y-46544260D01*
X59573333Y-46544260D02*
X59540000Y-46477593D01*
X59540000Y-46477593D02*
X59540000Y-46410926D01*
X59540000Y-46410926D02*
X59573333Y-46344260D01*
X59573333Y-46344260D02*
X59606667Y-46310926D01*
X59606667Y-46310926D02*
X59673333Y-46277593D01*
X59673333Y-46277593D02*
X59840000Y-46277593D01*
X59840000Y-46277593D02*
X59940000Y-46310926D01*
X60640000Y-46910926D02*
X60606667Y-46944260D01*
X60606667Y-46944260D02*
X60506667Y-46977593D01*
X60506667Y-46977593D02*
X60440000Y-46977593D01*
X60440000Y-46977593D02*
X60340000Y-46944260D01*
X60340000Y-46944260D02*
X60273334Y-46877593D01*
X60273334Y-46877593D02*
X60240000Y-46810926D01*
X60240000Y-46810926D02*
X60206667Y-46677593D01*
X60206667Y-46677593D02*
X60206667Y-46577593D01*
X60206667Y-46577593D02*
X60240000Y-46444260D01*
X60240000Y-46444260D02*
X60273334Y-46377593D01*
X60273334Y-46377593D02*
X60340000Y-46310926D01*
X60340000Y-46310926D02*
X60440000Y-46277593D01*
X60440000Y-46277593D02*
X60506667Y-46277593D01*
X60506667Y-46277593D02*
X60606667Y-46310926D01*
X60606667Y-46310926D02*
X60640000Y-46344260D01*
X60940000Y-46977593D02*
X60940000Y-46277593D01*
X61340000Y-46977593D02*
X61040000Y-46577593D01*
X61340000Y-46277593D02*
X60940000Y-46677593D01*
X59650000Y-49517593D02*
X59650000Y-48817593D01*
X59650000Y-48817593D02*
X59883334Y-49317593D01*
X59883334Y-49317593D02*
X60116667Y-48817593D01*
X60116667Y-48817593D02*
X60116667Y-49517593D01*
X60583334Y-48817593D02*
X60716667Y-48817593D01*
X60716667Y-48817593D02*
X60783334Y-48850926D01*
X60783334Y-48850926D02*
X60850000Y-48917593D01*
X60850000Y-48917593D02*
X60883334Y-49050926D01*
X60883334Y-49050926D02*
X60883334Y-49284260D01*
X60883334Y-49284260D02*
X60850000Y-49417593D01*
X60850000Y-49417593D02*
X60783334Y-49484260D01*
X60783334Y-49484260D02*
X60716667Y-49517593D01*
X60716667Y-49517593D02*
X60583334Y-49517593D01*
X60583334Y-49517593D02*
X60516667Y-49484260D01*
X60516667Y-49484260D02*
X60450000Y-49417593D01*
X60450000Y-49417593D02*
X60416667Y-49284260D01*
X60416667Y-49284260D02*
X60416667Y-49050926D01*
X60416667Y-49050926D02*
X60450000Y-48917593D01*
X60450000Y-48917593D02*
X60516667Y-48850926D01*
X60516667Y-48850926D02*
X60583334Y-48817593D01*
X61150000Y-49484260D02*
X61250000Y-49517593D01*
X61250000Y-49517593D02*
X61416667Y-49517593D01*
X61416667Y-49517593D02*
X61483333Y-49484260D01*
X61483333Y-49484260D02*
X61516667Y-49450926D01*
X61516667Y-49450926D02*
X61550000Y-49384260D01*
X61550000Y-49384260D02*
X61550000Y-49317593D01*
X61550000Y-49317593D02*
X61516667Y-49250926D01*
X61516667Y-49250926D02*
X61483333Y-49217593D01*
X61483333Y-49217593D02*
X61416667Y-49184260D01*
X61416667Y-49184260D02*
X61283333Y-49150926D01*
X61283333Y-49150926D02*
X61216667Y-49117593D01*
X61216667Y-49117593D02*
X61183333Y-49084260D01*
X61183333Y-49084260D02*
X61150000Y-49017593D01*
X61150000Y-49017593D02*
X61150000Y-48950926D01*
X61150000Y-48950926D02*
X61183333Y-48884260D01*
X61183333Y-48884260D02*
X61216667Y-48850926D01*
X61216667Y-48850926D02*
X61283333Y-48817593D01*
X61283333Y-48817593D02*
X61450000Y-48817593D01*
X61450000Y-48817593D02*
X61550000Y-48850926D01*
X61850000Y-49517593D02*
X61850000Y-48817593D01*
X59900000Y-34277593D02*
X59900000Y-33577593D01*
X59900000Y-33577593D02*
X60133334Y-34077593D01*
X60133334Y-34077593D02*
X60366667Y-33577593D01*
X60366667Y-33577593D02*
X60366667Y-34277593D01*
X60700000Y-34277593D02*
X60700000Y-33577593D01*
X61000000Y-34244260D02*
X61100000Y-34277593D01*
X61100000Y-34277593D02*
X61266667Y-34277593D01*
X61266667Y-34277593D02*
X61333333Y-34244260D01*
X61333333Y-34244260D02*
X61366667Y-34210926D01*
X61366667Y-34210926D02*
X61400000Y-34144260D01*
X61400000Y-34144260D02*
X61400000Y-34077593D01*
X61400000Y-34077593D02*
X61366667Y-34010926D01*
X61366667Y-34010926D02*
X61333333Y-33977593D01*
X61333333Y-33977593D02*
X61266667Y-33944260D01*
X61266667Y-33944260D02*
X61133333Y-33910926D01*
X61133333Y-33910926D02*
X61066667Y-33877593D01*
X61066667Y-33877593D02*
X61033333Y-33844260D01*
X61033333Y-33844260D02*
X61000000Y-33777593D01*
X61000000Y-33777593D02*
X61000000Y-33710926D01*
X61000000Y-33710926D02*
X61033333Y-33644260D01*
X61033333Y-33644260D02*
X61066667Y-33610926D01*
X61066667Y-33610926D02*
X61133333Y-33577593D01*
X61133333Y-33577593D02*
X61300000Y-33577593D01*
X61300000Y-33577593D02*
X61400000Y-33610926D01*
X61833334Y-33577593D02*
X61966667Y-33577593D01*
X61966667Y-33577593D02*
X62033334Y-33610926D01*
X62033334Y-33610926D02*
X62100000Y-33677593D01*
X62100000Y-33677593D02*
X62133334Y-33810926D01*
X62133334Y-33810926D02*
X62133334Y-34044260D01*
X62133334Y-34044260D02*
X62100000Y-34177593D01*
X62100000Y-34177593D02*
X62033334Y-34244260D01*
X62033334Y-34244260D02*
X61966667Y-34277593D01*
X61966667Y-34277593D02*
X61833334Y-34277593D01*
X61833334Y-34277593D02*
X61766667Y-34244260D01*
X61766667Y-34244260D02*
X61700000Y-34177593D01*
X61700000Y-34177593D02*
X61666667Y-34044260D01*
X61666667Y-34044260D02*
X61666667Y-33810926D01*
X61666667Y-33810926D02*
X61700000Y-33677593D01*
X61700000Y-33677593D02*
X61766667Y-33610926D01*
X61766667Y-33610926D02*
X61833334Y-33577593D01*
X59766666Y-36784260D02*
X59866666Y-36817593D01*
X59866666Y-36817593D02*
X60033333Y-36817593D01*
X60033333Y-36817593D02*
X60099999Y-36784260D01*
X60099999Y-36784260D02*
X60133333Y-36750926D01*
X60133333Y-36750926D02*
X60166666Y-36684260D01*
X60166666Y-36684260D02*
X60166666Y-36617593D01*
X60166666Y-36617593D02*
X60133333Y-36550926D01*
X60133333Y-36550926D02*
X60099999Y-36517593D01*
X60099999Y-36517593D02*
X60033333Y-36484260D01*
X60033333Y-36484260D02*
X59899999Y-36450926D01*
X59899999Y-36450926D02*
X59833333Y-36417593D01*
X59833333Y-36417593D02*
X59799999Y-36384260D01*
X59799999Y-36384260D02*
X59766666Y-36317593D01*
X59766666Y-36317593D02*
X59766666Y-36250926D01*
X59766666Y-36250926D02*
X59799999Y-36184260D01*
X59799999Y-36184260D02*
X59833333Y-36150926D01*
X59833333Y-36150926D02*
X59899999Y-36117593D01*
X59899999Y-36117593D02*
X60066666Y-36117593D01*
X60066666Y-36117593D02*
X60166666Y-36150926D01*
X60466666Y-36817593D02*
X60466666Y-36117593D01*
X60466666Y-36117593D02*
X60633333Y-36117593D01*
X60633333Y-36117593D02*
X60733333Y-36150926D01*
X60733333Y-36150926D02*
X60800000Y-36217593D01*
X60800000Y-36217593D02*
X60833333Y-36284260D01*
X60833333Y-36284260D02*
X60866666Y-36417593D01*
X60866666Y-36417593D02*
X60866666Y-36517593D01*
X60866666Y-36517593D02*
X60833333Y-36650926D01*
X60833333Y-36650926D02*
X60800000Y-36717593D01*
X60800000Y-36717593D02*
X60733333Y-36784260D01*
X60733333Y-36784260D02*
X60633333Y-36817593D01*
X60633333Y-36817593D02*
X60466666Y-36817593D01*
X61566666Y-36750926D02*
X61533333Y-36784260D01*
X61533333Y-36784260D02*
X61433333Y-36817593D01*
X61433333Y-36817593D02*
X61366666Y-36817593D01*
X61366666Y-36817593D02*
X61266666Y-36784260D01*
X61266666Y-36784260D02*
X61200000Y-36717593D01*
X61200000Y-36717593D02*
X61166666Y-36650926D01*
X61166666Y-36650926D02*
X61133333Y-36517593D01*
X61133333Y-36517593D02*
X61133333Y-36417593D01*
X61133333Y-36417593D02*
X61166666Y-36284260D01*
X61166666Y-36284260D02*
X61200000Y-36217593D01*
X61200000Y-36217593D02*
X61266666Y-36150926D01*
X61266666Y-36150926D02*
X61366666Y-36117593D01*
X61366666Y-36117593D02*
X61433333Y-36117593D01*
X61433333Y-36117593D02*
X61533333Y-36150926D01*
X61533333Y-36150926D02*
X61566666Y-36184260D01*
X61833333Y-36784260D02*
X61933333Y-36817593D01*
X61933333Y-36817593D02*
X62100000Y-36817593D01*
X62100000Y-36817593D02*
X62166666Y-36784260D01*
X62166666Y-36784260D02*
X62200000Y-36750926D01*
X62200000Y-36750926D02*
X62233333Y-36684260D01*
X62233333Y-36684260D02*
X62233333Y-36617593D01*
X62233333Y-36617593D02*
X62200000Y-36550926D01*
X62200000Y-36550926D02*
X62166666Y-36517593D01*
X62166666Y-36517593D02*
X62100000Y-36484260D01*
X62100000Y-36484260D02*
X61966666Y-36450926D01*
X61966666Y-36450926D02*
X61900000Y-36417593D01*
X61900000Y-36417593D02*
X61866666Y-36384260D01*
X61866666Y-36384260D02*
X61833333Y-36317593D01*
X61833333Y-36317593D02*
X61833333Y-36250926D01*
X61833333Y-36250926D02*
X61866666Y-36184260D01*
X61866666Y-36184260D02*
X61900000Y-36150926D01*
X61900000Y-36150926D02*
X61966666Y-36117593D01*
X61966666Y-36117593D02*
X62133333Y-36117593D01*
X62133333Y-36117593D02*
X62233333Y-36150926D01*
X59983333Y-41897593D02*
X59750000Y-41564260D01*
X59583333Y-41897593D02*
X59583333Y-41197593D01*
X59583333Y-41197593D02*
X59850000Y-41197593D01*
X59850000Y-41197593D02*
X59916667Y-41230926D01*
X59916667Y-41230926D02*
X59950000Y-41264260D01*
X59950000Y-41264260D02*
X59983333Y-41330926D01*
X59983333Y-41330926D02*
X59983333Y-41430926D01*
X59983333Y-41430926D02*
X59950000Y-41497593D01*
X59950000Y-41497593D02*
X59916667Y-41530926D01*
X59916667Y-41530926D02*
X59850000Y-41564260D01*
X59850000Y-41564260D02*
X59583333Y-41564260D01*
X60283333Y-41530926D02*
X60516667Y-41530926D01*
X60616667Y-41897593D02*
X60283333Y-41897593D01*
X60283333Y-41897593D02*
X60283333Y-41197593D01*
X60283333Y-41197593D02*
X60616667Y-41197593D01*
X60883333Y-41864260D02*
X60983333Y-41897593D01*
X60983333Y-41897593D02*
X61150000Y-41897593D01*
X61150000Y-41897593D02*
X61216666Y-41864260D01*
X61216666Y-41864260D02*
X61250000Y-41830926D01*
X61250000Y-41830926D02*
X61283333Y-41764260D01*
X61283333Y-41764260D02*
X61283333Y-41697593D01*
X61283333Y-41697593D02*
X61250000Y-41630926D01*
X61250000Y-41630926D02*
X61216666Y-41597593D01*
X61216666Y-41597593D02*
X61150000Y-41564260D01*
X61150000Y-41564260D02*
X61016666Y-41530926D01*
X61016666Y-41530926D02*
X60950000Y-41497593D01*
X60950000Y-41497593D02*
X60916666Y-41464260D01*
X60916666Y-41464260D02*
X60883333Y-41397593D01*
X60883333Y-41397593D02*
X60883333Y-41330926D01*
X60883333Y-41330926D02*
X60916666Y-41264260D01*
X60916666Y-41264260D02*
X60950000Y-41230926D01*
X60950000Y-41230926D02*
X61016666Y-41197593D01*
X61016666Y-41197593D02*
X61183333Y-41197593D01*
X61183333Y-41197593D02*
X61283333Y-41230926D01*
X61583333Y-41530926D02*
X61816667Y-41530926D01*
X61916667Y-41897593D02*
X61583333Y-41897593D01*
X61583333Y-41897593D02*
X61583333Y-41197593D01*
X61583333Y-41197593D02*
X61916667Y-41197593D01*
X62116666Y-41197593D02*
X62516666Y-41197593D01*
X62316666Y-41897593D02*
X62316666Y-41197593D01*
X59800000Y-38657593D02*
X59933333Y-38657593D01*
X59933333Y-38657593D02*
X60000000Y-38690926D01*
X60000000Y-38690926D02*
X60066666Y-38757593D01*
X60066666Y-38757593D02*
X60100000Y-38890926D01*
X60100000Y-38890926D02*
X60100000Y-39124260D01*
X60100000Y-39124260D02*
X60066666Y-39257593D01*
X60066666Y-39257593D02*
X60000000Y-39324260D01*
X60000000Y-39324260D02*
X59933333Y-39357593D01*
X59933333Y-39357593D02*
X59800000Y-39357593D01*
X59800000Y-39357593D02*
X59733333Y-39324260D01*
X59733333Y-39324260D02*
X59666666Y-39257593D01*
X59666666Y-39257593D02*
X59633333Y-39124260D01*
X59633333Y-39124260D02*
X59633333Y-38890926D01*
X59633333Y-38890926D02*
X59666666Y-38757593D01*
X59666666Y-38757593D02*
X59733333Y-38690926D01*
X59733333Y-38690926D02*
X59800000Y-38657593D01*
X60733333Y-39357593D02*
X60399999Y-39357593D01*
X60399999Y-39357593D02*
X60399999Y-38657593D01*
X60966666Y-38990926D02*
X61200000Y-38990926D01*
X61300000Y-39357593D02*
X60966666Y-39357593D01*
X60966666Y-39357593D02*
X60966666Y-38657593D01*
X60966666Y-38657593D02*
X61300000Y-38657593D01*
X61599999Y-39357593D02*
X61599999Y-38657593D01*
X61599999Y-38657593D02*
X61766666Y-38657593D01*
X61766666Y-38657593D02*
X61866666Y-38690926D01*
X61866666Y-38690926D02*
X61933333Y-38757593D01*
X61933333Y-38757593D02*
X61966666Y-38824260D01*
X61966666Y-38824260D02*
X61999999Y-38957593D01*
X61999999Y-38957593D02*
X61999999Y-39057593D01*
X61999999Y-39057593D02*
X61966666Y-39190926D01*
X61966666Y-39190926D02*
X61933333Y-39257593D01*
X61933333Y-39257593D02*
X61866666Y-39324260D01*
X61866666Y-39324260D02*
X61766666Y-39357593D01*
X61766666Y-39357593D02*
X61599999Y-39357593D01*
X62699999Y-39290926D02*
X62666666Y-39324260D01*
X62666666Y-39324260D02*
X62566666Y-39357593D01*
X62566666Y-39357593D02*
X62499999Y-39357593D01*
X62499999Y-39357593D02*
X62399999Y-39324260D01*
X62399999Y-39324260D02*
X62333333Y-39257593D01*
X62333333Y-39257593D02*
X62299999Y-39190926D01*
X62299999Y-39190926D02*
X62266666Y-39057593D01*
X62266666Y-39057593D02*
X62266666Y-38957593D01*
X62266666Y-38957593D02*
X62299999Y-38824260D01*
X62299999Y-38824260D02*
X62333333Y-38757593D01*
X62333333Y-38757593D02*
X62399999Y-38690926D01*
X62399999Y-38690926D02*
X62499999Y-38657593D01*
X62499999Y-38657593D02*
X62566666Y-38657593D01*
X62566666Y-38657593D02*
X62666666Y-38690926D01*
X62666666Y-38690926D02*
X62699999Y-38724260D01*
X62966666Y-39324260D02*
X63066666Y-39357593D01*
X63066666Y-39357593D02*
X63233333Y-39357593D01*
X63233333Y-39357593D02*
X63299999Y-39324260D01*
X63299999Y-39324260D02*
X63333333Y-39290926D01*
X63333333Y-39290926D02*
X63366666Y-39224260D01*
X63366666Y-39224260D02*
X63366666Y-39157593D01*
X63366666Y-39157593D02*
X63333333Y-39090926D01*
X63333333Y-39090926D02*
X63299999Y-39057593D01*
X63299999Y-39057593D02*
X63233333Y-39024260D01*
X63233333Y-39024260D02*
X63099999Y-38990926D01*
X63099999Y-38990926D02*
X63033333Y-38957593D01*
X63033333Y-38957593D02*
X62999999Y-38924260D01*
X62999999Y-38924260D02*
X62966666Y-38857593D01*
X62966666Y-38857593D02*
X62966666Y-38790926D01*
X62966666Y-38790926D02*
X62999999Y-38724260D01*
X62999999Y-38724260D02*
X63033333Y-38690926D01*
X63033333Y-38690926D02*
X63099999Y-38657593D01*
X63099999Y-38657593D02*
X63266666Y-38657593D01*
X63266666Y-38657593D02*
X63366666Y-38690926D01*
D15*
X36057200Y-104183332D02*
X36104819Y-104040475D01*
X36104819Y-104040475D02*
X36104819Y-103802380D01*
X36104819Y-103802380D02*
X36057200Y-103707142D01*
X36057200Y-103707142D02*
X36009580Y-103659523D01*
X36009580Y-103659523D02*
X35914342Y-103611904D01*
X35914342Y-103611904D02*
X35819104Y-103611904D01*
X35819104Y-103611904D02*
X35723866Y-103659523D01*
X35723866Y-103659523D02*
X35676247Y-103707142D01*
X35676247Y-103707142D02*
X35628628Y-103802380D01*
X35628628Y-103802380D02*
X35581009Y-103992856D01*
X35581009Y-103992856D02*
X35533390Y-104088094D01*
X35533390Y-104088094D02*
X35485771Y-104135713D01*
X35485771Y-104135713D02*
X35390533Y-104183332D01*
X35390533Y-104183332D02*
X35295295Y-104183332D01*
X35295295Y-104183332D02*
X35200057Y-104135713D01*
X35200057Y-104135713D02*
X35152438Y-104088094D01*
X35152438Y-104088094D02*
X35104819Y-103992856D01*
X35104819Y-103992856D02*
X35104819Y-103754761D01*
X35104819Y-103754761D02*
X35152438Y-103611904D01*
X35104819Y-103278570D02*
X36104819Y-103040475D01*
X36104819Y-103040475D02*
X35390533Y-102849999D01*
X35390533Y-102849999D02*
X36104819Y-102659523D01*
X36104819Y-102659523D02*
X35104819Y-102421428D01*
X35104819Y-102135713D02*
X35104819Y-101516666D01*
X35104819Y-101516666D02*
X35485771Y-101849999D01*
X35485771Y-101849999D02*
X35485771Y-101707142D01*
X35485771Y-101707142D02*
X35533390Y-101611904D01*
X35533390Y-101611904D02*
X35581009Y-101564285D01*
X35581009Y-101564285D02*
X35676247Y-101516666D01*
X35676247Y-101516666D02*
X35914342Y-101516666D01*
X35914342Y-101516666D02*
X36009580Y-101564285D01*
X36009580Y-101564285D02*
X36057200Y-101611904D01*
X36057200Y-101611904D02*
X36104819Y-101707142D01*
X36104819Y-101707142D02*
X36104819Y-101992856D01*
X36104819Y-101992856D02*
X36057200Y-102088094D01*
X36057200Y-102088094D02*
X36009580Y-102135713D01*
X94709819Y-101961904D02*
X95519342Y-101961904D01*
X95519342Y-101961904D02*
X95614580Y-101914285D01*
X95614580Y-101914285D02*
X95662200Y-101866666D01*
X95662200Y-101866666D02*
X95709819Y-101771428D01*
X95709819Y-101771428D02*
X95709819Y-101580952D01*
X95709819Y-101580952D02*
X95662200Y-101485714D01*
X95662200Y-101485714D02*
X95614580Y-101438095D01*
X95614580Y-101438095D02*
X95519342Y-101390476D01*
X95519342Y-101390476D02*
X94709819Y-101390476D01*
X94709819Y-100438095D02*
X94709819Y-100914285D01*
X94709819Y-100914285D02*
X95186009Y-100961904D01*
X95186009Y-100961904D02*
X95138390Y-100914285D01*
X95138390Y-100914285D02*
X95090771Y-100819047D01*
X95090771Y-100819047D02*
X95090771Y-100580952D01*
X95090771Y-100580952D02*
X95138390Y-100485714D01*
X95138390Y-100485714D02*
X95186009Y-100438095D01*
X95186009Y-100438095D02*
X95281247Y-100390476D01*
X95281247Y-100390476D02*
X95519342Y-100390476D01*
X95519342Y-100390476D02*
X95614580Y-100438095D01*
X95614580Y-100438095D02*
X95662200Y-100485714D01*
X95662200Y-100485714D02*
X95709819Y-100580952D01*
X95709819Y-100580952D02*
X95709819Y-100819047D01*
X95709819Y-100819047D02*
X95662200Y-100914285D01*
X95662200Y-100914285D02*
X95614580Y-100961904D01*
D16*
X101938333Y-94467593D02*
X102171667Y-95167593D01*
X102171667Y-95167593D02*
X102405000Y-94467593D01*
X102638333Y-95167593D02*
X102638333Y-94467593D01*
X102971666Y-95167593D02*
X102971666Y-94467593D01*
X102971666Y-94467593D02*
X103371666Y-95167593D01*
X103371666Y-95167593D02*
X103371666Y-94467593D01*
X102471667Y-97007593D02*
X102905000Y-97007593D01*
X102905000Y-97007593D02*
X102671667Y-97274260D01*
X102671667Y-97274260D02*
X102771667Y-97274260D01*
X102771667Y-97274260D02*
X102838333Y-97307593D01*
X102838333Y-97307593D02*
X102871667Y-97340926D01*
X102871667Y-97340926D02*
X102905000Y-97407593D01*
X102905000Y-97407593D02*
X102905000Y-97574260D01*
X102905000Y-97574260D02*
X102871667Y-97640926D01*
X102871667Y-97640926D02*
X102838333Y-97674260D01*
X102838333Y-97674260D02*
X102771667Y-97707593D01*
X102771667Y-97707593D02*
X102571667Y-97707593D01*
X102571667Y-97707593D02*
X102505000Y-97674260D01*
X102505000Y-97674260D02*
X102471667Y-97640926D01*
X102438333Y-99980926D02*
X102971667Y-99980926D01*
X102921666Y-102720926D02*
X102888333Y-102754260D01*
X102888333Y-102754260D02*
X102788333Y-102787593D01*
X102788333Y-102787593D02*
X102721666Y-102787593D01*
X102721666Y-102787593D02*
X102621666Y-102754260D01*
X102621666Y-102754260D02*
X102555000Y-102687593D01*
X102555000Y-102687593D02*
X102521666Y-102620926D01*
X102521666Y-102620926D02*
X102488333Y-102487593D01*
X102488333Y-102487593D02*
X102488333Y-102387593D01*
X102488333Y-102387593D02*
X102521666Y-102254260D01*
X102521666Y-102254260D02*
X102555000Y-102187593D01*
X102555000Y-102187593D02*
X102621666Y-102120926D01*
X102621666Y-102120926D02*
X102721666Y-102087593D01*
X102721666Y-102087593D02*
X102788333Y-102087593D01*
X102788333Y-102087593D02*
X102888333Y-102120926D01*
X102888333Y-102120926D02*
X102921666Y-102154260D01*
X102521666Y-105327593D02*
X102521666Y-104627593D01*
X102521666Y-104627593D02*
X102688333Y-104627593D01*
X102688333Y-104627593D02*
X102788333Y-104660926D01*
X102788333Y-104660926D02*
X102855000Y-104727593D01*
X102855000Y-104727593D02*
X102888333Y-104794260D01*
X102888333Y-104794260D02*
X102921666Y-104927593D01*
X102921666Y-104927593D02*
X102921666Y-105027593D01*
X102921666Y-105027593D02*
X102888333Y-105160926D01*
X102888333Y-105160926D02*
X102855000Y-105227593D01*
X102855000Y-105227593D02*
X102788333Y-105294260D01*
X102788333Y-105294260D02*
X102688333Y-105327593D01*
X102688333Y-105327593D02*
X102521666Y-105327593D01*
X102071667Y-107867593D02*
X102071667Y-107167593D01*
X102405000Y-107867593D02*
X102405000Y-107167593D01*
X102405000Y-107167593D02*
X102805000Y-107867593D01*
X102805000Y-107867593D02*
X102805000Y-107167593D01*
X103038333Y-107167593D02*
X103438333Y-107167593D01*
X103238333Y-107867593D02*
X103238333Y-107167593D01*
X114638333Y-94467593D02*
X114871667Y-95167593D01*
X114871667Y-95167593D02*
X115105000Y-94467593D01*
X115338333Y-95167593D02*
X115338333Y-94467593D01*
X115671666Y-95167593D02*
X115671666Y-94467593D01*
X115671666Y-94467593D02*
X116071666Y-95167593D01*
X116071666Y-95167593D02*
X116071666Y-94467593D01*
X115171667Y-97007593D02*
X115605000Y-97007593D01*
X115605000Y-97007593D02*
X115371667Y-97274260D01*
X115371667Y-97274260D02*
X115471667Y-97274260D01*
X115471667Y-97274260D02*
X115538333Y-97307593D01*
X115538333Y-97307593D02*
X115571667Y-97340926D01*
X115571667Y-97340926D02*
X115605000Y-97407593D01*
X115605000Y-97407593D02*
X115605000Y-97574260D01*
X115605000Y-97574260D02*
X115571667Y-97640926D01*
X115571667Y-97640926D02*
X115538333Y-97674260D01*
X115538333Y-97674260D02*
X115471667Y-97707593D01*
X115471667Y-97707593D02*
X115271667Y-97707593D01*
X115271667Y-97707593D02*
X115205000Y-97674260D01*
X115205000Y-97674260D02*
X115171667Y-97640926D01*
X115138333Y-99980926D02*
X115671667Y-99980926D01*
X115621666Y-102720926D02*
X115588333Y-102754260D01*
X115588333Y-102754260D02*
X115488333Y-102787593D01*
X115488333Y-102787593D02*
X115421666Y-102787593D01*
X115421666Y-102787593D02*
X115321666Y-102754260D01*
X115321666Y-102754260D02*
X115255000Y-102687593D01*
X115255000Y-102687593D02*
X115221666Y-102620926D01*
X115221666Y-102620926D02*
X115188333Y-102487593D01*
X115188333Y-102487593D02*
X115188333Y-102387593D01*
X115188333Y-102387593D02*
X115221666Y-102254260D01*
X115221666Y-102254260D02*
X115255000Y-102187593D01*
X115255000Y-102187593D02*
X115321666Y-102120926D01*
X115321666Y-102120926D02*
X115421666Y-102087593D01*
X115421666Y-102087593D02*
X115488333Y-102087593D01*
X115488333Y-102087593D02*
X115588333Y-102120926D01*
X115588333Y-102120926D02*
X115621666Y-102154260D01*
X115221666Y-105327593D02*
X115221666Y-104627593D01*
X115221666Y-104627593D02*
X115388333Y-104627593D01*
X115388333Y-104627593D02*
X115488333Y-104660926D01*
X115488333Y-104660926D02*
X115555000Y-104727593D01*
X115555000Y-104727593D02*
X115588333Y-104794260D01*
X115588333Y-104794260D02*
X115621666Y-104927593D01*
X115621666Y-104927593D02*
X115621666Y-105027593D01*
X115621666Y-105027593D02*
X115588333Y-105160926D01*
X115588333Y-105160926D02*
X115555000Y-105227593D01*
X115555000Y-105227593D02*
X115488333Y-105294260D01*
X115488333Y-105294260D02*
X115388333Y-105327593D01*
X115388333Y-105327593D02*
X115221666Y-105327593D01*
X114771667Y-107867593D02*
X114771667Y-107167593D01*
X115105000Y-107867593D02*
X115105000Y-107167593D01*
X115105000Y-107167593D02*
X115505000Y-107867593D01*
X115505000Y-107867593D02*
X115505000Y-107167593D01*
X115738333Y-107167593D02*
X116138333Y-107167593D01*
X115938333Y-107867593D02*
X115938333Y-107167593D01*
D15*
X111096666Y-55474819D02*
X111096666Y-56189104D01*
X111096666Y-56189104D02*
X111049047Y-56331961D01*
X111049047Y-56331961D02*
X110953809Y-56427200D01*
X110953809Y-56427200D02*
X110810952Y-56474819D01*
X110810952Y-56474819D02*
X110715714Y-56474819D01*
X112096666Y-56474819D02*
X111525238Y-56474819D01*
X111810952Y-56474819D02*
X111810952Y-55474819D01*
X111810952Y-55474819D02*
X111715714Y-55617676D01*
X111715714Y-55617676D02*
X111620476Y-55712914D01*
X111620476Y-55712914D02*
X111525238Y-55760533D01*
D17*
X104198497Y-50292419D02*
X104531830Y-51292419D01*
X104531830Y-51292419D02*
X104865163Y-50292419D01*
X105198497Y-51292419D02*
X105198497Y-50292419D01*
X105674687Y-51292419D02*
X105674687Y-50292419D01*
X105674687Y-50292419D02*
X106246115Y-51292419D01*
X106246115Y-51292419D02*
X106246115Y-50292419D01*
X104436592Y-53792419D02*
X104436592Y-52792419D01*
X104912782Y-53792419D02*
X104912782Y-52792419D01*
X104912782Y-52792419D02*
X105484210Y-53792419D01*
X105484210Y-53792419D02*
X105484210Y-52792419D01*
X105817544Y-52792419D02*
X106388972Y-52792419D01*
X106103258Y-53792419D02*
X106103258Y-52792419D01*
X104365163Y-43744800D02*
X104508020Y-43792419D01*
X104508020Y-43792419D02*
X104746115Y-43792419D01*
X104746115Y-43792419D02*
X104841353Y-43744800D01*
X104841353Y-43744800D02*
X104888972Y-43697180D01*
X104888972Y-43697180D02*
X104936591Y-43601942D01*
X104936591Y-43601942D02*
X104936591Y-43506704D01*
X104936591Y-43506704D02*
X104888972Y-43411466D01*
X104888972Y-43411466D02*
X104841353Y-43363847D01*
X104841353Y-43363847D02*
X104746115Y-43316228D01*
X104746115Y-43316228D02*
X104555639Y-43268609D01*
X104555639Y-43268609D02*
X104460401Y-43220990D01*
X104460401Y-43220990D02*
X104412782Y-43173371D01*
X104412782Y-43173371D02*
X104365163Y-43078133D01*
X104365163Y-43078133D02*
X104365163Y-42982895D01*
X104365163Y-42982895D02*
X104412782Y-42887657D01*
X104412782Y-42887657D02*
X104460401Y-42840038D01*
X104460401Y-42840038D02*
X104555639Y-42792419D01*
X104555639Y-42792419D02*
X104793734Y-42792419D01*
X104793734Y-42792419D02*
X104936591Y-42840038D01*
X105365163Y-43792419D02*
X105365163Y-42792419D01*
X105365163Y-42792419D02*
X105603258Y-42792419D01*
X105603258Y-42792419D02*
X105746115Y-42840038D01*
X105746115Y-42840038D02*
X105841353Y-42935276D01*
X105841353Y-42935276D02*
X105888972Y-43030514D01*
X105888972Y-43030514D02*
X105936591Y-43220990D01*
X105936591Y-43220990D02*
X105936591Y-43363847D01*
X105936591Y-43363847D02*
X105888972Y-43554323D01*
X105888972Y-43554323D02*
X105841353Y-43649561D01*
X105841353Y-43649561D02*
X105746115Y-43744800D01*
X105746115Y-43744800D02*
X105603258Y-43792419D01*
X105603258Y-43792419D02*
X105365163Y-43792419D01*
X106317544Y-43506704D02*
X106793734Y-43506704D01*
X106222306Y-43792419D02*
X106555639Y-42792419D01*
X106555639Y-42792419D02*
X106888972Y-43792419D01*
X104412782Y-46244800D02*
X104555639Y-46292419D01*
X104555639Y-46292419D02*
X104793734Y-46292419D01*
X104793734Y-46292419D02*
X104888972Y-46244800D01*
X104888972Y-46244800D02*
X104936591Y-46197180D01*
X104936591Y-46197180D02*
X104984210Y-46101942D01*
X104984210Y-46101942D02*
X104984210Y-46006704D01*
X104984210Y-46006704D02*
X104936591Y-45911466D01*
X104936591Y-45911466D02*
X104888972Y-45863847D01*
X104888972Y-45863847D02*
X104793734Y-45816228D01*
X104793734Y-45816228D02*
X104603258Y-45768609D01*
X104603258Y-45768609D02*
X104508020Y-45720990D01*
X104508020Y-45720990D02*
X104460401Y-45673371D01*
X104460401Y-45673371D02*
X104412782Y-45578133D01*
X104412782Y-45578133D02*
X104412782Y-45482895D01*
X104412782Y-45482895D02*
X104460401Y-45387657D01*
X104460401Y-45387657D02*
X104508020Y-45340038D01*
X104508020Y-45340038D02*
X104603258Y-45292419D01*
X104603258Y-45292419D02*
X104841353Y-45292419D01*
X104841353Y-45292419D02*
X104984210Y-45340038D01*
X105984210Y-46197180D02*
X105936591Y-46244800D01*
X105936591Y-46244800D02*
X105793734Y-46292419D01*
X105793734Y-46292419D02*
X105698496Y-46292419D01*
X105698496Y-46292419D02*
X105555639Y-46244800D01*
X105555639Y-46244800D02*
X105460401Y-46149561D01*
X105460401Y-46149561D02*
X105412782Y-46054323D01*
X105412782Y-46054323D02*
X105365163Y-45863847D01*
X105365163Y-45863847D02*
X105365163Y-45720990D01*
X105365163Y-45720990D02*
X105412782Y-45530514D01*
X105412782Y-45530514D02*
X105460401Y-45435276D01*
X105460401Y-45435276D02*
X105555639Y-45340038D01*
X105555639Y-45340038D02*
X105698496Y-45292419D01*
X105698496Y-45292419D02*
X105793734Y-45292419D01*
X105793734Y-45292419D02*
X105936591Y-45340038D01*
X105936591Y-45340038D02*
X105984210Y-45387657D01*
X106888972Y-46292419D02*
X106412782Y-46292419D01*
X106412782Y-46292419D02*
X106412782Y-45292419D01*
X104698496Y-47840038D02*
X104603258Y-47792419D01*
X104603258Y-47792419D02*
X104460401Y-47792419D01*
X104460401Y-47792419D02*
X104317544Y-47840038D01*
X104317544Y-47840038D02*
X104222306Y-47935276D01*
X104222306Y-47935276D02*
X104174687Y-48030514D01*
X104174687Y-48030514D02*
X104127068Y-48220990D01*
X104127068Y-48220990D02*
X104127068Y-48363847D01*
X104127068Y-48363847D02*
X104174687Y-48554323D01*
X104174687Y-48554323D02*
X104222306Y-48649561D01*
X104222306Y-48649561D02*
X104317544Y-48744800D01*
X104317544Y-48744800D02*
X104460401Y-48792419D01*
X104460401Y-48792419D02*
X104555639Y-48792419D01*
X104555639Y-48792419D02*
X104698496Y-48744800D01*
X104698496Y-48744800D02*
X104746115Y-48697180D01*
X104746115Y-48697180D02*
X104746115Y-48363847D01*
X104746115Y-48363847D02*
X104555639Y-48363847D01*
X105174687Y-48792419D02*
X105174687Y-47792419D01*
X105174687Y-47792419D02*
X105746115Y-48792419D01*
X105746115Y-48792419D02*
X105746115Y-47792419D01*
X106222306Y-48792419D02*
X106222306Y-47792419D01*
X106222306Y-47792419D02*
X106460401Y-47792419D01*
X106460401Y-47792419D02*
X106603258Y-47840038D01*
X106603258Y-47840038D02*
X106698496Y-47935276D01*
X106698496Y-47935276D02*
X106746115Y-48030514D01*
X106746115Y-48030514D02*
X106793734Y-48220990D01*
X106793734Y-48220990D02*
X106793734Y-48363847D01*
X106793734Y-48363847D02*
X106746115Y-48554323D01*
X106746115Y-48554323D02*
X106698496Y-48649561D01*
X106698496Y-48649561D02*
X106603258Y-48744800D01*
X106603258Y-48744800D02*
X106460401Y-48792419D01*
X106460401Y-48792419D02*
X106222306Y-48792419D01*
D15*
X53057200Y-81083332D02*
X53104819Y-80940475D01*
X53104819Y-80940475D02*
X53104819Y-80702380D01*
X53104819Y-80702380D02*
X53057200Y-80607142D01*
X53057200Y-80607142D02*
X53009580Y-80559523D01*
X53009580Y-80559523D02*
X52914342Y-80511904D01*
X52914342Y-80511904D02*
X52819104Y-80511904D01*
X52819104Y-80511904D02*
X52723866Y-80559523D01*
X52723866Y-80559523D02*
X52676247Y-80607142D01*
X52676247Y-80607142D02*
X52628628Y-80702380D01*
X52628628Y-80702380D02*
X52581009Y-80892856D01*
X52581009Y-80892856D02*
X52533390Y-80988094D01*
X52533390Y-80988094D02*
X52485771Y-81035713D01*
X52485771Y-81035713D02*
X52390533Y-81083332D01*
X52390533Y-81083332D02*
X52295295Y-81083332D01*
X52295295Y-81083332D02*
X52200057Y-81035713D01*
X52200057Y-81035713D02*
X52152438Y-80988094D01*
X52152438Y-80988094D02*
X52104819Y-80892856D01*
X52104819Y-80892856D02*
X52104819Y-80654761D01*
X52104819Y-80654761D02*
X52152438Y-80511904D01*
X52104819Y-80178570D02*
X53104819Y-79940475D01*
X53104819Y-79940475D02*
X52390533Y-79749999D01*
X52390533Y-79749999D02*
X53104819Y-79559523D01*
X53104819Y-79559523D02*
X52104819Y-79321428D01*
X52200057Y-78988094D02*
X52152438Y-78940475D01*
X52152438Y-78940475D02*
X52104819Y-78845237D01*
X52104819Y-78845237D02*
X52104819Y-78607142D01*
X52104819Y-78607142D02*
X52152438Y-78511904D01*
X52152438Y-78511904D02*
X52200057Y-78464285D01*
X52200057Y-78464285D02*
X52295295Y-78416666D01*
X52295295Y-78416666D02*
X52390533Y-78416666D01*
X52390533Y-78416666D02*
X52533390Y-78464285D01*
X52533390Y-78464285D02*
X53104819Y-79035713D01*
X53104819Y-79035713D02*
X53104819Y-78416666D01*
X70057200Y-104183332D02*
X70104819Y-104040475D01*
X70104819Y-104040475D02*
X70104819Y-103802380D01*
X70104819Y-103802380D02*
X70057200Y-103707142D01*
X70057200Y-103707142D02*
X70009580Y-103659523D01*
X70009580Y-103659523D02*
X69914342Y-103611904D01*
X69914342Y-103611904D02*
X69819104Y-103611904D01*
X69819104Y-103611904D02*
X69723866Y-103659523D01*
X69723866Y-103659523D02*
X69676247Y-103707142D01*
X69676247Y-103707142D02*
X69628628Y-103802380D01*
X69628628Y-103802380D02*
X69581009Y-103992856D01*
X69581009Y-103992856D02*
X69533390Y-104088094D01*
X69533390Y-104088094D02*
X69485771Y-104135713D01*
X69485771Y-104135713D02*
X69390533Y-104183332D01*
X69390533Y-104183332D02*
X69295295Y-104183332D01*
X69295295Y-104183332D02*
X69200057Y-104135713D01*
X69200057Y-104135713D02*
X69152438Y-104088094D01*
X69152438Y-104088094D02*
X69104819Y-103992856D01*
X69104819Y-103992856D02*
X69104819Y-103754761D01*
X69104819Y-103754761D02*
X69152438Y-103611904D01*
X69104819Y-103278570D02*
X70104819Y-103040475D01*
X70104819Y-103040475D02*
X69390533Y-102849999D01*
X69390533Y-102849999D02*
X70104819Y-102659523D01*
X70104819Y-102659523D02*
X69104819Y-102421428D01*
X69438152Y-101611904D02*
X70104819Y-101611904D01*
X69057200Y-101849999D02*
X69771485Y-102088094D01*
X69771485Y-102088094D02*
X69771485Y-101469047D01*
X29858095Y-38914819D02*
X29858095Y-39724342D01*
X29858095Y-39724342D02*
X29905714Y-39819580D01*
X29905714Y-39819580D02*
X29953333Y-39867200D01*
X29953333Y-39867200D02*
X30048571Y-39914819D01*
X30048571Y-39914819D02*
X30239047Y-39914819D01*
X30239047Y-39914819D02*
X30334285Y-39867200D01*
X30334285Y-39867200D02*
X30381904Y-39819580D01*
X30381904Y-39819580D02*
X30429523Y-39724342D01*
X30429523Y-39724342D02*
X30429523Y-38914819D01*
X31334285Y-39248152D02*
X31334285Y-39914819D01*
X31096190Y-38867200D02*
X30858095Y-39581485D01*
X30858095Y-39581485D02*
X31477142Y-39581485D01*
D16*
X22047593Y-32783332D02*
X21714260Y-33016665D01*
X22047593Y-33183332D02*
X21347593Y-33183332D01*
X21347593Y-33183332D02*
X21347593Y-32916665D01*
X21347593Y-32916665D02*
X21380926Y-32849999D01*
X21380926Y-32849999D02*
X21414260Y-32816665D01*
X21414260Y-32816665D02*
X21480926Y-32783332D01*
X21480926Y-32783332D02*
X21580926Y-32783332D01*
X21580926Y-32783332D02*
X21647593Y-32816665D01*
X21647593Y-32816665D02*
X21680926Y-32849999D01*
X21680926Y-32849999D02*
X21714260Y-32916665D01*
X21714260Y-32916665D02*
X21714260Y-33183332D01*
X21347593Y-32349999D02*
X21347593Y-32216665D01*
X21347593Y-32216665D02*
X21380926Y-32149999D01*
X21380926Y-32149999D02*
X21447593Y-32083332D01*
X21447593Y-32083332D02*
X21580926Y-32049999D01*
X21580926Y-32049999D02*
X21814260Y-32049999D01*
X21814260Y-32049999D02*
X21947593Y-32083332D01*
X21947593Y-32083332D02*
X22014260Y-32149999D01*
X22014260Y-32149999D02*
X22047593Y-32216665D01*
X22047593Y-32216665D02*
X22047593Y-32349999D01*
X22047593Y-32349999D02*
X22014260Y-32416665D01*
X22014260Y-32416665D02*
X21947593Y-32483332D01*
X21947593Y-32483332D02*
X21814260Y-32516665D01*
X21814260Y-32516665D02*
X21580926Y-32516665D01*
X21580926Y-32516665D02*
X21447593Y-32483332D01*
X21447593Y-32483332D02*
X21380926Y-32416665D01*
X21380926Y-32416665D02*
X21347593Y-32349999D01*
X21347593Y-31749999D02*
X21914260Y-31749999D01*
X21914260Y-31749999D02*
X21980926Y-31716666D01*
X21980926Y-31716666D02*
X22014260Y-31683332D01*
X22014260Y-31683332D02*
X22047593Y-31616666D01*
X22047593Y-31616666D02*
X22047593Y-31483332D01*
X22047593Y-31483332D02*
X22014260Y-31416666D01*
X22014260Y-31416666D02*
X21980926Y-31383332D01*
X21980926Y-31383332D02*
X21914260Y-31349999D01*
X21914260Y-31349999D02*
X21347593Y-31349999D01*
X21347593Y-31116666D02*
X21347593Y-30716666D01*
X22047593Y-30916666D02*
X21347593Y-30916666D01*
X23887593Y-22753333D02*
X23887593Y-22319999D01*
X23887593Y-22319999D02*
X24154260Y-22553333D01*
X24154260Y-22553333D02*
X24154260Y-22453333D01*
X24154260Y-22453333D02*
X24187593Y-22386666D01*
X24187593Y-22386666D02*
X24220926Y-22353333D01*
X24220926Y-22353333D02*
X24287593Y-22319999D01*
X24287593Y-22319999D02*
X24454260Y-22319999D01*
X24454260Y-22319999D02*
X24520926Y-22353333D01*
X24520926Y-22353333D02*
X24554260Y-22386666D01*
X24554260Y-22386666D02*
X24587593Y-22453333D01*
X24587593Y-22453333D02*
X24587593Y-22653333D01*
X24587593Y-22653333D02*
X24554260Y-22719999D01*
X24554260Y-22719999D02*
X24520926Y-22753333D01*
X23887593Y-22119999D02*
X24587593Y-21886666D01*
X24587593Y-21886666D02*
X23887593Y-21653332D01*
X23920926Y-32196666D02*
X23887593Y-32263333D01*
X23887593Y-32263333D02*
X23887593Y-32363333D01*
X23887593Y-32363333D02*
X23920926Y-32463333D01*
X23920926Y-32463333D02*
X23987593Y-32530000D01*
X23987593Y-32530000D02*
X24054260Y-32563333D01*
X24054260Y-32563333D02*
X24187593Y-32596666D01*
X24187593Y-32596666D02*
X24287593Y-32596666D01*
X24287593Y-32596666D02*
X24420926Y-32563333D01*
X24420926Y-32563333D02*
X24487593Y-32530000D01*
X24487593Y-32530000D02*
X24554260Y-32463333D01*
X24554260Y-32463333D02*
X24587593Y-32363333D01*
X24587593Y-32363333D02*
X24587593Y-32296666D01*
X24587593Y-32296666D02*
X24554260Y-32196666D01*
X24554260Y-32196666D02*
X24520926Y-32163333D01*
X24520926Y-32163333D02*
X24287593Y-32163333D01*
X24287593Y-32163333D02*
X24287593Y-32296666D01*
X26760926Y-22520000D02*
X26760926Y-22753333D01*
X27127593Y-22753333D02*
X26427593Y-22753333D01*
X26427593Y-22753333D02*
X26427593Y-22420000D01*
X27127593Y-22153333D02*
X26427593Y-22153333D01*
X26427593Y-22153333D02*
X26927593Y-21920000D01*
X26927593Y-21920000D02*
X26427593Y-21686666D01*
X26427593Y-21686666D02*
X27127593Y-21686666D01*
X27127593Y-33033333D02*
X27127593Y-33366666D01*
X27127593Y-33366666D02*
X26427593Y-33366666D01*
X26427593Y-32666666D02*
X26427593Y-32533332D01*
X26427593Y-32533332D02*
X26460926Y-32466666D01*
X26460926Y-32466666D02*
X26527593Y-32399999D01*
X26527593Y-32399999D02*
X26660926Y-32366666D01*
X26660926Y-32366666D02*
X26894260Y-32366666D01*
X26894260Y-32366666D02*
X27027593Y-32399999D01*
X27027593Y-32399999D02*
X27094260Y-32466666D01*
X27094260Y-32466666D02*
X27127593Y-32533332D01*
X27127593Y-32533332D02*
X27127593Y-32666666D01*
X27127593Y-32666666D02*
X27094260Y-32733332D01*
X27094260Y-32733332D02*
X27027593Y-32799999D01*
X27027593Y-32799999D02*
X26894260Y-32833332D01*
X26894260Y-32833332D02*
X26660926Y-32833332D01*
X26660926Y-32833332D02*
X26527593Y-32799999D01*
X26527593Y-32799999D02*
X26460926Y-32733332D01*
X26460926Y-32733332D02*
X26427593Y-32666666D01*
X26427593Y-32066666D02*
X26994260Y-32066666D01*
X26994260Y-32066666D02*
X27060926Y-32033333D01*
X27060926Y-32033333D02*
X27094260Y-31999999D01*
X27094260Y-31999999D02*
X27127593Y-31933333D01*
X27127593Y-31933333D02*
X27127593Y-31799999D01*
X27127593Y-31799999D02*
X27094260Y-31733333D01*
X27094260Y-31733333D02*
X27060926Y-31699999D01*
X27060926Y-31699999D02*
X26994260Y-31666666D01*
X26994260Y-31666666D02*
X26427593Y-31666666D01*
X26427593Y-31433333D02*
X26427593Y-31033333D01*
X27127593Y-31233333D02*
X26427593Y-31233333D01*
X29667593Y-22819999D02*
X28967593Y-22819999D01*
X28967593Y-22819999D02*
X29467593Y-22586666D01*
X29467593Y-22586666D02*
X28967593Y-22353332D01*
X28967593Y-22353332D02*
X29667593Y-22353332D01*
X28967593Y-22019999D02*
X29534260Y-22019999D01*
X29534260Y-22019999D02*
X29600926Y-21986666D01*
X29600926Y-21986666D02*
X29634260Y-21953332D01*
X29634260Y-21953332D02*
X29667593Y-21886666D01*
X29667593Y-21886666D02*
X29667593Y-21753332D01*
X29667593Y-21753332D02*
X29634260Y-21686666D01*
X29634260Y-21686666D02*
X29600926Y-21653332D01*
X29600926Y-21653332D02*
X29534260Y-21619999D01*
X29534260Y-21619999D02*
X28967593Y-21619999D01*
X29300926Y-33030000D02*
X29334260Y-32930000D01*
X29334260Y-32930000D02*
X29367593Y-32896666D01*
X29367593Y-32896666D02*
X29434260Y-32863333D01*
X29434260Y-32863333D02*
X29534260Y-32863333D01*
X29534260Y-32863333D02*
X29600926Y-32896666D01*
X29600926Y-32896666D02*
X29634260Y-32930000D01*
X29634260Y-32930000D02*
X29667593Y-32996666D01*
X29667593Y-32996666D02*
X29667593Y-33263333D01*
X29667593Y-33263333D02*
X28967593Y-33263333D01*
X28967593Y-33263333D02*
X28967593Y-33030000D01*
X28967593Y-33030000D02*
X29000926Y-32963333D01*
X29000926Y-32963333D02*
X29034260Y-32930000D01*
X29034260Y-32930000D02*
X29100926Y-32896666D01*
X29100926Y-32896666D02*
X29167593Y-32896666D01*
X29167593Y-32896666D02*
X29234260Y-32930000D01*
X29234260Y-32930000D02*
X29267593Y-32963333D01*
X29267593Y-32963333D02*
X29300926Y-33030000D01*
X29300926Y-33030000D02*
X29300926Y-33263333D01*
X29600926Y-32163333D02*
X29634260Y-32196666D01*
X29634260Y-32196666D02*
X29667593Y-32296666D01*
X29667593Y-32296666D02*
X29667593Y-32363333D01*
X29667593Y-32363333D02*
X29634260Y-32463333D01*
X29634260Y-32463333D02*
X29567593Y-32530000D01*
X29567593Y-32530000D02*
X29500926Y-32563333D01*
X29500926Y-32563333D02*
X29367593Y-32596666D01*
X29367593Y-32596666D02*
X29267593Y-32596666D01*
X29267593Y-32596666D02*
X29134260Y-32563333D01*
X29134260Y-32563333D02*
X29067593Y-32530000D01*
X29067593Y-32530000D02*
X29000926Y-32463333D01*
X29000926Y-32463333D02*
X28967593Y-32363333D01*
X28967593Y-32363333D02*
X28967593Y-32296666D01*
X28967593Y-32296666D02*
X29000926Y-32196666D01*
X29000926Y-32196666D02*
X29034260Y-32163333D01*
X29667593Y-31863333D02*
X28967593Y-31863333D01*
X29667593Y-31463333D02*
X29267593Y-31763333D01*
X28967593Y-31463333D02*
X29367593Y-31863333D01*
X32207593Y-23153333D02*
X31507593Y-23153333D01*
X31507593Y-23153333D02*
X32007593Y-22920000D01*
X32007593Y-22920000D02*
X31507593Y-22686666D01*
X31507593Y-22686666D02*
X32207593Y-22686666D01*
X32140926Y-21953333D02*
X32174260Y-21986666D01*
X32174260Y-21986666D02*
X32207593Y-22086666D01*
X32207593Y-22086666D02*
X32207593Y-22153333D01*
X32207593Y-22153333D02*
X32174260Y-22253333D01*
X32174260Y-22253333D02*
X32107593Y-22320000D01*
X32107593Y-22320000D02*
X32040926Y-22353333D01*
X32040926Y-22353333D02*
X31907593Y-22386666D01*
X31907593Y-22386666D02*
X31807593Y-22386666D01*
X31807593Y-22386666D02*
X31674260Y-22353333D01*
X31674260Y-22353333D02*
X31607593Y-22320000D01*
X31607593Y-22320000D02*
X31540926Y-22253333D01*
X31540926Y-22253333D02*
X31507593Y-22153333D01*
X31507593Y-22153333D02*
X31507593Y-22086666D01*
X31507593Y-22086666D02*
X31540926Y-21986666D01*
X31540926Y-21986666D02*
X31574260Y-21953333D01*
X32207593Y-21653333D02*
X31507593Y-21653333D01*
X32207593Y-21253333D02*
X31807593Y-21553333D01*
X31507593Y-21253333D02*
X31907593Y-21653333D01*
X32207593Y-33096666D02*
X31507593Y-33096666D01*
X31507593Y-33096666D02*
X31507593Y-32929999D01*
X31507593Y-32929999D02*
X31540926Y-32829999D01*
X31540926Y-32829999D02*
X31607593Y-32763333D01*
X31607593Y-32763333D02*
X31674260Y-32729999D01*
X31674260Y-32729999D02*
X31807593Y-32696666D01*
X31807593Y-32696666D02*
X31907593Y-32696666D01*
X31907593Y-32696666D02*
X32040926Y-32729999D01*
X32040926Y-32729999D02*
X32107593Y-32763333D01*
X32107593Y-32763333D02*
X32174260Y-32829999D01*
X32174260Y-32829999D02*
X32207593Y-32929999D01*
X32207593Y-32929999D02*
X32207593Y-33096666D01*
X32207593Y-32396666D02*
X31507593Y-32396666D01*
X32207593Y-32063333D02*
X31507593Y-32063333D01*
X31507593Y-32063333D02*
X32207593Y-31663333D01*
X32207593Y-31663333D02*
X31507593Y-31663333D01*
X34380926Y-22570000D02*
X34380926Y-22803333D01*
X34747593Y-22803333D02*
X34047593Y-22803333D01*
X34047593Y-22803333D02*
X34047593Y-22470000D01*
X34747593Y-22203333D02*
X34047593Y-22203333D01*
X34747593Y-21536667D02*
X34747593Y-21870000D01*
X34747593Y-21870000D02*
X34047593Y-21870000D01*
X34047593Y-33233333D02*
X34747593Y-33066666D01*
X34747593Y-33066666D02*
X34247593Y-32933333D01*
X34247593Y-32933333D02*
X34747593Y-32799999D01*
X34747593Y-32799999D02*
X34047593Y-32633333D01*
X34714260Y-32399999D02*
X34747593Y-32299999D01*
X34747593Y-32299999D02*
X34747593Y-32133333D01*
X34747593Y-32133333D02*
X34714260Y-32066666D01*
X34714260Y-32066666D02*
X34680926Y-32033333D01*
X34680926Y-32033333D02*
X34614260Y-31999999D01*
X34614260Y-31999999D02*
X34547593Y-31999999D01*
X34547593Y-31999999D02*
X34480926Y-32033333D01*
X34480926Y-32033333D02*
X34447593Y-32066666D01*
X34447593Y-32066666D02*
X34414260Y-32133333D01*
X34414260Y-32133333D02*
X34380926Y-32266666D01*
X34380926Y-32266666D02*
X34347593Y-32333333D01*
X34347593Y-32333333D02*
X34314260Y-32366666D01*
X34314260Y-32366666D02*
X34247593Y-32399999D01*
X34247593Y-32399999D02*
X34180926Y-32399999D01*
X34180926Y-32399999D02*
X34114260Y-32366666D01*
X34114260Y-32366666D02*
X34080926Y-32333333D01*
X34080926Y-32333333D02*
X34047593Y-32266666D01*
X34047593Y-32266666D02*
X34047593Y-32099999D01*
X34047593Y-32099999D02*
X34080926Y-31999999D01*
X34380926Y-31699999D02*
X34380926Y-31466666D01*
X34747593Y-31366666D02*
X34747593Y-31699999D01*
X34747593Y-31699999D02*
X34047593Y-31699999D01*
X34047593Y-31699999D02*
X34047593Y-31366666D01*
X34747593Y-30733333D02*
X34747593Y-31066666D01*
X34747593Y-31066666D02*
X34047593Y-31066666D01*
X37287593Y-22719999D02*
X36587593Y-22719999D01*
X36587593Y-22719999D02*
X36587593Y-22553332D01*
X36587593Y-22553332D02*
X36620926Y-22453332D01*
X36620926Y-22453332D02*
X36687593Y-22386666D01*
X36687593Y-22386666D02*
X36754260Y-22353332D01*
X36754260Y-22353332D02*
X36887593Y-22319999D01*
X36887593Y-22319999D02*
X36987593Y-22319999D01*
X36987593Y-22319999D02*
X37120926Y-22353332D01*
X37120926Y-22353332D02*
X37187593Y-22386666D01*
X37187593Y-22386666D02*
X37254260Y-22453332D01*
X37254260Y-22453332D02*
X37287593Y-22553332D01*
X37287593Y-22553332D02*
X37287593Y-22719999D01*
X36920926Y-22019999D02*
X36920926Y-21786666D01*
X37287593Y-21686666D02*
X37287593Y-22019999D01*
X37287593Y-22019999D02*
X36587593Y-22019999D01*
X36587593Y-22019999D02*
X36587593Y-21686666D01*
X36620926Y-32913332D02*
X36587593Y-32979999D01*
X36587593Y-32979999D02*
X36587593Y-33079999D01*
X36587593Y-33079999D02*
X36620926Y-33179999D01*
X36620926Y-33179999D02*
X36687593Y-33246666D01*
X36687593Y-33246666D02*
X36754260Y-33279999D01*
X36754260Y-33279999D02*
X36887593Y-33313332D01*
X36887593Y-33313332D02*
X36987593Y-33313332D01*
X36987593Y-33313332D02*
X37120926Y-33279999D01*
X37120926Y-33279999D02*
X37187593Y-33246666D01*
X37187593Y-33246666D02*
X37254260Y-33179999D01*
X37254260Y-33179999D02*
X37287593Y-33079999D01*
X37287593Y-33079999D02*
X37287593Y-33013332D01*
X37287593Y-33013332D02*
X37254260Y-32913332D01*
X37254260Y-32913332D02*
X37220926Y-32879999D01*
X37220926Y-32879999D02*
X36987593Y-32879999D01*
X36987593Y-32879999D02*
X36987593Y-33013332D01*
X37287593Y-32579999D02*
X36587593Y-32579999D01*
X36587593Y-32579999D02*
X37287593Y-32179999D01*
X37287593Y-32179999D02*
X36587593Y-32179999D01*
X37287593Y-31846666D02*
X36587593Y-31846666D01*
X36587593Y-31846666D02*
X36587593Y-31679999D01*
X36587593Y-31679999D02*
X36620926Y-31579999D01*
X36620926Y-31579999D02*
X36687593Y-31513333D01*
X36687593Y-31513333D02*
X36754260Y-31479999D01*
X36754260Y-31479999D02*
X36887593Y-31446666D01*
X36887593Y-31446666D02*
X36987593Y-31446666D01*
X36987593Y-31446666D02*
X37120926Y-31479999D01*
X37120926Y-31479999D02*
X37187593Y-31513333D01*
X37187593Y-31513333D02*
X37254260Y-31579999D01*
X37254260Y-31579999D02*
X37287593Y-31679999D01*
X37287593Y-31679999D02*
X37287593Y-31846666D01*
X39127593Y-33146666D02*
X39827593Y-32913333D01*
X39827593Y-32913333D02*
X39127593Y-32679999D01*
X39827593Y-32446666D02*
X39127593Y-32446666D01*
X39827593Y-32113333D02*
X39127593Y-32113333D01*
X39127593Y-32113333D02*
X39827593Y-31713333D01*
X39827593Y-31713333D02*
X39127593Y-31713333D01*
D15*
X22757200Y-62283332D02*
X22804819Y-62140475D01*
X22804819Y-62140475D02*
X22804819Y-61902380D01*
X22804819Y-61902380D02*
X22757200Y-61807142D01*
X22757200Y-61807142D02*
X22709580Y-61759523D01*
X22709580Y-61759523D02*
X22614342Y-61711904D01*
X22614342Y-61711904D02*
X22519104Y-61711904D01*
X22519104Y-61711904D02*
X22423866Y-61759523D01*
X22423866Y-61759523D02*
X22376247Y-61807142D01*
X22376247Y-61807142D02*
X22328628Y-61902380D01*
X22328628Y-61902380D02*
X22281009Y-62092856D01*
X22281009Y-62092856D02*
X22233390Y-62188094D01*
X22233390Y-62188094D02*
X22185771Y-62235713D01*
X22185771Y-62235713D02*
X22090533Y-62283332D01*
X22090533Y-62283332D02*
X21995295Y-62283332D01*
X21995295Y-62283332D02*
X21900057Y-62235713D01*
X21900057Y-62235713D02*
X21852438Y-62188094D01*
X21852438Y-62188094D02*
X21804819Y-62092856D01*
X21804819Y-62092856D02*
X21804819Y-61854761D01*
X21804819Y-61854761D02*
X21852438Y-61711904D01*
X21804819Y-61378570D02*
X22804819Y-61140475D01*
X22804819Y-61140475D02*
X22090533Y-60949999D01*
X22090533Y-60949999D02*
X22804819Y-60759523D01*
X22804819Y-60759523D02*
X21804819Y-60521428D01*
X22804819Y-59616666D02*
X22804819Y-60188094D01*
X22804819Y-59902380D02*
X21804819Y-59902380D01*
X21804819Y-59902380D02*
X21947676Y-59997618D01*
X21947676Y-59997618D02*
X22042914Y-60092856D01*
X22042914Y-60092856D02*
X22090533Y-60188094D01*
X30824819Y-88441904D02*
X31634342Y-88441904D01*
X31634342Y-88441904D02*
X31729580Y-88394285D01*
X31729580Y-88394285D02*
X31777200Y-88346666D01*
X31777200Y-88346666D02*
X31824819Y-88251428D01*
X31824819Y-88251428D02*
X31824819Y-88060952D01*
X31824819Y-88060952D02*
X31777200Y-87965714D01*
X31777200Y-87965714D02*
X31729580Y-87918095D01*
X31729580Y-87918095D02*
X31634342Y-87870476D01*
X31634342Y-87870476D02*
X30824819Y-87870476D01*
X30824819Y-87489523D02*
X30824819Y-86870476D01*
X30824819Y-86870476D02*
X31205771Y-87203809D01*
X31205771Y-87203809D02*
X31205771Y-87060952D01*
X31205771Y-87060952D02*
X31253390Y-86965714D01*
X31253390Y-86965714D02*
X31301009Y-86918095D01*
X31301009Y-86918095D02*
X31396247Y-86870476D01*
X31396247Y-86870476D02*
X31634342Y-86870476D01*
X31634342Y-86870476D02*
X31729580Y-86918095D01*
X31729580Y-86918095D02*
X31777200Y-86965714D01*
X31777200Y-86965714D02*
X31824819Y-87060952D01*
X31824819Y-87060952D02*
X31824819Y-87346666D01*
X31824819Y-87346666D02*
X31777200Y-87441904D01*
X31777200Y-87441904D02*
X31729580Y-87489523D01*
D16*
X23283333Y-79040926D02*
X23250000Y-79074260D01*
X23250000Y-79074260D02*
X23150000Y-79107593D01*
X23150000Y-79107593D02*
X23083333Y-79107593D01*
X23083333Y-79107593D02*
X22983333Y-79074260D01*
X22983333Y-79074260D02*
X22916667Y-79007593D01*
X22916667Y-79007593D02*
X22883333Y-78940926D01*
X22883333Y-78940926D02*
X22850000Y-78807593D01*
X22850000Y-78807593D02*
X22850000Y-78707593D01*
X22850000Y-78707593D02*
X22883333Y-78574260D01*
X22883333Y-78574260D02*
X22916667Y-78507593D01*
X22916667Y-78507593D02*
X22983333Y-78440926D01*
X22983333Y-78440926D02*
X23083333Y-78407593D01*
X23083333Y-78407593D02*
X23150000Y-78407593D01*
X23150000Y-78407593D02*
X23250000Y-78440926D01*
X23250000Y-78440926D02*
X23283333Y-78474260D01*
X23983333Y-79040926D02*
X23950000Y-79074260D01*
X23950000Y-79074260D02*
X23850000Y-79107593D01*
X23850000Y-79107593D02*
X23783333Y-79107593D01*
X23783333Y-79107593D02*
X23683333Y-79074260D01*
X23683333Y-79074260D02*
X23616667Y-79007593D01*
X23616667Y-79007593D02*
X23583333Y-78940926D01*
X23583333Y-78940926D02*
X23550000Y-78807593D01*
X23550000Y-78807593D02*
X23550000Y-78707593D01*
X23550000Y-78707593D02*
X23583333Y-78574260D01*
X23583333Y-78574260D02*
X23616667Y-78507593D01*
X23616667Y-78507593D02*
X23683333Y-78440926D01*
X23683333Y-78440926D02*
X23783333Y-78407593D01*
X23783333Y-78407593D02*
X23850000Y-78407593D01*
X23850000Y-78407593D02*
X23950000Y-78440926D01*
X23950000Y-78440926D02*
X23983333Y-78474260D01*
X24250000Y-78474260D02*
X24283333Y-78440926D01*
X24283333Y-78440926D02*
X24350000Y-78407593D01*
X24350000Y-78407593D02*
X24516667Y-78407593D01*
X24516667Y-78407593D02*
X24583333Y-78440926D01*
X24583333Y-78440926D02*
X24616667Y-78474260D01*
X24616667Y-78474260D02*
X24650000Y-78540926D01*
X24650000Y-78540926D02*
X24650000Y-78607593D01*
X24650000Y-78607593D02*
X24616667Y-78707593D01*
X24616667Y-78707593D02*
X24216667Y-79107593D01*
X24216667Y-79107593D02*
X24650000Y-79107593D01*
X22500000Y-81614260D02*
X22600000Y-81647593D01*
X22600000Y-81647593D02*
X22766667Y-81647593D01*
X22766667Y-81647593D02*
X22833333Y-81614260D01*
X22833333Y-81614260D02*
X22866667Y-81580926D01*
X22866667Y-81580926D02*
X22900000Y-81514260D01*
X22900000Y-81514260D02*
X22900000Y-81447593D01*
X22900000Y-81447593D02*
X22866667Y-81380926D01*
X22866667Y-81380926D02*
X22833333Y-81347593D01*
X22833333Y-81347593D02*
X22766667Y-81314260D01*
X22766667Y-81314260D02*
X22633333Y-81280926D01*
X22633333Y-81280926D02*
X22566667Y-81247593D01*
X22566667Y-81247593D02*
X22533333Y-81214260D01*
X22533333Y-81214260D02*
X22500000Y-81147593D01*
X22500000Y-81147593D02*
X22500000Y-81080926D01*
X22500000Y-81080926D02*
X22533333Y-81014260D01*
X22533333Y-81014260D02*
X22566667Y-80980926D01*
X22566667Y-80980926D02*
X22633333Y-80947593D01*
X22633333Y-80947593D02*
X22800000Y-80947593D01*
X22800000Y-80947593D02*
X22900000Y-80980926D01*
X23433334Y-81280926D02*
X23533334Y-81314260D01*
X23533334Y-81314260D02*
X23566667Y-81347593D01*
X23566667Y-81347593D02*
X23600000Y-81414260D01*
X23600000Y-81414260D02*
X23600000Y-81514260D01*
X23600000Y-81514260D02*
X23566667Y-81580926D01*
X23566667Y-81580926D02*
X23533334Y-81614260D01*
X23533334Y-81614260D02*
X23466667Y-81647593D01*
X23466667Y-81647593D02*
X23200000Y-81647593D01*
X23200000Y-81647593D02*
X23200000Y-80947593D01*
X23200000Y-80947593D02*
X23433334Y-80947593D01*
X23433334Y-80947593D02*
X23500000Y-80980926D01*
X23500000Y-80980926D02*
X23533334Y-81014260D01*
X23533334Y-81014260D02*
X23566667Y-81080926D01*
X23566667Y-81080926D02*
X23566667Y-81147593D01*
X23566667Y-81147593D02*
X23533334Y-81214260D01*
X23533334Y-81214260D02*
X23500000Y-81247593D01*
X23500000Y-81247593D02*
X23433334Y-81280926D01*
X23433334Y-81280926D02*
X23200000Y-81280926D01*
X23900000Y-80947593D02*
X23900000Y-81514260D01*
X23900000Y-81514260D02*
X23933334Y-81580926D01*
X23933334Y-81580926D02*
X23966667Y-81614260D01*
X23966667Y-81614260D02*
X24033334Y-81647593D01*
X24033334Y-81647593D02*
X24166667Y-81647593D01*
X24166667Y-81647593D02*
X24233334Y-81614260D01*
X24233334Y-81614260D02*
X24266667Y-81580926D01*
X24266667Y-81580926D02*
X24300000Y-81514260D01*
X24300000Y-81514260D02*
X24300000Y-80947593D01*
X25000000Y-81647593D02*
X24600000Y-81647593D01*
X24800000Y-81647593D02*
X24800000Y-80947593D01*
X24800000Y-80947593D02*
X24733333Y-81047593D01*
X24733333Y-81047593D02*
X24666667Y-81114260D01*
X24666667Y-81114260D02*
X24600000Y-81147593D01*
X22500000Y-91774260D02*
X22600000Y-91807593D01*
X22600000Y-91807593D02*
X22766667Y-91807593D01*
X22766667Y-91807593D02*
X22833333Y-91774260D01*
X22833333Y-91774260D02*
X22866667Y-91740926D01*
X22866667Y-91740926D02*
X22900000Y-91674260D01*
X22900000Y-91674260D02*
X22900000Y-91607593D01*
X22900000Y-91607593D02*
X22866667Y-91540926D01*
X22866667Y-91540926D02*
X22833333Y-91507593D01*
X22833333Y-91507593D02*
X22766667Y-91474260D01*
X22766667Y-91474260D02*
X22633333Y-91440926D01*
X22633333Y-91440926D02*
X22566667Y-91407593D01*
X22566667Y-91407593D02*
X22533333Y-91374260D01*
X22533333Y-91374260D02*
X22500000Y-91307593D01*
X22500000Y-91307593D02*
X22500000Y-91240926D01*
X22500000Y-91240926D02*
X22533333Y-91174260D01*
X22533333Y-91174260D02*
X22566667Y-91140926D01*
X22566667Y-91140926D02*
X22633333Y-91107593D01*
X22633333Y-91107593D02*
X22800000Y-91107593D01*
X22800000Y-91107593D02*
X22900000Y-91140926D01*
X23433334Y-91440926D02*
X23533334Y-91474260D01*
X23533334Y-91474260D02*
X23566667Y-91507593D01*
X23566667Y-91507593D02*
X23600000Y-91574260D01*
X23600000Y-91574260D02*
X23600000Y-91674260D01*
X23600000Y-91674260D02*
X23566667Y-91740926D01*
X23566667Y-91740926D02*
X23533334Y-91774260D01*
X23533334Y-91774260D02*
X23466667Y-91807593D01*
X23466667Y-91807593D02*
X23200000Y-91807593D01*
X23200000Y-91807593D02*
X23200000Y-91107593D01*
X23200000Y-91107593D02*
X23433334Y-91107593D01*
X23433334Y-91107593D02*
X23500000Y-91140926D01*
X23500000Y-91140926D02*
X23533334Y-91174260D01*
X23533334Y-91174260D02*
X23566667Y-91240926D01*
X23566667Y-91240926D02*
X23566667Y-91307593D01*
X23566667Y-91307593D02*
X23533334Y-91374260D01*
X23533334Y-91374260D02*
X23500000Y-91407593D01*
X23500000Y-91407593D02*
X23433334Y-91440926D01*
X23433334Y-91440926D02*
X23200000Y-91440926D01*
X23900000Y-91107593D02*
X23900000Y-91674260D01*
X23900000Y-91674260D02*
X23933334Y-91740926D01*
X23933334Y-91740926D02*
X23966667Y-91774260D01*
X23966667Y-91774260D02*
X24033334Y-91807593D01*
X24033334Y-91807593D02*
X24166667Y-91807593D01*
X24166667Y-91807593D02*
X24233334Y-91774260D01*
X24233334Y-91774260D02*
X24266667Y-91740926D01*
X24266667Y-91740926D02*
X24300000Y-91674260D01*
X24300000Y-91674260D02*
X24300000Y-91107593D01*
X24600000Y-91174260D02*
X24633333Y-91140926D01*
X24633333Y-91140926D02*
X24700000Y-91107593D01*
X24700000Y-91107593D02*
X24866667Y-91107593D01*
X24866667Y-91107593D02*
X24933333Y-91140926D01*
X24933333Y-91140926D02*
X24966667Y-91174260D01*
X24966667Y-91174260D02*
X25000000Y-91240926D01*
X25000000Y-91240926D02*
X25000000Y-91307593D01*
X25000000Y-91307593D02*
X24966667Y-91407593D01*
X24966667Y-91407593D02*
X24566667Y-91807593D01*
X24566667Y-91807593D02*
X25000000Y-91807593D01*
X23533333Y-89250926D02*
X23500000Y-89284260D01*
X23500000Y-89284260D02*
X23400000Y-89317593D01*
X23400000Y-89317593D02*
X23333333Y-89317593D01*
X23333333Y-89317593D02*
X23233333Y-89284260D01*
X23233333Y-89284260D02*
X23166667Y-89217593D01*
X23166667Y-89217593D02*
X23133333Y-89150926D01*
X23133333Y-89150926D02*
X23100000Y-89017593D01*
X23100000Y-89017593D02*
X23100000Y-88917593D01*
X23100000Y-88917593D02*
X23133333Y-88784260D01*
X23133333Y-88784260D02*
X23166667Y-88717593D01*
X23166667Y-88717593D02*
X23233333Y-88650926D01*
X23233333Y-88650926D02*
X23333333Y-88617593D01*
X23333333Y-88617593D02*
X23400000Y-88617593D01*
X23400000Y-88617593D02*
X23500000Y-88650926D01*
X23500000Y-88650926D02*
X23533333Y-88684260D01*
X24233333Y-89250926D02*
X24200000Y-89284260D01*
X24200000Y-89284260D02*
X24100000Y-89317593D01*
X24100000Y-89317593D02*
X24033333Y-89317593D01*
X24033333Y-89317593D02*
X23933333Y-89284260D01*
X23933333Y-89284260D02*
X23866667Y-89217593D01*
X23866667Y-89217593D02*
X23833333Y-89150926D01*
X23833333Y-89150926D02*
X23800000Y-89017593D01*
X23800000Y-89017593D02*
X23800000Y-88917593D01*
X23800000Y-88917593D02*
X23833333Y-88784260D01*
X23833333Y-88784260D02*
X23866667Y-88717593D01*
X23866667Y-88717593D02*
X23933333Y-88650926D01*
X23933333Y-88650926D02*
X24033333Y-88617593D01*
X24033333Y-88617593D02*
X24100000Y-88617593D01*
X24100000Y-88617593D02*
X24200000Y-88650926D01*
X24200000Y-88650926D02*
X24233333Y-88684260D01*
X24900000Y-89317593D02*
X24500000Y-89317593D01*
X24700000Y-89317593D02*
X24700000Y-88617593D01*
X24700000Y-88617593D02*
X24633333Y-88717593D01*
X24633333Y-88717593D02*
X24566667Y-88784260D01*
X24566667Y-88784260D02*
X24500000Y-88817593D01*
X23883333Y-84187593D02*
X23883333Y-83487593D01*
X23883333Y-83487593D02*
X24050000Y-83487593D01*
X24050000Y-83487593D02*
X24150000Y-83520926D01*
X24150000Y-83520926D02*
X24216667Y-83587593D01*
X24216667Y-83587593D02*
X24250000Y-83654260D01*
X24250000Y-83654260D02*
X24283333Y-83787593D01*
X24283333Y-83787593D02*
X24283333Y-83887593D01*
X24283333Y-83887593D02*
X24250000Y-84020926D01*
X24250000Y-84020926D02*
X24216667Y-84087593D01*
X24216667Y-84087593D02*
X24150000Y-84154260D01*
X24150000Y-84154260D02*
X24050000Y-84187593D01*
X24050000Y-84187593D02*
X23883333Y-84187593D01*
X24583333Y-83920926D02*
X25116667Y-83920926D01*
X24850000Y-84187593D02*
X24850000Y-83654260D01*
X23883333Y-86727593D02*
X23883333Y-86027593D01*
X23883333Y-86027593D02*
X24050000Y-86027593D01*
X24050000Y-86027593D02*
X24150000Y-86060926D01*
X24150000Y-86060926D02*
X24216667Y-86127593D01*
X24216667Y-86127593D02*
X24250000Y-86194260D01*
X24250000Y-86194260D02*
X24283333Y-86327593D01*
X24283333Y-86327593D02*
X24283333Y-86427593D01*
X24283333Y-86427593D02*
X24250000Y-86560926D01*
X24250000Y-86560926D02*
X24216667Y-86627593D01*
X24216667Y-86627593D02*
X24150000Y-86694260D01*
X24150000Y-86694260D02*
X24050000Y-86727593D01*
X24050000Y-86727593D02*
X23883333Y-86727593D01*
X24583333Y-86460926D02*
X25116667Y-86460926D01*
X23386666Y-93647593D02*
X23620000Y-94347593D01*
X23620000Y-94347593D02*
X23853333Y-93647593D01*
X24320000Y-93980926D02*
X24420000Y-94014260D01*
X24420000Y-94014260D02*
X24453333Y-94047593D01*
X24453333Y-94047593D02*
X24486666Y-94114260D01*
X24486666Y-94114260D02*
X24486666Y-94214260D01*
X24486666Y-94214260D02*
X24453333Y-94280926D01*
X24453333Y-94280926D02*
X24420000Y-94314260D01*
X24420000Y-94314260D02*
X24353333Y-94347593D01*
X24353333Y-94347593D02*
X24086666Y-94347593D01*
X24086666Y-94347593D02*
X24086666Y-93647593D01*
X24086666Y-93647593D02*
X24320000Y-93647593D01*
X24320000Y-93647593D02*
X24386666Y-93680926D01*
X24386666Y-93680926D02*
X24420000Y-93714260D01*
X24420000Y-93714260D02*
X24453333Y-93780926D01*
X24453333Y-93780926D02*
X24453333Y-93847593D01*
X24453333Y-93847593D02*
X24420000Y-93914260D01*
X24420000Y-93914260D02*
X24386666Y-93947593D01*
X24386666Y-93947593D02*
X24320000Y-93980926D01*
X24320000Y-93980926D02*
X24086666Y-93980926D01*
X24786666Y-93647593D02*
X24786666Y-94214260D01*
X24786666Y-94214260D02*
X24820000Y-94280926D01*
X24820000Y-94280926D02*
X24853333Y-94314260D01*
X24853333Y-94314260D02*
X24920000Y-94347593D01*
X24920000Y-94347593D02*
X25053333Y-94347593D01*
X25053333Y-94347593D02*
X25120000Y-94314260D01*
X25120000Y-94314260D02*
X25153333Y-94280926D01*
X25153333Y-94280926D02*
X25186666Y-94214260D01*
X25186666Y-94214260D02*
X25186666Y-93647593D01*
X25486666Y-94314260D02*
X25586666Y-94347593D01*
X25586666Y-94347593D02*
X25753333Y-94347593D01*
X25753333Y-94347593D02*
X25819999Y-94314260D01*
X25819999Y-94314260D02*
X25853333Y-94280926D01*
X25853333Y-94280926D02*
X25886666Y-94214260D01*
X25886666Y-94214260D02*
X25886666Y-94147593D01*
X25886666Y-94147593D02*
X25853333Y-94080926D01*
X25853333Y-94080926D02*
X25819999Y-94047593D01*
X25819999Y-94047593D02*
X25753333Y-94014260D01*
X25753333Y-94014260D02*
X25619999Y-93980926D01*
X25619999Y-93980926D02*
X25553333Y-93947593D01*
X25553333Y-93947593D02*
X25519999Y-93914260D01*
X25519999Y-93914260D02*
X25486666Y-93847593D01*
X25486666Y-93847593D02*
X25486666Y-93780926D01*
X25486666Y-93780926D02*
X25519999Y-93714260D01*
X25519999Y-93714260D02*
X25553333Y-93680926D01*
X25553333Y-93680926D02*
X25619999Y-93647593D01*
X25619999Y-93647593D02*
X25786666Y-93647593D01*
X25786666Y-93647593D02*
X25886666Y-93680926D01*
X24136667Y-96220926D02*
X24070000Y-96187593D01*
X24070000Y-96187593D02*
X23970000Y-96187593D01*
X23970000Y-96187593D02*
X23870000Y-96220926D01*
X23870000Y-96220926D02*
X23803334Y-96287593D01*
X23803334Y-96287593D02*
X23770000Y-96354260D01*
X23770000Y-96354260D02*
X23736667Y-96487593D01*
X23736667Y-96487593D02*
X23736667Y-96587593D01*
X23736667Y-96587593D02*
X23770000Y-96720926D01*
X23770000Y-96720926D02*
X23803334Y-96787593D01*
X23803334Y-96787593D02*
X23870000Y-96854260D01*
X23870000Y-96854260D02*
X23970000Y-96887593D01*
X23970000Y-96887593D02*
X24036667Y-96887593D01*
X24036667Y-96887593D02*
X24136667Y-96854260D01*
X24136667Y-96854260D02*
X24170000Y-96820926D01*
X24170000Y-96820926D02*
X24170000Y-96587593D01*
X24170000Y-96587593D02*
X24036667Y-96587593D01*
X24470000Y-96887593D02*
X24470000Y-96187593D01*
X24470000Y-96187593D02*
X24870000Y-96887593D01*
X24870000Y-96887593D02*
X24870000Y-96187593D01*
X25203333Y-96887593D02*
X25203333Y-96187593D01*
X25203333Y-96187593D02*
X25370000Y-96187593D01*
X25370000Y-96187593D02*
X25470000Y-96220926D01*
X25470000Y-96220926D02*
X25536667Y-96287593D01*
X25536667Y-96287593D02*
X25570000Y-96354260D01*
X25570000Y-96354260D02*
X25603333Y-96487593D01*
X25603333Y-96487593D02*
X25603333Y-96587593D01*
X25603333Y-96587593D02*
X25570000Y-96720926D01*
X25570000Y-96720926D02*
X25536667Y-96787593D01*
X25536667Y-96787593D02*
X25470000Y-96854260D01*
X25470000Y-96854260D02*
X25370000Y-96887593D01*
X25370000Y-96887593D02*
X25203333Y-96887593D01*
D15*
X106833333Y-28359580D02*
X106785714Y-28407200D01*
X106785714Y-28407200D02*
X106642857Y-28454819D01*
X106642857Y-28454819D02*
X106547619Y-28454819D01*
X106547619Y-28454819D02*
X106404762Y-28407200D01*
X106404762Y-28407200D02*
X106309524Y-28311961D01*
X106309524Y-28311961D02*
X106261905Y-28216723D01*
X106261905Y-28216723D02*
X106214286Y-28026247D01*
X106214286Y-28026247D02*
X106214286Y-27883390D01*
X106214286Y-27883390D02*
X106261905Y-27692914D01*
X106261905Y-27692914D02*
X106309524Y-27597676D01*
X106309524Y-27597676D02*
X106404762Y-27502438D01*
X106404762Y-27502438D02*
X106547619Y-27454819D01*
X106547619Y-27454819D02*
X106642857Y-27454819D01*
X106642857Y-27454819D02*
X106785714Y-27502438D01*
X106785714Y-27502438D02*
X106833333Y-27550057D01*
X107785714Y-28454819D02*
X107214286Y-28454819D01*
X107500000Y-28454819D02*
X107500000Y-27454819D01*
X107500000Y-27454819D02*
X107404762Y-27597676D01*
X107404762Y-27597676D02*
X107309524Y-27692914D01*
X107309524Y-27692914D02*
X107214286Y-27740533D01*
%TO.C,U1*%
D18*
X15469200Y-111973900D02*
X15469200Y-135973900D01*
X18469200Y-138973900D02*
X77469200Y-138973900D01*
X52369200Y-138973900D02*
X60719200Y-138973900D01*
X64969200Y-138973900D02*
X73319200Y-138973900D01*
X77469200Y-108973900D02*
X18469200Y-108973900D01*
X80469200Y-135973900D02*
X80469200Y-111973900D01*
X15469200Y-111973900D02*
G75*
G02*
X18469200Y-108973900I3000001J-1D01*
G01*
X18469200Y-138973900D02*
G75*
G02*
X15469200Y-135973900I1J3000001D01*
G01*
X77469200Y-108973900D02*
G75*
G02*
X80469200Y-111973900I0J-3000000D01*
G01*
X80469200Y-135973900D02*
G75*
G02*
X77469200Y-138973900I-3000000J0D01*
G01*
%TO.C,D1*%
D16*
X33480000Y-74360000D02*
X33960000Y-74360000D01*
X33480000Y-80820000D02*
X37320000Y-80820000D01*
X33480000Y-80940000D02*
X37320000Y-80940000D01*
X33480000Y-81060000D02*
X37320000Y-81060000D01*
X33480000Y-82200000D02*
X33480000Y-74360000D01*
X33960000Y-82200000D02*
X33480000Y-82200000D01*
X36840000Y-82200000D02*
X37320000Y-82200000D01*
X37320000Y-74360000D02*
X36840000Y-74360000D01*
X37320000Y-82200000D02*
X37320000Y-74360000D01*
%TO.C,U2*%
D19*
X87890000Y-26910000D02*
X91890000Y-26910000D01*
X87890000Y-45910000D02*
X87890000Y-26910000D01*
X91890000Y-26910000D02*
X91890000Y-45910000D01*
X91890000Y-45910000D02*
X87890000Y-45910000D01*
%TO.C,SW3*%
D16*
X36950000Y-92050000D02*
X39350000Y-92050000D01*
X36950000Y-96150000D02*
X36950000Y-92050000D01*
X36950000Y-100150000D02*
X36950000Y-104250000D01*
X36950000Y-104250000D02*
X48750000Y-104250000D01*
X38750000Y-105350000D02*
X39050000Y-105650000D01*
X38750000Y-105950000D02*
X38750000Y-105350000D01*
X39050000Y-105650000D02*
X38750000Y-105950000D01*
X41550000Y-92050000D02*
X44150000Y-92050000D01*
X42350000Y-98150000D02*
X43350000Y-98150000D01*
X42850000Y-98650000D02*
X42850000Y-97650000D01*
X46350000Y-92050000D02*
X48750000Y-92050000D01*
X48750000Y-92050000D02*
X48750000Y-96150000D01*
X48750000Y-100150000D02*
X48750000Y-104250000D01*
X45850000Y-98150000D02*
G75*
G02*
X39850000Y-98150000I-3000000J0D01*
G01*
X39850000Y-98150000D02*
G75*
G02*
X45850000Y-98150000I3000000J0D01*
G01*
%TO.C,U5*%
D19*
X103755000Y-62600000D02*
X108055000Y-62600000D01*
X103755000Y-68700000D02*
X103755000Y-62600000D01*
X103755000Y-133700000D02*
X108055000Y-133700000D01*
X103755000Y-139800000D02*
X103755000Y-133700000D01*
X108055000Y-62600000D02*
X108055000Y-68700000D01*
X108055000Y-68700000D02*
X103755000Y-68700000D01*
X108055000Y-133700000D02*
X108055000Y-139800000D01*
X108055000Y-139800000D02*
X103755000Y-139800000D01*
%TO.C,J1*%
D16*
X108440000Y-54580000D02*
X108440000Y-53250000D01*
X109550000Y-54580000D02*
X108440000Y-54580000D01*
X111010000Y-42730000D02*
X110600000Y-42730000D01*
X111010000Y-43450000D02*
X110600000Y-43450000D01*
X111010000Y-45270000D02*
X110600000Y-45270000D01*
X111010000Y-45990000D02*
X110600000Y-45990000D01*
X111010000Y-47810000D02*
X110600000Y-47810000D01*
X111010000Y-48530000D02*
X110600000Y-48530000D01*
X111010000Y-50350000D02*
X110600000Y-50350000D01*
X111010000Y-51070000D02*
X110600000Y-51070000D01*
X111010000Y-52890000D02*
X110660000Y-52890000D01*
X111010000Y-53610000D02*
X110660000Y-53610000D01*
X111010000Y-54580000D02*
X111010000Y-41760000D01*
X119640000Y-41760000D02*
X111010000Y-41760000D01*
X119640000Y-44360000D02*
X111010000Y-44360000D01*
X119640000Y-46900000D02*
X111010000Y-46900000D01*
X119640000Y-49440000D02*
X111010000Y-49440000D01*
X119640000Y-51980000D02*
X111010000Y-51980000D01*
X119640000Y-54580000D02*
X111010000Y-54580000D01*
X119640000Y-54580000D02*
X119640000Y-41760000D01*
%TO.C,SW2*%
X53950000Y-68950000D02*
X56350000Y-68950000D01*
X53950000Y-73050000D02*
X53950000Y-68950000D01*
X53950000Y-77050000D02*
X53950000Y-81150000D01*
X53950000Y-81150000D02*
X65750000Y-81150000D01*
X55750000Y-82250000D02*
X56050000Y-82550000D01*
X55750000Y-82850000D02*
X55750000Y-82250000D01*
X56050000Y-82550000D02*
X55750000Y-82850000D01*
X58550000Y-68950000D02*
X61150000Y-68950000D01*
X59350000Y-75050000D02*
X60350000Y-75050000D01*
X59850000Y-75550000D02*
X59850000Y-74550000D01*
X63350000Y-68950000D02*
X65750000Y-68950000D01*
X65750000Y-68950000D02*
X65750000Y-73050000D01*
X65750000Y-77050000D02*
X65750000Y-81150000D01*
X62850000Y-75050000D02*
G75*
G02*
X56850000Y-75050000I-3000000J0D01*
G01*
X56850000Y-75050000D02*
G75*
G02*
X62850000Y-75050000I3000000J0D01*
G01*
%TO.C,SW4*%
X70950000Y-92050000D02*
X73350000Y-92050000D01*
X70950000Y-96150000D02*
X70950000Y-92050000D01*
X70950000Y-100150000D02*
X70950000Y-104250000D01*
X70950000Y-104250000D02*
X82750000Y-104250000D01*
X72750000Y-105350000D02*
X73050000Y-105650000D01*
X72750000Y-105950000D02*
X72750000Y-105350000D01*
X73050000Y-105650000D02*
X72750000Y-105950000D01*
X75550000Y-92050000D02*
X78150000Y-92050000D01*
X76350000Y-98150000D02*
X77350000Y-98150000D01*
X76850000Y-98650000D02*
X76850000Y-97650000D01*
X80350000Y-92050000D02*
X82750000Y-92050000D01*
X82750000Y-92050000D02*
X82750000Y-96150000D01*
X82750000Y-100150000D02*
X82750000Y-104250000D01*
X79850000Y-98150000D02*
G75*
G02*
X73850000Y-98150000I-3000000J0D01*
G01*
X73850000Y-98150000D02*
G75*
G02*
X79850000Y-98150000I3000000J0D01*
G01*
%TO.C,U4*%
D19*
X16360000Y-24150000D02*
X16360000Y-30450000D01*
X16360000Y-30450000D02*
X27308000Y-30450000D01*
X27308000Y-24150000D02*
X16360000Y-24150000D01*
X27308000Y-30450000D02*
X27308000Y-24150000D01*
%TO.C,SW1*%
D16*
X23650000Y-50150000D02*
X26050000Y-50150000D01*
X23650000Y-54250000D02*
X23650000Y-50150000D01*
X23650000Y-58250000D02*
X23650000Y-62350000D01*
X23650000Y-62350000D02*
X35450000Y-62350000D01*
X25450000Y-63450000D02*
X25750000Y-63750000D01*
X25450000Y-64050000D02*
X25450000Y-63450000D01*
X25750000Y-63750000D02*
X25450000Y-64050000D01*
X28250000Y-50150000D02*
X30850000Y-50150000D01*
X29050000Y-56250000D02*
X30050000Y-56250000D01*
X29550000Y-56750000D02*
X29550000Y-55750000D01*
X33050000Y-50150000D02*
X35450000Y-50150000D01*
X35450000Y-50150000D02*
X35450000Y-54250000D01*
X35450000Y-58250000D02*
X35450000Y-62350000D01*
X32550000Y-56250000D02*
G75*
G02*
X26550000Y-56250000I-3000000J0D01*
G01*
X26550000Y-56250000D02*
G75*
G02*
X32550000Y-56250000I3000000J0D01*
G01*
%TO.C,U3*%
D19*
X17770000Y-83020000D02*
X22470000Y-83020000D01*
X17770000Y-92320000D02*
X17770000Y-83020000D01*
X22470000Y-83020000D02*
X22470000Y-92320000D01*
X22470000Y-92320000D02*
X17770000Y-92320000D01*
%TO.C,C1*%
D16*
X102590302Y-30935000D02*
X103390302Y-30935000D01*
X102990302Y-30535000D02*
X102990302Y-31335000D01*
X107000000Y-29170000D02*
X107000000Y-37330000D01*
X107040000Y-29170000D02*
X107040000Y-37330000D01*
X107080000Y-29171000D02*
X107080000Y-37329000D01*
X107120000Y-29172000D02*
X107120000Y-37328000D01*
X107160000Y-29173000D02*
X107160000Y-37327000D01*
X107200000Y-29175000D02*
X107200000Y-37325000D01*
X107240000Y-29177000D02*
X107240000Y-37323000D01*
X107280000Y-29180000D02*
X107280000Y-37320000D01*
X107320000Y-29182000D02*
X107320000Y-37318000D01*
X107360000Y-29186000D02*
X107360000Y-37314000D01*
X107400000Y-29189000D02*
X107400000Y-37311000D01*
X107440000Y-29194000D02*
X107440000Y-37306000D01*
X107480000Y-29198000D02*
X107480000Y-37302000D01*
X107520000Y-29203000D02*
X107520000Y-37297000D01*
X107560000Y-29208000D02*
X107560000Y-37292000D01*
X107600000Y-29214000D02*
X107600000Y-37286000D01*
X107640000Y-29220000D02*
X107640000Y-37280000D01*
X107680000Y-29227000D02*
X107680000Y-37273000D01*
X107720000Y-29233000D02*
X107720000Y-32210000D01*
X107720000Y-34290000D02*
X107720000Y-37267000D01*
X107760000Y-29241000D02*
X107760000Y-32210000D01*
X107760000Y-34290000D02*
X107760000Y-37259000D01*
X107800000Y-29248000D02*
X107800000Y-32210000D01*
X107800000Y-34290000D02*
X107800000Y-37252000D01*
X107840000Y-29257000D02*
X107840000Y-32210000D01*
X107840000Y-34290000D02*
X107840000Y-37243000D01*
X107880000Y-29265000D02*
X107880000Y-32210000D01*
X107880000Y-34290000D02*
X107880000Y-37235000D01*
X107920000Y-29274000D02*
X107920000Y-32210000D01*
X107920000Y-34290000D02*
X107920000Y-37226000D01*
X107960000Y-29283000D02*
X107960000Y-32210000D01*
X107960000Y-34290000D02*
X107960000Y-37217000D01*
X108000000Y-29293000D02*
X108000000Y-32210000D01*
X108000000Y-34290000D02*
X108000000Y-37207000D01*
X108040000Y-29303000D02*
X108040000Y-32210000D01*
X108040000Y-34290000D02*
X108040000Y-37197000D01*
X108080000Y-29314000D02*
X108080000Y-32210000D01*
X108080000Y-34290000D02*
X108080000Y-37186000D01*
X108120000Y-29325000D02*
X108120000Y-32210000D01*
X108120000Y-34290000D02*
X108120000Y-37175000D01*
X108160000Y-29337000D02*
X108160000Y-32210000D01*
X108160000Y-34290000D02*
X108160000Y-37163000D01*
X108200000Y-29349000D02*
X108200000Y-32210000D01*
X108200000Y-34290000D02*
X108200000Y-37151000D01*
X108240000Y-29361000D02*
X108240000Y-32210000D01*
X108240000Y-34290000D02*
X108240000Y-37139000D01*
X108280000Y-29374000D02*
X108280000Y-32210000D01*
X108280000Y-34290000D02*
X108280000Y-37126000D01*
X108320000Y-29387000D02*
X108320000Y-32210000D01*
X108320000Y-34290000D02*
X108320000Y-37113000D01*
X108360000Y-29401000D02*
X108360000Y-32210000D01*
X108360000Y-34290000D02*
X108360000Y-37099000D01*
X108400000Y-29415000D02*
X108400000Y-32210000D01*
X108400000Y-34290000D02*
X108400000Y-37085000D01*
X108440000Y-29430000D02*
X108440000Y-32210000D01*
X108440000Y-34290000D02*
X108440000Y-37070000D01*
X108480000Y-29445000D02*
X108480000Y-32210000D01*
X108480000Y-34290000D02*
X108480000Y-37055000D01*
X108520000Y-29461000D02*
X108520000Y-32210000D01*
X108520000Y-34290000D02*
X108520000Y-37039000D01*
X108560000Y-29477000D02*
X108560000Y-32210000D01*
X108560000Y-34290000D02*
X108560000Y-37023000D01*
X108600000Y-29493000D02*
X108600000Y-32210000D01*
X108600000Y-34290000D02*
X108600000Y-37007000D01*
X108640000Y-29510000D02*
X108640000Y-32210000D01*
X108640000Y-34290000D02*
X108640000Y-36990000D01*
X108680000Y-29528000D02*
X108680000Y-32210000D01*
X108680000Y-34290000D02*
X108680000Y-36972000D01*
X108720000Y-29546000D02*
X108720000Y-32210000D01*
X108720000Y-34290000D02*
X108720000Y-36954000D01*
X108760000Y-29565000D02*
X108760000Y-32210000D01*
X108760000Y-34290000D02*
X108760000Y-36935000D01*
X108800000Y-29584000D02*
X108800000Y-32210000D01*
X108800000Y-34290000D02*
X108800000Y-36916000D01*
X108840000Y-29604000D02*
X108840000Y-32210000D01*
X108840000Y-34290000D02*
X108840000Y-36896000D01*
X108880000Y-29624000D02*
X108880000Y-32210000D01*
X108880000Y-34290000D02*
X108880000Y-36876000D01*
X108920000Y-29645000D02*
X108920000Y-32210000D01*
X108920000Y-34290000D02*
X108920000Y-36855000D01*
X108960000Y-29666000D02*
X108960000Y-32210000D01*
X108960000Y-34290000D02*
X108960000Y-36834000D01*
X109000000Y-29688000D02*
X109000000Y-32210000D01*
X109000000Y-34290000D02*
X109000000Y-36812000D01*
X109040000Y-29711000D02*
X109040000Y-32210000D01*
X109040000Y-34290000D02*
X109040000Y-36789000D01*
X109080000Y-29734000D02*
X109080000Y-32210000D01*
X109080000Y-34290000D02*
X109080000Y-36766000D01*
X109120000Y-29757000D02*
X109120000Y-32210000D01*
X109120000Y-34290000D02*
X109120000Y-36743000D01*
X109160000Y-29782000D02*
X109160000Y-32210000D01*
X109160000Y-34290000D02*
X109160000Y-36718000D01*
X109200000Y-29807000D02*
X109200000Y-32210000D01*
X109200000Y-34290000D02*
X109200000Y-36693000D01*
X109240000Y-29832000D02*
X109240000Y-32210000D01*
X109240000Y-34290000D02*
X109240000Y-36668000D01*
X109280000Y-29858000D02*
X109280000Y-32210000D01*
X109280000Y-34290000D02*
X109280000Y-36642000D01*
X109320000Y-29885000D02*
X109320000Y-32210000D01*
X109320000Y-34290000D02*
X109320000Y-36615000D01*
X109360000Y-29913000D02*
X109360000Y-32210000D01*
X109360000Y-34290000D02*
X109360000Y-36587000D01*
X109400000Y-29941000D02*
X109400000Y-32210000D01*
X109400000Y-34290000D02*
X109400000Y-36559000D01*
X109440000Y-29970000D02*
X109440000Y-32210000D01*
X109440000Y-34290000D02*
X109440000Y-36530000D01*
X109480000Y-30000000D02*
X109480000Y-32210000D01*
X109480000Y-34290000D02*
X109480000Y-36500000D01*
X109520000Y-30031000D02*
X109520000Y-32210000D01*
X109520000Y-34290000D02*
X109520000Y-36469000D01*
X109560000Y-30062000D02*
X109560000Y-32210000D01*
X109560000Y-34290000D02*
X109560000Y-36438000D01*
X109600000Y-30094000D02*
X109600000Y-32210000D01*
X109600000Y-34290000D02*
X109600000Y-36406000D01*
X109640000Y-30127000D02*
X109640000Y-32210000D01*
X109640000Y-34290000D02*
X109640000Y-36373000D01*
X109680000Y-30161000D02*
X109680000Y-32210000D01*
X109680000Y-34290000D02*
X109680000Y-36339000D01*
X109720000Y-30195000D02*
X109720000Y-32210000D01*
X109720000Y-34290000D02*
X109720000Y-36305000D01*
X109760000Y-30231000D02*
X109760000Y-32210000D01*
X109760000Y-34290000D02*
X109760000Y-36269000D01*
X109800000Y-30268000D02*
X109800000Y-36232000D01*
X109840000Y-30305000D02*
X109840000Y-36195000D01*
X109880000Y-30344000D02*
X109880000Y-36156000D01*
X109920000Y-30383000D02*
X109920000Y-36117000D01*
X109960000Y-30424000D02*
X109960000Y-36076000D01*
X110000000Y-30466000D02*
X110000000Y-36034000D01*
X110040000Y-30509000D02*
X110040000Y-35991000D01*
X110080000Y-30554000D02*
X110080000Y-35946000D01*
X110120000Y-30599000D02*
X110120000Y-35901000D01*
X110160000Y-30646000D02*
X110160000Y-35854000D01*
X110200000Y-30695000D02*
X110200000Y-35805000D01*
X110240000Y-30745000D02*
X110240000Y-35755000D01*
X110280000Y-30797000D02*
X110280000Y-35703000D01*
X110320000Y-30850000D02*
X110320000Y-35650000D01*
X110360000Y-30906000D02*
X110360000Y-35594000D01*
X110400000Y-30963000D02*
X110400000Y-35537000D01*
X110440000Y-31023000D02*
X110440000Y-35477000D01*
X110480000Y-31085000D02*
X110480000Y-35415000D01*
X110520000Y-31149000D02*
X110520000Y-35351000D01*
X110560000Y-31216000D02*
X110560000Y-35284000D01*
X110600000Y-31286000D02*
X110600000Y-35214000D01*
X110640000Y-31360000D02*
X110640000Y-35140000D01*
X110680000Y-31437000D02*
X110680000Y-35063000D01*
X110720000Y-31519000D02*
X110720000Y-34981000D01*
X110760000Y-31606000D02*
X110760000Y-34894000D01*
X110800000Y-31698000D02*
X110800000Y-34802000D01*
X110840000Y-31797000D02*
X110840000Y-34703000D01*
X110880000Y-31904000D02*
X110880000Y-34596000D01*
X110920000Y-32022000D02*
X110920000Y-34478000D01*
X110960000Y-32153000D02*
X110960000Y-34347000D01*
X111000000Y-32303000D02*
X111000000Y-34197000D01*
X111040000Y-32482000D02*
X111040000Y-34018000D01*
X111080000Y-32717000D02*
X111080000Y-33783000D01*
X111120000Y-33250000D02*
G75*
G02*
X102880000Y-33250000I-4120000J0D01*
G01*
X102880000Y-33250000D02*
G75*
G02*
X111120000Y-33250000I4120000J0D01*
G01*
%TD*%
M02*
