M48
; DRILL file KiCad 10.0.1 date 2026-08-18T09:52:42
; FORMAT={-:-/ absolute / metric / decimal}
; #@! TF.CreationDate,2026-08-18T09:52:42+02:00
; #@! TF.GenerationSoftware,Kicad,Pcbnew,10.0.1
; #@! TF.FileFunction,Plated,1,2,PTH
FMAT,2
METRIC
; #@! TA.AperFunction,Plated,PTH,ViaDrill
T1C0.300
; #@! TA.AperFunction,Plated,PTH,ComponentDrill
T2C0.600
; #@! TA.AperFunction,Plated,PTH,ComponentDrill
T3C0.800
; #@! TA.AperFunction,Plated,PTH,ComponentDrill
T4C1.000
; #@! TA.AperFunction,Plated,PTH,ComponentDrill
T5C1.200
; #@! TA.AperFunction,Plated,PTH,ComponentDrill
T6C1.500
; #@! TA.AperFunction,Plated,PTH,ComponentDrill
T7C2.500
%
G90
G05
T1
X33.185Y-110.148
X42.906Y-73.903
X55.996Y-103.246
X63.911Y-92.29
X64.402Y-59.749
X66.136Y-50.875
X70.741Y-109.688
X72.104Y-62.708
T2
X18.0Y-83.36
X18.0Y-92.0
X22.18Y-83.36
X22.18Y-92.0
T3
X105.25Y-33.25
X108.75Y-33.25
T4
X21.73Y-34.92
X23.839Y-111.204
X23.839Y-113.744
X24.27Y-19.68
X24.27Y-34.92
X26.379Y-111.204
X26.379Y-113.744
X26.81Y-19.68
X26.81Y-34.92
X26.83Y-78.79
X26.83Y-81.33
X26.83Y-83.87
X26.83Y-86.41
X26.83Y-88.95
X26.83Y-91.49
X26.83Y-94.03
X26.83Y-96.57
X27.05Y-49.25
X27.05Y-63.75
X28.919Y-111.204
X28.919Y-113.744
X29.35Y-19.68
X29.35Y-34.92
X29.55Y-63.75
X31.459Y-111.204
X31.459Y-113.744
X31.89Y-19.68
X31.89Y-34.92
X32.05Y-49.25
X32.05Y-63.75
X33.999Y-111.204
X33.999Y-113.744
X34.43Y-19.68
X34.43Y-34.92
X36.539Y-111.204
X36.539Y-113.744
X36.97Y-19.68
X36.97Y-34.92
X39.079Y-111.204
X39.079Y-113.744
X39.51Y-34.92
X40.35Y-91.15
X40.35Y-105.65
X41.619Y-111.204
X41.619Y-113.744
X42.85Y-105.65
X44.159Y-111.204
X44.159Y-113.744
X45.35Y-91.15
X45.35Y-105.65
X46.699Y-111.204
X46.699Y-113.744
X49.239Y-111.204
X49.239Y-113.744
X51.779Y-111.204
X51.779Y-113.744
X54.319Y-111.204
X54.319Y-113.744
X56.859Y-111.204
X56.859Y-113.744
X57.35Y-68.05
X57.35Y-82.55
X57.904Y-23.8
X57.904Y-26.34
X57.904Y-28.88
X57.904Y-31.42
X57.904Y-33.96
X57.904Y-36.5
X57.904Y-39.04
X57.904Y-41.58
X57.904Y-44.12
X57.904Y-46.66
X57.904Y-49.2
X59.399Y-111.204
X59.399Y-113.744
X59.85Y-82.55
X61.939Y-111.204
X61.939Y-113.744
X62.35Y-68.05
X62.35Y-82.55
X64.479Y-111.204
X64.479Y-113.744
X67.019Y-111.204
X67.019Y-113.744
X69.559Y-111.204
X69.559Y-113.744
X72.099Y-111.204
X72.099Y-113.744
X74.35Y-91.15
X74.35Y-105.65
X76.85Y-105.65
X79.35Y-91.15
X79.35Y-105.65
X100.16Y-94.85
X100.16Y-97.39
X100.16Y-99.93
X100.16Y-102.47
X100.16Y-105.01
X100.16Y-107.55
X109.55Y-43.09
X109.55Y-45.63
X109.55Y-48.17
X109.55Y-50.71
X109.55Y-53.25
X117.94Y-94.85
X117.94Y-97.39
X117.94Y-99.93
X117.94Y-102.47
X117.94Y-105.01
X117.94Y-107.55
T5
X35.4Y-73.2
X35.4Y-83.36
T7
X17.92Y-19.68
X17.92Y-34.92
X17.94Y-80.06
X17.94Y-95.3
X18.969Y-112.474
X18.969Y-135.474
X43.32Y-19.68
X43.32Y-34.92
X58.92Y-17.45
X58.92Y-55.55
X76.969Y-112.474
X76.969Y-135.474
X95.75Y-17.45
X95.75Y-55.55
X100.795Y-82.15
X100.795Y-120.25
X117.305Y-82.15
X117.305Y-120.25
T6
X23.95Y-56.9G85X23.95Y-55.6
G05
X35.15Y-56.9G85X35.15Y-55.6
G05
X37.25Y-98.8G85X37.25Y-97.5
G05
X48.45Y-98.8G85X48.45Y-97.5
G05
X54.25Y-75.7G85X54.25Y-74.4
G05
X65.45Y-75.7G85X65.45Y-74.4
G05
X71.25Y-98.8G85X71.25Y-97.5
G05
X82.45Y-98.8G85X82.45Y-97.5
G05
M30
