%TF.GenerationSoftware,KiCad,Pcbnew,10.0.1*%
%TF.CreationDate,2026-08-18T09:52:42+02:00*%
%TF.ProjectId,octessera,6f637465-7373-4657-9261-2e6b69636164,rev?*%
%TF.SameCoordinates,Original*%
%TF.FileFunction,Soldermask,Bot*%
%TF.FilePolarity,Negative*%
%FSLAX46Y46*%
G04 Gerber Fmt 4.6, Leading zero omitted, Abs format (unit mm)*
G04 Created by KiCad (PCBNEW 10.0.1) date 2026-08-18 09:52:42*
%MOMM*%
%LPD*%
G01*
G04 APERTURE LIST*
G04 Aperture macros list*
%AMRoundRect*
0 Rectangle with rounded corners*
0 $1 Rounding radius*
0 $2 $3 $4 $5 $6 $7 $8 $9 X,Y pos of 4 corners*
0 Add a 4 corners polygon primitive as box body*
4,1,4,$2,$3,$4,$5,$6,$7,$8,$9,$2,$3,0*
0 Add four circle primitives for the rounded corners*
1,1,$1+$1,$2,$3*
1,1,$1+$1,$4,$5*
1,1,$1+$1,$6,$7*
1,1,$1+$1,$8,$9*
0 Add four rect primitives between the rounded corners*
20,1,$1+$1,$2,$3,$4,$5,0*
20,1,$1+$1,$4,$5,$6,$7,0*
20,1,$1+$1,$6,$7,$8,$9,0*
20,1,$1+$1,$8,$9,$2,$3,0*%
G04 Aperture macros list end*
%ADD10RoundRect,0.102000X-0.754000X-0.754000X0.754000X-0.754000X0.754000X0.754000X-0.754000X0.754000X0*%
%ADD11C,1.712000*%
%ADD12C,3.200000*%
%ADD13RoundRect,0.250001X0.949999X-0.949999X0.949999X0.949999X-0.949999X0.949999X-0.949999X-0.949999X0*%
%ADD14C,2.400000*%
%ADD15C,1.930400*%
%ADD16R,2.000000X2.000000*%
%ADD17C,2.000000*%
%ADD18R,2.000000X3.200000*%
%ADD19C,1.778000*%
%ADD20C,1.700000*%
%ADD21C,1.676400*%
%ADD22O,1.600000X1.000000*%
%ADD23RoundRect,0.250000X-0.550000X-0.550000X0.550000X-0.550000X0.550000X0.550000X-0.550000X0.550000X0*%
%ADD24C,1.600000*%
G04 APERTURE END LIST*
D10*
%TO.C,U1*%
X23839200Y-113743900D03*
D11*
X23839200Y-111203900D03*
X26379200Y-113743900D03*
X26379200Y-111203900D03*
X28919200Y-113743900D03*
X28919200Y-111203900D03*
X31459200Y-113743900D03*
X31459200Y-111203900D03*
X33999200Y-113743900D03*
X33999200Y-111203900D03*
X36539200Y-113743900D03*
X36539200Y-111203900D03*
X39079200Y-113743900D03*
X39079200Y-111203900D03*
X41619200Y-113743900D03*
X41619200Y-111203900D03*
X44159200Y-113743900D03*
X44159200Y-111203900D03*
X46699200Y-113743900D03*
X46699200Y-111203900D03*
X49239200Y-113743900D03*
X49239200Y-111203900D03*
X51779200Y-113743900D03*
X51779200Y-111203900D03*
X54319200Y-113743900D03*
X54319200Y-111203900D03*
X56859200Y-113743900D03*
X56859200Y-111203900D03*
X59399200Y-113743900D03*
X59399200Y-111203900D03*
X61939200Y-113743900D03*
X61939200Y-111203900D03*
X64479200Y-113743900D03*
X64479200Y-111203900D03*
X67019200Y-113743900D03*
X67019200Y-111203900D03*
X69559200Y-113743900D03*
X69559200Y-111203900D03*
X72099200Y-113743900D03*
X72099200Y-111203900D03*
D12*
X18969200Y-112473900D03*
X18969200Y-135473900D03*
X76969200Y-112473900D03*
X76969200Y-135473900D03*
%TD*%
D13*
%TO.C,D1*%
X35400000Y-83360000D03*
D14*
X35400000Y-73200000D03*
%TD*%
D15*
%TO.C,U2*%
X57904000Y-26340000D03*
X57904000Y-28880000D03*
X57904000Y-31420000D03*
X57904000Y-46660000D03*
X57904000Y-44120000D03*
X57904000Y-23800000D03*
D12*
X95750000Y-17450000D03*
X95750000Y-55550000D03*
X58920000Y-55550000D03*
X58920000Y-17450000D03*
D15*
X57904000Y-39040000D03*
X57904000Y-41580000D03*
X57904000Y-36500000D03*
X57904000Y-49200000D03*
X57904000Y-33960000D03*
%TD*%
D16*
%TO.C,SW3*%
X40350000Y-105650000D03*
D17*
X45350000Y-105650000D03*
X42850000Y-105650000D03*
D18*
X37250000Y-98150000D03*
X48450000Y-98150000D03*
D17*
X45350000Y-91150000D03*
X40350000Y-91150000D03*
%TD*%
D19*
%TO.C,U5*%
X100160000Y-99930000D03*
X117940000Y-99930000D03*
X100160000Y-97390000D03*
X117940000Y-97390000D03*
X100160000Y-102470000D03*
X117940000Y-102470000D03*
X100160000Y-105010000D03*
X117940000Y-105010000D03*
X100160000Y-107550000D03*
X117940000Y-107550000D03*
D12*
X117305000Y-82150000D03*
X117305000Y-120250000D03*
X100795000Y-82150000D03*
X100795000Y-120250000D03*
D19*
X100160000Y-94850000D03*
X117940000Y-94850000D03*
%TD*%
D20*
%TO.C,J1*%
X109550000Y-53250000D03*
X109550000Y-50710000D03*
X109550000Y-48170000D03*
X109550000Y-45630000D03*
X109550000Y-43090000D03*
%TD*%
D16*
%TO.C,SW2*%
X57350000Y-82550000D03*
D17*
X62350000Y-82550000D03*
X59850000Y-82550000D03*
D18*
X54250000Y-75050000D03*
X65450000Y-75050000D03*
D17*
X62350000Y-68050000D03*
X57350000Y-68050000D03*
%TD*%
D16*
%TO.C,SW4*%
X74350000Y-105650000D03*
D17*
X79350000Y-105650000D03*
X76850000Y-105650000D03*
D18*
X71250000Y-98150000D03*
X82450000Y-98150000D03*
D17*
X79350000Y-91150000D03*
X74350000Y-91150000D03*
%TD*%
D19*
%TO.C,U4*%
X24270000Y-19680000D03*
D21*
X29350000Y-34920000D03*
D19*
X36970000Y-19680000D03*
D21*
X31890000Y-34920000D03*
D19*
X34430000Y-19680000D03*
X26810000Y-19680000D03*
D21*
X24270000Y-34920000D03*
X36970000Y-34920000D03*
X26810000Y-34920000D03*
D19*
X31890000Y-19680000D03*
D12*
X43320000Y-34920000D03*
X17920000Y-34920000D03*
X43320000Y-19680000D03*
X17920000Y-19680000D03*
D19*
X29350000Y-19680000D03*
D21*
X21730000Y-34920000D03*
X39510000Y-34920000D03*
X34430000Y-34920000D03*
%TD*%
D16*
%TO.C,SW1*%
X27050000Y-63750000D03*
D17*
X32050000Y-63750000D03*
X29550000Y-63750000D03*
D18*
X23950000Y-56250000D03*
X35150000Y-56250000D03*
D17*
X32050000Y-49250000D03*
X27050000Y-49250000D03*
%TD*%
D15*
%TO.C,U3*%
X26830000Y-88950000D03*
X26830000Y-78790000D03*
X26830000Y-83870000D03*
X26830000Y-86410000D03*
X26830000Y-96570000D03*
D22*
X22180000Y-92000000D03*
X22180000Y-83360000D03*
X18000000Y-92000000D03*
X18000000Y-83360000D03*
D12*
X17940000Y-80060000D03*
X17940000Y-95300000D03*
D15*
X26830000Y-81330000D03*
X26830000Y-91490000D03*
X26830000Y-94030000D03*
%TD*%
D23*
%TO.C,C1*%
X105250000Y-33250000D03*
D24*
X108750000Y-33250000D03*
%TD*%
M02*
